G04 #@! TF.FileFunction,Legend,Top*
%FSLAX46Y46*%
G04 Gerber Fmt 4.6, Leading zero omitted, Abs format (unit mm)*
G04 Created by KiCad (PCBNEW 4.0.7) date 02/23/18 16:34:00*
%MOMM*%
%LPD*%
G01*
G04 APERTURE LIST*
%ADD10C,0.100000*%
%ADD11C,0.300000*%
%ADD12C,0.250000*%
%ADD13C,0.200000*%
%ADD14C,0.150000*%
%ADD15C,0.120000*%
%ADD16C,0.010000*%
%ADD17C,0.050000*%
G04 APERTURE END LIST*
D10*
D11*
X216078571Y-123485714D02*
X214578571Y-123485714D01*
X214578571Y-122914286D01*
X214650000Y-122771428D01*
X214721429Y-122700000D01*
X214864286Y-122628571D01*
X215078571Y-122628571D01*
X215221429Y-122700000D01*
X215292857Y-122771428D01*
X215364286Y-122914286D01*
X215364286Y-123485714D01*
X216078571Y-121271428D02*
X216078571Y-121985714D01*
X214578571Y-121985714D01*
X215650000Y-120842857D02*
X215650000Y-120128571D01*
X216078571Y-120985714D02*
X214578571Y-120485714D01*
X216078571Y-119985714D01*
X215364286Y-119200000D02*
X216078571Y-119200000D01*
X214578571Y-119700000D02*
X215364286Y-119200000D01*
X214578571Y-118700000D01*
D12*
X231185714Y-158329762D02*
X231328571Y-158377381D01*
X231566667Y-158377381D01*
X231661905Y-158329762D01*
X231709524Y-158282143D01*
X231757143Y-158186905D01*
X231757143Y-158091667D01*
X231709524Y-157996429D01*
X231661905Y-157948810D01*
X231566667Y-157901190D01*
X231376190Y-157853571D01*
X231280952Y-157805952D01*
X231233333Y-157758333D01*
X231185714Y-157663095D01*
X231185714Y-157567857D01*
X231233333Y-157472619D01*
X231280952Y-157425000D01*
X231376190Y-157377381D01*
X231614286Y-157377381D01*
X231757143Y-157425000D01*
X232614286Y-158377381D02*
X232614286Y-157853571D01*
X232566667Y-157758333D01*
X232471429Y-157710714D01*
X232280952Y-157710714D01*
X232185714Y-157758333D01*
X232614286Y-158329762D02*
X232519048Y-158377381D01*
X232280952Y-158377381D01*
X232185714Y-158329762D01*
X232138095Y-158234524D01*
X232138095Y-158139286D01*
X232185714Y-158044048D01*
X232280952Y-157996429D01*
X232519048Y-157996429D01*
X232614286Y-157948810D01*
X233090476Y-158377381D02*
X233090476Y-157710714D01*
X233090476Y-157805952D02*
X233138095Y-157758333D01*
X233233333Y-157710714D01*
X233376191Y-157710714D01*
X233471429Y-157758333D01*
X233519048Y-157853571D01*
X233519048Y-158377381D01*
X233519048Y-157853571D02*
X233566667Y-157758333D01*
X233661905Y-157710714D01*
X233804762Y-157710714D01*
X233900000Y-157758333D01*
X233947619Y-157853571D01*
X233947619Y-158377381D01*
X235185714Y-158377381D02*
X235185714Y-157377381D01*
X235566667Y-157377381D01*
X235661905Y-157425000D01*
X235709524Y-157472619D01*
X235757143Y-157567857D01*
X235757143Y-157710714D01*
X235709524Y-157805952D01*
X235661905Y-157853571D01*
X235566667Y-157901190D01*
X235185714Y-157901190D01*
X236566667Y-158329762D02*
X236471429Y-158377381D01*
X236280952Y-158377381D01*
X236185714Y-158329762D01*
X236138095Y-158234524D01*
X236138095Y-157853571D01*
X236185714Y-157758333D01*
X236280952Y-157710714D01*
X236471429Y-157710714D01*
X236566667Y-157758333D01*
X236614286Y-157853571D01*
X236614286Y-157948810D01*
X236138095Y-158044048D01*
X237042857Y-158377381D02*
X237042857Y-157710714D01*
X237042857Y-157901190D02*
X237090476Y-157805952D01*
X237138095Y-157758333D01*
X237233333Y-157710714D01*
X237328572Y-157710714D01*
X237661905Y-158377381D02*
X237661905Y-157710714D01*
X237661905Y-157901190D02*
X237709524Y-157805952D01*
X237757143Y-157758333D01*
X237852381Y-157710714D01*
X237947620Y-157710714D01*
X238185715Y-157710714D02*
X238423810Y-158377381D01*
X238661906Y-157710714D02*
X238423810Y-158377381D01*
X238328572Y-158615476D01*
X238280953Y-158663095D01*
X238185715Y-158710714D01*
X231876191Y-159603571D02*
X231542857Y-159603571D01*
X231542857Y-160127381D02*
X231542857Y-159127381D01*
X232019048Y-159127381D01*
X232780953Y-160079762D02*
X232685715Y-160127381D01*
X232495238Y-160127381D01*
X232400000Y-160079762D01*
X232352381Y-159984524D01*
X232352381Y-159603571D01*
X232400000Y-159508333D01*
X232495238Y-159460714D01*
X232685715Y-159460714D01*
X232780953Y-159508333D01*
X232828572Y-159603571D01*
X232828572Y-159698810D01*
X232352381Y-159794048D01*
X233257143Y-160127381D02*
X233257143Y-159127381D01*
X233257143Y-159508333D02*
X233352381Y-159460714D01*
X233542858Y-159460714D01*
X233638096Y-159508333D01*
X233685715Y-159555952D01*
X233733334Y-159651190D01*
X233733334Y-159936905D01*
X233685715Y-160032143D01*
X233638096Y-160079762D01*
X233542858Y-160127381D01*
X233352381Y-160127381D01*
X233257143Y-160079762D01*
X234876191Y-159222619D02*
X234923810Y-159175000D01*
X235019048Y-159127381D01*
X235257144Y-159127381D01*
X235352382Y-159175000D01*
X235400001Y-159222619D01*
X235447620Y-159317857D01*
X235447620Y-159413095D01*
X235400001Y-159555952D01*
X234828572Y-160127381D01*
X235447620Y-160127381D01*
X236066667Y-159127381D02*
X236161906Y-159127381D01*
X236257144Y-159175000D01*
X236304763Y-159222619D01*
X236352382Y-159317857D01*
X236400001Y-159508333D01*
X236400001Y-159746429D01*
X236352382Y-159936905D01*
X236304763Y-160032143D01*
X236257144Y-160079762D01*
X236161906Y-160127381D01*
X236066667Y-160127381D01*
X235971429Y-160079762D01*
X235923810Y-160032143D01*
X235876191Y-159936905D01*
X235828572Y-159746429D01*
X235828572Y-159508333D01*
X235876191Y-159317857D01*
X235923810Y-159222619D01*
X235971429Y-159175000D01*
X236066667Y-159127381D01*
X237352382Y-160127381D02*
X236780953Y-160127381D01*
X237066667Y-160127381D02*
X237066667Y-159127381D01*
X236971429Y-159270238D01*
X236876191Y-159365476D01*
X236780953Y-159413095D01*
X237923810Y-159555952D02*
X237828572Y-159508333D01*
X237780953Y-159460714D01*
X237733334Y-159365476D01*
X237733334Y-159317857D01*
X237780953Y-159222619D01*
X237828572Y-159175000D01*
X237923810Y-159127381D01*
X238114287Y-159127381D01*
X238209525Y-159175000D01*
X238257144Y-159222619D01*
X238304763Y-159317857D01*
X238304763Y-159365476D01*
X238257144Y-159460714D01*
X238209525Y-159508333D01*
X238114287Y-159555952D01*
X237923810Y-159555952D01*
X237828572Y-159603571D01*
X237780953Y-159651190D01*
X237733334Y-159746429D01*
X237733334Y-159936905D01*
X237780953Y-160032143D01*
X237828572Y-160079762D01*
X237923810Y-160127381D01*
X238114287Y-160127381D01*
X238209525Y-160079762D01*
X238257144Y-160032143D01*
X238304763Y-159936905D01*
X238304763Y-159746429D01*
X238257144Y-159651190D01*
X238209525Y-159603571D01*
X238114287Y-159555952D01*
D11*
X212278571Y-114750000D02*
X213492857Y-114750000D01*
X213635714Y-114821429D01*
X213707143Y-114892857D01*
X213778571Y-115035714D01*
X213778571Y-115250000D01*
X213707143Y-115392857D01*
X213207143Y-114750000D02*
X213278571Y-114892857D01*
X213278571Y-115178571D01*
X213207143Y-115321429D01*
X213135714Y-115392857D01*
X212992857Y-115464286D01*
X212564286Y-115464286D01*
X212421429Y-115392857D01*
X212350000Y-115321429D01*
X212278571Y-115178571D01*
X212278571Y-114892857D01*
X212350000Y-114750000D01*
X213278571Y-114035714D02*
X212278571Y-114035714D01*
X211778571Y-114035714D02*
X211850000Y-114107143D01*
X211921429Y-114035714D01*
X211850000Y-113964286D01*
X211778571Y-114035714D01*
X211921429Y-114035714D01*
X212278571Y-113535714D02*
X212278571Y-112964285D01*
X211778571Y-113321428D02*
X213064286Y-113321428D01*
X213207143Y-113250000D01*
X213278571Y-113107142D01*
X213278571Y-112964285D01*
X213278571Y-112464285D02*
X211778571Y-112464285D01*
X213278571Y-111821428D02*
X212492857Y-111821428D01*
X212350000Y-111892857D01*
X212278571Y-112035714D01*
X212278571Y-112249999D01*
X212350000Y-112392857D01*
X212421429Y-112464285D01*
X212278571Y-110464285D02*
X213278571Y-110464285D01*
X212278571Y-111107142D02*
X213064286Y-111107142D01*
X213207143Y-111035714D01*
X213278571Y-110892856D01*
X213278571Y-110678571D01*
X213207143Y-110535714D01*
X213135714Y-110464285D01*
X213278571Y-109749999D02*
X211778571Y-109749999D01*
X212350000Y-109749999D02*
X212278571Y-109607142D01*
X212278571Y-109321428D01*
X212350000Y-109178571D01*
X212421429Y-109107142D01*
X212564286Y-109035713D01*
X212992857Y-109035713D01*
X213135714Y-109107142D01*
X213207143Y-109178571D01*
X213278571Y-109321428D01*
X213278571Y-109607142D01*
X213207143Y-109749999D01*
X213135714Y-108392856D02*
X213207143Y-108321428D01*
X213278571Y-108392856D01*
X213207143Y-108464285D01*
X213135714Y-108392856D01*
X213278571Y-108392856D01*
X213207143Y-107035713D02*
X213278571Y-107178570D01*
X213278571Y-107464284D01*
X213207143Y-107607142D01*
X213135714Y-107678570D01*
X212992857Y-107749999D01*
X212564286Y-107749999D01*
X212421429Y-107678570D01*
X212350000Y-107607142D01*
X212278571Y-107464284D01*
X212278571Y-107178570D01*
X212350000Y-107035713D01*
X213278571Y-106178570D02*
X213207143Y-106321428D01*
X213135714Y-106392856D01*
X212992857Y-106464285D01*
X212564286Y-106464285D01*
X212421429Y-106392856D01*
X212350000Y-106321428D01*
X212278571Y-106178570D01*
X212278571Y-105964285D01*
X212350000Y-105821428D01*
X212421429Y-105749999D01*
X212564286Y-105678570D01*
X212992857Y-105678570D01*
X213135714Y-105749999D01*
X213207143Y-105821428D01*
X213278571Y-105964285D01*
X213278571Y-106178570D01*
X213278571Y-105035713D02*
X212278571Y-105035713D01*
X212421429Y-105035713D02*
X212350000Y-104964285D01*
X212278571Y-104821427D01*
X212278571Y-104607142D01*
X212350000Y-104464285D01*
X212492857Y-104392856D01*
X213278571Y-104392856D01*
X212492857Y-104392856D02*
X212350000Y-104321427D01*
X212278571Y-104178570D01*
X212278571Y-103964285D01*
X212350000Y-103821427D01*
X212492857Y-103749999D01*
X213278571Y-103749999D01*
X211707143Y-101964285D02*
X213635714Y-103249999D01*
X213207143Y-101535713D02*
X213278571Y-101392856D01*
X213278571Y-101107141D01*
X213207143Y-100964284D01*
X213064286Y-100892856D01*
X212992857Y-100892856D01*
X212850000Y-100964284D01*
X212778571Y-101107141D01*
X212778571Y-101321427D01*
X212707143Y-101464284D01*
X212564286Y-101535713D01*
X212492857Y-101535713D01*
X212350000Y-101464284D01*
X212278571Y-101321427D01*
X212278571Y-101107141D01*
X212350000Y-100964284D01*
X213278571Y-99607141D02*
X211778571Y-99607141D01*
X213207143Y-99607141D02*
X213278571Y-99749998D01*
X213278571Y-100035712D01*
X213207143Y-100178570D01*
X213135714Y-100249998D01*
X212992857Y-100321427D01*
X212564286Y-100321427D01*
X212421429Y-100249998D01*
X212350000Y-100178570D01*
X212278571Y-100035712D01*
X212278571Y-99749998D01*
X212350000Y-99607141D01*
X212278571Y-98892855D02*
X213778571Y-98892855D01*
X212350000Y-98892855D02*
X212278571Y-98749998D01*
X212278571Y-98464284D01*
X212350000Y-98321427D01*
X212421429Y-98249998D01*
X212564286Y-98178569D01*
X212992857Y-98178569D01*
X213135714Y-98249998D01*
X213207143Y-98321427D01*
X213278571Y-98464284D01*
X213278571Y-98749998D01*
X213207143Y-98892855D01*
X212421429Y-97321426D02*
X212350000Y-97464284D01*
X212278571Y-97535712D01*
X212135714Y-97607141D01*
X212064286Y-97607141D01*
X211921429Y-97535712D01*
X211850000Y-97464284D01*
X211778571Y-97321426D01*
X211778571Y-97035712D01*
X211850000Y-96892855D01*
X211921429Y-96821426D01*
X212064286Y-96749998D01*
X212135714Y-96749998D01*
X212278571Y-96821426D01*
X212350000Y-96892855D01*
X212421429Y-97035712D01*
X212421429Y-97321426D01*
X212492857Y-97464284D01*
X212564286Y-97535712D01*
X212707143Y-97607141D01*
X212992857Y-97607141D01*
X213135714Y-97535712D01*
X213207143Y-97464284D01*
X213278571Y-97321426D01*
X213278571Y-97035712D01*
X213207143Y-96892855D01*
X213135714Y-96821426D01*
X212992857Y-96749998D01*
X212707143Y-96749998D01*
X212564286Y-96821426D01*
X212492857Y-96892855D01*
X212421429Y-97035712D01*
X212278571Y-95464284D02*
X213278571Y-95464284D01*
X211707143Y-95821427D02*
X212778571Y-96178570D01*
X212778571Y-95249998D01*
X212421429Y-94464284D02*
X212350000Y-94607142D01*
X212278571Y-94678570D01*
X212135714Y-94749999D01*
X212064286Y-94749999D01*
X211921429Y-94678570D01*
X211850000Y-94607142D01*
X211778571Y-94464284D01*
X211778571Y-94178570D01*
X211850000Y-94035713D01*
X211921429Y-93964284D01*
X212064286Y-93892856D01*
X212135714Y-93892856D01*
X212278571Y-93964284D01*
X212350000Y-94035713D01*
X212421429Y-94178570D01*
X212421429Y-94464284D01*
X212492857Y-94607142D01*
X212564286Y-94678570D01*
X212707143Y-94749999D01*
X212992857Y-94749999D01*
X213135714Y-94678570D01*
X213207143Y-94607142D01*
X213278571Y-94464284D01*
X213278571Y-94178570D01*
X213207143Y-94035713D01*
X213135714Y-93964284D01*
X212992857Y-93892856D01*
X212707143Y-93892856D01*
X212564286Y-93964284D01*
X212492857Y-94035713D01*
X212421429Y-94178570D01*
X211778571Y-93392856D02*
X211778571Y-92464285D01*
X212350000Y-92964285D01*
X212350000Y-92749999D01*
X212421429Y-92607142D01*
X212492857Y-92535713D01*
X212635714Y-92464285D01*
X212992857Y-92464285D01*
X213135714Y-92535713D01*
X213207143Y-92607142D01*
X213278571Y-92749999D01*
X213278571Y-93178571D01*
X213207143Y-93321428D01*
X213135714Y-93392856D01*
X211707143Y-90750000D02*
X213635714Y-92035714D01*
X212278571Y-90464285D02*
X212278571Y-89892856D01*
X211778571Y-90249999D02*
X213064286Y-90249999D01*
X213207143Y-90178571D01*
X213278571Y-90035713D01*
X213278571Y-89892856D01*
X213278571Y-89392856D02*
X212278571Y-89392856D01*
X212564286Y-89392856D02*
X212421429Y-89321428D01*
X212350000Y-89249999D01*
X212278571Y-89107142D01*
X212278571Y-88964285D01*
X213278571Y-87821428D02*
X212492857Y-87821428D01*
X212350000Y-87892857D01*
X212278571Y-88035714D01*
X212278571Y-88321428D01*
X212350000Y-88464285D01*
X213207143Y-87821428D02*
X213278571Y-87964285D01*
X213278571Y-88321428D01*
X213207143Y-88464285D01*
X213064286Y-88535714D01*
X212921429Y-88535714D01*
X212778571Y-88464285D01*
X212707143Y-88321428D01*
X212707143Y-87964285D01*
X212635714Y-87821428D01*
X213278571Y-87107142D02*
X212278571Y-87107142D01*
X211778571Y-87107142D02*
X211850000Y-87178571D01*
X211921429Y-87107142D01*
X211850000Y-87035714D01*
X211778571Y-87107142D01*
X211921429Y-87107142D01*
X212278571Y-86392856D02*
X213278571Y-86392856D01*
X212421429Y-86392856D02*
X212350000Y-86321428D01*
X212278571Y-86178570D01*
X212278571Y-85964285D01*
X212350000Y-85821428D01*
X212492857Y-85749999D01*
X213278571Y-85749999D01*
X213421429Y-85392856D02*
X213421429Y-84249999D01*
X213278571Y-83892856D02*
X211778571Y-83892856D01*
X213278571Y-83249999D02*
X212492857Y-83249999D01*
X212350000Y-83321428D01*
X212278571Y-83464285D01*
X212278571Y-83678570D01*
X212350000Y-83821428D01*
X212421429Y-83892856D01*
X213278571Y-82321427D02*
X213207143Y-82464285D01*
X213135714Y-82535713D01*
X212992857Y-82607142D01*
X212564286Y-82607142D01*
X212421429Y-82535713D01*
X212350000Y-82464285D01*
X212278571Y-82321427D01*
X212278571Y-82107142D01*
X212350000Y-81964285D01*
X212421429Y-81892856D01*
X212564286Y-81821427D01*
X212992857Y-81821427D01*
X213135714Y-81892856D01*
X213207143Y-81964285D01*
X213278571Y-82107142D01*
X213278571Y-82321427D01*
X213278571Y-81178570D02*
X212278571Y-81178570D01*
X212564286Y-81178570D02*
X212421429Y-81107142D01*
X212350000Y-81035713D01*
X212278571Y-80892856D01*
X212278571Y-80749999D01*
X212278571Y-80249999D02*
X213278571Y-80249999D01*
X212421429Y-80249999D02*
X212350000Y-80178571D01*
X212278571Y-80035713D01*
X212278571Y-79821428D01*
X212350000Y-79678571D01*
X212492857Y-79607142D01*
X213278571Y-79607142D01*
D12*
X240414286Y-136527381D02*
X239938095Y-136527381D01*
X239938095Y-135527381D01*
X240938095Y-135527381D02*
X241128572Y-135527381D01*
X241223810Y-135575000D01*
X241319048Y-135670238D01*
X241366667Y-135860714D01*
X241366667Y-136194048D01*
X241319048Y-136384524D01*
X241223810Y-136479762D01*
X241128572Y-136527381D01*
X240938095Y-136527381D01*
X240842857Y-136479762D01*
X240747619Y-136384524D01*
X240700000Y-136194048D01*
X240700000Y-135860714D01*
X240747619Y-135670238D01*
X240842857Y-135575000D01*
X240938095Y-135527381D01*
X241700000Y-135527381D02*
X241938095Y-136527381D01*
X242128572Y-135813095D01*
X242319048Y-136527381D01*
X242557143Y-135527381D01*
X235176190Y-127552381D02*
X235176190Y-126552381D01*
X235557143Y-126552381D01*
X235652381Y-126600000D01*
X235700000Y-126647619D01*
X235747619Y-126742857D01*
X235747619Y-126885714D01*
X235700000Y-126980952D01*
X235652381Y-127028571D01*
X235557143Y-127076190D01*
X235176190Y-127076190D01*
X236652381Y-127552381D02*
X236176190Y-127552381D01*
X236176190Y-126552381D01*
X236938095Y-127266667D02*
X237414286Y-127266667D01*
X236842857Y-127552381D02*
X237176190Y-126552381D01*
X237509524Y-127552381D01*
X238033333Y-127076190D02*
X238033333Y-127552381D01*
X237700000Y-126552381D02*
X238033333Y-127076190D01*
X238366667Y-126552381D01*
X235310715Y-139457143D02*
X235263096Y-139504762D01*
X235120239Y-139552381D01*
X235025001Y-139552381D01*
X234882143Y-139504762D01*
X234786905Y-139409524D01*
X234739286Y-139314286D01*
X234691667Y-139123810D01*
X234691667Y-138980952D01*
X234739286Y-138790476D01*
X234786905Y-138695238D01*
X234882143Y-138600000D01*
X235025001Y-138552381D01*
X235120239Y-138552381D01*
X235263096Y-138600000D01*
X235310715Y-138647619D01*
X235739286Y-139552381D02*
X235739286Y-138552381D01*
X235739286Y-139028571D02*
X236310715Y-139028571D01*
X236310715Y-139552381D02*
X236310715Y-138552381D01*
X237358334Y-139552381D02*
X237025000Y-139076190D01*
X236786905Y-139552381D02*
X236786905Y-138552381D01*
X237167858Y-138552381D01*
X237263096Y-138600000D01*
X237310715Y-138647619D01*
X237358334Y-138742857D01*
X237358334Y-138885714D01*
X237310715Y-138980952D01*
X237263096Y-139028571D01*
X237167858Y-139076190D01*
X236786905Y-139076190D01*
X238310715Y-138600000D02*
X238215477Y-138552381D01*
X238072620Y-138552381D01*
X237929762Y-138600000D01*
X237834524Y-138695238D01*
X237786905Y-138790476D01*
X237739286Y-138980952D01*
X237739286Y-139123810D01*
X237786905Y-139314286D01*
X237834524Y-139409524D01*
X237929762Y-139504762D01*
X238072620Y-139552381D01*
X238167858Y-139552381D01*
X238310715Y-139504762D01*
X238358334Y-139457143D01*
X238358334Y-139123810D01*
X238167858Y-139123810D01*
X230497619Y-123702381D02*
X230497619Y-122702381D01*
X230878572Y-122702381D01*
X230973810Y-122750000D01*
X231021429Y-122797619D01*
X231069048Y-122892857D01*
X231069048Y-123035714D01*
X231021429Y-123130952D01*
X230973810Y-123178571D01*
X230878572Y-123226190D01*
X230497619Y-123226190D01*
X232021429Y-123702381D02*
X231450000Y-123702381D01*
X231735714Y-123702381D02*
X231735714Y-122702381D01*
X231640476Y-122845238D01*
X231545238Y-122940476D01*
X231450000Y-122988095D01*
X232450000Y-123607143D02*
X232497619Y-123654762D01*
X232450000Y-123702381D01*
X232402381Y-123654762D01*
X232450000Y-123607143D01*
X232450000Y-123702381D01*
X233450000Y-123702381D02*
X232878571Y-123702381D01*
X233164285Y-123702381D02*
X233164285Y-122702381D01*
X233069047Y-122845238D01*
X232973809Y-122940476D01*
X232878571Y-122988095D01*
X218572619Y-117727381D02*
X218572619Y-116727381D01*
X218953572Y-116727381D01*
X219048810Y-116775000D01*
X219096429Y-116822619D01*
X219144048Y-116917857D01*
X219144048Y-117060714D01*
X219096429Y-117155952D01*
X219048810Y-117203571D01*
X218953572Y-117251190D01*
X218572619Y-117251190D01*
X220096429Y-117727381D02*
X219525000Y-117727381D01*
X219810714Y-117727381D02*
X219810714Y-116727381D01*
X219715476Y-116870238D01*
X219620238Y-116965476D01*
X219525000Y-117013095D01*
X220525000Y-117632143D02*
X220572619Y-117679762D01*
X220525000Y-117727381D01*
X220477381Y-117679762D01*
X220525000Y-117632143D01*
X220525000Y-117727381D01*
X221429762Y-117060714D02*
X221429762Y-117727381D01*
X221191666Y-116679762D02*
X220953571Y-117394048D01*
X221572619Y-117394048D01*
X218572619Y-115202381D02*
X218572619Y-114202381D01*
X218953572Y-114202381D01*
X219048810Y-114250000D01*
X219096429Y-114297619D01*
X219144048Y-114392857D01*
X219144048Y-114535714D01*
X219096429Y-114630952D01*
X219048810Y-114678571D01*
X218953572Y-114726190D01*
X218572619Y-114726190D01*
X220096429Y-115202381D02*
X219525000Y-115202381D01*
X219810714Y-115202381D02*
X219810714Y-114202381D01*
X219715476Y-114345238D01*
X219620238Y-114440476D01*
X219525000Y-114488095D01*
X220525000Y-115107143D02*
X220572619Y-115154762D01*
X220525000Y-115202381D01*
X220477381Y-115154762D01*
X220525000Y-115107143D01*
X220525000Y-115202381D01*
X221429762Y-114202381D02*
X221239285Y-114202381D01*
X221144047Y-114250000D01*
X221096428Y-114297619D01*
X221001190Y-114440476D01*
X220953571Y-114630952D01*
X220953571Y-115011905D01*
X221001190Y-115107143D01*
X221048809Y-115154762D01*
X221144047Y-115202381D01*
X221334524Y-115202381D01*
X221429762Y-115154762D01*
X221477381Y-115107143D01*
X221525000Y-115011905D01*
X221525000Y-114773810D01*
X221477381Y-114678571D01*
X221429762Y-114630952D01*
X221334524Y-114583333D01*
X221144047Y-114583333D01*
X221048809Y-114630952D01*
X221001190Y-114678571D01*
X220953571Y-114773810D01*
D13*
X228150000Y-81750000D02*
X228150000Y-97750000D01*
X225850000Y-97750000D02*
X225850000Y-81750000D01*
X223650000Y-81750000D02*
X223650000Y-97750000D01*
X221650000Y-97750000D02*
X221650000Y-81750000D01*
X219450000Y-81750000D02*
X219450000Y-97750000D01*
X215150000Y-97750000D02*
X215150000Y-81750000D01*
D11*
X217723248Y-96921776D02*
X217763654Y-97042995D01*
X217884873Y-97164214D01*
X218046497Y-97245025D01*
X218208122Y-97245025D01*
X218329340Y-97204620D01*
X218531371Y-97083401D01*
X218652589Y-96962183D01*
X218773807Y-96760152D01*
X218814214Y-96638934D01*
X218814213Y-96477310D01*
X218733401Y-96315685D01*
X218652589Y-96234873D01*
X218490964Y-96154061D01*
X218410152Y-96154061D01*
X218127309Y-96436903D01*
X218288934Y-96598528D01*
X217763654Y-95345939D02*
X217319188Y-95790405D01*
X217278781Y-95911624D01*
X217319188Y-96032843D01*
X217480812Y-96194467D01*
X217602030Y-96234873D01*
X217723248Y-95386345D02*
X217844467Y-95426751D01*
X218046497Y-95628781D01*
X218086903Y-95750000D01*
X218046498Y-95871218D01*
X217965685Y-95952030D01*
X217844467Y-95992437D01*
X217723248Y-95952030D01*
X217521218Y-95750000D01*
X217399999Y-95709594D01*
X217359594Y-94941878D02*
X216793908Y-95507563D01*
X216511066Y-95790406D02*
X216591878Y-95790406D01*
X216591878Y-95709594D01*
X216511066Y-95709594D01*
X216511066Y-95790406D01*
X216591878Y-95709594D01*
X216389847Y-95103502D02*
X216955532Y-94537817D01*
X216470659Y-95022690D02*
X216389847Y-95022690D01*
X216268628Y-94982284D01*
X216147411Y-94861066D01*
X216107004Y-94739847D01*
X216147411Y-94618628D01*
X216591877Y-94174162D01*
D13*
X228150000Y-81750000D02*
X228150000Y-85750000D01*
X219650000Y-81750000D02*
X228150000Y-81750000D01*
X228150000Y-85750000D02*
X228150000Y-89750000D01*
X215150000Y-85750000D02*
X228150000Y-85750000D01*
X228150000Y-89750000D02*
X228150000Y-93750000D01*
X215150000Y-89750000D02*
X228150000Y-89750000D01*
X228150000Y-97750000D02*
X219650000Y-97750000D01*
X215150000Y-93750000D02*
X228150000Y-93750000D01*
X219650000Y-97750000D02*
X215150000Y-97750000D01*
X215150000Y-81750000D02*
X219650000Y-81750000D01*
D11*
X215742857Y-84750000D02*
X216600000Y-84750000D01*
X216771429Y-84807142D01*
X216885714Y-84921428D01*
X216942857Y-85092857D01*
X216942857Y-85207142D01*
X216942857Y-84178571D02*
X215742857Y-84178571D01*
X215742857Y-83721428D01*
X215800000Y-83607142D01*
X215857143Y-83549999D01*
X215971429Y-83492856D01*
X216142857Y-83492856D01*
X216257143Y-83549999D01*
X216314286Y-83607142D01*
X216371429Y-83721428D01*
X216371429Y-84178571D01*
X215742857Y-82407142D02*
X215742857Y-82978571D01*
X216314286Y-83035714D01*
X216257143Y-82978571D01*
X216200000Y-82864285D01*
X216200000Y-82578571D01*
X216257143Y-82464285D01*
X216314286Y-82407142D01*
X216428571Y-82349999D01*
X216714286Y-82349999D01*
X216828571Y-82407142D01*
X216885714Y-82464285D01*
X216942857Y-82578571D01*
X216942857Y-82864285D01*
X216885714Y-82978571D01*
X216828571Y-83035714D01*
X217842857Y-84750000D02*
X218700000Y-84750000D01*
X218871429Y-84807142D01*
X218985714Y-84921428D01*
X219042857Y-85092857D01*
X219042857Y-85207142D01*
X219042857Y-84178571D02*
X217842857Y-84178571D01*
X217842857Y-83721428D01*
X217900000Y-83607142D01*
X217957143Y-83549999D01*
X218071429Y-83492856D01*
X218242857Y-83492856D01*
X218357143Y-83549999D01*
X218414286Y-83607142D01*
X218471429Y-83721428D01*
X218471429Y-84178571D01*
X217842857Y-82464285D02*
X217842857Y-82692856D01*
X217900000Y-82807142D01*
X217957143Y-82864285D01*
X218128571Y-82978571D01*
X218357143Y-83035714D01*
X218814286Y-83035714D01*
X218928571Y-82978571D01*
X218985714Y-82921428D01*
X219042857Y-82807142D01*
X219042857Y-82578571D01*
X218985714Y-82464285D01*
X218928571Y-82407142D01*
X218814286Y-82349999D01*
X218528571Y-82349999D01*
X218414286Y-82407142D01*
X218357143Y-82464285D01*
X218300000Y-82578571D01*
X218300000Y-82807142D01*
X218357143Y-82921428D01*
X218414286Y-82978571D01*
X218528571Y-83035714D01*
X226242857Y-84149999D02*
X227442857Y-83349999D01*
X226242857Y-83349999D02*
X227442857Y-84149999D01*
X215742857Y-88750000D02*
X216600000Y-88750000D01*
X216771429Y-88807142D01*
X216885714Y-88921428D01*
X216942857Y-89092857D01*
X216942857Y-89207142D01*
X216942857Y-88178571D02*
X215742857Y-88178571D01*
X215742857Y-87721428D01*
X215800000Y-87607142D01*
X215857143Y-87549999D01*
X215971429Y-87492856D01*
X216142857Y-87492856D01*
X216257143Y-87549999D01*
X216314286Y-87607142D01*
X216371429Y-87721428D01*
X216371429Y-88178571D01*
X216142857Y-86464285D02*
X216942857Y-86464285D01*
X215685714Y-86749999D02*
X216542857Y-87035714D01*
X216542857Y-86292856D01*
X217842857Y-88750000D02*
X218700000Y-88750000D01*
X218871429Y-88807142D01*
X218985714Y-88921428D01*
X219042857Y-89092857D01*
X219042857Y-89207142D01*
X219042857Y-88178571D02*
X217842857Y-88178571D01*
X217842857Y-87721428D01*
X217900000Y-87607142D01*
X217957143Y-87549999D01*
X218071429Y-87492856D01*
X218242857Y-87492856D01*
X218357143Y-87549999D01*
X218414286Y-87607142D01*
X218471429Y-87721428D01*
X218471429Y-88178571D01*
X217842857Y-87092856D02*
X217842857Y-86292856D01*
X219042857Y-86807142D01*
X224142857Y-88149999D02*
X225342857Y-87349999D01*
X224142857Y-87349999D02*
X225342857Y-88149999D01*
X226242857Y-88149999D02*
X227442857Y-87349999D01*
X226242857Y-87349999D02*
X227442857Y-88149999D01*
X215742857Y-92750000D02*
X216600000Y-92750000D01*
X216771429Y-92807142D01*
X216885714Y-92921428D01*
X216942857Y-93092857D01*
X216942857Y-93207142D01*
X216942857Y-92178571D02*
X215742857Y-92178571D01*
X215742857Y-91721428D01*
X215800000Y-91607142D01*
X215857143Y-91549999D01*
X215971429Y-91492856D01*
X216142857Y-91492856D01*
X216257143Y-91549999D01*
X216314286Y-91607142D01*
X216371429Y-91721428D01*
X216371429Y-92178571D01*
X215742857Y-91092856D02*
X215742857Y-90349999D01*
X216200000Y-90749999D01*
X216200000Y-90578571D01*
X216257143Y-90464285D01*
X216314286Y-90407142D01*
X216428571Y-90349999D01*
X216714286Y-90349999D01*
X216828571Y-90407142D01*
X216885714Y-90464285D01*
X216942857Y-90578571D01*
X216942857Y-90921428D01*
X216885714Y-91035714D01*
X216828571Y-91092856D01*
X217842857Y-92750000D02*
X218700000Y-92750000D01*
X218871429Y-92807142D01*
X218985714Y-92921428D01*
X219042857Y-93092857D01*
X219042857Y-93207142D01*
X219042857Y-92178571D02*
X217842857Y-92178571D01*
X217842857Y-91721428D01*
X217900000Y-91607142D01*
X217957143Y-91549999D01*
X218071429Y-91492856D01*
X218242857Y-91492856D01*
X218357143Y-91549999D01*
X218414286Y-91607142D01*
X218471429Y-91721428D01*
X218471429Y-92178571D01*
X218357143Y-90807142D02*
X218300000Y-90921428D01*
X218242857Y-90978571D01*
X218128571Y-91035714D01*
X218071429Y-91035714D01*
X217957143Y-90978571D01*
X217900000Y-90921428D01*
X217842857Y-90807142D01*
X217842857Y-90578571D01*
X217900000Y-90464285D01*
X217957143Y-90407142D01*
X218071429Y-90349999D01*
X218128571Y-90349999D01*
X218242857Y-90407142D01*
X218300000Y-90464285D01*
X218357143Y-90578571D01*
X218357143Y-90807142D01*
X218414286Y-90921428D01*
X218471429Y-90978571D01*
X218585714Y-91035714D01*
X218814286Y-91035714D01*
X218928571Y-90978571D01*
X218985714Y-90921428D01*
X219042857Y-90807142D01*
X219042857Y-90578571D01*
X218985714Y-90464285D01*
X218928571Y-90407142D01*
X218814286Y-90349999D01*
X218585714Y-90349999D01*
X218471429Y-90407142D01*
X218414286Y-90464285D01*
X218357143Y-90578571D01*
X222042857Y-92149999D02*
X223242857Y-91349999D01*
X222042857Y-91349999D02*
X223242857Y-92149999D01*
X224142857Y-92149999D02*
X225342857Y-91349999D01*
X224142857Y-91349999D02*
X225342857Y-92149999D01*
X226242857Y-92149999D02*
X227442857Y-91349999D01*
X226242857Y-91349999D02*
X227442857Y-92149999D01*
X220342857Y-95521428D02*
X221142857Y-95521428D01*
X219885714Y-95807142D02*
X220742857Y-96092857D01*
X220742857Y-95349999D01*
X222557143Y-95864285D02*
X222500000Y-95978571D01*
X222442857Y-96035714D01*
X222328571Y-96092857D01*
X222271429Y-96092857D01*
X222157143Y-96035714D01*
X222100000Y-95978571D01*
X222042857Y-95864285D01*
X222042857Y-95635714D01*
X222100000Y-95521428D01*
X222157143Y-95464285D01*
X222271429Y-95407142D01*
X222328571Y-95407142D01*
X222442857Y-95464285D01*
X222500000Y-95521428D01*
X222557143Y-95635714D01*
X222557143Y-95864285D01*
X222614286Y-95978571D01*
X222671429Y-96035714D01*
X222785714Y-96092857D01*
X223014286Y-96092857D01*
X223128571Y-96035714D01*
X223185714Y-95978571D01*
X223242857Y-95864285D01*
X223242857Y-95635714D01*
X223185714Y-95521428D01*
X223128571Y-95464285D01*
X223014286Y-95407142D01*
X222785714Y-95407142D01*
X222671429Y-95464285D01*
X222614286Y-95521428D01*
X222557143Y-95635714D01*
X225342857Y-95978571D02*
X225342857Y-96664286D01*
X225342857Y-96321428D02*
X224142857Y-96321428D01*
X224314286Y-96435714D01*
X224428571Y-96550000D01*
X224485714Y-96664286D01*
X224257143Y-95521429D02*
X224200000Y-95464286D01*
X224142857Y-95350000D01*
X224142857Y-95064286D01*
X224200000Y-94950000D01*
X224257143Y-94892857D01*
X224371429Y-94835714D01*
X224485714Y-94835714D01*
X224657143Y-94892857D01*
X225342857Y-95578571D01*
X225342857Y-94835714D01*
X227442857Y-95978571D02*
X227442857Y-96664286D01*
X227442857Y-96321428D02*
X226242857Y-96321428D01*
X226414286Y-96435714D01*
X226528571Y-96550000D01*
X226585714Y-96664286D01*
X226242857Y-94950000D02*
X226242857Y-95178571D01*
X226300000Y-95292857D01*
X226357143Y-95350000D01*
X226528571Y-95464286D01*
X226757143Y-95521429D01*
X227214286Y-95521429D01*
X227328571Y-95464286D01*
X227385714Y-95407143D01*
X227442857Y-95292857D01*
X227442857Y-95064286D01*
X227385714Y-94950000D01*
X227328571Y-94892857D01*
X227214286Y-94835714D01*
X226928571Y-94835714D01*
X226814286Y-94892857D01*
X226757143Y-94950000D01*
X226700000Y-95064286D01*
X226700000Y-95292857D01*
X226757143Y-95407143D01*
X226814286Y-95464286D01*
X226928571Y-95521429D01*
X218778571Y-74585714D02*
X217278571Y-74585714D01*
X217278571Y-74014286D01*
X217350000Y-73871428D01*
X217421429Y-73800000D01*
X217564286Y-73728571D01*
X217778571Y-73728571D01*
X217921429Y-73800000D01*
X217992857Y-73871428D01*
X218064286Y-74014286D01*
X218064286Y-74585714D01*
X218778571Y-72371428D02*
X218778571Y-73085714D01*
X217278571Y-73085714D01*
X218350000Y-71942857D02*
X218350000Y-71228571D01*
X218778571Y-72085714D02*
X217278571Y-71585714D01*
X218778571Y-71085714D01*
X218064286Y-70300000D02*
X218778571Y-70300000D01*
X217278571Y-70800000D02*
X218064286Y-70300000D01*
X217278571Y-69800000D01*
D12*
X238685715Y-122400000D02*
X238571429Y-122342857D01*
X238400000Y-122342857D01*
X238228572Y-122400000D01*
X238114286Y-122514286D01*
X238057143Y-122628571D01*
X238000000Y-122857143D01*
X238000000Y-123028571D01*
X238057143Y-123257143D01*
X238114286Y-123371429D01*
X238228572Y-123485714D01*
X238400000Y-123542857D01*
X238514286Y-123542857D01*
X238685715Y-123485714D01*
X238742858Y-123428571D01*
X238742858Y-123028571D01*
X238514286Y-123028571D01*
X239257143Y-123542857D02*
X239257143Y-122342857D01*
X239942858Y-123542857D01*
X239942858Y-122342857D01*
X240514286Y-123542857D02*
X240514286Y-122342857D01*
X240800001Y-122342857D01*
X240971429Y-122400000D01*
X241085715Y-122514286D01*
X241142858Y-122628571D01*
X241200001Y-122857143D01*
X241200001Y-123028571D01*
X241142858Y-123257143D01*
X241085715Y-123371429D01*
X240971429Y-123485714D01*
X240800001Y-123542857D01*
X240514286Y-123542857D01*
X238332143Y-119817857D02*
X239017857Y-119817857D01*
X238675000Y-121017857D02*
X238675000Y-119817857D01*
X240103572Y-120903571D02*
X240046429Y-120960714D01*
X239875000Y-121017857D01*
X239760714Y-121017857D01*
X239589286Y-120960714D01*
X239475000Y-120846429D01*
X239417857Y-120732143D01*
X239360714Y-120503571D01*
X239360714Y-120332143D01*
X239417857Y-120103571D01*
X239475000Y-119989286D01*
X239589286Y-119875000D01*
X239760714Y-119817857D01*
X239875000Y-119817857D01*
X240046429Y-119875000D01*
X240103572Y-119932143D01*
X240617857Y-121017857D02*
X240617857Y-119817857D01*
X241303572Y-121017857D02*
X240789286Y-120332143D01*
X241303572Y-119817857D02*
X240617857Y-120503571D01*
X237592857Y-117267857D02*
X238278571Y-117267857D01*
X237935714Y-118467857D02*
X237935714Y-117267857D01*
X238678571Y-118467857D02*
X238678571Y-117267857D01*
X238964286Y-117267857D01*
X239135714Y-117325000D01*
X239250000Y-117439286D01*
X239307143Y-117553571D01*
X239364286Y-117782143D01*
X239364286Y-117953571D01*
X239307143Y-118182143D01*
X239250000Y-118296429D01*
X239135714Y-118410714D01*
X238964286Y-118467857D01*
X238678571Y-118467857D01*
X239878571Y-118467857D02*
X239878571Y-117267857D01*
X240678572Y-117267857D02*
X240907143Y-117267857D01*
X241021429Y-117325000D01*
X241135715Y-117439286D01*
X241192857Y-117667857D01*
X241192857Y-118067857D01*
X241135715Y-118296429D01*
X241021429Y-118410714D01*
X240907143Y-118467857D01*
X240678572Y-118467857D01*
X240564286Y-118410714D01*
X240450000Y-118296429D01*
X240392857Y-118067857D01*
X240392857Y-117667857D01*
X240450000Y-117439286D01*
X240564286Y-117325000D01*
X240678572Y-117267857D01*
X238289287Y-114742857D02*
X239032144Y-114742857D01*
X238632144Y-115200000D01*
X238803572Y-115200000D01*
X238917858Y-115257143D01*
X238975001Y-115314286D01*
X239032144Y-115428571D01*
X239032144Y-115714286D01*
X238975001Y-115828571D01*
X238917858Y-115885714D01*
X238803572Y-115942857D01*
X238460715Y-115942857D01*
X238346429Y-115885714D01*
X238289287Y-115828571D01*
X239375001Y-114742857D02*
X239775001Y-115942857D01*
X240175001Y-114742857D01*
X240460715Y-114742857D02*
X241203572Y-114742857D01*
X240803572Y-115200000D01*
X240975000Y-115200000D01*
X241089286Y-115257143D01*
X241146429Y-115314286D01*
X241203572Y-115428571D01*
X241203572Y-115714286D01*
X241146429Y-115828571D01*
X241089286Y-115885714D01*
X240975000Y-115942857D01*
X240632143Y-115942857D01*
X240517857Y-115885714D01*
X240460715Y-115828571D01*
X231197619Y-111377381D02*
X231197619Y-110377381D01*
X231578572Y-110377381D01*
X231673810Y-110425000D01*
X231721429Y-110472619D01*
X231769048Y-110567857D01*
X231769048Y-110710714D01*
X231721429Y-110805952D01*
X231673810Y-110853571D01*
X231578572Y-110901190D01*
X231197619Y-110901190D01*
X232150000Y-110472619D02*
X232197619Y-110425000D01*
X232292857Y-110377381D01*
X232530953Y-110377381D01*
X232626191Y-110425000D01*
X232673810Y-110472619D01*
X232721429Y-110567857D01*
X232721429Y-110663095D01*
X232673810Y-110805952D01*
X232102381Y-111377381D01*
X232721429Y-111377381D01*
X233150000Y-111282143D02*
X233197619Y-111329762D01*
X233150000Y-111377381D01*
X233102381Y-111329762D01*
X233150000Y-111282143D01*
X233150000Y-111377381D01*
X233530952Y-110377381D02*
X234197619Y-110377381D01*
X233769047Y-111377381D01*
X225922619Y-113002381D02*
X225922619Y-112002381D01*
X226303572Y-112002381D01*
X226398810Y-112050000D01*
X226446429Y-112097619D01*
X226494048Y-112192857D01*
X226494048Y-112335714D01*
X226446429Y-112430952D01*
X226398810Y-112478571D01*
X226303572Y-112526190D01*
X225922619Y-112526190D01*
X226875000Y-112097619D02*
X226922619Y-112050000D01*
X227017857Y-112002381D01*
X227255953Y-112002381D01*
X227351191Y-112050000D01*
X227398810Y-112097619D01*
X227446429Y-112192857D01*
X227446429Y-112288095D01*
X227398810Y-112430952D01*
X226827381Y-113002381D01*
X227446429Y-113002381D01*
X227875000Y-112907143D02*
X227922619Y-112954762D01*
X227875000Y-113002381D01*
X227827381Y-112954762D01*
X227875000Y-112907143D01*
X227875000Y-113002381D01*
X228779762Y-112002381D02*
X228589285Y-112002381D01*
X228494047Y-112050000D01*
X228446428Y-112097619D01*
X228351190Y-112240476D01*
X228303571Y-112430952D01*
X228303571Y-112811905D01*
X228351190Y-112907143D01*
X228398809Y-112954762D01*
X228494047Y-113002381D01*
X228684524Y-113002381D01*
X228779762Y-112954762D01*
X228827381Y-112907143D01*
X228875000Y-112811905D01*
X228875000Y-112573810D01*
X228827381Y-112478571D01*
X228779762Y-112430952D01*
X228684524Y-112383333D01*
X228494047Y-112383333D01*
X228398809Y-112430952D01*
X228351190Y-112478571D01*
X228303571Y-112573810D01*
D14*
X231200000Y-114125000D02*
X226800000Y-114125000D01*
X232775000Y-119650000D02*
X226800000Y-119650000D01*
X243400000Y-137600000D02*
X243400000Y-141300000D01*
X243400000Y-141300000D02*
X239700000Y-141300000D01*
X239000000Y-140600000D02*
X239000000Y-136900000D01*
X239000000Y-136900000D02*
X242700000Y-136900000D01*
D15*
X239400000Y-138400000D02*
X239400000Y-139800000D01*
X239400000Y-139800000D02*
X242200000Y-139800000D01*
X239400000Y-138400000D02*
X242200000Y-138400000D01*
D14*
X211450000Y-119650000D02*
X211350000Y-119650000D01*
X211350000Y-119650000D02*
X211350000Y-123150000D01*
X211350000Y-123150000D02*
X211450000Y-123150000D01*
X212900000Y-123150000D02*
X212700000Y-123150000D01*
X212900000Y-119650000D02*
X212700000Y-119650000D01*
X214250000Y-119650000D02*
X214150000Y-119650000D01*
X214250000Y-119650000D02*
X214250000Y-123150000D01*
X214250000Y-123150000D02*
X214150000Y-123150000D01*
X230800000Y-69600000D02*
X230800000Y-69800000D01*
X233800000Y-69600000D02*
X233800000Y-69800000D01*
X230800000Y-72600000D02*
X230800000Y-72400000D01*
X235100000Y-72600000D02*
X230800000Y-72600000D01*
X230800000Y-69600000D02*
X233800000Y-69600000D01*
D15*
X239840000Y-143990000D02*
X239840000Y-144370000D01*
X243890000Y-143990000D02*
X244150000Y-143990000D01*
X239840000Y-143990000D02*
X241610000Y-143990000D01*
X239840000Y-151610000D02*
X239840000Y-151230000D01*
X241610000Y-151610000D02*
X239840000Y-151610000D01*
X244150000Y-151610000D02*
X243890000Y-151610000D01*
X233300000Y-146150000D02*
X233300000Y-147150000D01*
X235000000Y-147150000D02*
X235000000Y-146150000D01*
X220500000Y-149250000D02*
X221500000Y-149250000D01*
X221500000Y-147550000D02*
X220500000Y-147550000D01*
X230850000Y-130750000D02*
X229850000Y-130750000D01*
X229850000Y-132450000D02*
X230850000Y-132450000D01*
X226900000Y-146150000D02*
X226900000Y-147150000D01*
X228600000Y-147150000D02*
X228600000Y-146150000D01*
X235800000Y-113500000D02*
X235800000Y-114500000D01*
X237500000Y-114500000D02*
X237500000Y-113500000D01*
X234000000Y-113500000D02*
X234000000Y-114500000D01*
X235700000Y-114500000D02*
X235700000Y-113500000D01*
X230850000Y-124500000D02*
X229850000Y-124500000D01*
X229850000Y-126200000D02*
X230850000Y-126200000D01*
X241625000Y-108175000D02*
X241625000Y-107175000D01*
X239925000Y-107175000D02*
X239925000Y-108175000D01*
X236625000Y-108175000D02*
X236625000Y-107175000D01*
X234925000Y-107175000D02*
X234925000Y-108175000D01*
X231625000Y-108175000D02*
X231625000Y-107175000D01*
X229925000Y-107175000D02*
X229925000Y-108175000D01*
X241625000Y-104575000D02*
X241625000Y-103575000D01*
X239925000Y-103575000D02*
X239925000Y-104575000D01*
X236625000Y-104575000D02*
X236625000Y-103575000D01*
X234925000Y-103575000D02*
X234925000Y-104575000D01*
X231625000Y-104575000D02*
X231625000Y-103575000D01*
X229925000Y-103575000D02*
X229925000Y-104575000D01*
X241625000Y-100975000D02*
X241625000Y-99975000D01*
X239925000Y-99975000D02*
X239925000Y-100975000D01*
X236625000Y-100975000D02*
X236625000Y-99975000D01*
X234925000Y-99975000D02*
X234925000Y-100975000D01*
X231625000Y-100975000D02*
X231625000Y-99975000D01*
X229925000Y-99975000D02*
X229925000Y-100975000D01*
X236600000Y-95950000D02*
X235600000Y-95950000D01*
X235600000Y-97650000D02*
X236600000Y-97650000D01*
X236000000Y-80150000D02*
X237000000Y-80150000D01*
X237000000Y-78450000D02*
X236000000Y-78450000D01*
X237750000Y-71100000D02*
X236750000Y-71100000D01*
X236750000Y-72800000D02*
X237750000Y-72800000D01*
X226750000Y-71100000D02*
X227750000Y-71100000D01*
X227750000Y-69400000D02*
X226750000Y-69400000D01*
X237510000Y-134680000D02*
X237510000Y-133750000D01*
X237510000Y-131520000D02*
X237510000Y-132450000D01*
X237510000Y-131520000D02*
X235350000Y-131520000D01*
X237510000Y-134680000D02*
X236050000Y-134680000D01*
X224730000Y-148200000D02*
X224730000Y-149400000D01*
X222970000Y-149400000D02*
X222970000Y-148200000D01*
X224730000Y-145050000D02*
X224730000Y-146250000D01*
X222970000Y-146250000D02*
X222970000Y-145050000D01*
X228970000Y-143650000D02*
X228970000Y-142450000D01*
X230730000Y-142450000D02*
X230730000Y-143650000D01*
X236150000Y-129520000D02*
X237350000Y-129520000D01*
X237350000Y-131280000D02*
X236150000Y-131280000D01*
X237350000Y-136680000D02*
X236150000Y-136680000D01*
X236150000Y-134920000D02*
X237350000Y-134920000D01*
X233650000Y-144530000D02*
X232450000Y-144530000D01*
X232450000Y-142770000D02*
X233650000Y-142770000D01*
X234950000Y-115870000D02*
X236150000Y-115870000D01*
X236150000Y-117630000D02*
X234950000Y-117630000D01*
X237395000Y-108275000D02*
X237395000Y-107075000D01*
X239155000Y-107075000D02*
X239155000Y-108275000D01*
X232395000Y-108275000D02*
X232395000Y-107075000D01*
X234155000Y-107075000D02*
X234155000Y-108275000D01*
X227395000Y-108275000D02*
X227395000Y-107075000D01*
X229155000Y-107075000D02*
X229155000Y-108275000D01*
X237395000Y-104675000D02*
X237395000Y-103475000D01*
X239155000Y-103475000D02*
X239155000Y-104675000D01*
X232395000Y-104675000D02*
X232395000Y-103475000D01*
X234155000Y-103475000D02*
X234155000Y-104675000D01*
X227395000Y-104675000D02*
X227395000Y-103475000D01*
X229155000Y-103475000D02*
X229155000Y-104675000D01*
X236150000Y-127670000D02*
X237350000Y-127670000D01*
X237350000Y-129430000D02*
X236150000Y-129430000D01*
X237395000Y-101075000D02*
X237395000Y-99875000D01*
X239155000Y-99875000D02*
X239155000Y-101075000D01*
X232395000Y-101075000D02*
X232395000Y-99875000D01*
X234155000Y-99875000D02*
X234155000Y-101075000D01*
X227395000Y-101075000D02*
X227395000Y-99875000D01*
X229155000Y-99875000D02*
X229155000Y-101075000D01*
X239500000Y-88420000D02*
X240700000Y-88420000D01*
X240700000Y-90180000D02*
X239500000Y-90180000D01*
X239500000Y-90920000D02*
X240700000Y-90920000D01*
X240700000Y-92680000D02*
X239500000Y-92680000D01*
X239500000Y-93420000D02*
X240700000Y-93420000D01*
X240700000Y-95180000D02*
X239500000Y-95180000D01*
X239500000Y-95920000D02*
X240700000Y-95920000D01*
X240700000Y-97680000D02*
X239500000Y-97680000D01*
X239500000Y-78420000D02*
X240700000Y-78420000D01*
X240700000Y-80180000D02*
X239500000Y-80180000D01*
X239500000Y-80920000D02*
X240700000Y-80920000D01*
X240700000Y-82680000D02*
X239500000Y-82680000D01*
X239500000Y-83420000D02*
X240700000Y-83420000D01*
X240700000Y-85180000D02*
X239500000Y-85180000D01*
X239500000Y-85920000D02*
X240700000Y-85920000D01*
X240700000Y-87680000D02*
X239500000Y-87680000D01*
X220100000Y-147260000D02*
X221900000Y-147260000D01*
X221900000Y-144040000D02*
X219450000Y-144040000D01*
X230050000Y-148260000D02*
X231850000Y-148260000D01*
X231850000Y-145040000D02*
X229400000Y-145040000D01*
X231910000Y-129330000D02*
X231910000Y-127570000D01*
X228840000Y-127570000D02*
X228840000Y-130000000D01*
X229350000Y-132580000D02*
X231350000Y-132580000D01*
X231350000Y-134720000D02*
X229350000Y-134720000D01*
X234100000Y-93230000D02*
X236100000Y-93230000D01*
X236100000Y-95370000D02*
X234100000Y-95370000D01*
X234100000Y-90730000D02*
X236100000Y-90730000D01*
X236100000Y-92870000D02*
X234100000Y-92870000D01*
X234100000Y-88230000D02*
X236100000Y-88230000D01*
X236100000Y-90370000D02*
X234100000Y-90370000D01*
X236150000Y-87870000D02*
X234150000Y-87870000D01*
X234150000Y-85730000D02*
X236150000Y-85730000D01*
X236100000Y-85370000D02*
X234100000Y-85370000D01*
X234100000Y-83230000D02*
X236100000Y-83230000D01*
X236100000Y-82870000D02*
X234100000Y-82870000D01*
X234100000Y-80730000D02*
X236100000Y-80730000D01*
X232900000Y-121550000D02*
G75*
G03X232900000Y-121550000I-950000J0D01*
G01*
X223700000Y-117300000D02*
G75*
G03X223700000Y-117300000I-950000J0D01*
G01*
X223700000Y-114750000D02*
G75*
G03X223700000Y-114750000I-950000J0D01*
G01*
X231000000Y-112550000D02*
G75*
G03X231000000Y-112550000I-950000J0D01*
G01*
X233600000Y-112550000D02*
G75*
G03X233600000Y-112550000I-950000J0D01*
G01*
D14*
X243400000Y-131600000D02*
X243400000Y-135300000D01*
X243400000Y-135300000D02*
X239700000Y-135300000D01*
X239000000Y-134600000D02*
X239000000Y-130900000D01*
X239000000Y-130900000D02*
X242700000Y-130900000D01*
D15*
X239400000Y-132400000D02*
X239400000Y-133800000D01*
X239400000Y-133800000D02*
X242200000Y-133800000D01*
X239400000Y-132400000D02*
X242200000Y-132400000D01*
D14*
X243400000Y-125600000D02*
X243400000Y-129300000D01*
X243400000Y-129300000D02*
X239700000Y-129300000D01*
X239000000Y-128600000D02*
X239000000Y-124900000D01*
X239000000Y-124900000D02*
X242700000Y-124900000D01*
D15*
X239400000Y-126400000D02*
X239400000Y-127800000D01*
X239400000Y-127800000D02*
X242200000Y-127800000D01*
X239400000Y-126400000D02*
X242200000Y-126400000D01*
D16*
G36*
X216413745Y-132314436D02*
X216486402Y-132211150D01*
X216562282Y-132125332D01*
X216849766Y-131886784D01*
X217175250Y-131722680D01*
X217536108Y-131633176D01*
X217929718Y-131618431D01*
X218353454Y-131678602D01*
X218804693Y-131813847D01*
X219167822Y-131968567D01*
X219463467Y-132119243D01*
X219730835Y-132278177D01*
X219992340Y-132460651D01*
X220270396Y-132681946D01*
X220485596Y-132867001D01*
X220667765Y-133019453D01*
X220855530Y-133163370D01*
X221025900Y-133281846D01*
X221148167Y-133354172D01*
X221288591Y-133427841D01*
X221404329Y-133494074D01*
X221465667Y-133535087D01*
X221534012Y-133561277D01*
X221664484Y-133587233D01*
X221834627Y-133608985D01*
X221930651Y-133617268D01*
X222124947Y-133634988D01*
X222375780Y-133663395D01*
X222666171Y-133700033D01*
X222979140Y-133742444D01*
X223297707Y-133788174D01*
X223604892Y-133834764D01*
X223883714Y-133879760D01*
X224117193Y-133920705D01*
X224288351Y-133955142D01*
X224323167Y-133963376D01*
X224634880Y-134046924D01*
X224877288Y-134126490D01*
X225065141Y-134208252D01*
X225213189Y-134298388D01*
X225307424Y-134375615D01*
X225490803Y-134572288D01*
X225592958Y-134751543D01*
X225614600Y-134917296D01*
X225556439Y-135073462D01*
X225455583Y-135191650D01*
X225291705Y-135334685D01*
X225119986Y-135460021D01*
X224920361Y-135580190D01*
X224672763Y-135707725D01*
X224492500Y-135793148D01*
X224182927Y-135928974D01*
X223906017Y-136030459D01*
X223640310Y-136101740D01*
X223364346Y-136146959D01*
X223056667Y-136170254D01*
X222695813Y-136175764D01*
X222531518Y-136173847D01*
X222531518Y-135670651D01*
X222766238Y-135670466D01*
X222950697Y-135664879D01*
X223102062Y-135652863D01*
X223237503Y-135633386D01*
X223374189Y-135605419D01*
X223418289Y-135595152D01*
X223622523Y-135536415D01*
X223849853Y-135453970D01*
X224089169Y-135353811D01*
X224329364Y-135241937D01*
X224559329Y-135124342D01*
X224767955Y-135007023D01*
X224944135Y-134895977D01*
X225076760Y-134797199D01*
X225154722Y-134716686D01*
X225166913Y-134660433D01*
X225161895Y-134653962D01*
X225108098Y-134628591D01*
X224992132Y-134588967D01*
X224833907Y-134541604D01*
X224734430Y-134514170D01*
X224512703Y-134459568D01*
X224273747Y-134408193D01*
X224061050Y-134369230D01*
X224014903Y-134362193D01*
X223835858Y-134335693D01*
X223606037Y-134300511D01*
X223358206Y-134261709D01*
X223174132Y-134232293D01*
X222664758Y-134163623D01*
X222098178Y-134113456D01*
X221466641Y-134081305D01*
X220762399Y-134066685D01*
X220517398Y-134065628D01*
X219590297Y-134065000D01*
X219755398Y-134184794D01*
X219836028Y-134250436D01*
X219965273Y-134364136D01*
X220131073Y-134514899D01*
X220321370Y-134691731D01*
X220524104Y-134883639D01*
X220566828Y-134924536D01*
X220764887Y-135112806D01*
X220947572Y-135283271D01*
X221104277Y-135426287D01*
X221224395Y-135532210D01*
X221297322Y-135591396D01*
X221307661Y-135598178D01*
X221387028Y-135620849D01*
X221539496Y-135639100D01*
X221768432Y-135653183D01*
X222077200Y-135663345D01*
X222229366Y-135666467D01*
X222531518Y-135670651D01*
X222531518Y-136173847D01*
X222519584Y-136173707D01*
X222276923Y-136170319D01*
X222066468Y-136168990D01*
X221901610Y-136169671D01*
X221795740Y-136172314D01*
X221761947Y-136176418D01*
X221776579Y-136220111D01*
X221815786Y-136324107D01*
X221872605Y-136470135D01*
X221907119Y-136557418D01*
X221991227Y-136792650D01*
X222067166Y-137048316D01*
X222128873Y-137299724D01*
X222170283Y-137522179D01*
X222185333Y-137690361D01*
X222181596Y-137746999D01*
X222163070Y-137756768D01*
X222118789Y-137712700D01*
X222037782Y-137607827D01*
X222021868Y-137586532D01*
X221922404Y-137438350D01*
X221865959Y-137303968D01*
X221835397Y-137139239D01*
X221830288Y-137093014D01*
X221799803Y-136887922D01*
X221752235Y-136673282D01*
X221694091Y-136471005D01*
X221631876Y-136303005D01*
X221572097Y-136191194D01*
X221557289Y-136173555D01*
X221475812Y-136129162D01*
X221323888Y-136083251D01*
X221115551Y-136039947D01*
X221084667Y-136034658D01*
X220820640Y-135983278D01*
X220820640Y-135522751D01*
X220826879Y-135520033D01*
X220822027Y-135489573D01*
X220770708Y-135424394D01*
X220668241Y-135319720D01*
X220509943Y-135170772D01*
X220291134Y-134972773D01*
X220286482Y-134968614D01*
X219898458Y-134660768D01*
X219491517Y-134419192D01*
X219044819Y-134233009D01*
X218663126Y-134121164D01*
X218210085Y-134008133D01*
X217909437Y-133501599D01*
X218491635Y-133529522D01*
X218831105Y-133544852D01*
X219175590Y-133558681D01*
X219514719Y-133570756D01*
X219838119Y-133580822D01*
X220135418Y-133588625D01*
X220396246Y-133593911D01*
X220610231Y-133596426D01*
X220767000Y-133595916D01*
X220856183Y-133592126D01*
X220873000Y-133587870D01*
X220844450Y-133549188D01*
X220768474Y-133468053D01*
X220659587Y-133359737D01*
X220620241Y-133321904D01*
X220142508Y-132924043D01*
X219613408Y-132590374D01*
X219042942Y-132326754D01*
X218744053Y-132222649D01*
X218542035Y-132164194D01*
X218380081Y-132132010D01*
X218219560Y-132121128D01*
X218021843Y-132126579D01*
X218004391Y-132127510D01*
X217700268Y-132160830D01*
X217443666Y-132222642D01*
X217395440Y-132239909D01*
X217224058Y-132323180D01*
X217053152Y-132434913D01*
X216902433Y-132559053D01*
X216791613Y-132679544D01*
X216742178Y-132771998D01*
X216749339Y-132861173D01*
X216798437Y-133020442D01*
X216889854Y-133250929D01*
X216960720Y-133413874D01*
X217066916Y-133646407D01*
X217154436Y-133819732D01*
X217235539Y-133953454D01*
X217322488Y-134067178D01*
X217427543Y-134180507D01*
X217461335Y-134214306D01*
X217731283Y-134439675D01*
X218073372Y-134651570D01*
X218492497Y-134852820D01*
X218737578Y-134952305D01*
X218927191Y-135020826D01*
X219155383Y-135096151D01*
X219409244Y-135174772D01*
X219675864Y-135253181D01*
X219942336Y-135327871D01*
X220195750Y-135395333D01*
X220423196Y-135452060D01*
X220611766Y-135494544D01*
X220748550Y-135519277D01*
X220820640Y-135522751D01*
X220820640Y-135983278D01*
X220800417Y-135979342D01*
X220461569Y-135901043D01*
X220092836Y-135806407D01*
X219718932Y-135702077D01*
X219364574Y-135594698D01*
X219054474Y-135490915D01*
X219031500Y-135482671D01*
X218587518Y-135303226D01*
X218195117Y-135105599D01*
X217863465Y-134895332D01*
X217601728Y-134677969D01*
X217480826Y-134544904D01*
X217388333Y-134414127D01*
X217274789Y-134231201D01*
X217146752Y-134009057D01*
X217010780Y-133760625D01*
X216873431Y-133498835D01*
X216741263Y-133236618D01*
X216620835Y-132986905D01*
X216518704Y-132762625D01*
X216441429Y-132576710D01*
X216395567Y-132442090D01*
X216385667Y-132385591D01*
X216413745Y-132314436D01*
X216413745Y-132314436D01*
G37*
X216413745Y-132314436D02*
X216486402Y-132211150D01*
X216562282Y-132125332D01*
X216849766Y-131886784D01*
X217175250Y-131722680D01*
X217536108Y-131633176D01*
X217929718Y-131618431D01*
X218353454Y-131678602D01*
X218804693Y-131813847D01*
X219167822Y-131968567D01*
X219463467Y-132119243D01*
X219730835Y-132278177D01*
X219992340Y-132460651D01*
X220270396Y-132681946D01*
X220485596Y-132867001D01*
X220667765Y-133019453D01*
X220855530Y-133163370D01*
X221025900Y-133281846D01*
X221148167Y-133354172D01*
X221288591Y-133427841D01*
X221404329Y-133494074D01*
X221465667Y-133535087D01*
X221534012Y-133561277D01*
X221664484Y-133587233D01*
X221834627Y-133608985D01*
X221930651Y-133617268D01*
X222124947Y-133634988D01*
X222375780Y-133663395D01*
X222666171Y-133700033D01*
X222979140Y-133742444D01*
X223297707Y-133788174D01*
X223604892Y-133834764D01*
X223883714Y-133879760D01*
X224117193Y-133920705D01*
X224288351Y-133955142D01*
X224323167Y-133963376D01*
X224634880Y-134046924D01*
X224877288Y-134126490D01*
X225065141Y-134208252D01*
X225213189Y-134298388D01*
X225307424Y-134375615D01*
X225490803Y-134572288D01*
X225592958Y-134751543D01*
X225614600Y-134917296D01*
X225556439Y-135073462D01*
X225455583Y-135191650D01*
X225291705Y-135334685D01*
X225119986Y-135460021D01*
X224920361Y-135580190D01*
X224672763Y-135707725D01*
X224492500Y-135793148D01*
X224182927Y-135928974D01*
X223906017Y-136030459D01*
X223640310Y-136101740D01*
X223364346Y-136146959D01*
X223056667Y-136170254D01*
X222695813Y-136175764D01*
X222531518Y-136173847D01*
X222531518Y-135670651D01*
X222766238Y-135670466D01*
X222950697Y-135664879D01*
X223102062Y-135652863D01*
X223237503Y-135633386D01*
X223374189Y-135605419D01*
X223418289Y-135595152D01*
X223622523Y-135536415D01*
X223849853Y-135453970D01*
X224089169Y-135353811D01*
X224329364Y-135241937D01*
X224559329Y-135124342D01*
X224767955Y-135007023D01*
X224944135Y-134895977D01*
X225076760Y-134797199D01*
X225154722Y-134716686D01*
X225166913Y-134660433D01*
X225161895Y-134653962D01*
X225108098Y-134628591D01*
X224992132Y-134588967D01*
X224833907Y-134541604D01*
X224734430Y-134514170D01*
X224512703Y-134459568D01*
X224273747Y-134408193D01*
X224061050Y-134369230D01*
X224014903Y-134362193D01*
X223835858Y-134335693D01*
X223606037Y-134300511D01*
X223358206Y-134261709D01*
X223174132Y-134232293D01*
X222664758Y-134163623D01*
X222098178Y-134113456D01*
X221466641Y-134081305D01*
X220762399Y-134066685D01*
X220517398Y-134065628D01*
X219590297Y-134065000D01*
X219755398Y-134184794D01*
X219836028Y-134250436D01*
X219965273Y-134364136D01*
X220131073Y-134514899D01*
X220321370Y-134691731D01*
X220524104Y-134883639D01*
X220566828Y-134924536D01*
X220764887Y-135112806D01*
X220947572Y-135283271D01*
X221104277Y-135426287D01*
X221224395Y-135532210D01*
X221297322Y-135591396D01*
X221307661Y-135598178D01*
X221387028Y-135620849D01*
X221539496Y-135639100D01*
X221768432Y-135653183D01*
X222077200Y-135663345D01*
X222229366Y-135666467D01*
X222531518Y-135670651D01*
X222531518Y-136173847D01*
X222519584Y-136173707D01*
X222276923Y-136170319D01*
X222066468Y-136168990D01*
X221901610Y-136169671D01*
X221795740Y-136172314D01*
X221761947Y-136176418D01*
X221776579Y-136220111D01*
X221815786Y-136324107D01*
X221872605Y-136470135D01*
X221907119Y-136557418D01*
X221991227Y-136792650D01*
X222067166Y-137048316D01*
X222128873Y-137299724D01*
X222170283Y-137522179D01*
X222185333Y-137690361D01*
X222181596Y-137746999D01*
X222163070Y-137756768D01*
X222118789Y-137712700D01*
X222037782Y-137607827D01*
X222021868Y-137586532D01*
X221922404Y-137438350D01*
X221865959Y-137303968D01*
X221835397Y-137139239D01*
X221830288Y-137093014D01*
X221799803Y-136887922D01*
X221752235Y-136673282D01*
X221694091Y-136471005D01*
X221631876Y-136303005D01*
X221572097Y-136191194D01*
X221557289Y-136173555D01*
X221475812Y-136129162D01*
X221323888Y-136083251D01*
X221115551Y-136039947D01*
X221084667Y-136034658D01*
X220820640Y-135983278D01*
X220820640Y-135522751D01*
X220826879Y-135520033D01*
X220822027Y-135489573D01*
X220770708Y-135424394D01*
X220668241Y-135319720D01*
X220509943Y-135170772D01*
X220291134Y-134972773D01*
X220286482Y-134968614D01*
X219898458Y-134660768D01*
X219491517Y-134419192D01*
X219044819Y-134233009D01*
X218663126Y-134121164D01*
X218210085Y-134008133D01*
X217909437Y-133501599D01*
X218491635Y-133529522D01*
X218831105Y-133544852D01*
X219175590Y-133558681D01*
X219514719Y-133570756D01*
X219838119Y-133580822D01*
X220135418Y-133588625D01*
X220396246Y-133593911D01*
X220610231Y-133596426D01*
X220767000Y-133595916D01*
X220856183Y-133592126D01*
X220873000Y-133587870D01*
X220844450Y-133549188D01*
X220768474Y-133468053D01*
X220659587Y-133359737D01*
X220620241Y-133321904D01*
X220142508Y-132924043D01*
X219613408Y-132590374D01*
X219042942Y-132326754D01*
X218744053Y-132222649D01*
X218542035Y-132164194D01*
X218380081Y-132132010D01*
X218219560Y-132121128D01*
X218021843Y-132126579D01*
X218004391Y-132127510D01*
X217700268Y-132160830D01*
X217443666Y-132222642D01*
X217395440Y-132239909D01*
X217224058Y-132323180D01*
X217053152Y-132434913D01*
X216902433Y-132559053D01*
X216791613Y-132679544D01*
X216742178Y-132771998D01*
X216749339Y-132861173D01*
X216798437Y-133020442D01*
X216889854Y-133250929D01*
X216960720Y-133413874D01*
X217066916Y-133646407D01*
X217154436Y-133819732D01*
X217235539Y-133953454D01*
X217322488Y-134067178D01*
X217427543Y-134180507D01*
X217461335Y-134214306D01*
X217731283Y-134439675D01*
X218073372Y-134651570D01*
X218492497Y-134852820D01*
X218737578Y-134952305D01*
X218927191Y-135020826D01*
X219155383Y-135096151D01*
X219409244Y-135174772D01*
X219675864Y-135253181D01*
X219942336Y-135327871D01*
X220195750Y-135395333D01*
X220423196Y-135452060D01*
X220611766Y-135494544D01*
X220748550Y-135519277D01*
X220820640Y-135522751D01*
X220820640Y-135983278D01*
X220800417Y-135979342D01*
X220461569Y-135901043D01*
X220092836Y-135806407D01*
X219718932Y-135702077D01*
X219364574Y-135594698D01*
X219054474Y-135490915D01*
X219031500Y-135482671D01*
X218587518Y-135303226D01*
X218195117Y-135105599D01*
X217863465Y-134895332D01*
X217601728Y-134677969D01*
X217480826Y-134544904D01*
X217388333Y-134414127D01*
X217274789Y-134231201D01*
X217146752Y-134009057D01*
X217010780Y-133760625D01*
X216873431Y-133498835D01*
X216741263Y-133236618D01*
X216620835Y-132986905D01*
X216518704Y-132762625D01*
X216441429Y-132576710D01*
X216395567Y-132442090D01*
X216385667Y-132385591D01*
X216413745Y-132314436D01*
D14*
X228238095Y-119852381D02*
X228238095Y-120661905D01*
X228285714Y-120757143D01*
X228333333Y-120804762D01*
X228428571Y-120852381D01*
X228619048Y-120852381D01*
X228714286Y-120804762D01*
X228761905Y-120757143D01*
X228809524Y-120661905D01*
X228809524Y-119852381D01*
X229714286Y-120185714D02*
X229714286Y-120852381D01*
X229476190Y-119804762D02*
X229238095Y-120519048D01*
X229857143Y-120519048D01*
X240461905Y-138102381D02*
X240461905Y-137102381D01*
X240700000Y-137102381D01*
X240842858Y-137150000D01*
X240938096Y-137245238D01*
X240985715Y-137340476D01*
X241033334Y-137530952D01*
X241033334Y-137673810D01*
X240985715Y-137864286D01*
X240938096Y-137959524D01*
X240842858Y-138054762D01*
X240700000Y-138102381D01*
X240461905Y-138102381D01*
X241985715Y-138102381D02*
X241414286Y-138102381D01*
X241700000Y-138102381D02*
X241700000Y-137102381D01*
X241604762Y-137245238D01*
X241509524Y-137340476D01*
X241414286Y-137388095D01*
X231690476Y-72861905D02*
X231690476Y-73509524D01*
X231728571Y-73585714D01*
X231766667Y-73623810D01*
X231842857Y-73661905D01*
X231995238Y-73661905D01*
X232071429Y-73623810D01*
X232109524Y-73585714D01*
X232147619Y-73509524D01*
X232147619Y-72861905D01*
X232909524Y-72861905D02*
X232528571Y-72861905D01*
X232490476Y-73242857D01*
X232528571Y-73204762D01*
X232604762Y-73166667D01*
X232795238Y-73166667D01*
X232871428Y-73204762D01*
X232909524Y-73242857D01*
X232947619Y-73319048D01*
X232947619Y-73509524D01*
X232909524Y-73585714D01*
X232871428Y-73623810D01*
X232795238Y-73661905D01*
X232604762Y-73661905D01*
X232528571Y-73623810D01*
X232490476Y-73585714D01*
X240852381Y-153833333D02*
X241566667Y-153833333D01*
X241709524Y-153880953D01*
X241804762Y-153976191D01*
X241852381Y-154119048D01*
X241852381Y-154214286D01*
X241852381Y-152833333D02*
X241852381Y-153404762D01*
X241852381Y-153119048D02*
X240852381Y-153119048D01*
X240995238Y-153214286D01*
X241090476Y-153309524D01*
X241138095Y-153404762D01*
X236007143Y-147366666D02*
X236054762Y-147414285D01*
X236102381Y-147557142D01*
X236102381Y-147652380D01*
X236054762Y-147795238D01*
X235959524Y-147890476D01*
X235864286Y-147938095D01*
X235673810Y-147985714D01*
X235530952Y-147985714D01*
X235340476Y-147938095D01*
X235245238Y-147890476D01*
X235150000Y-147795238D01*
X235102381Y-147652380D01*
X235102381Y-147557142D01*
X235150000Y-147414285D01*
X235197619Y-147366666D01*
X236102381Y-146414285D02*
X236102381Y-146985714D01*
X236102381Y-146700000D02*
X235102381Y-146700000D01*
X235245238Y-146795238D01*
X235340476Y-146890476D01*
X235388095Y-146985714D01*
X220866667Y-150185714D02*
X220828572Y-150223810D01*
X220714286Y-150261905D01*
X220638096Y-150261905D01*
X220523810Y-150223810D01*
X220447619Y-150147619D01*
X220409524Y-150071429D01*
X220371429Y-149919048D01*
X220371429Y-149804762D01*
X220409524Y-149652381D01*
X220447619Y-149576190D01*
X220523810Y-149500000D01*
X220638096Y-149461905D01*
X220714286Y-149461905D01*
X220828572Y-149500000D01*
X220866667Y-149538095D01*
X221171429Y-149538095D02*
X221209524Y-149500000D01*
X221285715Y-149461905D01*
X221476191Y-149461905D01*
X221552381Y-149500000D01*
X221590477Y-149538095D01*
X221628572Y-149614286D01*
X221628572Y-149690476D01*
X221590477Y-149804762D01*
X221133334Y-150261905D01*
X221628572Y-150261905D01*
X227716667Y-131885714D02*
X227678572Y-131923810D01*
X227564286Y-131961905D01*
X227488096Y-131961905D01*
X227373810Y-131923810D01*
X227297619Y-131847619D01*
X227259524Y-131771429D01*
X227221429Y-131619048D01*
X227221429Y-131504762D01*
X227259524Y-131352381D01*
X227297619Y-131276190D01*
X227373810Y-131200000D01*
X227488096Y-131161905D01*
X227564286Y-131161905D01*
X227678572Y-131200000D01*
X227716667Y-131238095D01*
X227983334Y-131161905D02*
X228478572Y-131161905D01*
X228211905Y-131466667D01*
X228326191Y-131466667D01*
X228402381Y-131504762D01*
X228440477Y-131542857D01*
X228478572Y-131619048D01*
X228478572Y-131809524D01*
X228440477Y-131885714D01*
X228402381Y-131923810D01*
X228326191Y-131961905D01*
X228097619Y-131961905D01*
X228021429Y-131923810D01*
X227983334Y-131885714D01*
X226685714Y-146783333D02*
X226723810Y-146821428D01*
X226761905Y-146935714D01*
X226761905Y-147011904D01*
X226723810Y-147126190D01*
X226647619Y-147202381D01*
X226571429Y-147240476D01*
X226419048Y-147278571D01*
X226304762Y-147278571D01*
X226152381Y-147240476D01*
X226076190Y-147202381D01*
X226000000Y-147126190D01*
X225961905Y-147011904D01*
X225961905Y-146935714D01*
X226000000Y-146821428D01*
X226038095Y-146783333D01*
X226228571Y-146097619D02*
X226761905Y-146097619D01*
X225923810Y-146288095D02*
X226495238Y-146478571D01*
X226495238Y-145983333D01*
X238385714Y-113058333D02*
X238423810Y-113096428D01*
X238461905Y-113210714D01*
X238461905Y-113286904D01*
X238423810Y-113401190D01*
X238347619Y-113477381D01*
X238271429Y-113515476D01*
X238119048Y-113553571D01*
X238004762Y-113553571D01*
X237852381Y-113515476D01*
X237776190Y-113477381D01*
X237700000Y-113401190D01*
X237661905Y-113286904D01*
X237661905Y-113210714D01*
X237700000Y-113096428D01*
X237738095Y-113058333D01*
X237661905Y-112334523D02*
X237661905Y-112715476D01*
X238042857Y-112753571D01*
X238004762Y-112715476D01*
X237966667Y-112639285D01*
X237966667Y-112448809D01*
X238004762Y-112372619D01*
X238042857Y-112334523D01*
X238119048Y-112296428D01*
X238309524Y-112296428D01*
X238385714Y-112334523D01*
X238423810Y-112372619D01*
X238461905Y-112448809D01*
X238461905Y-112639285D01*
X238423810Y-112715476D01*
X238385714Y-112753571D01*
X235985714Y-111633333D02*
X236023810Y-111671428D01*
X236061905Y-111785714D01*
X236061905Y-111861904D01*
X236023810Y-111976190D01*
X235947619Y-112052381D01*
X235871429Y-112090476D01*
X235719048Y-112128571D01*
X235604762Y-112128571D01*
X235452381Y-112090476D01*
X235376190Y-112052381D01*
X235300000Y-111976190D01*
X235261905Y-111861904D01*
X235261905Y-111785714D01*
X235300000Y-111671428D01*
X235338095Y-111633333D01*
X235261905Y-110947619D02*
X235261905Y-111100000D01*
X235300000Y-111176190D01*
X235338095Y-111214285D01*
X235452381Y-111290476D01*
X235604762Y-111328571D01*
X235909524Y-111328571D01*
X235985714Y-111290476D01*
X236023810Y-111252381D01*
X236061905Y-111176190D01*
X236061905Y-111023809D01*
X236023810Y-110947619D01*
X235985714Y-110909523D01*
X235909524Y-110871428D01*
X235719048Y-110871428D01*
X235642857Y-110909523D01*
X235604762Y-110947619D01*
X235566667Y-111023809D01*
X235566667Y-111176190D01*
X235604762Y-111252381D01*
X235642857Y-111290476D01*
X235719048Y-111328571D01*
X227666667Y-125685714D02*
X227628572Y-125723810D01*
X227514286Y-125761905D01*
X227438096Y-125761905D01*
X227323810Y-125723810D01*
X227247619Y-125647619D01*
X227209524Y-125571429D01*
X227171429Y-125419048D01*
X227171429Y-125304762D01*
X227209524Y-125152381D01*
X227247619Y-125076190D01*
X227323810Y-125000000D01*
X227438096Y-124961905D01*
X227514286Y-124961905D01*
X227628572Y-125000000D01*
X227666667Y-125038095D01*
X227933334Y-124961905D02*
X228466667Y-124961905D01*
X228123810Y-125761905D01*
X226610714Y-107783333D02*
X226648810Y-107821428D01*
X226686905Y-107935714D01*
X226686905Y-108011904D01*
X226648810Y-108126190D01*
X226572619Y-108202381D01*
X226496429Y-108240476D01*
X226344048Y-108278571D01*
X226229762Y-108278571D01*
X226077381Y-108240476D01*
X226001190Y-108202381D01*
X225925000Y-108126190D01*
X225886905Y-108011904D01*
X225886905Y-107935714D01*
X225925000Y-107821428D01*
X225963095Y-107783333D01*
X226229762Y-107326190D02*
X226191667Y-107402381D01*
X226153571Y-107440476D01*
X226077381Y-107478571D01*
X226039286Y-107478571D01*
X225963095Y-107440476D01*
X225925000Y-107402381D01*
X225886905Y-107326190D01*
X225886905Y-107173809D01*
X225925000Y-107097619D01*
X225963095Y-107059523D01*
X226039286Y-107021428D01*
X226077381Y-107021428D01*
X226153571Y-107059523D01*
X226191667Y-107097619D01*
X226229762Y-107173809D01*
X226229762Y-107326190D01*
X226267857Y-107402381D01*
X226305952Y-107440476D01*
X226382143Y-107478571D01*
X226534524Y-107478571D01*
X226610714Y-107440476D01*
X226648810Y-107402381D01*
X226686905Y-107326190D01*
X226686905Y-107173809D01*
X226648810Y-107097619D01*
X226610714Y-107059523D01*
X226534524Y-107021428D01*
X226382143Y-107021428D01*
X226305952Y-107059523D01*
X226267857Y-107097619D01*
X226229762Y-107173809D01*
X224660714Y-107808333D02*
X224698810Y-107846428D01*
X224736905Y-107960714D01*
X224736905Y-108036904D01*
X224698810Y-108151190D01*
X224622619Y-108227381D01*
X224546429Y-108265476D01*
X224394048Y-108303571D01*
X224279762Y-108303571D01*
X224127381Y-108265476D01*
X224051190Y-108227381D01*
X223975000Y-108151190D01*
X223936905Y-108036904D01*
X223936905Y-107960714D01*
X223975000Y-107846428D01*
X224013095Y-107808333D01*
X224736905Y-107427381D02*
X224736905Y-107275000D01*
X224698810Y-107198809D01*
X224660714Y-107160714D01*
X224546429Y-107084523D01*
X224394048Y-107046428D01*
X224089286Y-107046428D01*
X224013095Y-107084523D01*
X223975000Y-107122619D01*
X223936905Y-107198809D01*
X223936905Y-107351190D01*
X223975000Y-107427381D01*
X224013095Y-107465476D01*
X224089286Y-107503571D01*
X224279762Y-107503571D01*
X224355952Y-107465476D01*
X224394048Y-107427381D01*
X224432143Y-107351190D01*
X224432143Y-107198809D01*
X224394048Y-107122619D01*
X224355952Y-107084523D01*
X224279762Y-107046428D01*
X222685714Y-108139286D02*
X222723810Y-108177381D01*
X222761905Y-108291667D01*
X222761905Y-108367857D01*
X222723810Y-108482143D01*
X222647619Y-108558334D01*
X222571429Y-108596429D01*
X222419048Y-108634524D01*
X222304762Y-108634524D01*
X222152381Y-108596429D01*
X222076190Y-108558334D01*
X222000000Y-108482143D01*
X221961905Y-108367857D01*
X221961905Y-108291667D01*
X222000000Y-108177381D01*
X222038095Y-108139286D01*
X222761905Y-107377381D02*
X222761905Y-107834524D01*
X222761905Y-107605953D02*
X221961905Y-107605953D01*
X222076190Y-107682143D01*
X222152381Y-107758334D01*
X222190476Y-107834524D01*
X221961905Y-106882143D02*
X221961905Y-106805952D01*
X222000000Y-106729762D01*
X222038095Y-106691667D01*
X222114286Y-106653571D01*
X222266667Y-106615476D01*
X222457143Y-106615476D01*
X222609524Y-106653571D01*
X222685714Y-106691667D01*
X222723810Y-106729762D01*
X222761905Y-106805952D01*
X222761905Y-106882143D01*
X222723810Y-106958333D01*
X222685714Y-106996429D01*
X222609524Y-107034524D01*
X222457143Y-107072619D01*
X222266667Y-107072619D01*
X222114286Y-107034524D01*
X222038095Y-106996429D01*
X222000000Y-106958333D01*
X221961905Y-106882143D01*
X226610714Y-104564286D02*
X226648810Y-104602381D01*
X226686905Y-104716667D01*
X226686905Y-104792857D01*
X226648810Y-104907143D01*
X226572619Y-104983334D01*
X226496429Y-105021429D01*
X226344048Y-105059524D01*
X226229762Y-105059524D01*
X226077381Y-105021429D01*
X226001190Y-104983334D01*
X225925000Y-104907143D01*
X225886905Y-104792857D01*
X225886905Y-104716667D01*
X225925000Y-104602381D01*
X225963095Y-104564286D01*
X226686905Y-103802381D02*
X226686905Y-104259524D01*
X226686905Y-104030953D02*
X225886905Y-104030953D01*
X226001190Y-104107143D01*
X226077381Y-104183334D01*
X226115476Y-104259524D01*
X226686905Y-103040476D02*
X226686905Y-103497619D01*
X226686905Y-103269048D02*
X225886905Y-103269048D01*
X226001190Y-103345238D01*
X226077381Y-103421429D01*
X226115476Y-103497619D01*
X224710714Y-104589286D02*
X224748810Y-104627381D01*
X224786905Y-104741667D01*
X224786905Y-104817857D01*
X224748810Y-104932143D01*
X224672619Y-105008334D01*
X224596429Y-105046429D01*
X224444048Y-105084524D01*
X224329762Y-105084524D01*
X224177381Y-105046429D01*
X224101190Y-105008334D01*
X224025000Y-104932143D01*
X223986905Y-104817857D01*
X223986905Y-104741667D01*
X224025000Y-104627381D01*
X224063095Y-104589286D01*
X224786905Y-103827381D02*
X224786905Y-104284524D01*
X224786905Y-104055953D02*
X223986905Y-104055953D01*
X224101190Y-104132143D01*
X224177381Y-104208334D01*
X224215476Y-104284524D01*
X224063095Y-103522619D02*
X224025000Y-103484524D01*
X223986905Y-103408333D01*
X223986905Y-103217857D01*
X224025000Y-103141667D01*
X224063095Y-103103571D01*
X224139286Y-103065476D01*
X224215476Y-103065476D01*
X224329762Y-103103571D01*
X224786905Y-103560714D01*
X224786905Y-103065476D01*
X222735714Y-104614286D02*
X222773810Y-104652381D01*
X222811905Y-104766667D01*
X222811905Y-104842857D01*
X222773810Y-104957143D01*
X222697619Y-105033334D01*
X222621429Y-105071429D01*
X222469048Y-105109524D01*
X222354762Y-105109524D01*
X222202381Y-105071429D01*
X222126190Y-105033334D01*
X222050000Y-104957143D01*
X222011905Y-104842857D01*
X222011905Y-104766667D01*
X222050000Y-104652381D01*
X222088095Y-104614286D01*
X222811905Y-103852381D02*
X222811905Y-104309524D01*
X222811905Y-104080953D02*
X222011905Y-104080953D01*
X222126190Y-104157143D01*
X222202381Y-104233334D01*
X222240476Y-104309524D01*
X222011905Y-103585714D02*
X222011905Y-103090476D01*
X222316667Y-103357143D01*
X222316667Y-103242857D01*
X222354762Y-103166667D01*
X222392857Y-103128571D01*
X222469048Y-103090476D01*
X222659524Y-103090476D01*
X222735714Y-103128571D01*
X222773810Y-103166667D01*
X222811905Y-103242857D01*
X222811905Y-103471429D01*
X222773810Y-103547619D01*
X222735714Y-103585714D01*
X226735714Y-100989286D02*
X226773810Y-101027381D01*
X226811905Y-101141667D01*
X226811905Y-101217857D01*
X226773810Y-101332143D01*
X226697619Y-101408334D01*
X226621429Y-101446429D01*
X226469048Y-101484524D01*
X226354762Y-101484524D01*
X226202381Y-101446429D01*
X226126190Y-101408334D01*
X226050000Y-101332143D01*
X226011905Y-101217857D01*
X226011905Y-101141667D01*
X226050000Y-101027381D01*
X226088095Y-100989286D01*
X226811905Y-100227381D02*
X226811905Y-100684524D01*
X226811905Y-100455953D02*
X226011905Y-100455953D01*
X226126190Y-100532143D01*
X226202381Y-100608334D01*
X226240476Y-100684524D01*
X226278571Y-99541667D02*
X226811905Y-99541667D01*
X225973810Y-99732143D02*
X226545238Y-99922619D01*
X226545238Y-99427381D01*
X224760714Y-100989286D02*
X224798810Y-101027381D01*
X224836905Y-101141667D01*
X224836905Y-101217857D01*
X224798810Y-101332143D01*
X224722619Y-101408334D01*
X224646429Y-101446429D01*
X224494048Y-101484524D01*
X224379762Y-101484524D01*
X224227381Y-101446429D01*
X224151190Y-101408334D01*
X224075000Y-101332143D01*
X224036905Y-101217857D01*
X224036905Y-101141667D01*
X224075000Y-101027381D01*
X224113095Y-100989286D01*
X224836905Y-100227381D02*
X224836905Y-100684524D01*
X224836905Y-100455953D02*
X224036905Y-100455953D01*
X224151190Y-100532143D01*
X224227381Y-100608334D01*
X224265476Y-100684524D01*
X224036905Y-99503571D02*
X224036905Y-99884524D01*
X224417857Y-99922619D01*
X224379762Y-99884524D01*
X224341667Y-99808333D01*
X224341667Y-99617857D01*
X224379762Y-99541667D01*
X224417857Y-99503571D01*
X224494048Y-99465476D01*
X224684524Y-99465476D01*
X224760714Y-99503571D01*
X224798810Y-99541667D01*
X224836905Y-99617857D01*
X224836905Y-99808333D01*
X224798810Y-99884524D01*
X224760714Y-99922619D01*
X222785714Y-100989286D02*
X222823810Y-101027381D01*
X222861905Y-101141667D01*
X222861905Y-101217857D01*
X222823810Y-101332143D01*
X222747619Y-101408334D01*
X222671429Y-101446429D01*
X222519048Y-101484524D01*
X222404762Y-101484524D01*
X222252381Y-101446429D01*
X222176190Y-101408334D01*
X222100000Y-101332143D01*
X222061905Y-101217857D01*
X222061905Y-101141667D01*
X222100000Y-101027381D01*
X222138095Y-100989286D01*
X222861905Y-100227381D02*
X222861905Y-100684524D01*
X222861905Y-100455953D02*
X222061905Y-100455953D01*
X222176190Y-100532143D01*
X222252381Y-100608334D01*
X222290476Y-100684524D01*
X222061905Y-99541667D02*
X222061905Y-99694048D01*
X222100000Y-99770238D01*
X222138095Y-99808333D01*
X222252381Y-99884524D01*
X222404762Y-99922619D01*
X222709524Y-99922619D01*
X222785714Y-99884524D01*
X222823810Y-99846429D01*
X222861905Y-99770238D01*
X222861905Y-99617857D01*
X222823810Y-99541667D01*
X222785714Y-99503571D01*
X222709524Y-99465476D01*
X222519048Y-99465476D01*
X222442857Y-99503571D01*
X222404762Y-99541667D01*
X222366667Y-99617857D01*
X222366667Y-99770238D01*
X222404762Y-99846429D01*
X222442857Y-99884524D01*
X222519048Y-99922619D01*
X232685714Y-97085714D02*
X232647619Y-97123810D01*
X232533333Y-97161905D01*
X232457143Y-97161905D01*
X232342857Y-97123810D01*
X232266666Y-97047619D01*
X232228571Y-96971429D01*
X232190476Y-96819048D01*
X232190476Y-96704762D01*
X232228571Y-96552381D01*
X232266666Y-96476190D01*
X232342857Y-96400000D01*
X232457143Y-96361905D01*
X232533333Y-96361905D01*
X232647619Y-96400000D01*
X232685714Y-96438095D01*
X233447619Y-97161905D02*
X232990476Y-97161905D01*
X233219047Y-97161905D02*
X233219047Y-96361905D01*
X233142857Y-96476190D01*
X233066666Y-96552381D01*
X232990476Y-96590476D01*
X233714286Y-96361905D02*
X234247619Y-96361905D01*
X233904762Y-97161905D01*
X233135714Y-79585714D02*
X233097619Y-79623810D01*
X232983333Y-79661905D01*
X232907143Y-79661905D01*
X232792857Y-79623810D01*
X232716666Y-79547619D01*
X232678571Y-79471429D01*
X232640476Y-79319048D01*
X232640476Y-79204762D01*
X232678571Y-79052381D01*
X232716666Y-78976190D01*
X232792857Y-78900000D01*
X232907143Y-78861905D01*
X232983333Y-78861905D01*
X233097619Y-78900000D01*
X233135714Y-78938095D01*
X233897619Y-79661905D02*
X233440476Y-79661905D01*
X233669047Y-79661905D02*
X233669047Y-78861905D01*
X233592857Y-78976190D01*
X233516666Y-79052381D01*
X233440476Y-79090476D01*
X234354762Y-79204762D02*
X234278571Y-79166667D01*
X234240476Y-79128571D01*
X234202381Y-79052381D01*
X234202381Y-79014286D01*
X234240476Y-78938095D01*
X234278571Y-78900000D01*
X234354762Y-78861905D01*
X234507143Y-78861905D01*
X234583333Y-78900000D01*
X234621429Y-78938095D01*
X234659524Y-79014286D01*
X234659524Y-79052381D01*
X234621429Y-79128571D01*
X234583333Y-79166667D01*
X234507143Y-79204762D01*
X234354762Y-79204762D01*
X234278571Y-79242857D01*
X234240476Y-79280952D01*
X234202381Y-79357143D01*
X234202381Y-79509524D01*
X234240476Y-79585714D01*
X234278571Y-79623810D01*
X234354762Y-79661905D01*
X234507143Y-79661905D01*
X234583333Y-79623810D01*
X234621429Y-79585714D01*
X234659524Y-79509524D01*
X234659524Y-79357143D01*
X234621429Y-79280952D01*
X234583333Y-79242857D01*
X234507143Y-79204762D01*
D10*
X236735714Y-73635714D02*
X236697619Y-73673810D01*
X236583333Y-73711905D01*
X236507143Y-73711905D01*
X236392857Y-73673810D01*
X236316666Y-73597619D01*
X236278571Y-73521429D01*
X236240476Y-73369048D01*
X236240476Y-73254762D01*
X236278571Y-73102381D01*
X236316666Y-73026190D01*
X236392857Y-72950000D01*
X236507143Y-72911905D01*
X236583333Y-72911905D01*
X236697619Y-72950000D01*
X236735714Y-72988095D01*
X237497619Y-73711905D02*
X237040476Y-73711905D01*
X237269047Y-73711905D02*
X237269047Y-72911905D01*
X237192857Y-73026190D01*
X237116666Y-73102381D01*
X237040476Y-73140476D01*
X237878571Y-73711905D02*
X238030952Y-73711905D01*
X238107143Y-73673810D01*
X238145238Y-73635714D01*
X238221429Y-73521429D01*
X238259524Y-73369048D01*
X238259524Y-73064286D01*
X238221429Y-72988095D01*
X238183333Y-72950000D01*
X238107143Y-72911905D01*
X237954762Y-72911905D01*
X237878571Y-72950000D01*
X237840476Y-72988095D01*
X237802381Y-73064286D01*
X237802381Y-73254762D01*
X237840476Y-73330952D01*
X237878571Y-73369048D01*
X237954762Y-73407143D01*
X238107143Y-73407143D01*
X238183333Y-73369048D01*
X238221429Y-73330952D01*
X238259524Y-73254762D01*
D14*
X226735714Y-72035714D02*
X226697619Y-72073810D01*
X226583333Y-72111905D01*
X226507143Y-72111905D01*
X226392857Y-72073810D01*
X226316666Y-71997619D01*
X226278571Y-71921429D01*
X226240476Y-71769048D01*
X226240476Y-71654762D01*
X226278571Y-71502381D01*
X226316666Y-71426190D01*
X226392857Y-71350000D01*
X226507143Y-71311905D01*
X226583333Y-71311905D01*
X226697619Y-71350000D01*
X226735714Y-71388095D01*
X227040476Y-71388095D02*
X227078571Y-71350000D01*
X227154762Y-71311905D01*
X227345238Y-71311905D01*
X227421428Y-71350000D01*
X227459524Y-71388095D01*
X227497619Y-71464286D01*
X227497619Y-71540476D01*
X227459524Y-71654762D01*
X227002381Y-72111905D01*
X227497619Y-72111905D01*
X227992857Y-71311905D02*
X228069048Y-71311905D01*
X228145238Y-71350000D01*
X228183333Y-71388095D01*
X228221429Y-71464286D01*
X228259524Y-71616667D01*
X228259524Y-71807143D01*
X228221429Y-71959524D01*
X228183333Y-72035714D01*
X228145238Y-72073810D01*
X228069048Y-72111905D01*
X227992857Y-72111905D01*
X227916667Y-72073810D01*
X227878571Y-72035714D01*
X227840476Y-71959524D01*
X227802381Y-71807143D01*
X227802381Y-71616667D01*
X227840476Y-71464286D01*
X227878571Y-71388095D01*
X227916667Y-71350000D01*
X227992857Y-71311905D01*
X234273810Y-133588095D02*
X234197619Y-133550000D01*
X234121429Y-133473810D01*
X234007143Y-133359524D01*
X233930952Y-133321429D01*
X233854762Y-133321429D01*
X233892857Y-133511905D02*
X233816667Y-133473810D01*
X233740476Y-133397619D01*
X233702381Y-133245238D01*
X233702381Y-132978571D01*
X233740476Y-132826190D01*
X233816667Y-132750000D01*
X233892857Y-132711905D01*
X234045238Y-132711905D01*
X234121429Y-132750000D01*
X234197619Y-132826190D01*
X234235714Y-132978571D01*
X234235714Y-133245238D01*
X234197619Y-133397619D01*
X234121429Y-133473810D01*
X234045238Y-133511905D01*
X233892857Y-133511905D01*
X234997619Y-133511905D02*
X234540476Y-133511905D01*
X234769047Y-133511905D02*
X234769047Y-132711905D01*
X234692857Y-132826190D01*
X234616666Y-132902381D01*
X234540476Y-132940476D01*
X224211905Y-151183333D02*
X223830952Y-151450000D01*
X224211905Y-151640476D02*
X223411905Y-151640476D01*
X223411905Y-151335714D01*
X223450000Y-151259523D01*
X223488095Y-151221428D01*
X223564286Y-151183333D01*
X223678571Y-151183333D01*
X223754762Y-151221428D01*
X223792857Y-151259523D01*
X223830952Y-151335714D01*
X223830952Y-151640476D01*
X224211905Y-150421428D02*
X224211905Y-150878571D01*
X224211905Y-150650000D02*
X223411905Y-150650000D01*
X223526190Y-150726190D01*
X223602381Y-150802381D01*
X223640476Y-150878571D01*
X224211905Y-142783333D02*
X223830952Y-143050000D01*
X224211905Y-143240476D02*
X223411905Y-143240476D01*
X223411905Y-142935714D01*
X223450000Y-142859523D01*
X223488095Y-142821428D01*
X223564286Y-142783333D01*
X223678571Y-142783333D01*
X223754762Y-142821428D01*
X223792857Y-142859523D01*
X223830952Y-142935714D01*
X223830952Y-143240476D01*
X223488095Y-142478571D02*
X223450000Y-142440476D01*
X223411905Y-142364285D01*
X223411905Y-142173809D01*
X223450000Y-142097619D01*
X223488095Y-142059523D01*
X223564286Y-142021428D01*
X223640476Y-142021428D01*
X223754762Y-142059523D01*
X224211905Y-142516666D01*
X224211905Y-142021428D01*
X230211905Y-140883333D02*
X229830952Y-141150000D01*
X230211905Y-141340476D02*
X229411905Y-141340476D01*
X229411905Y-141035714D01*
X229450000Y-140959523D01*
X229488095Y-140921428D01*
X229564286Y-140883333D01*
X229678571Y-140883333D01*
X229754762Y-140921428D01*
X229792857Y-140959523D01*
X229830952Y-141035714D01*
X229830952Y-141340476D01*
X229411905Y-140616666D02*
X229411905Y-140121428D01*
X229716667Y-140388095D01*
X229716667Y-140273809D01*
X229754762Y-140197619D01*
X229792857Y-140159523D01*
X229869048Y-140121428D01*
X230059524Y-140121428D01*
X230135714Y-140159523D01*
X230173810Y-140197619D01*
X230211905Y-140273809D01*
X230211905Y-140502381D01*
X230173810Y-140578571D01*
X230135714Y-140616666D01*
X234266667Y-130761905D02*
X234000000Y-130380952D01*
X233809524Y-130761905D02*
X233809524Y-129961905D01*
X234114286Y-129961905D01*
X234190477Y-130000000D01*
X234228572Y-130038095D01*
X234266667Y-130114286D01*
X234266667Y-130228571D01*
X234228572Y-130304762D01*
X234190477Y-130342857D01*
X234114286Y-130380952D01*
X233809524Y-130380952D01*
X234952381Y-130228571D02*
X234952381Y-130761905D01*
X234761905Y-129923810D02*
X234571429Y-130495238D01*
X235066667Y-130495238D01*
X234316667Y-136161905D02*
X234050000Y-135780952D01*
X233859524Y-136161905D02*
X233859524Y-135361905D01*
X234164286Y-135361905D01*
X234240477Y-135400000D01*
X234278572Y-135438095D01*
X234316667Y-135514286D01*
X234316667Y-135628571D01*
X234278572Y-135704762D01*
X234240477Y-135742857D01*
X234164286Y-135780952D01*
X233859524Y-135780952D01*
X235040477Y-135361905D02*
X234659524Y-135361905D01*
X234621429Y-135742857D01*
X234659524Y-135704762D01*
X234735715Y-135666667D01*
X234926191Y-135666667D01*
X235002381Y-135704762D01*
X235040477Y-135742857D01*
X235078572Y-135819048D01*
X235078572Y-136009524D01*
X235040477Y-136085714D01*
X235002381Y-136123810D01*
X234926191Y-136161905D01*
X234735715Y-136161905D01*
X234659524Y-136123810D01*
X234621429Y-136085714D01*
X232883334Y-142452381D02*
X232550000Y-141976190D01*
X232311905Y-142452381D02*
X232311905Y-141452381D01*
X232692858Y-141452381D01*
X232788096Y-141500000D01*
X232835715Y-141547619D01*
X232883334Y-141642857D01*
X232883334Y-141785714D01*
X232835715Y-141880952D01*
X232788096Y-141928571D01*
X232692858Y-141976190D01*
X232311905Y-141976190D01*
X233740477Y-141452381D02*
X233550000Y-141452381D01*
X233454762Y-141500000D01*
X233407143Y-141547619D01*
X233311905Y-141690476D01*
X233264286Y-141880952D01*
X233264286Y-142261905D01*
X233311905Y-142357143D01*
X233359524Y-142404762D01*
X233454762Y-142452381D01*
X233645239Y-142452381D01*
X233740477Y-142404762D01*
X233788096Y-142357143D01*
X233835715Y-142261905D01*
X233835715Y-142023810D01*
X233788096Y-141928571D01*
X233740477Y-141880952D01*
X233645239Y-141833333D01*
X233454762Y-141833333D01*
X233359524Y-141880952D01*
X233311905Y-141928571D01*
X233264286Y-142023810D01*
X235416667Y-118561905D02*
X235150000Y-118180952D01*
X234959524Y-118561905D02*
X234959524Y-117761905D01*
X235264286Y-117761905D01*
X235340477Y-117800000D01*
X235378572Y-117838095D01*
X235416667Y-117914286D01*
X235416667Y-118028571D01*
X235378572Y-118104762D01*
X235340477Y-118142857D01*
X235264286Y-118180952D01*
X234959524Y-118180952D01*
X235683334Y-117761905D02*
X236216667Y-117761905D01*
X235873810Y-118561905D01*
X225711905Y-107783333D02*
X225330952Y-108050000D01*
X225711905Y-108240476D02*
X224911905Y-108240476D01*
X224911905Y-107935714D01*
X224950000Y-107859523D01*
X224988095Y-107821428D01*
X225064286Y-107783333D01*
X225178571Y-107783333D01*
X225254762Y-107821428D01*
X225292857Y-107859523D01*
X225330952Y-107935714D01*
X225330952Y-108240476D01*
X225254762Y-107326190D02*
X225216667Y-107402381D01*
X225178571Y-107440476D01*
X225102381Y-107478571D01*
X225064286Y-107478571D01*
X224988095Y-107440476D01*
X224950000Y-107402381D01*
X224911905Y-107326190D01*
X224911905Y-107173809D01*
X224950000Y-107097619D01*
X224988095Y-107059523D01*
X225064286Y-107021428D01*
X225102381Y-107021428D01*
X225178571Y-107059523D01*
X225216667Y-107097619D01*
X225254762Y-107173809D01*
X225254762Y-107326190D01*
X225292857Y-107402381D01*
X225330952Y-107440476D01*
X225407143Y-107478571D01*
X225559524Y-107478571D01*
X225635714Y-107440476D01*
X225673810Y-107402381D01*
X225711905Y-107326190D01*
X225711905Y-107173809D01*
X225673810Y-107097619D01*
X225635714Y-107059523D01*
X225559524Y-107021428D01*
X225407143Y-107021428D01*
X225330952Y-107059523D01*
X225292857Y-107097619D01*
X225254762Y-107173809D01*
X223736905Y-107758333D02*
X223355952Y-108025000D01*
X223736905Y-108215476D02*
X222936905Y-108215476D01*
X222936905Y-107910714D01*
X222975000Y-107834523D01*
X223013095Y-107796428D01*
X223089286Y-107758333D01*
X223203571Y-107758333D01*
X223279762Y-107796428D01*
X223317857Y-107834523D01*
X223355952Y-107910714D01*
X223355952Y-108215476D01*
X223736905Y-107377381D02*
X223736905Y-107225000D01*
X223698810Y-107148809D01*
X223660714Y-107110714D01*
X223546429Y-107034523D01*
X223394048Y-106996428D01*
X223089286Y-106996428D01*
X223013095Y-107034523D01*
X222975000Y-107072619D01*
X222936905Y-107148809D01*
X222936905Y-107301190D01*
X222975000Y-107377381D01*
X223013095Y-107415476D01*
X223089286Y-107453571D01*
X223279762Y-107453571D01*
X223355952Y-107415476D01*
X223394048Y-107377381D01*
X223432143Y-107301190D01*
X223432143Y-107148809D01*
X223394048Y-107072619D01*
X223355952Y-107034523D01*
X223279762Y-106996428D01*
X221786905Y-108139286D02*
X221405952Y-108405953D01*
X221786905Y-108596429D02*
X220986905Y-108596429D01*
X220986905Y-108291667D01*
X221025000Y-108215476D01*
X221063095Y-108177381D01*
X221139286Y-108139286D01*
X221253571Y-108139286D01*
X221329762Y-108177381D01*
X221367857Y-108215476D01*
X221405952Y-108291667D01*
X221405952Y-108596429D01*
X221786905Y-107377381D02*
X221786905Y-107834524D01*
X221786905Y-107605953D02*
X220986905Y-107605953D01*
X221101190Y-107682143D01*
X221177381Y-107758334D01*
X221215476Y-107834524D01*
X220986905Y-106882143D02*
X220986905Y-106805952D01*
X221025000Y-106729762D01*
X221063095Y-106691667D01*
X221139286Y-106653571D01*
X221291667Y-106615476D01*
X221482143Y-106615476D01*
X221634524Y-106653571D01*
X221710714Y-106691667D01*
X221748810Y-106729762D01*
X221786905Y-106805952D01*
X221786905Y-106882143D01*
X221748810Y-106958333D01*
X221710714Y-106996429D01*
X221634524Y-107034524D01*
X221482143Y-107072619D01*
X221291667Y-107072619D01*
X221139286Y-107034524D01*
X221063095Y-106996429D01*
X221025000Y-106958333D01*
X220986905Y-106882143D01*
X225736905Y-104564286D02*
X225355952Y-104830953D01*
X225736905Y-105021429D02*
X224936905Y-105021429D01*
X224936905Y-104716667D01*
X224975000Y-104640476D01*
X225013095Y-104602381D01*
X225089286Y-104564286D01*
X225203571Y-104564286D01*
X225279762Y-104602381D01*
X225317857Y-104640476D01*
X225355952Y-104716667D01*
X225355952Y-105021429D01*
X225736905Y-103802381D02*
X225736905Y-104259524D01*
X225736905Y-104030953D02*
X224936905Y-104030953D01*
X225051190Y-104107143D01*
X225127381Y-104183334D01*
X225165476Y-104259524D01*
X225736905Y-103040476D02*
X225736905Y-103497619D01*
X225736905Y-103269048D02*
X224936905Y-103269048D01*
X225051190Y-103345238D01*
X225127381Y-103421429D01*
X225165476Y-103497619D01*
X223786905Y-104589286D02*
X223405952Y-104855953D01*
X223786905Y-105046429D02*
X222986905Y-105046429D01*
X222986905Y-104741667D01*
X223025000Y-104665476D01*
X223063095Y-104627381D01*
X223139286Y-104589286D01*
X223253571Y-104589286D01*
X223329762Y-104627381D01*
X223367857Y-104665476D01*
X223405952Y-104741667D01*
X223405952Y-105046429D01*
X223786905Y-103827381D02*
X223786905Y-104284524D01*
X223786905Y-104055953D02*
X222986905Y-104055953D01*
X223101190Y-104132143D01*
X223177381Y-104208334D01*
X223215476Y-104284524D01*
X223063095Y-103522619D02*
X223025000Y-103484524D01*
X222986905Y-103408333D01*
X222986905Y-103217857D01*
X223025000Y-103141667D01*
X223063095Y-103103571D01*
X223139286Y-103065476D01*
X223215476Y-103065476D01*
X223329762Y-103103571D01*
X223786905Y-103560714D01*
X223786905Y-103065476D01*
X221836905Y-104614286D02*
X221455952Y-104880953D01*
X221836905Y-105071429D02*
X221036905Y-105071429D01*
X221036905Y-104766667D01*
X221075000Y-104690476D01*
X221113095Y-104652381D01*
X221189286Y-104614286D01*
X221303571Y-104614286D01*
X221379762Y-104652381D01*
X221417857Y-104690476D01*
X221455952Y-104766667D01*
X221455952Y-105071429D01*
X221836905Y-103852381D02*
X221836905Y-104309524D01*
X221836905Y-104080953D02*
X221036905Y-104080953D01*
X221151190Y-104157143D01*
X221227381Y-104233334D01*
X221265476Y-104309524D01*
X221036905Y-103585714D02*
X221036905Y-103090476D01*
X221341667Y-103357143D01*
X221341667Y-103242857D01*
X221379762Y-103166667D01*
X221417857Y-103128571D01*
X221494048Y-103090476D01*
X221684524Y-103090476D01*
X221760714Y-103128571D01*
X221798810Y-103166667D01*
X221836905Y-103242857D01*
X221836905Y-103471429D01*
X221798810Y-103547619D01*
X221760714Y-103585714D01*
X233535714Y-128911905D02*
X233269047Y-128530952D01*
X233078571Y-128911905D02*
X233078571Y-128111905D01*
X233383333Y-128111905D01*
X233459524Y-128150000D01*
X233497619Y-128188095D01*
X233535714Y-128264286D01*
X233535714Y-128378571D01*
X233497619Y-128454762D01*
X233459524Y-128492857D01*
X233383333Y-128530952D01*
X233078571Y-128530952D01*
X234297619Y-128911905D02*
X233840476Y-128911905D01*
X234069047Y-128911905D02*
X234069047Y-128111905D01*
X233992857Y-128226190D01*
X233916666Y-128302381D01*
X233840476Y-128340476D01*
X234983333Y-128378571D02*
X234983333Y-128911905D01*
X234792857Y-128073810D02*
X234602381Y-128645238D01*
X235097619Y-128645238D01*
X225811905Y-100989286D02*
X225430952Y-101255953D01*
X225811905Y-101446429D02*
X225011905Y-101446429D01*
X225011905Y-101141667D01*
X225050000Y-101065476D01*
X225088095Y-101027381D01*
X225164286Y-100989286D01*
X225278571Y-100989286D01*
X225354762Y-101027381D01*
X225392857Y-101065476D01*
X225430952Y-101141667D01*
X225430952Y-101446429D01*
X225811905Y-100227381D02*
X225811905Y-100684524D01*
X225811905Y-100455953D02*
X225011905Y-100455953D01*
X225126190Y-100532143D01*
X225202381Y-100608334D01*
X225240476Y-100684524D01*
X225011905Y-99503571D02*
X225011905Y-99884524D01*
X225392857Y-99922619D01*
X225354762Y-99884524D01*
X225316667Y-99808333D01*
X225316667Y-99617857D01*
X225354762Y-99541667D01*
X225392857Y-99503571D01*
X225469048Y-99465476D01*
X225659524Y-99465476D01*
X225735714Y-99503571D01*
X225773810Y-99541667D01*
X225811905Y-99617857D01*
X225811905Y-99808333D01*
X225773810Y-99884524D01*
X225735714Y-99922619D01*
X223836905Y-100989286D02*
X223455952Y-101255953D01*
X223836905Y-101446429D02*
X223036905Y-101446429D01*
X223036905Y-101141667D01*
X223075000Y-101065476D01*
X223113095Y-101027381D01*
X223189286Y-100989286D01*
X223303571Y-100989286D01*
X223379762Y-101027381D01*
X223417857Y-101065476D01*
X223455952Y-101141667D01*
X223455952Y-101446429D01*
X223836905Y-100227381D02*
X223836905Y-100684524D01*
X223836905Y-100455953D02*
X223036905Y-100455953D01*
X223151190Y-100532143D01*
X223227381Y-100608334D01*
X223265476Y-100684524D01*
X223036905Y-99541667D02*
X223036905Y-99694048D01*
X223075000Y-99770238D01*
X223113095Y-99808333D01*
X223227381Y-99884524D01*
X223379762Y-99922619D01*
X223684524Y-99922619D01*
X223760714Y-99884524D01*
X223798810Y-99846429D01*
X223836905Y-99770238D01*
X223836905Y-99617857D01*
X223798810Y-99541667D01*
X223760714Y-99503571D01*
X223684524Y-99465476D01*
X223494048Y-99465476D01*
X223417857Y-99503571D01*
X223379762Y-99541667D01*
X223341667Y-99617857D01*
X223341667Y-99770238D01*
X223379762Y-99846429D01*
X223417857Y-99884524D01*
X223494048Y-99922619D01*
X221886905Y-100989286D02*
X221505952Y-101255953D01*
X221886905Y-101446429D02*
X221086905Y-101446429D01*
X221086905Y-101141667D01*
X221125000Y-101065476D01*
X221163095Y-101027381D01*
X221239286Y-100989286D01*
X221353571Y-100989286D01*
X221429762Y-101027381D01*
X221467857Y-101065476D01*
X221505952Y-101141667D01*
X221505952Y-101446429D01*
X221886905Y-100227381D02*
X221886905Y-100684524D01*
X221886905Y-100455953D02*
X221086905Y-100455953D01*
X221201190Y-100532143D01*
X221277381Y-100608334D01*
X221315476Y-100684524D01*
X221086905Y-99960714D02*
X221086905Y-99427381D01*
X221886905Y-99770238D01*
X242235714Y-89661905D02*
X241969047Y-89280952D01*
X241778571Y-89661905D02*
X241778571Y-88861905D01*
X242083333Y-88861905D01*
X242159524Y-88900000D01*
X242197619Y-88938095D01*
X242235714Y-89014286D01*
X242235714Y-89128571D01*
X242197619Y-89204762D01*
X242159524Y-89242857D01*
X242083333Y-89280952D01*
X241778571Y-89280952D01*
X242997619Y-89661905D02*
X242540476Y-89661905D01*
X242769047Y-89661905D02*
X242769047Y-88861905D01*
X242692857Y-88976190D01*
X242616666Y-89052381D01*
X242540476Y-89090476D01*
X243454762Y-89204762D02*
X243378571Y-89166667D01*
X243340476Y-89128571D01*
X243302381Y-89052381D01*
X243302381Y-89014286D01*
X243340476Y-88938095D01*
X243378571Y-88900000D01*
X243454762Y-88861905D01*
X243607143Y-88861905D01*
X243683333Y-88900000D01*
X243721429Y-88938095D01*
X243759524Y-89014286D01*
X243759524Y-89052381D01*
X243721429Y-89128571D01*
X243683333Y-89166667D01*
X243607143Y-89204762D01*
X243454762Y-89204762D01*
X243378571Y-89242857D01*
X243340476Y-89280952D01*
X243302381Y-89357143D01*
X243302381Y-89509524D01*
X243340476Y-89585714D01*
X243378571Y-89623810D01*
X243454762Y-89661905D01*
X243607143Y-89661905D01*
X243683333Y-89623810D01*
X243721429Y-89585714D01*
X243759524Y-89509524D01*
X243759524Y-89357143D01*
X243721429Y-89280952D01*
X243683333Y-89242857D01*
X243607143Y-89204762D01*
X242235714Y-92161905D02*
X241969047Y-91780952D01*
X241778571Y-92161905D02*
X241778571Y-91361905D01*
X242083333Y-91361905D01*
X242159524Y-91400000D01*
X242197619Y-91438095D01*
X242235714Y-91514286D01*
X242235714Y-91628571D01*
X242197619Y-91704762D01*
X242159524Y-91742857D01*
X242083333Y-91780952D01*
X241778571Y-91780952D01*
X242997619Y-92161905D02*
X242540476Y-92161905D01*
X242769047Y-92161905D02*
X242769047Y-91361905D01*
X242692857Y-91476190D01*
X242616666Y-91552381D01*
X242540476Y-91590476D01*
X243378571Y-92161905D02*
X243530952Y-92161905D01*
X243607143Y-92123810D01*
X243645238Y-92085714D01*
X243721429Y-91971429D01*
X243759524Y-91819048D01*
X243759524Y-91514286D01*
X243721429Y-91438095D01*
X243683333Y-91400000D01*
X243607143Y-91361905D01*
X243454762Y-91361905D01*
X243378571Y-91400000D01*
X243340476Y-91438095D01*
X243302381Y-91514286D01*
X243302381Y-91704762D01*
X243340476Y-91780952D01*
X243378571Y-91819048D01*
X243454762Y-91857143D01*
X243607143Y-91857143D01*
X243683333Y-91819048D01*
X243721429Y-91780952D01*
X243759524Y-91704762D01*
X242235714Y-94661905D02*
X241969047Y-94280952D01*
X241778571Y-94661905D02*
X241778571Y-93861905D01*
X242083333Y-93861905D01*
X242159524Y-93900000D01*
X242197619Y-93938095D01*
X242235714Y-94014286D01*
X242235714Y-94128571D01*
X242197619Y-94204762D01*
X242159524Y-94242857D01*
X242083333Y-94280952D01*
X241778571Y-94280952D01*
X242540476Y-93938095D02*
X242578571Y-93900000D01*
X242654762Y-93861905D01*
X242845238Y-93861905D01*
X242921428Y-93900000D01*
X242959524Y-93938095D01*
X242997619Y-94014286D01*
X242997619Y-94090476D01*
X242959524Y-94204762D01*
X242502381Y-94661905D01*
X242997619Y-94661905D01*
X243492857Y-93861905D02*
X243569048Y-93861905D01*
X243645238Y-93900000D01*
X243683333Y-93938095D01*
X243721429Y-94014286D01*
X243759524Y-94166667D01*
X243759524Y-94357143D01*
X243721429Y-94509524D01*
X243683333Y-94585714D01*
X243645238Y-94623810D01*
X243569048Y-94661905D01*
X243492857Y-94661905D01*
X243416667Y-94623810D01*
X243378571Y-94585714D01*
X243340476Y-94509524D01*
X243302381Y-94357143D01*
X243302381Y-94166667D01*
X243340476Y-94014286D01*
X243378571Y-93938095D01*
X243416667Y-93900000D01*
X243492857Y-93861905D01*
X242235714Y-97161905D02*
X241969047Y-96780952D01*
X241778571Y-97161905D02*
X241778571Y-96361905D01*
X242083333Y-96361905D01*
X242159524Y-96400000D01*
X242197619Y-96438095D01*
X242235714Y-96514286D01*
X242235714Y-96628571D01*
X242197619Y-96704762D01*
X242159524Y-96742857D01*
X242083333Y-96780952D01*
X241778571Y-96780952D01*
X242540476Y-96438095D02*
X242578571Y-96400000D01*
X242654762Y-96361905D01*
X242845238Y-96361905D01*
X242921428Y-96400000D01*
X242959524Y-96438095D01*
X242997619Y-96514286D01*
X242997619Y-96590476D01*
X242959524Y-96704762D01*
X242502381Y-97161905D01*
X242997619Y-97161905D01*
X243759524Y-97161905D02*
X243302381Y-97161905D01*
X243530952Y-97161905D02*
X243530952Y-96361905D01*
X243454762Y-96476190D01*
X243378571Y-96552381D01*
X243302381Y-96590476D01*
X242235714Y-79661905D02*
X241969047Y-79280952D01*
X241778571Y-79661905D02*
X241778571Y-78861905D01*
X242083333Y-78861905D01*
X242159524Y-78900000D01*
X242197619Y-78938095D01*
X242235714Y-79014286D01*
X242235714Y-79128571D01*
X242197619Y-79204762D01*
X242159524Y-79242857D01*
X242083333Y-79280952D01*
X241778571Y-79280952D01*
X242540476Y-78938095D02*
X242578571Y-78900000D01*
X242654762Y-78861905D01*
X242845238Y-78861905D01*
X242921428Y-78900000D01*
X242959524Y-78938095D01*
X242997619Y-79014286D01*
X242997619Y-79090476D01*
X242959524Y-79204762D01*
X242502381Y-79661905D01*
X242997619Y-79661905D01*
X243302381Y-78938095D02*
X243340476Y-78900000D01*
X243416667Y-78861905D01*
X243607143Y-78861905D01*
X243683333Y-78900000D01*
X243721429Y-78938095D01*
X243759524Y-79014286D01*
X243759524Y-79090476D01*
X243721429Y-79204762D01*
X243264286Y-79661905D01*
X243759524Y-79661905D01*
X242235714Y-82161905D02*
X241969047Y-81780952D01*
X241778571Y-82161905D02*
X241778571Y-81361905D01*
X242083333Y-81361905D01*
X242159524Y-81400000D01*
X242197619Y-81438095D01*
X242235714Y-81514286D01*
X242235714Y-81628571D01*
X242197619Y-81704762D01*
X242159524Y-81742857D01*
X242083333Y-81780952D01*
X241778571Y-81780952D01*
X242540476Y-81438095D02*
X242578571Y-81400000D01*
X242654762Y-81361905D01*
X242845238Y-81361905D01*
X242921428Y-81400000D01*
X242959524Y-81438095D01*
X242997619Y-81514286D01*
X242997619Y-81590476D01*
X242959524Y-81704762D01*
X242502381Y-82161905D01*
X242997619Y-82161905D01*
X243264286Y-81361905D02*
X243759524Y-81361905D01*
X243492857Y-81666667D01*
X243607143Y-81666667D01*
X243683333Y-81704762D01*
X243721429Y-81742857D01*
X243759524Y-81819048D01*
X243759524Y-82009524D01*
X243721429Y-82085714D01*
X243683333Y-82123810D01*
X243607143Y-82161905D01*
X243378571Y-82161905D01*
X243302381Y-82123810D01*
X243264286Y-82085714D01*
X242235714Y-84661905D02*
X241969047Y-84280952D01*
X241778571Y-84661905D02*
X241778571Y-83861905D01*
X242083333Y-83861905D01*
X242159524Y-83900000D01*
X242197619Y-83938095D01*
X242235714Y-84014286D01*
X242235714Y-84128571D01*
X242197619Y-84204762D01*
X242159524Y-84242857D01*
X242083333Y-84280952D01*
X241778571Y-84280952D01*
X242540476Y-83938095D02*
X242578571Y-83900000D01*
X242654762Y-83861905D01*
X242845238Y-83861905D01*
X242921428Y-83900000D01*
X242959524Y-83938095D01*
X242997619Y-84014286D01*
X242997619Y-84090476D01*
X242959524Y-84204762D01*
X242502381Y-84661905D01*
X242997619Y-84661905D01*
X243683333Y-84128571D02*
X243683333Y-84661905D01*
X243492857Y-83823810D02*
X243302381Y-84395238D01*
X243797619Y-84395238D01*
X242235714Y-87161905D02*
X241969047Y-86780952D01*
X241778571Y-87161905D02*
X241778571Y-86361905D01*
X242083333Y-86361905D01*
X242159524Y-86400000D01*
X242197619Y-86438095D01*
X242235714Y-86514286D01*
X242235714Y-86628571D01*
X242197619Y-86704762D01*
X242159524Y-86742857D01*
X242083333Y-86780952D01*
X241778571Y-86780952D01*
X242540476Y-86438095D02*
X242578571Y-86400000D01*
X242654762Y-86361905D01*
X242845238Y-86361905D01*
X242921428Y-86400000D01*
X242959524Y-86438095D01*
X242997619Y-86514286D01*
X242997619Y-86590476D01*
X242959524Y-86704762D01*
X242502381Y-87161905D01*
X242997619Y-87161905D01*
X243721429Y-86361905D02*
X243340476Y-86361905D01*
X243302381Y-86742857D01*
X243340476Y-86704762D01*
X243416667Y-86666667D01*
X243607143Y-86666667D01*
X243683333Y-86704762D01*
X243721429Y-86742857D01*
X243759524Y-86819048D01*
X243759524Y-87009524D01*
X243721429Y-87085714D01*
X243683333Y-87123810D01*
X243607143Y-87161905D01*
X243416667Y-87161905D01*
X243340476Y-87123810D01*
X243302381Y-87085714D01*
X220390476Y-142911905D02*
X220390476Y-143559524D01*
X220428571Y-143635714D01*
X220466667Y-143673810D01*
X220542857Y-143711905D01*
X220695238Y-143711905D01*
X220771429Y-143673810D01*
X220809524Y-143635714D01*
X220847619Y-143559524D01*
X220847619Y-142911905D01*
X221647619Y-143711905D02*
X221190476Y-143711905D01*
X221419047Y-143711905D02*
X221419047Y-142911905D01*
X221342857Y-143026190D01*
X221266666Y-143102381D01*
X221190476Y-143140476D01*
X230340476Y-148561905D02*
X230340476Y-149209524D01*
X230378571Y-149285714D01*
X230416667Y-149323810D01*
X230492857Y-149361905D01*
X230645238Y-149361905D01*
X230721429Y-149323810D01*
X230759524Y-149285714D01*
X230797619Y-149209524D01*
X230797619Y-148561905D01*
X231140476Y-148638095D02*
X231178571Y-148600000D01*
X231254762Y-148561905D01*
X231445238Y-148561905D01*
X231521428Y-148600000D01*
X231559524Y-148638095D01*
X231597619Y-148714286D01*
X231597619Y-148790476D01*
X231559524Y-148904762D01*
X231102381Y-149361905D01*
X231597619Y-149361905D01*
X227711905Y-129059524D02*
X228359524Y-129059524D01*
X228435714Y-129021429D01*
X228473810Y-128983333D01*
X228511905Y-128907143D01*
X228511905Y-128754762D01*
X228473810Y-128678571D01*
X228435714Y-128640476D01*
X228359524Y-128602381D01*
X227711905Y-128602381D01*
X227711905Y-128297619D02*
X227711905Y-127802381D01*
X228016667Y-128069048D01*
X228016667Y-127954762D01*
X228054762Y-127878572D01*
X228092857Y-127840476D01*
X228169048Y-127802381D01*
X228359524Y-127802381D01*
X228435714Y-127840476D01*
X228473810Y-127878572D01*
X228511905Y-127954762D01*
X228511905Y-128183334D01*
X228473810Y-128259524D01*
X228435714Y-128297619D01*
X229100000Y-134878571D02*
X229100000Y-135950000D01*
X229028572Y-136164286D01*
X228885715Y-136307143D01*
X228671429Y-136378571D01*
X228528572Y-136378571D01*
X229814286Y-136378571D02*
X229814286Y-134878571D01*
X230385714Y-134878571D01*
X230528572Y-134950000D01*
X230600000Y-135021429D01*
X230671429Y-135164286D01*
X230671429Y-135378571D01*
X230600000Y-135521429D01*
X230528572Y-135592857D01*
X230385714Y-135664286D01*
X229814286Y-135664286D01*
X232100000Y-136378571D02*
X231242857Y-136378571D01*
X231671429Y-136378571D02*
X231671429Y-134878571D01*
X231528572Y-135092857D01*
X231385714Y-135235714D01*
X231242857Y-135307143D01*
X229300000Y-93742857D02*
X229300000Y-94600000D01*
X229242858Y-94771429D01*
X229128572Y-94885714D01*
X228957143Y-94942857D01*
X228842858Y-94942857D01*
X229871429Y-94942857D02*
X229871429Y-93742857D01*
X230328572Y-93742857D01*
X230442858Y-93800000D01*
X230500001Y-93857143D01*
X230557144Y-93971429D01*
X230557144Y-94142857D01*
X230500001Y-94257143D01*
X230442858Y-94314286D01*
X230328572Y-94371429D01*
X229871429Y-94371429D01*
X230957144Y-93742857D02*
X231700001Y-93742857D01*
X231300001Y-94200000D01*
X231471429Y-94200000D01*
X231585715Y-94257143D01*
X231642858Y-94314286D01*
X231700001Y-94428571D01*
X231700001Y-94714286D01*
X231642858Y-94828571D01*
X231585715Y-94885714D01*
X231471429Y-94942857D01*
X231128572Y-94942857D01*
X231014286Y-94885714D01*
X230957144Y-94828571D01*
X229300000Y-91242857D02*
X229300000Y-92100000D01*
X229242858Y-92271429D01*
X229128572Y-92385714D01*
X228957143Y-92442857D01*
X228842858Y-92442857D01*
X229871429Y-92442857D02*
X229871429Y-91242857D01*
X230328572Y-91242857D01*
X230442858Y-91300000D01*
X230500001Y-91357143D01*
X230557144Y-91471429D01*
X230557144Y-91642857D01*
X230500001Y-91757143D01*
X230442858Y-91814286D01*
X230328572Y-91871429D01*
X229871429Y-91871429D01*
X231585715Y-91642857D02*
X231585715Y-92442857D01*
X231300001Y-91185714D02*
X231014286Y-92042857D01*
X231757144Y-92042857D01*
X229300000Y-88742857D02*
X229300000Y-89600000D01*
X229242858Y-89771429D01*
X229128572Y-89885714D01*
X228957143Y-89942857D01*
X228842858Y-89942857D01*
X229871429Y-89942857D02*
X229871429Y-88742857D01*
X230328572Y-88742857D01*
X230442858Y-88800000D01*
X230500001Y-88857143D01*
X230557144Y-88971429D01*
X230557144Y-89142857D01*
X230500001Y-89257143D01*
X230442858Y-89314286D01*
X230328572Y-89371429D01*
X229871429Y-89371429D01*
X231642858Y-88742857D02*
X231071429Y-88742857D01*
X231014286Y-89314286D01*
X231071429Y-89257143D01*
X231185715Y-89200000D01*
X231471429Y-89200000D01*
X231585715Y-89257143D01*
X231642858Y-89314286D01*
X231700001Y-89428571D01*
X231700001Y-89714286D01*
X231642858Y-89828571D01*
X231585715Y-89885714D01*
X231471429Y-89942857D01*
X231185715Y-89942857D01*
X231071429Y-89885714D01*
X231014286Y-89828571D01*
X229300000Y-86142857D02*
X229300000Y-87000000D01*
X229242858Y-87171429D01*
X229128572Y-87285714D01*
X228957143Y-87342857D01*
X228842858Y-87342857D01*
X229871429Y-87342857D02*
X229871429Y-86142857D01*
X230328572Y-86142857D01*
X230442858Y-86200000D01*
X230500001Y-86257143D01*
X230557144Y-86371429D01*
X230557144Y-86542857D01*
X230500001Y-86657143D01*
X230442858Y-86714286D01*
X230328572Y-86771429D01*
X229871429Y-86771429D01*
X231585715Y-86142857D02*
X231357144Y-86142857D01*
X231242858Y-86200000D01*
X231185715Y-86257143D01*
X231071429Y-86428571D01*
X231014286Y-86657143D01*
X231014286Y-87114286D01*
X231071429Y-87228571D01*
X231128572Y-87285714D01*
X231242858Y-87342857D01*
X231471429Y-87342857D01*
X231585715Y-87285714D01*
X231642858Y-87228571D01*
X231700001Y-87114286D01*
X231700001Y-86828571D01*
X231642858Y-86714286D01*
X231585715Y-86657143D01*
X231471429Y-86600000D01*
X231242858Y-86600000D01*
X231128572Y-86657143D01*
X231071429Y-86714286D01*
X231014286Y-86828571D01*
X229300000Y-83642857D02*
X229300000Y-84500000D01*
X229242858Y-84671429D01*
X229128572Y-84785714D01*
X228957143Y-84842857D01*
X228842858Y-84842857D01*
X229871429Y-84842857D02*
X229871429Y-83642857D01*
X230328572Y-83642857D01*
X230442858Y-83700000D01*
X230500001Y-83757143D01*
X230557144Y-83871429D01*
X230557144Y-84042857D01*
X230500001Y-84157143D01*
X230442858Y-84214286D01*
X230328572Y-84271429D01*
X229871429Y-84271429D01*
X230957144Y-83642857D02*
X231757144Y-83642857D01*
X231242858Y-84842857D01*
X229300000Y-81142857D02*
X229300000Y-82000000D01*
X229242858Y-82171429D01*
X229128572Y-82285714D01*
X228957143Y-82342857D01*
X228842858Y-82342857D01*
X229871429Y-82342857D02*
X229871429Y-81142857D01*
X230328572Y-81142857D01*
X230442858Y-81200000D01*
X230500001Y-81257143D01*
X230557144Y-81371429D01*
X230557144Y-81542857D01*
X230500001Y-81657143D01*
X230442858Y-81714286D01*
X230328572Y-81771429D01*
X229871429Y-81771429D01*
X231242858Y-81657143D02*
X231128572Y-81600000D01*
X231071429Y-81542857D01*
X231014286Y-81428571D01*
X231014286Y-81371429D01*
X231071429Y-81257143D01*
X231128572Y-81200000D01*
X231242858Y-81142857D01*
X231471429Y-81142857D01*
X231585715Y-81200000D01*
X231642858Y-81257143D01*
X231700001Y-81371429D01*
X231700001Y-81428571D01*
X231642858Y-81542857D01*
X231585715Y-81600000D01*
X231471429Y-81657143D01*
X231242858Y-81657143D01*
X231128572Y-81714286D01*
X231071429Y-81771429D01*
X231014286Y-81885714D01*
X231014286Y-82114286D01*
X231071429Y-82228571D01*
X231128572Y-82285714D01*
X231242858Y-82342857D01*
X231471429Y-82342857D01*
X231585715Y-82285714D01*
X231642858Y-82228571D01*
X231700001Y-82114286D01*
X231700001Y-81885714D01*
X231642858Y-81771429D01*
X231585715Y-81714286D01*
X231471429Y-81657143D01*
D17*
X241333334Y-63290476D02*
X241266667Y-63195238D01*
X241219048Y-63290476D02*
X241219048Y-63090476D01*
X241295239Y-63090476D01*
X241314286Y-63100000D01*
X241323810Y-63109524D01*
X241333334Y-63128571D01*
X241333334Y-63157143D01*
X241323810Y-63176190D01*
X241314286Y-63185714D01*
X241295239Y-63195238D01*
X241219048Y-63195238D01*
X241419048Y-63185714D02*
X241485715Y-63185714D01*
X241514286Y-63290476D02*
X241419048Y-63290476D01*
X241419048Y-63090476D01*
X241514286Y-63090476D01*
X241666667Y-63185714D02*
X241600000Y-63185714D01*
X241600000Y-63290476D02*
X241600000Y-63090476D01*
X241695238Y-63090476D01*
X241800000Y-63090476D02*
X241800000Y-63138095D01*
X241752381Y-63119048D02*
X241800000Y-63138095D01*
X241847620Y-63119048D01*
X241771429Y-63176190D02*
X241800000Y-63138095D01*
X241828572Y-63176190D01*
X241952381Y-63090476D02*
X241952381Y-63138095D01*
X241904762Y-63119048D02*
X241952381Y-63138095D01*
X242000001Y-63119048D01*
X241923810Y-63176190D02*
X241952381Y-63138095D01*
X241980953Y-63176190D01*
D14*
X240461905Y-132102381D02*
X240461905Y-131102381D01*
X240700000Y-131102381D01*
X240842858Y-131150000D01*
X240938096Y-131245238D01*
X240985715Y-131340476D01*
X241033334Y-131530952D01*
X241033334Y-131673810D01*
X240985715Y-131864286D01*
X240938096Y-131959524D01*
X240842858Y-132054762D01*
X240700000Y-132102381D01*
X240461905Y-132102381D01*
X241414286Y-131197619D02*
X241461905Y-131150000D01*
X241557143Y-131102381D01*
X241795239Y-131102381D01*
X241890477Y-131150000D01*
X241938096Y-131197619D01*
X241985715Y-131292857D01*
X241985715Y-131388095D01*
X241938096Y-131530952D01*
X241366667Y-132102381D01*
X241985715Y-132102381D01*
X240461905Y-126102381D02*
X240461905Y-125102381D01*
X240700000Y-125102381D01*
X240842858Y-125150000D01*
X240938096Y-125245238D01*
X240985715Y-125340476D01*
X241033334Y-125530952D01*
X241033334Y-125673810D01*
X240985715Y-125864286D01*
X240938096Y-125959524D01*
X240842858Y-126054762D01*
X240700000Y-126102381D01*
X240461905Y-126102381D01*
X241366667Y-125102381D02*
X241985715Y-125102381D01*
X241652381Y-125483333D01*
X241795239Y-125483333D01*
X241890477Y-125530952D01*
X241938096Y-125578571D01*
X241985715Y-125673810D01*
X241985715Y-125911905D01*
X241938096Y-126007143D01*
X241890477Y-126054762D01*
X241795239Y-126102381D01*
X241509524Y-126102381D01*
X241414286Y-126054762D01*
X241366667Y-126007143D01*
M02*
