G04 #@! TF.FileFunction,Copper,L1,Top,Signal*
%FSLAX46Y46*%
G04 Gerber Fmt 4.6, Leading zero omitted, Abs format (unit mm)*
G04 Created by KiCad (PCBNEW 4.0.7) date 02/20/18 20:02:19*
%MOMM*%
%LPD*%
G01*
G04 APERTURE LIST*
%ADD10C,0.100000*%
%ADD11R,2.400000X2.400000*%
%ADD12C,2.400000*%
%ADD13R,1.500000X0.450000*%
%ADD14C,3.300000*%
%ADD15R,1.200000X1.200000*%
%ADD16C,0.400000*%
%ADD17R,1.050000X1.400000*%
%ADD18R,1.600000X0.400000*%
%ADD19R,1.570000X1.890000*%
%ADD20C,0.600000*%
%ADD21R,1.350000X0.400000*%
%ADD22R,1.600000X2.100000*%
%ADD23R,1.900000X1.800000*%
%ADD24R,1.900000X1.900000*%
%ADD25R,1.250000X1.000000*%
%ADD26R,1.000000X1.250000*%
%ADD27R,1.700000X1.700000*%
%ADD28O,1.700000X1.700000*%
%ADD29R,0.900000X0.800000*%
%ADD30R,1.300000X0.700000*%
%ADD31R,0.700000X1.300000*%
%ADD32R,1.060000X0.650000*%
%ADD33R,0.650000X1.220000*%
%ADD34R,2.000000X1.700000*%
%ADD35C,1.500000*%
%ADD36C,0.350000*%
%ADD37C,0.250000*%
%ADD38C,0.254000*%
G04 APERTURE END LIST*
D10*
D11*
X225200000Y-64700000D03*
D12*
X230200000Y-64700000D03*
D13*
X231950000Y-119125000D03*
X231950000Y-118475000D03*
X231950000Y-117825000D03*
X231950000Y-117175000D03*
X231950000Y-116525000D03*
X231950000Y-115875000D03*
X231950000Y-115225000D03*
X231950000Y-114575000D03*
X226050000Y-114575000D03*
X226050000Y-115225000D03*
X226050000Y-115875000D03*
X226050000Y-116525000D03*
X226050000Y-117175000D03*
X226050000Y-117825000D03*
X226050000Y-118475000D03*
X226050000Y-119125000D03*
D14*
X227700000Y-152250000D03*
X227700000Y-79350000D03*
D15*
X242300000Y-139100000D03*
X240100000Y-139100000D03*
D16*
X232700000Y-71650000D03*
X231900000Y-71650000D03*
X232700000Y-70550000D03*
D17*
X213525000Y-68800000D03*
X213525000Y-72400000D03*
X212075000Y-68800000D03*
X212075000Y-72400000D03*
D18*
X234400000Y-72075000D03*
X234400000Y-71425000D03*
X234400000Y-70775000D03*
X234400000Y-70125000D03*
X230200000Y-70125000D03*
X230200000Y-70775000D03*
X230200000Y-71425000D03*
X230200000Y-72075000D03*
D19*
X232300000Y-71100000D03*
D20*
X226550000Y-145600000D03*
X225450000Y-145600000D03*
X226550000Y-144300000D03*
X235400000Y-145850000D03*
X236450000Y-145850000D03*
X235400000Y-144800000D03*
X236450000Y-144800000D03*
X235400000Y-143750000D03*
D21*
X240075000Y-149100000D03*
X240075000Y-148450000D03*
X240075000Y-147800000D03*
X240075000Y-147150000D03*
X240075000Y-146500000D03*
D22*
X240200000Y-150900000D03*
X240200000Y-144700000D03*
D23*
X242750000Y-151600000D03*
X242750000Y-144000000D03*
D24*
X242750000Y-149000000D03*
X242750000Y-146600000D03*
D20*
X226275000Y-149733334D03*
X227650000Y-149733334D03*
X229025000Y-149733334D03*
X226275000Y-148666667D03*
X227650000Y-148666667D03*
X232875000Y-149733334D03*
X234250000Y-149733334D03*
X235625000Y-149733334D03*
X232875000Y-148666667D03*
X234250000Y-148666667D03*
D25*
X234150000Y-147650000D03*
X234150000Y-145650000D03*
D26*
X222000000Y-148400000D03*
X220000000Y-148400000D03*
X229350000Y-131600000D03*
X231350000Y-131600000D03*
D25*
X227750000Y-147650000D03*
X227750000Y-145650000D03*
X236650000Y-115000000D03*
X236650000Y-113000000D03*
X234850000Y-115000000D03*
X234850000Y-113000000D03*
D26*
X229350000Y-125350000D03*
X231350000Y-125350000D03*
D25*
X240775000Y-106675000D03*
X240775000Y-108675000D03*
X235775000Y-106675000D03*
X235775000Y-108675000D03*
X230775000Y-106675000D03*
X230775000Y-108675000D03*
X240775000Y-103075000D03*
X240775000Y-105075000D03*
X235775000Y-103075000D03*
X235775000Y-105075000D03*
X230775000Y-103075000D03*
X230775000Y-105075000D03*
X240775000Y-99475000D03*
X240775000Y-101475000D03*
X235775000Y-99475000D03*
X235775000Y-101475000D03*
X230775000Y-99475000D03*
X230775000Y-101475000D03*
D26*
X235100000Y-96800000D03*
X237100000Y-96800000D03*
X237500000Y-79300000D03*
X235500000Y-79300000D03*
X236250000Y-71950000D03*
X238250000Y-71950000D03*
X228250000Y-70250000D03*
X226250000Y-70250000D03*
D27*
X242400000Y-115400000D03*
D28*
X242400000Y-117940000D03*
X242400000Y-120480000D03*
X242400000Y-123020000D03*
D29*
X235750000Y-132150000D03*
X235750000Y-134050000D03*
X237750000Y-133100000D03*
D30*
X223850000Y-149750000D03*
X223850000Y-147850000D03*
X223850000Y-146600000D03*
X223850000Y-144700000D03*
X229850000Y-142100000D03*
X229850000Y-144000000D03*
D31*
X237700000Y-130400000D03*
X235800000Y-130400000D03*
X235800000Y-135800000D03*
X237700000Y-135800000D03*
X232100000Y-143650000D03*
X234000000Y-143650000D03*
X236500000Y-116750000D03*
X234600000Y-116750000D03*
D30*
X238275000Y-106725000D03*
X238275000Y-108625000D03*
X233275000Y-106725000D03*
X233275000Y-108625000D03*
X228275000Y-106725000D03*
X228275000Y-108625000D03*
X238275000Y-103125000D03*
X238275000Y-105025000D03*
X233275000Y-103125000D03*
X233275000Y-105025000D03*
X228275000Y-103125000D03*
X228275000Y-105025000D03*
D31*
X237700000Y-128550000D03*
X235800000Y-128550000D03*
D30*
X238275000Y-99525000D03*
X238275000Y-101425000D03*
X233275000Y-99525000D03*
X233275000Y-101425000D03*
X228275000Y-99525000D03*
X228275000Y-101425000D03*
D31*
X241050000Y-89300000D03*
X239150000Y-89300000D03*
X241050000Y-91800000D03*
X239150000Y-91800000D03*
X241050000Y-94300000D03*
X239150000Y-94300000D03*
X241050000Y-96800000D03*
X239150000Y-96800000D03*
X241050000Y-79300000D03*
X239150000Y-79300000D03*
X241050000Y-81800000D03*
X239150000Y-81800000D03*
X241050000Y-84300000D03*
X239150000Y-84300000D03*
X241050000Y-86800000D03*
X239150000Y-86800000D03*
D32*
X219900000Y-144700000D03*
X219900000Y-145650000D03*
X219900000Y-146600000D03*
X222100000Y-146600000D03*
X222100000Y-144700000D03*
X229850000Y-145700000D03*
X229850000Y-146650000D03*
X229850000Y-147600000D03*
X232050000Y-147600000D03*
X232050000Y-145700000D03*
D33*
X229400000Y-129760000D03*
X230350000Y-129760000D03*
X231300000Y-129760000D03*
X231300000Y-127140000D03*
X229400000Y-127140000D03*
D34*
X232350000Y-133650000D03*
X228350000Y-133650000D03*
X237100000Y-94300000D03*
X233100000Y-94300000D03*
X237100000Y-91800000D03*
X233100000Y-91800000D03*
X237100000Y-89300000D03*
X233100000Y-89300000D03*
X233150000Y-86800000D03*
X237150000Y-86800000D03*
X233100000Y-84300000D03*
X237100000Y-84300000D03*
X233100000Y-81800000D03*
X237100000Y-81800000D03*
D35*
X231950000Y-121550000D03*
X222750000Y-117300000D03*
X222750000Y-114750000D03*
X230050000Y-112550000D03*
X232650000Y-112550000D03*
D20*
X235625000Y-148666667D03*
X229025000Y-148666667D03*
X236450000Y-143750000D03*
X225450000Y-144300000D03*
D16*
X232300000Y-71100000D03*
X231900000Y-70550000D03*
D15*
X242300000Y-133100000D03*
X240100000Y-133100000D03*
X242300000Y-127100000D03*
X240100000Y-127100000D03*
D27*
X239900000Y-111750000D03*
D28*
X242440000Y-111750000D03*
D20*
X229100000Y-115900000D03*
X230350000Y-128450000D03*
X230525000Y-131600000D03*
X234850000Y-111800000D03*
X234300000Y-79300000D03*
X239650000Y-108675000D03*
X239650000Y-105075000D03*
X239650000Y-101475000D03*
X236900000Y-108675000D03*
X236900000Y-105075000D03*
X236900000Y-101475000D03*
X231900000Y-108675000D03*
X231900000Y-105075000D03*
X231900000Y-101475000D03*
X241350000Y-124200000D03*
X232350000Y-127100000D03*
X232550000Y-125350000D03*
X236650000Y-111800000D03*
X226300000Y-68900000D03*
X237300000Y-71950000D03*
X228650000Y-71500000D03*
X212050000Y-73800000D03*
X212050000Y-67400000D03*
X238700000Y-127100000D03*
X235750000Y-133150000D03*
X222100000Y-143650000D03*
X223850000Y-143650000D03*
X218800000Y-148400000D03*
X238700000Y-146500000D03*
X230200000Y-69200000D03*
X218050000Y-118475000D03*
X213525000Y-73800000D03*
X224775000Y-115875000D03*
X218700000Y-146600000D03*
X229900000Y-73325000D03*
X227400000Y-119125000D03*
D36*
X229350000Y-129810000D02*
X229400000Y-129760000D01*
X230200000Y-70775000D02*
X228775000Y-70775000D01*
X228775000Y-70775000D02*
X228250000Y-70250000D01*
X230175000Y-70800000D02*
X230200000Y-70775000D01*
D37*
X226258334Y-149750000D02*
X226275000Y-149733334D01*
X227700000Y-147700000D02*
X227750000Y-147650000D01*
D36*
X231950000Y-115875000D02*
X229125000Y-115875000D01*
X229125000Y-115875000D02*
X229100000Y-115900000D01*
D37*
X230350000Y-129760000D02*
X230350000Y-128450000D01*
X231350000Y-131600000D02*
X230525000Y-131600000D01*
X234850000Y-113000000D02*
X234850000Y-111800000D01*
X235500000Y-79300000D02*
X234300000Y-79300000D01*
X240775000Y-108675000D02*
X239650000Y-108675000D01*
X240775000Y-105075000D02*
X239650000Y-105075000D01*
X240775000Y-101475000D02*
X239650000Y-101475000D01*
X235775000Y-108675000D02*
X236900000Y-108675000D01*
X235775000Y-105075000D02*
X236900000Y-105075000D01*
X235775000Y-101475000D02*
X236900000Y-101475000D01*
X230775000Y-108675000D02*
X231900000Y-108675000D01*
X230775000Y-105075000D02*
X231900000Y-105075000D01*
X230775000Y-101475000D02*
X231900000Y-101475000D01*
D36*
X242400000Y-123020000D02*
X242400000Y-123150000D01*
X242400000Y-123150000D02*
X241350000Y-124200000D01*
X231300000Y-127140000D02*
X232310000Y-127140000D01*
X232310000Y-127140000D02*
X232350000Y-127100000D01*
X231350000Y-125350000D02*
X232550000Y-125350000D01*
X234850000Y-113050000D02*
X234900000Y-113000000D01*
X236650000Y-113000000D02*
X236650000Y-111800000D01*
X226250000Y-70250000D02*
X226250000Y-68950000D01*
X226250000Y-68950000D02*
X226300000Y-68900000D01*
X238250000Y-71950000D02*
X237300000Y-71950000D01*
X230200000Y-71425000D02*
X228725000Y-71425000D01*
X228725000Y-71425000D02*
X228650000Y-71500000D01*
D37*
X212075000Y-72400000D02*
X212075000Y-73775000D01*
X212075000Y-73775000D02*
X212050000Y-73800000D01*
X212075000Y-68800000D02*
X212075000Y-67425000D01*
X212075000Y-67425000D02*
X212050000Y-67400000D01*
X240100000Y-127100000D02*
X238700000Y-127100000D01*
X235750000Y-134050000D02*
X235750000Y-133150000D01*
X222100000Y-144700000D02*
X222100000Y-143650000D01*
X223850000Y-144700000D02*
X223850000Y-143650000D01*
X220000000Y-148400000D02*
X218800000Y-148400000D01*
X240075000Y-146500000D02*
X238700000Y-146500000D01*
X242300000Y-139100000D02*
X242300000Y-141800000D01*
X237233333Y-148666667D02*
X235625000Y-148666667D01*
X237500000Y-148400000D02*
X237233333Y-148666667D01*
X237500000Y-142850000D02*
X237500000Y-148400000D01*
X238200000Y-142150000D02*
X237500000Y-142850000D01*
X241950000Y-142150000D02*
X238200000Y-142150000D01*
X242300000Y-141800000D02*
X241950000Y-142150000D01*
X240075000Y-149100000D02*
X236258334Y-149100000D01*
X236258334Y-149100000D02*
X235625000Y-149733334D01*
X235658334Y-149700000D02*
X235625000Y-149733334D01*
D36*
X236650000Y-115000000D02*
X239550000Y-115000000D01*
X239900000Y-114650000D02*
X239900000Y-111750000D01*
X239550000Y-115000000D02*
X239900000Y-114650000D01*
X231950000Y-116525000D02*
X233325000Y-116525000D01*
X233850000Y-115000000D02*
X234900000Y-115000000D01*
X233650000Y-115200000D02*
X233850000Y-115000000D01*
X233650000Y-116250000D02*
X233650000Y-115200000D01*
X233325000Y-116525000D02*
X233650000Y-116250000D01*
X231950000Y-116525000D02*
X229975000Y-116525000D01*
X229350000Y-117150000D02*
X229350000Y-125350000D01*
X229975000Y-116525000D02*
X229350000Y-117150000D01*
X231975000Y-116550000D02*
X231950000Y-116525000D01*
X236500000Y-116750000D02*
X236500000Y-115150000D01*
X236500000Y-115150000D02*
X236650000Y-115000000D01*
X234900000Y-115000000D02*
X236650000Y-115000000D01*
X229400000Y-127140000D02*
X229400000Y-125400000D01*
X229400000Y-125400000D02*
X229350000Y-125350000D01*
X229400000Y-125300000D02*
X229350000Y-125250000D01*
D37*
X240775000Y-106675000D02*
X238325000Y-106675000D01*
X238325000Y-106675000D02*
X238275000Y-106725000D01*
X238275000Y-106725000D02*
X238275000Y-105025000D01*
X235775000Y-106675000D02*
X233325000Y-106675000D01*
X233325000Y-106675000D02*
X233275000Y-106725000D01*
X233275000Y-106725000D02*
X233275000Y-105025000D01*
X228275000Y-106725000D02*
X228275000Y-105025000D01*
X230775000Y-106675000D02*
X228325000Y-106675000D01*
X228325000Y-106675000D02*
X228275000Y-106725000D01*
X240775000Y-103075000D02*
X238325000Y-103075000D01*
X238325000Y-103075000D02*
X238275000Y-103125000D01*
X238275000Y-103125000D02*
X238275000Y-101425000D01*
X235775000Y-103075000D02*
X233325000Y-103075000D01*
X233325000Y-103075000D02*
X233275000Y-103125000D01*
X233275000Y-103125000D02*
X233275000Y-101425000D01*
X230775000Y-103075000D02*
X228325000Y-103075000D01*
X228325000Y-103075000D02*
X228275000Y-103125000D01*
X228275000Y-103125000D02*
X228275000Y-101425000D01*
D36*
X235775000Y-99475000D02*
X238225000Y-99475000D01*
X238225000Y-99475000D02*
X238275000Y-99525000D01*
X230775000Y-99475000D02*
X233225000Y-99475000D01*
X233225000Y-99475000D02*
X233275000Y-99525000D01*
D37*
X233225000Y-99475000D02*
X233275000Y-99525000D01*
D36*
X235775000Y-99475000D02*
X235775000Y-97475000D01*
X235775000Y-97475000D02*
X235100000Y-96800000D01*
X240775000Y-99475000D02*
X238325000Y-99475000D01*
X238325000Y-99475000D02*
X238275000Y-99525000D01*
X240825000Y-99525000D02*
X240775000Y-99475000D01*
X235775000Y-99475000D02*
X233325000Y-99475000D01*
X233325000Y-99475000D02*
X233275000Y-99525000D01*
X235825000Y-99525000D02*
X235775000Y-99475000D01*
X230775000Y-99475000D02*
X228325000Y-99475000D01*
X228325000Y-99475000D02*
X228275000Y-99525000D01*
D37*
X237100000Y-96800000D02*
X237100000Y-96000000D01*
X234500000Y-95700000D02*
X233100000Y-94300000D01*
X236800000Y-95700000D02*
X234500000Y-95700000D01*
X237100000Y-96000000D02*
X236800000Y-95700000D01*
X237100000Y-96800000D02*
X239150000Y-96800000D01*
X237500000Y-79300000D02*
X237500000Y-80100000D01*
X234450000Y-80450000D02*
X233100000Y-81800000D01*
X237150000Y-80450000D02*
X234450000Y-80450000D01*
X237500000Y-80100000D02*
X237150000Y-80450000D01*
X237500000Y-79300000D02*
X239150000Y-79300000D01*
D36*
X234400000Y-71425000D02*
X235725000Y-71425000D01*
X235725000Y-71425000D02*
X236250000Y-71950000D01*
D37*
X229850000Y-142400000D02*
X229850000Y-139550000D01*
X230300000Y-139100000D02*
X240400000Y-139100000D01*
X229850000Y-139550000D02*
X230300000Y-139100000D01*
X237700000Y-135800000D02*
X237700000Y-134500000D01*
X242300000Y-133950000D02*
X242300000Y-133100000D01*
X242000000Y-134250000D02*
X242300000Y-133950000D01*
X237950000Y-134250000D02*
X242000000Y-134250000D01*
X237700000Y-134500000D02*
X237950000Y-134250000D01*
X237750000Y-133100000D02*
X240100000Y-133100000D01*
X237700000Y-128550000D02*
X238250000Y-128550000D01*
X242300000Y-128000000D02*
X242300000Y-127100000D01*
X242100000Y-128200000D02*
X242300000Y-128000000D01*
X238600000Y-128200000D02*
X242100000Y-128200000D01*
X238250000Y-128550000D02*
X238600000Y-128200000D01*
X242050000Y-150900000D02*
X242750000Y-151600000D01*
X240900000Y-151600000D02*
X240200000Y-150900000D01*
X242050000Y-144700000D02*
X242750000Y-144000000D01*
D36*
X242400000Y-115400000D02*
X242400000Y-111790000D01*
X242400000Y-111790000D02*
X242440000Y-111750000D01*
D37*
X242400000Y-117940000D02*
X234740000Y-117940000D01*
X234600000Y-117800000D02*
X234600000Y-116750000D01*
X234740000Y-117940000D02*
X234600000Y-117800000D01*
X231950000Y-117175000D02*
X234175000Y-117175000D01*
X234175000Y-117175000D02*
X234600000Y-116750000D01*
X231950000Y-117825000D02*
X233875000Y-117825000D01*
X240320000Y-118400000D02*
X242400000Y-120480000D01*
X234450000Y-118400000D02*
X240320000Y-118400000D01*
X233875000Y-117825000D02*
X234450000Y-118400000D01*
X232350000Y-133650000D02*
X232350000Y-130100000D01*
X232010000Y-129760000D02*
X231300000Y-129760000D01*
X232350000Y-130100000D02*
X232010000Y-129760000D01*
X237100000Y-94300000D02*
X235600000Y-94300000D01*
X235600000Y-94300000D02*
X233100000Y-91800000D01*
X237100000Y-94300000D02*
X239150000Y-94300000D01*
X237150000Y-86800000D02*
X239150000Y-86800000D01*
D36*
X230200000Y-72075000D02*
X229025000Y-72075000D01*
X225200000Y-71900000D02*
X225200000Y-64700000D01*
X225500000Y-72200000D02*
X225200000Y-71900000D01*
X228900000Y-72200000D02*
X225500000Y-72200000D01*
X229025000Y-72075000D02*
X228900000Y-72200000D01*
X230200000Y-70125000D02*
X230200000Y-69200000D01*
D37*
X235750000Y-132150000D02*
X234700000Y-132150000D01*
X219900000Y-144150000D02*
X219900000Y-144700000D01*
X220450000Y-143600000D02*
X219900000Y-144150000D01*
X220450000Y-136050000D02*
X220450000Y-143600000D01*
X221200000Y-135300000D02*
X220450000Y-136050000D01*
X233850000Y-135300000D02*
X221200000Y-135300000D01*
X234400000Y-134750000D02*
X233850000Y-135300000D01*
X234400000Y-132450000D02*
X234400000Y-134750000D01*
X234700000Y-132150000D02*
X234400000Y-132450000D01*
X235750000Y-132150000D02*
X235750000Y-130450000D01*
X235750000Y-130450000D02*
X235800000Y-130400000D01*
X223850000Y-146600000D02*
X222100000Y-146600000D01*
X223850000Y-147850000D02*
X223850000Y-146600000D01*
X229850000Y-145700000D02*
X229850000Y-144000000D01*
X232050000Y-145700000D02*
X232050000Y-143700000D01*
X232050000Y-143700000D02*
X232100000Y-143650000D01*
X226050000Y-117175000D02*
X227150000Y-117175000D01*
X238275000Y-109375000D02*
X238275000Y-108625000D01*
X238125000Y-109525000D02*
X238275000Y-109375000D01*
X233750000Y-109525000D02*
X238125000Y-109525000D01*
X233275000Y-110000000D02*
X233750000Y-109525000D01*
X229150002Y-110000000D02*
X233275000Y-110000000D01*
X228650004Y-110499998D02*
X229150002Y-110000000D01*
X228650004Y-114322792D02*
X228650004Y-110499998D01*
X227350000Y-115622796D02*
X228650004Y-114322792D01*
X227350000Y-116975000D02*
X227350000Y-115622796D01*
X227150000Y-117175000D02*
X227350000Y-116975000D01*
X226050000Y-115225000D02*
X227111398Y-115225000D01*
X233275000Y-109350000D02*
X233275000Y-108625000D01*
X233100000Y-109525000D02*
X233275000Y-109350000D01*
X228950000Y-109525000D02*
X233100000Y-109525000D01*
X228200002Y-110274998D02*
X228950000Y-109525000D01*
X228200002Y-114136396D02*
X228200002Y-110274998D01*
X227111398Y-115225000D02*
X228200002Y-114136396D01*
X228275000Y-108625000D02*
X228275000Y-108975000D01*
X228275000Y-108975000D02*
X227750000Y-109500000D01*
X225525000Y-114575000D02*
X227125000Y-114575000D01*
X227750000Y-113950000D02*
X227750000Y-109500000D01*
X227125000Y-114575000D02*
X227750000Y-113950000D01*
X231950000Y-118475000D02*
X233125000Y-118475000D01*
X234400000Y-128550000D02*
X235800000Y-128550000D01*
X233650000Y-127800000D02*
X234400000Y-128550000D01*
X233650000Y-119000000D02*
X233650000Y-127800000D01*
X233125000Y-118475000D02*
X233650000Y-119000000D01*
D36*
X241050000Y-96800000D02*
X241050000Y-94300000D01*
X241050000Y-94300000D02*
X241050000Y-91800000D01*
X241050000Y-91800000D02*
X241050000Y-89300000D01*
D37*
X234400000Y-70125000D02*
X240975000Y-70125000D01*
X242200000Y-88150000D02*
X241050000Y-89300000D01*
X242200000Y-71350000D02*
X242200000Y-88150000D01*
X240975000Y-70125000D02*
X242200000Y-71350000D01*
D36*
X241050000Y-86800000D02*
X241050000Y-84300000D01*
X241050000Y-84300000D02*
X241050000Y-81800000D01*
X241050000Y-81800000D02*
X241050000Y-79300000D01*
D37*
X241050000Y-79300000D02*
X241050000Y-71400000D01*
X240425000Y-70775000D02*
X234400000Y-70775000D01*
X241050000Y-71400000D02*
X240425000Y-70775000D01*
X218050000Y-118475000D02*
X218025000Y-118475000D01*
X213525000Y-73800000D02*
X213525000Y-72400000D01*
X226050000Y-118475000D02*
X218025000Y-118475000D01*
X213525000Y-68800000D02*
X213525000Y-69375000D01*
X213525000Y-69375000D02*
X212800000Y-70100000D01*
X212800000Y-70100000D02*
X212800000Y-71150000D01*
X212800000Y-71150000D02*
X213525000Y-71875000D01*
X213525000Y-71875000D02*
X213525000Y-72400000D01*
X231950000Y-121550000D02*
X231950000Y-119125000D01*
X226050000Y-117825000D02*
X223275000Y-117825000D01*
X223275000Y-117825000D02*
X222750000Y-117300000D01*
X226050000Y-116525000D02*
X224525000Y-116525000D01*
X224525000Y-116525000D02*
X222750000Y-114750000D01*
X231950000Y-114575000D02*
X230650000Y-114575000D01*
X230650000Y-114575000D02*
X230050000Y-113975000D01*
X230050000Y-113975000D02*
X230050000Y-112550000D01*
X231950000Y-115225000D02*
X232917890Y-115225000D01*
X232917890Y-115225000D02*
X233250000Y-114892890D01*
X233250000Y-114892890D02*
X233250000Y-113150000D01*
X233250000Y-113150000D02*
X232650000Y-112550000D01*
X224775000Y-115875000D02*
X226050000Y-115875000D01*
X219900000Y-146600000D02*
X218700000Y-146600000D01*
X226050000Y-119125000D02*
X227400000Y-119125000D01*
X234400000Y-72800000D02*
X234400000Y-72075000D01*
X229900000Y-73325000D02*
X229925000Y-73300000D01*
X229925000Y-73300000D02*
X233900000Y-73300000D01*
X233900000Y-73300000D02*
X234400000Y-72800000D01*
X237100000Y-91800000D02*
X235600000Y-91800000D01*
X235600000Y-91800000D02*
X233100000Y-89300000D01*
X237100000Y-91800000D02*
X239150000Y-91800000D01*
X237100000Y-89300000D02*
X239150000Y-89300000D01*
X233150000Y-86800000D02*
X234600000Y-86800000D01*
X234600000Y-86800000D02*
X237100000Y-84300000D01*
X237100000Y-84300000D02*
X239150000Y-84300000D01*
X233100000Y-84300000D02*
X234600000Y-84300000D01*
X234600000Y-84300000D02*
X237100000Y-81800000D01*
X237100000Y-81800000D02*
X239150000Y-81800000D01*
D38*
G36*
X236873000Y-146773000D02*
X233200000Y-146773000D01*
X233150590Y-146783006D01*
X233108965Y-146811447D01*
X233081685Y-146853841D01*
X233078080Y-146873000D01*
X228821532Y-146873000D01*
X228816994Y-146850590D01*
X228788553Y-146808965D01*
X228746159Y-146781685D01*
X228700000Y-146773000D01*
X225027000Y-146773000D01*
X225027000Y-143127000D01*
X228773000Y-143127000D01*
X228773000Y-146300000D01*
X228783006Y-146349410D01*
X228811447Y-146391035D01*
X228853841Y-146418315D01*
X228900000Y-146427000D01*
X232900000Y-146427000D01*
X232949410Y-146416994D01*
X232991035Y-146388553D01*
X233018315Y-146346159D01*
X233027000Y-146300000D01*
X233027000Y-142827000D01*
X236873000Y-142827000D01*
X236873000Y-146773000D01*
X236873000Y-146773000D01*
G37*
X236873000Y-146773000D02*
X233200000Y-146773000D01*
X233150590Y-146783006D01*
X233108965Y-146811447D01*
X233081685Y-146853841D01*
X233078080Y-146873000D01*
X228821532Y-146873000D01*
X228816994Y-146850590D01*
X228788553Y-146808965D01*
X228746159Y-146781685D01*
X228700000Y-146773000D01*
X225027000Y-146773000D01*
X225027000Y-143127000D01*
X228773000Y-143127000D01*
X228773000Y-146300000D01*
X228783006Y-146349410D01*
X228811447Y-146391035D01*
X228853841Y-146418315D01*
X228900000Y-146427000D01*
X232900000Y-146427000D01*
X232949410Y-146416994D01*
X232991035Y-146388553D01*
X233018315Y-146346159D01*
X233027000Y-146300000D01*
X233027000Y-142827000D01*
X236873000Y-142827000D01*
X236873000Y-146773000D01*
G36*
X243798000Y-124640698D02*
X243633990Y-124476402D01*
X243385254Y-124373118D01*
X243115927Y-124372883D01*
X242867011Y-124475733D01*
X242676402Y-124666010D01*
X242573118Y-124914746D01*
X242572883Y-125184073D01*
X242675733Y-125432989D01*
X242866010Y-125623598D01*
X243114746Y-125726882D01*
X243384073Y-125727117D01*
X243632989Y-125624267D01*
X243798000Y-125459543D01*
X243798000Y-130640698D01*
X243633990Y-130476402D01*
X243385254Y-130373118D01*
X243115927Y-130372883D01*
X242867011Y-130475733D01*
X242676402Y-130666010D01*
X242573118Y-130914746D01*
X242572883Y-131184073D01*
X242675733Y-131432989D01*
X242866010Y-131623598D01*
X243114746Y-131726882D01*
X243384073Y-131727117D01*
X243632989Y-131624267D01*
X243798000Y-131459543D01*
X243798000Y-136640698D01*
X243633990Y-136476402D01*
X243385254Y-136373118D01*
X243115927Y-136372883D01*
X242867011Y-136475733D01*
X242676402Y-136666010D01*
X242573118Y-136914746D01*
X242572883Y-137184073D01*
X242675733Y-137432989D01*
X242866010Y-137623598D01*
X243114746Y-137726882D01*
X243384073Y-137727117D01*
X243632989Y-137624267D01*
X243798000Y-137459543D01*
X243798000Y-142273000D01*
X242466224Y-142273000D01*
X242619612Y-142119612D01*
X242717594Y-141972973D01*
X242752000Y-141800000D01*
X242752000Y-140033406D01*
X242900000Y-140033406D01*
X243021179Y-140010605D01*
X243132474Y-139938988D01*
X243207138Y-139829714D01*
X243233406Y-139700000D01*
X243233406Y-138500000D01*
X243210605Y-138378821D01*
X243138988Y-138267526D01*
X243029714Y-138192862D01*
X242900000Y-138166594D01*
X241700000Y-138166594D01*
X241578821Y-138189395D01*
X241467526Y-138261012D01*
X241392862Y-138370286D01*
X241366594Y-138500000D01*
X241366594Y-139700000D01*
X241389395Y-139821179D01*
X241461012Y-139932474D01*
X241570286Y-140007138D01*
X241700000Y-140033406D01*
X241848000Y-140033406D01*
X241848000Y-141612776D01*
X241762776Y-141698000D01*
X239559302Y-141698000D01*
X239723598Y-141533990D01*
X239826882Y-141285254D01*
X239827117Y-141015927D01*
X239724267Y-140767011D01*
X239533990Y-140576402D01*
X239285254Y-140473118D01*
X239015927Y-140472883D01*
X238767011Y-140575733D01*
X238576402Y-140766010D01*
X238473118Y-141014746D01*
X238472883Y-141284073D01*
X238575733Y-141532989D01*
X238740457Y-141698000D01*
X238200000Y-141698000D01*
X238067945Y-141724267D01*
X238027026Y-141732406D01*
X237880387Y-141830388D01*
X237437776Y-142273000D01*
X230833406Y-142273000D01*
X230833406Y-141750000D01*
X230810605Y-141628821D01*
X230738988Y-141517526D01*
X230629714Y-141442862D01*
X230500000Y-141416594D01*
X230302000Y-141416594D01*
X230302000Y-139737224D01*
X230487224Y-139552000D01*
X239166594Y-139552000D01*
X239166594Y-139700000D01*
X239189395Y-139821179D01*
X239261012Y-139932474D01*
X239370286Y-140007138D01*
X239500000Y-140033406D01*
X240700000Y-140033406D01*
X240821179Y-140010605D01*
X240932474Y-139938988D01*
X241007138Y-139829714D01*
X241033406Y-139700000D01*
X241033406Y-138500000D01*
X241010605Y-138378821D01*
X240938988Y-138267526D01*
X240829714Y-138192862D01*
X240700000Y-138166594D01*
X239500000Y-138166594D01*
X239378821Y-138189395D01*
X239267526Y-138261012D01*
X239192862Y-138370286D01*
X239166594Y-138500000D01*
X239166594Y-138648000D01*
X230300000Y-138648000D01*
X230127027Y-138682406D01*
X229980388Y-138780388D01*
X229530388Y-139230388D01*
X229432406Y-139377027D01*
X229398000Y-139550000D01*
X229398000Y-141416594D01*
X229200000Y-141416594D01*
X229078821Y-141439395D01*
X228967526Y-141511012D01*
X228892862Y-141620286D01*
X228866594Y-141750000D01*
X228866594Y-142273000D01*
X224600000Y-142273000D01*
X224550590Y-142283006D01*
X224508965Y-142311447D01*
X224481685Y-142353841D01*
X224473000Y-142400000D01*
X224473000Y-143515884D01*
X224381855Y-143295297D01*
X224205631Y-143118765D01*
X223975265Y-143023109D01*
X223725829Y-143022891D01*
X223495297Y-143118145D01*
X223318765Y-143294369D01*
X223223109Y-143524735D01*
X223222891Y-143774171D01*
X223318145Y-144004703D01*
X223330015Y-144016594D01*
X223200000Y-144016594D01*
X223078821Y-144039395D01*
X222967526Y-144111012D01*
X222906336Y-144200566D01*
X222868988Y-144142526D01*
X222759714Y-144067862D01*
X222630000Y-144041594D01*
X222595209Y-144041594D01*
X222631235Y-144005631D01*
X222726891Y-143775265D01*
X222727109Y-143525829D01*
X222631855Y-143295297D01*
X222455631Y-143118765D01*
X222225265Y-143023109D01*
X221975829Y-143022891D01*
X221745297Y-143118145D01*
X221568765Y-143294369D01*
X221473109Y-143524735D01*
X221472891Y-143774171D01*
X221568145Y-144004703D01*
X221604972Y-144041594D01*
X221570000Y-144041594D01*
X221448821Y-144064395D01*
X221337526Y-144136012D01*
X221262862Y-144245286D01*
X221236594Y-144375000D01*
X221236594Y-145025000D01*
X221259395Y-145146179D01*
X221331012Y-145257474D01*
X221440286Y-145332138D01*
X221570000Y-145358406D01*
X222630000Y-145358406D01*
X222751179Y-145335605D01*
X222862474Y-145263988D01*
X222907094Y-145198684D01*
X222961012Y-145282474D01*
X223070286Y-145357138D01*
X223200000Y-145383406D01*
X224473000Y-145383406D01*
X224473000Y-145916594D01*
X223200000Y-145916594D01*
X223078821Y-145939395D01*
X222967526Y-146011012D01*
X222906336Y-146100566D01*
X222868988Y-146042526D01*
X222759714Y-145967862D01*
X222630000Y-145941594D01*
X221570000Y-145941594D01*
X221448821Y-145964395D01*
X221337526Y-146036012D01*
X221262862Y-146145286D01*
X221236594Y-146275000D01*
X221236594Y-146925000D01*
X221259395Y-147046179D01*
X221331012Y-147157474D01*
X221331198Y-147157601D01*
X221140302Y-147236673D01*
X220961673Y-147415301D01*
X220865000Y-147648690D01*
X220865000Y-147987250D01*
X221023750Y-148146000D01*
X221750000Y-148146000D01*
X221750000Y-148126000D01*
X222250000Y-148126000D01*
X222250000Y-148146000D01*
X222274000Y-148146000D01*
X222274000Y-148654000D01*
X222250000Y-148654000D01*
X222250000Y-149501250D01*
X222408750Y-149660000D01*
X222626309Y-149660000D01*
X222831517Y-149575000D01*
X223596000Y-149575000D01*
X223596000Y-148923750D01*
X224104000Y-148923750D01*
X224104000Y-149575000D01*
X224976250Y-149575000D01*
X225135000Y-149416250D01*
X225135000Y-149273691D01*
X225038327Y-149040302D01*
X224859699Y-148861673D01*
X224626310Y-148765000D01*
X224262750Y-148765000D01*
X224104000Y-148923750D01*
X223596000Y-148923750D01*
X223437250Y-148765000D01*
X223087250Y-148765000D01*
X222976252Y-148654002D01*
X223135000Y-148654002D01*
X223135000Y-148520243D01*
X223200000Y-148533406D01*
X224500000Y-148533406D01*
X224621179Y-148510605D01*
X224732474Y-148438988D01*
X224807138Y-148329714D01*
X224833406Y-148200000D01*
X224833406Y-147500000D01*
X224810605Y-147378821D01*
X224777259Y-147327000D01*
X230273000Y-147327000D01*
X230273000Y-160198000D01*
X211602000Y-160198000D01*
X211602000Y-158282603D01*
X212372752Y-158282603D01*
X212589543Y-158807275D01*
X212990614Y-159209047D01*
X213514907Y-159426752D01*
X214082603Y-159427248D01*
X214607275Y-159210457D01*
X215009047Y-158809386D01*
X215226752Y-158285093D01*
X215227248Y-157717397D01*
X215010457Y-157192725D01*
X214609386Y-156790953D01*
X214085093Y-156573248D01*
X213517397Y-156572752D01*
X212992725Y-156789543D01*
X212590953Y-157190614D01*
X212373248Y-157714907D01*
X212372752Y-158282603D01*
X211602000Y-158282603D01*
X211602000Y-153954202D01*
X226355008Y-153954202D01*
X226544251Y-154272883D01*
X227406351Y-154561186D01*
X228313156Y-154497632D01*
X228855749Y-154272883D01*
X229044992Y-153954202D01*
X227700000Y-152609210D01*
X226355008Y-153954202D01*
X211602000Y-153954202D01*
X211602000Y-151956351D01*
X225388814Y-151956351D01*
X225452368Y-152863156D01*
X225677117Y-153405749D01*
X225995798Y-153594992D01*
X227340790Y-152250000D01*
X228059210Y-152250000D01*
X229404202Y-153594992D01*
X229722883Y-153405749D01*
X230011186Y-152543649D01*
X229947632Y-151636844D01*
X229722883Y-151094251D01*
X229404202Y-150905008D01*
X228059210Y-152250000D01*
X227340790Y-152250000D01*
X225995798Y-150905008D01*
X225677117Y-151094251D01*
X225388814Y-151956351D01*
X211602000Y-151956351D01*
X211602000Y-150083750D01*
X222565000Y-150083750D01*
X222565000Y-150226309D01*
X222661673Y-150459698D01*
X222840301Y-150638327D01*
X223073690Y-150735000D01*
X223437250Y-150735000D01*
X223596000Y-150576250D01*
X223596000Y-149925000D01*
X224104000Y-149925000D01*
X224104000Y-150576250D01*
X224262750Y-150735000D01*
X224626310Y-150735000D01*
X224859699Y-150638327D01*
X224952227Y-150545798D01*
X226355008Y-150545798D01*
X227700000Y-151890790D01*
X229044992Y-150545798D01*
X228855749Y-150227117D01*
X227993649Y-149938814D01*
X227086844Y-150002368D01*
X226544251Y-150227117D01*
X226355008Y-150545798D01*
X224952227Y-150545798D01*
X225038327Y-150459698D01*
X225135000Y-150226309D01*
X225135000Y-150083750D01*
X224976250Y-149925000D01*
X224104000Y-149925000D01*
X223596000Y-149925000D01*
X222723750Y-149925000D01*
X222565000Y-150083750D01*
X211602000Y-150083750D01*
X211602000Y-148524171D01*
X218172891Y-148524171D01*
X218268145Y-148754703D01*
X218444369Y-148931235D01*
X218674735Y-149026891D01*
X218924171Y-149027109D01*
X219154703Y-148931855D01*
X219166594Y-148919985D01*
X219166594Y-149025000D01*
X219189395Y-149146179D01*
X219261012Y-149257474D01*
X219370286Y-149332138D01*
X219500000Y-149358406D01*
X220500000Y-149358406D01*
X220621179Y-149335605D01*
X220732474Y-149263988D01*
X220807138Y-149154714D01*
X220833406Y-149025000D01*
X220833406Y-148812750D01*
X220865000Y-148812750D01*
X220865000Y-149151310D01*
X220961673Y-149384699D01*
X221140302Y-149563327D01*
X221373691Y-149660000D01*
X221591250Y-149660000D01*
X221750000Y-149501250D01*
X221750000Y-148654000D01*
X221023750Y-148654000D01*
X220865000Y-148812750D01*
X220833406Y-148812750D01*
X220833406Y-147775000D01*
X220810605Y-147653821D01*
X220738988Y-147542526D01*
X220629714Y-147467862D01*
X220500000Y-147441594D01*
X219500000Y-147441594D01*
X219378821Y-147464395D01*
X219267526Y-147536012D01*
X219192862Y-147645286D01*
X219166594Y-147775000D01*
X219166594Y-147879747D01*
X219155631Y-147868765D01*
X218925265Y-147773109D01*
X218675829Y-147772891D01*
X218445297Y-147868145D01*
X218268765Y-148044369D01*
X218173109Y-148274735D01*
X218172891Y-148524171D01*
X211602000Y-148524171D01*
X211602000Y-146724171D01*
X218072891Y-146724171D01*
X218168145Y-146954703D01*
X218344369Y-147131235D01*
X218574735Y-147226891D01*
X218824171Y-147227109D01*
X219054703Y-147131855D01*
X219091128Y-147095493D01*
X219131012Y-147157474D01*
X219240286Y-147232138D01*
X219370000Y-147258406D01*
X220430000Y-147258406D01*
X220551179Y-147235605D01*
X220662474Y-147163988D01*
X220737138Y-147054714D01*
X220763406Y-146925000D01*
X220763406Y-146524218D01*
X220789698Y-146513327D01*
X220968327Y-146334699D01*
X221065000Y-146101310D01*
X221065000Y-145971250D01*
X220906250Y-145812500D01*
X220154000Y-145812500D01*
X220154000Y-145924000D01*
X219646000Y-145924000D01*
X219646000Y-145812500D01*
X218893750Y-145812500D01*
X218735000Y-145971250D01*
X218735000Y-145973030D01*
X218575829Y-145972891D01*
X218345297Y-146068145D01*
X218168765Y-146244369D01*
X218073109Y-146474735D01*
X218072891Y-146724171D01*
X211602000Y-146724171D01*
X211602000Y-130848690D01*
X228215000Y-130848690D01*
X228215000Y-131187250D01*
X228373750Y-131346000D01*
X229100000Y-131346000D01*
X229100000Y-130983750D01*
X229237500Y-130846250D01*
X229237500Y-130014000D01*
X228598750Y-130014000D01*
X228440000Y-130172750D01*
X228440000Y-130486975D01*
X228311673Y-130615301D01*
X228215000Y-130848690D01*
X211602000Y-130848690D01*
X211602000Y-129023691D01*
X228440000Y-129023691D01*
X228440000Y-129347250D01*
X228598750Y-129506000D01*
X229237500Y-129506000D01*
X229237500Y-128673750D01*
X229078750Y-128515000D01*
X228948690Y-128515000D01*
X228715301Y-128611673D01*
X228536673Y-128790302D01*
X228440000Y-129023691D01*
X211602000Y-129023691D01*
X211602000Y-118599171D01*
X217422891Y-118599171D01*
X217518145Y-118829703D01*
X217694369Y-119006235D01*
X217924735Y-119101891D01*
X218174171Y-119102109D01*
X218404703Y-119006855D01*
X218484698Y-118927000D01*
X224966594Y-118927000D01*
X224966594Y-119350000D01*
X224989395Y-119471179D01*
X225061012Y-119582474D01*
X225170286Y-119657138D01*
X225300000Y-119683406D01*
X226800000Y-119683406D01*
X226921179Y-119660605D01*
X226998843Y-119610629D01*
X227044369Y-119656235D01*
X227274735Y-119751891D01*
X227524171Y-119752109D01*
X227754703Y-119656855D01*
X227931235Y-119480631D01*
X228026891Y-119250265D01*
X228027109Y-119000829D01*
X227931855Y-118770297D01*
X227755631Y-118593765D01*
X227525265Y-118498109D01*
X227275829Y-118497891D01*
X227133406Y-118556739D01*
X227133406Y-118250000D01*
X227113899Y-118146327D01*
X227133406Y-118050000D01*
X227133406Y-117627000D01*
X227150000Y-117627000D01*
X227322973Y-117592594D01*
X227469612Y-117494612D01*
X227669612Y-117294612D01*
X227767594Y-117147973D01*
X227802000Y-116975000D01*
X227802000Y-115810020D01*
X228969616Y-114642404D01*
X229067598Y-114495765D01*
X229080602Y-114430388D01*
X229102004Y-114322792D01*
X229102004Y-113075955D01*
X229136431Y-113159275D01*
X229439132Y-113462504D01*
X229598000Y-113528472D01*
X229598000Y-113975000D01*
X229632406Y-114147973D01*
X229730388Y-114294612D01*
X230330388Y-114894612D01*
X230477027Y-114992594D01*
X230650000Y-115027000D01*
X230866594Y-115027000D01*
X230866594Y-115373000D01*
X229459859Y-115373000D01*
X229455631Y-115368765D01*
X229225265Y-115273109D01*
X228975829Y-115272891D01*
X228745297Y-115368145D01*
X228568765Y-115544369D01*
X228473109Y-115774735D01*
X228472891Y-116024171D01*
X228568145Y-116254703D01*
X228744369Y-116431235D01*
X228974735Y-116526891D01*
X229224171Y-116527109D01*
X229290265Y-116499799D01*
X228995032Y-116795032D01*
X228886212Y-116957893D01*
X228847999Y-117150000D01*
X228848000Y-117150005D01*
X228848000Y-124391970D01*
X228728821Y-124414395D01*
X228617526Y-124486012D01*
X228542862Y-124595286D01*
X228516594Y-124725000D01*
X228516594Y-125975000D01*
X228539395Y-126096179D01*
X228611012Y-126207474D01*
X228720286Y-126282138D01*
X228832994Y-126304962D01*
X228767862Y-126400286D01*
X228741594Y-126530000D01*
X228741594Y-127750000D01*
X228764395Y-127871179D01*
X228836012Y-127982474D01*
X228945286Y-128057138D01*
X229075000Y-128083406D01*
X229725000Y-128083406D01*
X229846179Y-128060605D01*
X229864213Y-128049000D01*
X229818765Y-128094369D01*
X229723109Y-128324735D01*
X229722943Y-128515000D01*
X229721250Y-128515000D01*
X229562500Y-128673750D01*
X229562500Y-129506000D01*
X229674000Y-129506000D01*
X229674000Y-130014000D01*
X229562500Y-130014000D01*
X229562500Y-130846250D01*
X229600000Y-130883750D01*
X229600000Y-131346000D01*
X229624000Y-131346000D01*
X229624000Y-131854000D01*
X229600000Y-131854000D01*
X229600000Y-131874000D01*
X229100000Y-131874000D01*
X229100000Y-131854000D01*
X228373750Y-131854000D01*
X228215000Y-132012750D01*
X228215000Y-132165000D01*
X228095998Y-132165000D01*
X228095998Y-132323748D01*
X227937250Y-132165000D01*
X227223691Y-132165000D01*
X226990302Y-132261673D01*
X226811673Y-132440301D01*
X226715000Y-132673690D01*
X226715000Y-133237250D01*
X226873750Y-133396000D01*
X228096000Y-133396000D01*
X228096000Y-133376000D01*
X228604000Y-133376000D01*
X228604000Y-133396000D01*
X229826250Y-133396000D01*
X229985000Y-133237250D01*
X229985000Y-132856400D01*
X230209698Y-132763327D01*
X230388327Y-132584699D01*
X230485000Y-132351310D01*
X230485000Y-132226966D01*
X230516969Y-132226993D01*
X230539395Y-132346179D01*
X230611012Y-132457474D01*
X230720286Y-132532138D01*
X230850000Y-132558406D01*
X231121576Y-132558406D01*
X231117526Y-132561012D01*
X231042862Y-132670286D01*
X231016594Y-132800000D01*
X231016594Y-134500000D01*
X231039395Y-134621179D01*
X231111012Y-134732474D01*
X231220286Y-134807138D01*
X231350000Y-134833406D01*
X233350000Y-134833406D01*
X233471179Y-134810605D01*
X233582474Y-134738988D01*
X233657138Y-134629714D01*
X233683406Y-134500000D01*
X233683406Y-132800000D01*
X233660605Y-132678821D01*
X233588988Y-132567526D01*
X233479714Y-132492862D01*
X233350000Y-132466594D01*
X232802000Y-132466594D01*
X232802000Y-130100000D01*
X232767594Y-129927027D01*
X232700679Y-129826882D01*
X232669613Y-129780388D01*
X232329612Y-129440388D01*
X232182973Y-129342406D01*
X232010000Y-129308000D01*
X231958406Y-129308000D01*
X231958406Y-129150000D01*
X231935605Y-129028821D01*
X231863988Y-128917526D01*
X231754714Y-128842862D01*
X231625000Y-128816594D01*
X230975000Y-128816594D01*
X230853821Y-128839395D01*
X230835787Y-128851000D01*
X230881235Y-128805631D01*
X230976891Y-128575265D01*
X230977109Y-128325829D01*
X230881855Y-128095297D01*
X230840494Y-128053864D01*
X230845286Y-128057138D01*
X230975000Y-128083406D01*
X231625000Y-128083406D01*
X231746179Y-128060605D01*
X231857474Y-127988988D01*
X231932138Y-127879714D01*
X231958406Y-127750000D01*
X231958406Y-127642000D01*
X232020294Y-127642000D01*
X232224735Y-127726891D01*
X232474171Y-127727109D01*
X232704703Y-127631855D01*
X232881235Y-127455631D01*
X232976891Y-127225265D01*
X232977109Y-126975829D01*
X232881855Y-126745297D01*
X232705631Y-126568765D01*
X232475265Y-126473109D01*
X232225829Y-126472891D01*
X231995297Y-126568145D01*
X231958406Y-126604972D01*
X231958406Y-126530000D01*
X231935605Y-126408821D01*
X231868722Y-126304883D01*
X231971179Y-126285605D01*
X232082474Y-126213988D01*
X232157138Y-126104714D01*
X232183406Y-125975000D01*
X232183406Y-125870253D01*
X232194369Y-125881235D01*
X232424735Y-125976891D01*
X232674171Y-125977109D01*
X232904703Y-125881855D01*
X233081235Y-125705631D01*
X233176891Y-125475265D01*
X233177109Y-125225829D01*
X233081855Y-124995297D01*
X232905631Y-124818765D01*
X232675265Y-124723109D01*
X232425829Y-124722891D01*
X232195297Y-124818145D01*
X232183406Y-124830015D01*
X232183406Y-124725000D01*
X232160605Y-124603821D01*
X232088988Y-124492526D01*
X231979714Y-124417862D01*
X231850000Y-124391594D01*
X230850000Y-124391594D01*
X230728821Y-124414395D01*
X230617526Y-124486012D01*
X230542862Y-124595286D01*
X230516594Y-124725000D01*
X230516594Y-125975000D01*
X230539395Y-126096179D01*
X230611012Y-126207474D01*
X230720286Y-126282138D01*
X230747692Y-126287688D01*
X230742526Y-126291012D01*
X230667862Y-126400286D01*
X230641594Y-126530000D01*
X230641594Y-127750000D01*
X230664395Y-127871179D01*
X230691146Y-127912750D01*
X230475265Y-127823109D01*
X230225829Y-127822891D01*
X230010042Y-127912052D01*
X230032138Y-127879714D01*
X230058406Y-127750000D01*
X230058406Y-126530000D01*
X230035605Y-126408821D01*
X229963988Y-126297526D01*
X229951861Y-126289240D01*
X229971179Y-126285605D01*
X230082474Y-126213988D01*
X230157138Y-126104714D01*
X230183406Y-125975000D01*
X230183406Y-124725000D01*
X230160605Y-124603821D01*
X230088988Y-124492526D01*
X229979714Y-124417862D01*
X229852000Y-124391999D01*
X229852000Y-117357936D01*
X230182935Y-117027000D01*
X230866594Y-117027000D01*
X230866594Y-117400000D01*
X230886101Y-117503673D01*
X230866594Y-117600000D01*
X230866594Y-118050000D01*
X230886101Y-118153673D01*
X230866594Y-118250000D01*
X230866594Y-118700000D01*
X230886101Y-118803673D01*
X230866594Y-118900000D01*
X230866594Y-119350000D01*
X230889395Y-119471179D01*
X230961012Y-119582474D01*
X231070286Y-119657138D01*
X231200000Y-119683406D01*
X231498000Y-119683406D01*
X231498000Y-120571446D01*
X231340725Y-120636431D01*
X231037496Y-120939132D01*
X230873187Y-121334832D01*
X230872813Y-121763289D01*
X231036431Y-122159275D01*
X231339132Y-122462504D01*
X231734832Y-122626813D01*
X232163289Y-122627187D01*
X232559275Y-122463569D01*
X232862504Y-122160868D01*
X233026813Y-121765168D01*
X233027187Y-121336711D01*
X232863569Y-120940725D01*
X232560868Y-120637496D01*
X232402000Y-120571528D01*
X232402000Y-119683406D01*
X232700000Y-119683406D01*
X232821179Y-119660605D01*
X232932474Y-119588988D01*
X233007138Y-119479714D01*
X233033406Y-119350000D01*
X233033406Y-119022630D01*
X233198000Y-119187224D01*
X233198000Y-127800000D01*
X233232406Y-127972973D01*
X233330388Y-128119612D01*
X234080388Y-128869612D01*
X234227027Y-128967594D01*
X234400000Y-129002000D01*
X235116594Y-129002000D01*
X235116594Y-129200000D01*
X235139395Y-129321179D01*
X235211012Y-129432474D01*
X235273367Y-129475079D01*
X235217526Y-129511012D01*
X235142862Y-129620286D01*
X235116594Y-129750000D01*
X235116594Y-131050000D01*
X235139395Y-131171179D01*
X235211012Y-131282474D01*
X235298000Y-131341911D01*
X235298000Y-131416970D01*
X235178821Y-131439395D01*
X235067526Y-131511012D01*
X234992862Y-131620286D01*
X234977124Y-131698000D01*
X234700000Y-131698000D01*
X234527027Y-131732406D01*
X234380388Y-131830388D01*
X234080388Y-132130388D01*
X233982406Y-132277027D01*
X233948000Y-132450000D01*
X233948000Y-134562775D01*
X233662776Y-134848000D01*
X229893173Y-134848000D01*
X229985000Y-134626310D01*
X229985000Y-134062750D01*
X229826250Y-133904000D01*
X228604000Y-133904000D01*
X228604000Y-133924000D01*
X228096000Y-133924000D01*
X228096000Y-133904000D01*
X226873750Y-133904000D01*
X226715000Y-134062750D01*
X226715000Y-134626310D01*
X226806827Y-134848000D01*
X221200000Y-134848000D01*
X221027027Y-134882406D01*
X220880388Y-134980388D01*
X220130388Y-135730388D01*
X220032406Y-135877027D01*
X219998000Y-136050000D01*
X219998000Y-143412775D01*
X219580388Y-143830388D01*
X219482406Y-143977027D01*
X219469563Y-144041594D01*
X219370000Y-144041594D01*
X219248821Y-144064395D01*
X219137526Y-144136012D01*
X219062862Y-144245286D01*
X219036594Y-144375000D01*
X219036594Y-144775782D01*
X219010302Y-144786673D01*
X218831673Y-144965301D01*
X218735000Y-145198690D01*
X218735000Y-145328750D01*
X218893750Y-145487500D01*
X219646000Y-145487500D01*
X219646000Y-145376000D01*
X220154000Y-145376000D01*
X220154000Y-145487500D01*
X220906250Y-145487500D01*
X221065000Y-145328750D01*
X221065000Y-145198690D01*
X220968327Y-144965301D01*
X220789698Y-144786673D01*
X220763406Y-144775782D01*
X220763406Y-144375000D01*
X220740605Y-144253821D01*
X220668988Y-144142526D01*
X220596338Y-144092886D01*
X220769612Y-143919613D01*
X220867594Y-143772973D01*
X220882109Y-143700000D01*
X220902000Y-143600000D01*
X220902000Y-136237224D01*
X220926474Y-136212750D01*
X234815000Y-136212750D01*
X234815000Y-136576310D01*
X234911673Y-136809699D01*
X235090302Y-136988327D01*
X235323691Y-137085000D01*
X235466250Y-137085000D01*
X235625000Y-136926250D01*
X235625000Y-136054000D01*
X235975000Y-136054000D01*
X235975000Y-136926250D01*
X236133750Y-137085000D01*
X236276309Y-137085000D01*
X236509698Y-136988327D01*
X236688327Y-136809699D01*
X236785000Y-136576310D01*
X236785000Y-136212750D01*
X236626250Y-136054000D01*
X235975000Y-136054000D01*
X235625000Y-136054000D01*
X234973750Y-136054000D01*
X234815000Y-136212750D01*
X220926474Y-136212750D01*
X221387224Y-135752000D01*
X233850000Y-135752000D01*
X234022973Y-135717594D01*
X234169612Y-135619612D01*
X234719612Y-135069613D01*
X234817594Y-134922973D01*
X234825663Y-134882406D01*
X234852000Y-134750000D01*
X234852000Y-132637224D01*
X234887224Y-132602000D01*
X234976378Y-132602000D01*
X234989395Y-132671179D01*
X235061012Y-132782474D01*
X235170286Y-132857138D01*
X235190962Y-132861325D01*
X235123109Y-133024735D01*
X235122891Y-133274171D01*
X235155928Y-133354126D01*
X235067526Y-133411012D01*
X234992862Y-133520286D01*
X234966594Y-133650000D01*
X234966594Y-134450000D01*
X234989395Y-134571179D01*
X235044759Y-134657216D01*
X234911673Y-134790301D01*
X234815000Y-135023690D01*
X234815000Y-135387250D01*
X234973750Y-135546000D01*
X235625000Y-135546000D01*
X235625000Y-135526000D01*
X235975000Y-135526000D01*
X235975000Y-135546000D01*
X236626250Y-135546000D01*
X236785000Y-135387250D01*
X236785000Y-135023690D01*
X236688327Y-134790301D01*
X236509698Y-134611673D01*
X236490683Y-134603797D01*
X236507138Y-134579714D01*
X236533406Y-134450000D01*
X236533406Y-133650000D01*
X236510605Y-133528821D01*
X236438988Y-133417526D01*
X236344599Y-133353033D01*
X236376891Y-133275265D01*
X236377109Y-133025829D01*
X236309730Y-132862759D01*
X236321179Y-132860605D01*
X236432474Y-132788988D01*
X236493277Y-132700000D01*
X236966594Y-132700000D01*
X236966594Y-133500000D01*
X236989395Y-133621179D01*
X237061012Y-133732474D01*
X237170286Y-133807138D01*
X237300000Y-133833406D01*
X237775530Y-133833406D01*
X237630387Y-133930388D01*
X237380388Y-134180388D01*
X237282406Y-134327027D01*
X237248000Y-134500000D01*
X237248000Y-134835786D01*
X237228821Y-134839395D01*
X237117526Y-134911012D01*
X237042862Y-135020286D01*
X237016594Y-135150000D01*
X237016594Y-136450000D01*
X237039395Y-136571179D01*
X237111012Y-136682474D01*
X237220286Y-136757138D01*
X237350000Y-136783406D01*
X238050000Y-136783406D01*
X238171179Y-136760605D01*
X238282474Y-136688988D01*
X238357138Y-136579714D01*
X238383406Y-136450000D01*
X238383406Y-135150000D01*
X238360605Y-135028821D01*
X238288988Y-134917526D01*
X238179714Y-134842862D01*
X238152000Y-134837250D01*
X238152000Y-134702000D01*
X238640524Y-134702000D01*
X238576402Y-134766010D01*
X238473118Y-135014746D01*
X238472883Y-135284073D01*
X238575733Y-135532989D01*
X238766010Y-135723598D01*
X239014746Y-135826882D01*
X239284073Y-135827117D01*
X239532989Y-135724267D01*
X239723598Y-135533990D01*
X239826882Y-135285254D01*
X239827117Y-135015927D01*
X239724267Y-134767011D01*
X239659369Y-134702000D01*
X242000000Y-134702000D01*
X242172973Y-134667594D01*
X242319612Y-134569612D01*
X242619612Y-134269612D01*
X242717594Y-134122973D01*
X242735410Y-134033406D01*
X242900000Y-134033406D01*
X243021179Y-134010605D01*
X243132474Y-133938988D01*
X243207138Y-133829714D01*
X243233406Y-133700000D01*
X243233406Y-132500000D01*
X243210605Y-132378821D01*
X243138988Y-132267526D01*
X243029714Y-132192862D01*
X242900000Y-132166594D01*
X241700000Y-132166594D01*
X241578821Y-132189395D01*
X241467526Y-132261012D01*
X241392862Y-132370286D01*
X241366594Y-132500000D01*
X241366594Y-133700000D01*
X241385034Y-133798000D01*
X241013560Y-133798000D01*
X241033406Y-133700000D01*
X241033406Y-132500000D01*
X241010605Y-132378821D01*
X240938988Y-132267526D01*
X240829714Y-132192862D01*
X240700000Y-132166594D01*
X239500000Y-132166594D01*
X239378821Y-132189395D01*
X239267526Y-132261012D01*
X239192862Y-132370286D01*
X239166594Y-132500000D01*
X239166594Y-132648000D01*
X238523622Y-132648000D01*
X238510605Y-132578821D01*
X238438988Y-132467526D01*
X238329714Y-132392862D01*
X238200000Y-132366594D01*
X237300000Y-132366594D01*
X237178821Y-132389395D01*
X237067526Y-132461012D01*
X236992862Y-132570286D01*
X236966594Y-132700000D01*
X236493277Y-132700000D01*
X236507138Y-132679714D01*
X236533406Y-132550000D01*
X236533406Y-131750000D01*
X236510605Y-131628821D01*
X236438988Y-131517526D01*
X236329714Y-131442862D01*
X236202000Y-131416999D01*
X236202000Y-131373622D01*
X236271179Y-131360605D01*
X236382474Y-131288988D01*
X236457138Y-131179714D01*
X236483406Y-131050000D01*
X236483406Y-130812750D01*
X236715000Y-130812750D01*
X236715000Y-131176310D01*
X236811673Y-131409699D01*
X236990302Y-131588327D01*
X237223691Y-131685000D01*
X237366250Y-131685000D01*
X237525000Y-131526250D01*
X237525000Y-130654000D01*
X237875000Y-130654000D01*
X237875000Y-131526250D01*
X238033750Y-131685000D01*
X238176309Y-131685000D01*
X238409698Y-131588327D01*
X238588327Y-131409699D01*
X238685000Y-131176310D01*
X238685000Y-130812750D01*
X238526250Y-130654000D01*
X237875000Y-130654000D01*
X237525000Y-130654000D01*
X236873750Y-130654000D01*
X236715000Y-130812750D01*
X236483406Y-130812750D01*
X236483406Y-129750000D01*
X236460605Y-129628821D01*
X236457304Y-129623690D01*
X236715000Y-129623690D01*
X236715000Y-129987250D01*
X236873750Y-130146000D01*
X237525000Y-130146000D01*
X237525000Y-130126000D01*
X237875000Y-130126000D01*
X237875000Y-130146000D01*
X238526250Y-130146000D01*
X238685000Y-129987250D01*
X238685000Y-129642447D01*
X238766010Y-129723598D01*
X239014746Y-129826882D01*
X239284073Y-129827117D01*
X239532989Y-129724267D01*
X239723598Y-129533990D01*
X239826882Y-129285254D01*
X239827117Y-129015927D01*
X239724267Y-128767011D01*
X239609456Y-128652000D01*
X242100000Y-128652000D01*
X242272973Y-128617594D01*
X242419612Y-128519612D01*
X242619612Y-128319612D01*
X242717594Y-128172973D01*
X242745355Y-128033406D01*
X242900000Y-128033406D01*
X243021179Y-128010605D01*
X243132474Y-127938988D01*
X243207138Y-127829714D01*
X243233406Y-127700000D01*
X243233406Y-126500000D01*
X243210605Y-126378821D01*
X243138988Y-126267526D01*
X243029714Y-126192862D01*
X242900000Y-126166594D01*
X241700000Y-126166594D01*
X241578821Y-126189395D01*
X241467526Y-126261012D01*
X241392862Y-126370286D01*
X241366594Y-126500000D01*
X241366594Y-127700000D01*
X241375626Y-127748000D01*
X241023686Y-127748000D01*
X241033406Y-127700000D01*
X241033406Y-126500000D01*
X241010605Y-126378821D01*
X240938988Y-126267526D01*
X240829714Y-126192862D01*
X240700000Y-126166594D01*
X239500000Y-126166594D01*
X239378821Y-126189395D01*
X239267526Y-126261012D01*
X239192862Y-126370286D01*
X239166594Y-126500000D01*
X239166594Y-126648000D01*
X239134728Y-126648000D01*
X239055631Y-126568765D01*
X238825265Y-126473109D01*
X238575829Y-126472891D01*
X238345297Y-126568145D01*
X238168765Y-126744369D01*
X238073109Y-126974735D01*
X238072891Y-127224171D01*
X238168145Y-127454703D01*
X238344369Y-127631235D01*
X238574735Y-127726891D01*
X238824171Y-127727109D01*
X239054703Y-127631855D01*
X239134698Y-127552000D01*
X239166594Y-127552000D01*
X239166594Y-127700000D01*
X239175626Y-127748000D01*
X238600000Y-127748000D01*
X238427027Y-127782406D01*
X238368622Y-127821431D01*
X238360605Y-127778821D01*
X238288988Y-127667526D01*
X238179714Y-127592862D01*
X238050000Y-127566594D01*
X237350000Y-127566594D01*
X237228821Y-127589395D01*
X237117526Y-127661012D01*
X237042862Y-127770286D01*
X237016594Y-127900000D01*
X237016594Y-129200000D01*
X237016731Y-129200726D01*
X236990302Y-129211673D01*
X236811673Y-129390301D01*
X236715000Y-129623690D01*
X236457304Y-129623690D01*
X236388988Y-129517526D01*
X236326633Y-129474921D01*
X236382474Y-129438988D01*
X236457138Y-129329714D01*
X236483406Y-129200000D01*
X236483406Y-127900000D01*
X236460605Y-127778821D01*
X236388988Y-127667526D01*
X236279714Y-127592862D01*
X236150000Y-127566594D01*
X235450000Y-127566594D01*
X235328821Y-127589395D01*
X235217526Y-127661012D01*
X235142862Y-127770286D01*
X235116594Y-127900000D01*
X235116594Y-128098000D01*
X234587224Y-128098000D01*
X234102000Y-127612776D01*
X234102000Y-124324171D01*
X240722891Y-124324171D01*
X240818145Y-124554703D01*
X240994369Y-124731235D01*
X241224735Y-124826891D01*
X241474171Y-124827109D01*
X241704703Y-124731855D01*
X241881235Y-124555631D01*
X241976891Y-124325265D01*
X241976928Y-124283008D01*
X242115033Y-124144903D01*
X242376941Y-124197000D01*
X242423059Y-124197000D01*
X242873477Y-124107406D01*
X243255324Y-123852265D01*
X243510465Y-123470418D01*
X243600059Y-123020000D01*
X243510465Y-122569582D01*
X243255324Y-122187735D01*
X242873477Y-121932594D01*
X242423059Y-121843000D01*
X242376941Y-121843000D01*
X241926523Y-121932594D01*
X241544676Y-122187735D01*
X241289535Y-122569582D01*
X241199941Y-123020000D01*
X241289535Y-123470418D01*
X241321623Y-123518441D01*
X241267137Y-123572927D01*
X241225829Y-123572891D01*
X240995297Y-123668145D01*
X240818765Y-123844369D01*
X240723109Y-124074735D01*
X240722891Y-124324171D01*
X234102000Y-124324171D01*
X234102000Y-119000000D01*
X234067594Y-118827027D01*
X233969612Y-118680388D01*
X233566224Y-118277000D01*
X233687776Y-118277000D01*
X234130388Y-118719612D01*
X234277027Y-118817594D01*
X234450000Y-118852000D01*
X240132776Y-118852000D01*
X241297876Y-120017100D01*
X241289535Y-120029582D01*
X241199941Y-120480000D01*
X241289535Y-120930418D01*
X241544676Y-121312265D01*
X241926523Y-121567406D01*
X242376941Y-121657000D01*
X242423059Y-121657000D01*
X242873477Y-121567406D01*
X243255324Y-121312265D01*
X243510465Y-120930418D01*
X243600059Y-120480000D01*
X243510465Y-120029582D01*
X243255324Y-119647735D01*
X242873477Y-119392594D01*
X242423059Y-119303000D01*
X242376941Y-119303000D01*
X241947621Y-119388397D01*
X240951224Y-118392000D01*
X241290592Y-118392000D01*
X241544676Y-118772265D01*
X241926523Y-119027406D01*
X242376941Y-119117000D01*
X242423059Y-119117000D01*
X242873477Y-119027406D01*
X243255324Y-118772265D01*
X243510465Y-118390418D01*
X243600059Y-117940000D01*
X243510465Y-117489582D01*
X243255324Y-117107735D01*
X242873477Y-116852594D01*
X242423059Y-116763000D01*
X242376941Y-116763000D01*
X241926523Y-116852594D01*
X241544676Y-117107735D01*
X241290592Y-117488000D01*
X237165585Y-117488000D01*
X237183406Y-117400000D01*
X237183406Y-116100000D01*
X237160605Y-115978821D01*
X237088988Y-115867526D01*
X237039052Y-115833406D01*
X237275000Y-115833406D01*
X237396179Y-115810605D01*
X237507474Y-115738988D01*
X237582138Y-115629714D01*
X237608001Y-115502000D01*
X239549995Y-115502000D01*
X239550000Y-115502001D01*
X239742107Y-115463788D01*
X239904968Y-115354968D01*
X240254965Y-115004970D01*
X240254968Y-115004968D01*
X240363788Y-114842107D01*
X240370594Y-114807892D01*
X240402001Y-114650000D01*
X240402000Y-114649995D01*
X240402000Y-114550000D01*
X241216594Y-114550000D01*
X241216594Y-116250000D01*
X241239395Y-116371179D01*
X241311012Y-116482474D01*
X241420286Y-116557138D01*
X241550000Y-116583406D01*
X243250000Y-116583406D01*
X243371179Y-116560605D01*
X243482474Y-116488988D01*
X243557138Y-116379714D01*
X243583406Y-116250000D01*
X243583406Y-114550000D01*
X243560605Y-114428821D01*
X243488988Y-114317526D01*
X243379714Y-114242862D01*
X243250000Y-114216594D01*
X242902000Y-114216594D01*
X242902000Y-112852726D01*
X243272265Y-112605324D01*
X243527406Y-112223477D01*
X243617000Y-111773059D01*
X243617000Y-111726941D01*
X243527406Y-111276523D01*
X243272265Y-110894676D01*
X242890418Y-110639535D01*
X242440000Y-110549941D01*
X241989582Y-110639535D01*
X241607735Y-110894676D01*
X241352594Y-111276523D01*
X241263000Y-111726941D01*
X241263000Y-111773059D01*
X241352594Y-112223477D01*
X241607735Y-112605324D01*
X241898000Y-112799272D01*
X241898000Y-114216594D01*
X241550000Y-114216594D01*
X241428821Y-114239395D01*
X241317526Y-114311012D01*
X241242862Y-114420286D01*
X241216594Y-114550000D01*
X240402000Y-114550000D01*
X240402000Y-112933406D01*
X240750000Y-112933406D01*
X240871179Y-112910605D01*
X240982474Y-112838988D01*
X241057138Y-112729714D01*
X241083406Y-112600000D01*
X241083406Y-110900000D01*
X241060605Y-110778821D01*
X240988988Y-110667526D01*
X240879714Y-110592862D01*
X240750000Y-110566594D01*
X239050000Y-110566594D01*
X238928821Y-110589395D01*
X238817526Y-110661012D01*
X238742862Y-110770286D01*
X238716594Y-110900000D01*
X238716594Y-112600000D01*
X238739395Y-112721179D01*
X238811012Y-112832474D01*
X238920286Y-112907138D01*
X239050000Y-112933406D01*
X239398000Y-112933406D01*
X239398000Y-114442065D01*
X239342064Y-114498000D01*
X237608030Y-114498000D01*
X237585605Y-114378821D01*
X237513988Y-114267526D01*
X237404714Y-114192862D01*
X237275000Y-114166594D01*
X236025000Y-114166594D01*
X235903821Y-114189395D01*
X235792526Y-114261012D01*
X235749921Y-114323367D01*
X235713988Y-114267526D01*
X235604714Y-114192862D01*
X235475000Y-114166594D01*
X234225000Y-114166594D01*
X234103821Y-114189395D01*
X233992526Y-114261012D01*
X233917862Y-114370286D01*
X233891999Y-114498000D01*
X233850005Y-114498000D01*
X233850000Y-114497999D01*
X233702000Y-114527438D01*
X233702000Y-113150000D01*
X233667594Y-112977027D01*
X233649861Y-112950488D01*
X233726813Y-112765168D01*
X233727044Y-112500000D01*
X233891594Y-112500000D01*
X233891594Y-113500000D01*
X233914395Y-113621179D01*
X233986012Y-113732474D01*
X234095286Y-113807138D01*
X234225000Y-113833406D01*
X235475000Y-113833406D01*
X235596179Y-113810605D01*
X235707474Y-113738988D01*
X235750079Y-113676633D01*
X235786012Y-113732474D01*
X235895286Y-113807138D01*
X236025000Y-113833406D01*
X237275000Y-113833406D01*
X237396179Y-113810605D01*
X237507474Y-113738988D01*
X237582138Y-113629714D01*
X237608406Y-113500000D01*
X237608406Y-112500000D01*
X237585605Y-112378821D01*
X237513988Y-112267526D01*
X237404714Y-112192862D01*
X237275000Y-112166594D01*
X237170253Y-112166594D01*
X237181235Y-112155631D01*
X237276891Y-111925265D01*
X237277109Y-111675829D01*
X237181855Y-111445297D01*
X237005631Y-111268765D01*
X236775265Y-111173109D01*
X236525829Y-111172891D01*
X236295297Y-111268145D01*
X236118765Y-111444369D01*
X236023109Y-111674735D01*
X236022891Y-111924171D01*
X236118145Y-112154703D01*
X236130015Y-112166594D01*
X236025000Y-112166594D01*
X235903821Y-112189395D01*
X235792526Y-112261012D01*
X235749921Y-112323367D01*
X235713988Y-112267526D01*
X235604714Y-112192862D01*
X235475000Y-112166594D01*
X235370253Y-112166594D01*
X235381235Y-112155631D01*
X235476891Y-111925265D01*
X235477109Y-111675829D01*
X235381855Y-111445297D01*
X235205631Y-111268765D01*
X234975265Y-111173109D01*
X234725829Y-111172891D01*
X234495297Y-111268145D01*
X234318765Y-111444369D01*
X234223109Y-111674735D01*
X234222891Y-111924171D01*
X234318145Y-112154703D01*
X234330015Y-112166594D01*
X234225000Y-112166594D01*
X234103821Y-112189395D01*
X233992526Y-112261012D01*
X233917862Y-112370286D01*
X233891594Y-112500000D01*
X233727044Y-112500000D01*
X233727187Y-112336711D01*
X233563569Y-111940725D01*
X233260868Y-111637496D01*
X232865168Y-111473187D01*
X232436711Y-111472813D01*
X232040725Y-111636431D01*
X231737496Y-111939132D01*
X231573187Y-112334832D01*
X231572813Y-112763289D01*
X231736431Y-113159275D01*
X232039132Y-113462504D01*
X232434832Y-113626813D01*
X232798000Y-113627130D01*
X232798000Y-114036440D01*
X232700000Y-114016594D01*
X231200000Y-114016594D01*
X231078821Y-114039395D01*
X230967526Y-114111012D01*
X230959335Y-114123000D01*
X230837224Y-114123000D01*
X230502000Y-113787776D01*
X230502000Y-113528554D01*
X230659275Y-113463569D01*
X230962504Y-113160868D01*
X231126813Y-112765168D01*
X231127187Y-112336711D01*
X230963569Y-111940725D01*
X230660868Y-111637496D01*
X230265168Y-111473187D01*
X229836711Y-111472813D01*
X229440725Y-111636431D01*
X229137496Y-111939132D01*
X229102004Y-112024606D01*
X229102004Y-110687222D01*
X229337226Y-110452000D01*
X233275000Y-110452000D01*
X233447973Y-110417594D01*
X233594612Y-110319612D01*
X233937225Y-109977000D01*
X238125000Y-109977000D01*
X238297973Y-109942594D01*
X238444612Y-109844612D01*
X238594612Y-109694612D01*
X238692594Y-109547973D01*
X238727000Y-109375000D01*
X238727000Y-109308406D01*
X238925000Y-109308406D01*
X239046179Y-109285605D01*
X239157474Y-109213988D01*
X239216245Y-109127974D01*
X239294369Y-109206235D01*
X239524735Y-109301891D01*
X239774171Y-109302109D01*
X239835725Y-109276675D01*
X239839395Y-109296179D01*
X239911012Y-109407474D01*
X240020286Y-109482138D01*
X240150000Y-109508406D01*
X241400000Y-109508406D01*
X241521179Y-109485605D01*
X241632474Y-109413988D01*
X241707138Y-109304714D01*
X241733406Y-109175000D01*
X241733406Y-108175000D01*
X241710605Y-108053821D01*
X241638988Y-107942526D01*
X241529714Y-107867862D01*
X241400000Y-107841594D01*
X240150000Y-107841594D01*
X240028821Y-107864395D01*
X239917526Y-107936012D01*
X239842862Y-108045286D01*
X239837091Y-108073782D01*
X239775265Y-108048109D01*
X239525829Y-108047891D01*
X239295297Y-108143145D01*
X239243353Y-108194998D01*
X239235605Y-108153821D01*
X239163988Y-108042526D01*
X239054714Y-107967862D01*
X238925000Y-107941594D01*
X237625000Y-107941594D01*
X237503821Y-107964395D01*
X237392526Y-108036012D01*
X237317862Y-108145286D01*
X237307623Y-108195848D01*
X237255631Y-108143765D01*
X237025265Y-108048109D01*
X236775829Y-108047891D01*
X236714275Y-108073325D01*
X236710605Y-108053821D01*
X236638988Y-107942526D01*
X236529714Y-107867862D01*
X236400000Y-107841594D01*
X235150000Y-107841594D01*
X235028821Y-107864395D01*
X234917526Y-107936012D01*
X234842862Y-108045286D01*
X234816594Y-108175000D01*
X234816594Y-109073000D01*
X234238560Y-109073000D01*
X234258406Y-108975000D01*
X234258406Y-108275000D01*
X234235605Y-108153821D01*
X234163988Y-108042526D01*
X234054714Y-107967862D01*
X233925000Y-107941594D01*
X232625000Y-107941594D01*
X232503821Y-107964395D01*
X232392526Y-108036012D01*
X232317862Y-108145286D01*
X232307623Y-108195848D01*
X232255631Y-108143765D01*
X232025265Y-108048109D01*
X231775829Y-108047891D01*
X231714275Y-108073325D01*
X231710605Y-108053821D01*
X231638988Y-107942526D01*
X231529714Y-107867862D01*
X231400000Y-107841594D01*
X230150000Y-107841594D01*
X230028821Y-107864395D01*
X229917526Y-107936012D01*
X229842862Y-108045286D01*
X229816594Y-108175000D01*
X229816594Y-109073000D01*
X229238560Y-109073000D01*
X229258406Y-108975000D01*
X229258406Y-108275000D01*
X229235605Y-108153821D01*
X229163988Y-108042526D01*
X229054714Y-107967862D01*
X228925000Y-107941594D01*
X227625000Y-107941594D01*
X227503821Y-107964395D01*
X227392526Y-108036012D01*
X227317862Y-108145286D01*
X227291594Y-108275000D01*
X227291594Y-108975000D01*
X227314395Y-109096179D01*
X227386012Y-109207474D01*
X227404053Y-109219801D01*
X227332406Y-109327027D01*
X227298000Y-109500000D01*
X227298000Y-113762775D01*
X226982112Y-114078664D01*
X226929714Y-114042862D01*
X226800000Y-114016594D01*
X225300000Y-114016594D01*
X225178821Y-114039395D01*
X225067526Y-114111012D01*
X224992862Y-114220286D01*
X224966594Y-114350000D01*
X224966594Y-114800000D01*
X224986101Y-114903673D01*
X224966594Y-115000000D01*
X224966594Y-115275651D01*
X224900265Y-115248109D01*
X224650829Y-115247891D01*
X224420297Y-115343145D01*
X224243765Y-115519369D01*
X224218775Y-115579551D01*
X223761554Y-115122330D01*
X223826813Y-114965168D01*
X223827187Y-114536711D01*
X223663569Y-114140725D01*
X223360868Y-113837496D01*
X222965168Y-113673187D01*
X222536711Y-113672813D01*
X222140725Y-113836431D01*
X221837496Y-114139132D01*
X221673187Y-114534832D01*
X221672813Y-114963289D01*
X221836431Y-115359275D01*
X222139132Y-115662504D01*
X222534832Y-115826813D01*
X222963289Y-115827187D01*
X223122272Y-115761496D01*
X224205388Y-116844612D01*
X224352027Y-116942594D01*
X224525000Y-116977000D01*
X224966594Y-116977000D01*
X224966594Y-117373000D01*
X223826937Y-117373000D01*
X223827187Y-117086711D01*
X223663569Y-116690725D01*
X223360868Y-116387496D01*
X222965168Y-116223187D01*
X222536711Y-116222813D01*
X222140725Y-116386431D01*
X221837496Y-116689132D01*
X221673187Y-117084832D01*
X221672813Y-117513289D01*
X221836431Y-117909275D01*
X221949958Y-118023000D01*
X218484728Y-118023000D01*
X218405631Y-117943765D01*
X218175265Y-117848109D01*
X217925829Y-117847891D01*
X217695297Y-117943145D01*
X217518765Y-118119369D01*
X217423109Y-118349735D01*
X217422891Y-118599171D01*
X211602000Y-118599171D01*
X211602000Y-104675000D01*
X227291594Y-104675000D01*
X227291594Y-105375000D01*
X227314395Y-105496179D01*
X227386012Y-105607474D01*
X227495286Y-105682138D01*
X227625000Y-105708406D01*
X227823000Y-105708406D01*
X227823000Y-106041594D01*
X227625000Y-106041594D01*
X227503821Y-106064395D01*
X227392526Y-106136012D01*
X227317862Y-106245286D01*
X227291594Y-106375000D01*
X227291594Y-107075000D01*
X227314395Y-107196179D01*
X227386012Y-107307474D01*
X227495286Y-107382138D01*
X227625000Y-107408406D01*
X228925000Y-107408406D01*
X229046179Y-107385605D01*
X229157474Y-107313988D01*
X229232138Y-107204714D01*
X229247876Y-107127000D01*
X229816594Y-107127000D01*
X229816594Y-107175000D01*
X229839395Y-107296179D01*
X229911012Y-107407474D01*
X230020286Y-107482138D01*
X230150000Y-107508406D01*
X231400000Y-107508406D01*
X231521179Y-107485605D01*
X231632474Y-107413988D01*
X231707138Y-107304714D01*
X231733406Y-107175000D01*
X231733406Y-106175000D01*
X231710605Y-106053821D01*
X231638988Y-105942526D01*
X231538948Y-105874171D01*
X231632474Y-105813988D01*
X231707138Y-105704714D01*
X231712909Y-105676218D01*
X231774735Y-105701891D01*
X232024171Y-105702109D01*
X232254703Y-105606855D01*
X232334412Y-105527285D01*
X232386012Y-105607474D01*
X232495286Y-105682138D01*
X232625000Y-105708406D01*
X232823000Y-105708406D01*
X232823000Y-106041594D01*
X232625000Y-106041594D01*
X232503821Y-106064395D01*
X232392526Y-106136012D01*
X232317862Y-106245286D01*
X232291594Y-106375000D01*
X232291594Y-107075000D01*
X232314395Y-107196179D01*
X232386012Y-107307474D01*
X232495286Y-107382138D01*
X232625000Y-107408406D01*
X233925000Y-107408406D01*
X234046179Y-107385605D01*
X234157474Y-107313988D01*
X234232138Y-107204714D01*
X234247876Y-107127000D01*
X234816594Y-107127000D01*
X234816594Y-107175000D01*
X234839395Y-107296179D01*
X234911012Y-107407474D01*
X235020286Y-107482138D01*
X235150000Y-107508406D01*
X236400000Y-107508406D01*
X236521179Y-107485605D01*
X236632474Y-107413988D01*
X236707138Y-107304714D01*
X236733406Y-107175000D01*
X236733406Y-106175000D01*
X236710605Y-106053821D01*
X236638988Y-105942526D01*
X236538948Y-105874171D01*
X236632474Y-105813988D01*
X236707138Y-105704714D01*
X236712909Y-105676218D01*
X236774735Y-105701891D01*
X237024171Y-105702109D01*
X237254703Y-105606855D01*
X237334412Y-105527285D01*
X237386012Y-105607474D01*
X237495286Y-105682138D01*
X237625000Y-105708406D01*
X237823000Y-105708406D01*
X237823000Y-106041594D01*
X237625000Y-106041594D01*
X237503821Y-106064395D01*
X237392526Y-106136012D01*
X237317862Y-106245286D01*
X237291594Y-106375000D01*
X237291594Y-107075000D01*
X237314395Y-107196179D01*
X237386012Y-107307474D01*
X237495286Y-107382138D01*
X237625000Y-107408406D01*
X238925000Y-107408406D01*
X239046179Y-107385605D01*
X239157474Y-107313988D01*
X239232138Y-107204714D01*
X239247876Y-107127000D01*
X239816594Y-107127000D01*
X239816594Y-107175000D01*
X239839395Y-107296179D01*
X239911012Y-107407474D01*
X240020286Y-107482138D01*
X240150000Y-107508406D01*
X241400000Y-107508406D01*
X241521179Y-107485605D01*
X241632474Y-107413988D01*
X241707138Y-107304714D01*
X241733406Y-107175000D01*
X241733406Y-106175000D01*
X241710605Y-106053821D01*
X241638988Y-105942526D01*
X241538948Y-105874171D01*
X241632474Y-105813988D01*
X241707138Y-105704714D01*
X241733406Y-105575000D01*
X241733406Y-104575000D01*
X241710605Y-104453821D01*
X241638988Y-104342526D01*
X241529714Y-104267862D01*
X241400000Y-104241594D01*
X240150000Y-104241594D01*
X240028821Y-104264395D01*
X239917526Y-104336012D01*
X239842862Y-104445286D01*
X239837091Y-104473782D01*
X239775265Y-104448109D01*
X239525829Y-104447891D01*
X239295297Y-104543145D01*
X239243353Y-104594998D01*
X239235605Y-104553821D01*
X239163988Y-104442526D01*
X239054714Y-104367862D01*
X238925000Y-104341594D01*
X237625000Y-104341594D01*
X237503821Y-104364395D01*
X237392526Y-104436012D01*
X237317862Y-104545286D01*
X237307623Y-104595848D01*
X237255631Y-104543765D01*
X237025265Y-104448109D01*
X236775829Y-104447891D01*
X236714275Y-104473325D01*
X236710605Y-104453821D01*
X236638988Y-104342526D01*
X236529714Y-104267862D01*
X236400000Y-104241594D01*
X235150000Y-104241594D01*
X235028821Y-104264395D01*
X234917526Y-104336012D01*
X234842862Y-104445286D01*
X234816594Y-104575000D01*
X234816594Y-105575000D01*
X234839395Y-105696179D01*
X234911012Y-105807474D01*
X235011052Y-105875829D01*
X234917526Y-105936012D01*
X234842862Y-106045286D01*
X234816594Y-106175000D01*
X234816594Y-106223000D01*
X234215772Y-106223000D01*
X234163988Y-106142526D01*
X234054714Y-106067862D01*
X233925000Y-106041594D01*
X233727000Y-106041594D01*
X233727000Y-105708406D01*
X233925000Y-105708406D01*
X234046179Y-105685605D01*
X234157474Y-105613988D01*
X234232138Y-105504714D01*
X234258406Y-105375000D01*
X234258406Y-104675000D01*
X234235605Y-104553821D01*
X234163988Y-104442526D01*
X234054714Y-104367862D01*
X233925000Y-104341594D01*
X232625000Y-104341594D01*
X232503821Y-104364395D01*
X232392526Y-104436012D01*
X232317862Y-104545286D01*
X232307623Y-104595848D01*
X232255631Y-104543765D01*
X232025265Y-104448109D01*
X231775829Y-104447891D01*
X231714275Y-104473325D01*
X231710605Y-104453821D01*
X231638988Y-104342526D01*
X231529714Y-104267862D01*
X231400000Y-104241594D01*
X230150000Y-104241594D01*
X230028821Y-104264395D01*
X229917526Y-104336012D01*
X229842862Y-104445286D01*
X229816594Y-104575000D01*
X229816594Y-105575000D01*
X229839395Y-105696179D01*
X229911012Y-105807474D01*
X230011052Y-105875829D01*
X229917526Y-105936012D01*
X229842862Y-106045286D01*
X229816594Y-106175000D01*
X229816594Y-106223000D01*
X229215772Y-106223000D01*
X229163988Y-106142526D01*
X229054714Y-106067862D01*
X228925000Y-106041594D01*
X228727000Y-106041594D01*
X228727000Y-105708406D01*
X228925000Y-105708406D01*
X229046179Y-105685605D01*
X229157474Y-105613988D01*
X229232138Y-105504714D01*
X229258406Y-105375000D01*
X229258406Y-104675000D01*
X229235605Y-104553821D01*
X229163988Y-104442526D01*
X229054714Y-104367862D01*
X228925000Y-104341594D01*
X227625000Y-104341594D01*
X227503821Y-104364395D01*
X227392526Y-104436012D01*
X227317862Y-104545286D01*
X227291594Y-104675000D01*
X211602000Y-104675000D01*
X211602000Y-101075000D01*
X227291594Y-101075000D01*
X227291594Y-101775000D01*
X227314395Y-101896179D01*
X227386012Y-102007474D01*
X227495286Y-102082138D01*
X227625000Y-102108406D01*
X227823000Y-102108406D01*
X227823000Y-102441594D01*
X227625000Y-102441594D01*
X227503821Y-102464395D01*
X227392526Y-102536012D01*
X227317862Y-102645286D01*
X227291594Y-102775000D01*
X227291594Y-103475000D01*
X227314395Y-103596179D01*
X227386012Y-103707474D01*
X227495286Y-103782138D01*
X227625000Y-103808406D01*
X228925000Y-103808406D01*
X229046179Y-103785605D01*
X229157474Y-103713988D01*
X229232138Y-103604714D01*
X229247876Y-103527000D01*
X229816594Y-103527000D01*
X229816594Y-103575000D01*
X229839395Y-103696179D01*
X229911012Y-103807474D01*
X230020286Y-103882138D01*
X230150000Y-103908406D01*
X231400000Y-103908406D01*
X231521179Y-103885605D01*
X231632474Y-103813988D01*
X231707138Y-103704714D01*
X231733406Y-103575000D01*
X231733406Y-102575000D01*
X231710605Y-102453821D01*
X231638988Y-102342526D01*
X231538948Y-102274171D01*
X231632474Y-102213988D01*
X231707138Y-102104714D01*
X231712909Y-102076218D01*
X231774735Y-102101891D01*
X232024171Y-102102109D01*
X232254703Y-102006855D01*
X232334412Y-101927285D01*
X232386012Y-102007474D01*
X232495286Y-102082138D01*
X232625000Y-102108406D01*
X232823000Y-102108406D01*
X232823000Y-102441594D01*
X232625000Y-102441594D01*
X232503821Y-102464395D01*
X232392526Y-102536012D01*
X232317862Y-102645286D01*
X232291594Y-102775000D01*
X232291594Y-103475000D01*
X232314395Y-103596179D01*
X232386012Y-103707474D01*
X232495286Y-103782138D01*
X232625000Y-103808406D01*
X233925000Y-103808406D01*
X234046179Y-103785605D01*
X234157474Y-103713988D01*
X234232138Y-103604714D01*
X234247876Y-103527000D01*
X234816594Y-103527000D01*
X234816594Y-103575000D01*
X234839395Y-103696179D01*
X234911012Y-103807474D01*
X235020286Y-103882138D01*
X235150000Y-103908406D01*
X236400000Y-103908406D01*
X236521179Y-103885605D01*
X236632474Y-103813988D01*
X236707138Y-103704714D01*
X236733406Y-103575000D01*
X236733406Y-102575000D01*
X236710605Y-102453821D01*
X236638988Y-102342526D01*
X236538948Y-102274171D01*
X236632474Y-102213988D01*
X236707138Y-102104714D01*
X236712909Y-102076218D01*
X236774735Y-102101891D01*
X237024171Y-102102109D01*
X237254703Y-102006855D01*
X237334412Y-101927285D01*
X237386012Y-102007474D01*
X237495286Y-102082138D01*
X237625000Y-102108406D01*
X237823000Y-102108406D01*
X237823000Y-102441594D01*
X237625000Y-102441594D01*
X237503821Y-102464395D01*
X237392526Y-102536012D01*
X237317862Y-102645286D01*
X237291594Y-102775000D01*
X237291594Y-103475000D01*
X237314395Y-103596179D01*
X237386012Y-103707474D01*
X237495286Y-103782138D01*
X237625000Y-103808406D01*
X238925000Y-103808406D01*
X239046179Y-103785605D01*
X239157474Y-103713988D01*
X239232138Y-103604714D01*
X239247876Y-103527000D01*
X239816594Y-103527000D01*
X239816594Y-103575000D01*
X239839395Y-103696179D01*
X239911012Y-103807474D01*
X240020286Y-103882138D01*
X240150000Y-103908406D01*
X241400000Y-103908406D01*
X241521179Y-103885605D01*
X241632474Y-103813988D01*
X241707138Y-103704714D01*
X241733406Y-103575000D01*
X241733406Y-102575000D01*
X241710605Y-102453821D01*
X241638988Y-102342526D01*
X241538948Y-102274171D01*
X241632474Y-102213988D01*
X241707138Y-102104714D01*
X241733406Y-101975000D01*
X241733406Y-100975000D01*
X241710605Y-100853821D01*
X241638988Y-100742526D01*
X241529714Y-100667862D01*
X241400000Y-100641594D01*
X240150000Y-100641594D01*
X240028821Y-100664395D01*
X239917526Y-100736012D01*
X239842862Y-100845286D01*
X239837091Y-100873782D01*
X239775265Y-100848109D01*
X239525829Y-100847891D01*
X239295297Y-100943145D01*
X239243353Y-100994998D01*
X239235605Y-100953821D01*
X239163988Y-100842526D01*
X239054714Y-100767862D01*
X238925000Y-100741594D01*
X237625000Y-100741594D01*
X237503821Y-100764395D01*
X237392526Y-100836012D01*
X237317862Y-100945286D01*
X237307623Y-100995848D01*
X237255631Y-100943765D01*
X237025265Y-100848109D01*
X236775829Y-100847891D01*
X236714275Y-100873325D01*
X236710605Y-100853821D01*
X236638988Y-100742526D01*
X236529714Y-100667862D01*
X236400000Y-100641594D01*
X235150000Y-100641594D01*
X235028821Y-100664395D01*
X234917526Y-100736012D01*
X234842862Y-100845286D01*
X234816594Y-100975000D01*
X234816594Y-101975000D01*
X234839395Y-102096179D01*
X234911012Y-102207474D01*
X235011052Y-102275829D01*
X234917526Y-102336012D01*
X234842862Y-102445286D01*
X234816594Y-102575000D01*
X234816594Y-102623000D01*
X234215772Y-102623000D01*
X234163988Y-102542526D01*
X234054714Y-102467862D01*
X233925000Y-102441594D01*
X233727000Y-102441594D01*
X233727000Y-102108406D01*
X233925000Y-102108406D01*
X234046179Y-102085605D01*
X234157474Y-102013988D01*
X234232138Y-101904714D01*
X234258406Y-101775000D01*
X234258406Y-101075000D01*
X234235605Y-100953821D01*
X234163988Y-100842526D01*
X234054714Y-100767862D01*
X233925000Y-100741594D01*
X232625000Y-100741594D01*
X232503821Y-100764395D01*
X232392526Y-100836012D01*
X232317862Y-100945286D01*
X232307623Y-100995848D01*
X232255631Y-100943765D01*
X232025265Y-100848109D01*
X231775829Y-100847891D01*
X231714275Y-100873325D01*
X231710605Y-100853821D01*
X231638988Y-100742526D01*
X231529714Y-100667862D01*
X231400000Y-100641594D01*
X230150000Y-100641594D01*
X230028821Y-100664395D01*
X229917526Y-100736012D01*
X229842862Y-100845286D01*
X229816594Y-100975000D01*
X229816594Y-101975000D01*
X229839395Y-102096179D01*
X229911012Y-102207474D01*
X230011052Y-102275829D01*
X229917526Y-102336012D01*
X229842862Y-102445286D01*
X229816594Y-102575000D01*
X229816594Y-102623000D01*
X229215772Y-102623000D01*
X229163988Y-102542526D01*
X229054714Y-102467862D01*
X228925000Y-102441594D01*
X228727000Y-102441594D01*
X228727000Y-102108406D01*
X228925000Y-102108406D01*
X229046179Y-102085605D01*
X229157474Y-102013988D01*
X229232138Y-101904714D01*
X229258406Y-101775000D01*
X229258406Y-101075000D01*
X229235605Y-100953821D01*
X229163988Y-100842526D01*
X229054714Y-100767862D01*
X228925000Y-100741594D01*
X227625000Y-100741594D01*
X227503821Y-100764395D01*
X227392526Y-100836012D01*
X227317862Y-100945286D01*
X227291594Y-101075000D01*
X211602000Y-101075000D01*
X211602000Y-99175000D01*
X227291594Y-99175000D01*
X227291594Y-99875000D01*
X227314395Y-99996179D01*
X227386012Y-100107474D01*
X227495286Y-100182138D01*
X227625000Y-100208406D01*
X228925000Y-100208406D01*
X229046179Y-100185605D01*
X229157474Y-100113988D01*
X229232138Y-100004714D01*
X229237750Y-99977000D01*
X229816970Y-99977000D01*
X229839395Y-100096179D01*
X229911012Y-100207474D01*
X230020286Y-100282138D01*
X230150000Y-100308406D01*
X231400000Y-100308406D01*
X231521179Y-100285605D01*
X231632474Y-100213988D01*
X231707138Y-100104714D01*
X231733001Y-99977000D01*
X232310786Y-99977000D01*
X232314395Y-99996179D01*
X232386012Y-100107474D01*
X232495286Y-100182138D01*
X232625000Y-100208406D01*
X233925000Y-100208406D01*
X234046179Y-100185605D01*
X234157474Y-100113988D01*
X234232138Y-100004714D01*
X234237750Y-99977000D01*
X234816970Y-99977000D01*
X234839395Y-100096179D01*
X234911012Y-100207474D01*
X235020286Y-100282138D01*
X235150000Y-100308406D01*
X236400000Y-100308406D01*
X236521179Y-100285605D01*
X236632474Y-100213988D01*
X236707138Y-100104714D01*
X236733001Y-99977000D01*
X237310786Y-99977000D01*
X237314395Y-99996179D01*
X237386012Y-100107474D01*
X237495286Y-100182138D01*
X237625000Y-100208406D01*
X238925000Y-100208406D01*
X239046179Y-100185605D01*
X239157474Y-100113988D01*
X239232138Y-100004714D01*
X239237750Y-99977000D01*
X239816970Y-99977000D01*
X239839395Y-100096179D01*
X239911012Y-100207474D01*
X240020286Y-100282138D01*
X240150000Y-100308406D01*
X241400000Y-100308406D01*
X241521179Y-100285605D01*
X241632474Y-100213988D01*
X241707138Y-100104714D01*
X241733406Y-99975000D01*
X241733406Y-98975000D01*
X241710605Y-98853821D01*
X241638988Y-98742526D01*
X241529714Y-98667862D01*
X241400000Y-98641594D01*
X240150000Y-98641594D01*
X240028821Y-98664395D01*
X239917526Y-98736012D01*
X239842862Y-98845286D01*
X239816999Y-98973000D01*
X239183598Y-98973000D01*
X239163988Y-98942526D01*
X239054714Y-98867862D01*
X238925000Y-98841594D01*
X237625000Y-98841594D01*
X237503821Y-98864395D01*
X237392526Y-98936012D01*
X237367253Y-98973000D01*
X236733030Y-98973000D01*
X236710605Y-98853821D01*
X236638988Y-98742526D01*
X236529714Y-98667862D01*
X236400000Y-98641594D01*
X236277000Y-98641594D01*
X236277000Y-97480304D01*
X236289395Y-97546179D01*
X236361012Y-97657474D01*
X236470286Y-97732138D01*
X236600000Y-97758406D01*
X237600000Y-97758406D01*
X237721179Y-97735605D01*
X237832474Y-97663988D01*
X237907138Y-97554714D01*
X237933406Y-97425000D01*
X237933406Y-97252000D01*
X238466594Y-97252000D01*
X238466594Y-97450000D01*
X238489395Y-97571179D01*
X238561012Y-97682474D01*
X238670286Y-97757138D01*
X238800000Y-97783406D01*
X239500000Y-97783406D01*
X239621179Y-97760605D01*
X239732474Y-97688988D01*
X239807138Y-97579714D01*
X239833406Y-97450000D01*
X239833406Y-96150000D01*
X239810605Y-96028821D01*
X239738988Y-95917526D01*
X239629714Y-95842862D01*
X239500000Y-95816594D01*
X238800000Y-95816594D01*
X238678821Y-95839395D01*
X238567526Y-95911012D01*
X238492862Y-96020286D01*
X238466594Y-96150000D01*
X238466594Y-96348000D01*
X237933406Y-96348000D01*
X237933406Y-96175000D01*
X237910605Y-96053821D01*
X237838988Y-95942526D01*
X237729714Y-95867862D01*
X237600000Y-95841594D01*
X237520492Y-95841594D01*
X237517594Y-95827027D01*
X237419612Y-95680388D01*
X237222630Y-95483406D01*
X238100000Y-95483406D01*
X238221179Y-95460605D01*
X238332474Y-95388988D01*
X238407138Y-95279714D01*
X238433406Y-95150000D01*
X238433406Y-94752000D01*
X238466594Y-94752000D01*
X238466594Y-94950000D01*
X238489395Y-95071179D01*
X238561012Y-95182474D01*
X238670286Y-95257138D01*
X238800000Y-95283406D01*
X239500000Y-95283406D01*
X239621179Y-95260605D01*
X239732474Y-95188988D01*
X239807138Y-95079714D01*
X239833406Y-94950000D01*
X239833406Y-93650000D01*
X239810605Y-93528821D01*
X239738988Y-93417526D01*
X239629714Y-93342862D01*
X239500000Y-93316594D01*
X238800000Y-93316594D01*
X238678821Y-93339395D01*
X238567526Y-93411012D01*
X238492862Y-93520286D01*
X238466594Y-93650000D01*
X238466594Y-93848000D01*
X238433406Y-93848000D01*
X238433406Y-93450000D01*
X238410605Y-93328821D01*
X238338988Y-93217526D01*
X238229714Y-93142862D01*
X238100000Y-93116594D01*
X236100000Y-93116594D01*
X235978821Y-93139395D01*
X235867526Y-93211012D01*
X235792862Y-93320286D01*
X235766594Y-93450000D01*
X235766594Y-93827370D01*
X234433406Y-92494182D01*
X234433406Y-91272630D01*
X235280388Y-92119612D01*
X235427027Y-92217594D01*
X235600000Y-92252000D01*
X235766594Y-92252000D01*
X235766594Y-92650000D01*
X235789395Y-92771179D01*
X235861012Y-92882474D01*
X235970286Y-92957138D01*
X236100000Y-92983406D01*
X238100000Y-92983406D01*
X238221179Y-92960605D01*
X238332474Y-92888988D01*
X238407138Y-92779714D01*
X238433406Y-92650000D01*
X238433406Y-92252000D01*
X238466594Y-92252000D01*
X238466594Y-92450000D01*
X238489395Y-92571179D01*
X238561012Y-92682474D01*
X238670286Y-92757138D01*
X238800000Y-92783406D01*
X239500000Y-92783406D01*
X239621179Y-92760605D01*
X239732474Y-92688988D01*
X239807138Y-92579714D01*
X239833406Y-92450000D01*
X239833406Y-91150000D01*
X239810605Y-91028821D01*
X239738988Y-90917526D01*
X239629714Y-90842862D01*
X239500000Y-90816594D01*
X238800000Y-90816594D01*
X238678821Y-90839395D01*
X238567526Y-90911012D01*
X238492862Y-91020286D01*
X238466594Y-91150000D01*
X238466594Y-91348000D01*
X238433406Y-91348000D01*
X238433406Y-90950000D01*
X238410605Y-90828821D01*
X238338988Y-90717526D01*
X238229714Y-90642862D01*
X238100000Y-90616594D01*
X236100000Y-90616594D01*
X235978821Y-90639395D01*
X235867526Y-90711012D01*
X235792862Y-90820286D01*
X235766594Y-90950000D01*
X235766594Y-91327370D01*
X234433406Y-89994182D01*
X234433406Y-88450000D01*
X235766594Y-88450000D01*
X235766594Y-90150000D01*
X235789395Y-90271179D01*
X235861012Y-90382474D01*
X235970286Y-90457138D01*
X236100000Y-90483406D01*
X238100000Y-90483406D01*
X238221179Y-90460605D01*
X238332474Y-90388988D01*
X238407138Y-90279714D01*
X238433406Y-90150000D01*
X238433406Y-89752000D01*
X238466594Y-89752000D01*
X238466594Y-89950000D01*
X238489395Y-90071179D01*
X238561012Y-90182474D01*
X238670286Y-90257138D01*
X238800000Y-90283406D01*
X239500000Y-90283406D01*
X239621179Y-90260605D01*
X239732474Y-90188988D01*
X239807138Y-90079714D01*
X239833406Y-89950000D01*
X239833406Y-88650000D01*
X239810605Y-88528821D01*
X239738988Y-88417526D01*
X239629714Y-88342862D01*
X239500000Y-88316594D01*
X238800000Y-88316594D01*
X238678821Y-88339395D01*
X238567526Y-88411012D01*
X238492862Y-88520286D01*
X238466594Y-88650000D01*
X238466594Y-88848000D01*
X238433406Y-88848000D01*
X238433406Y-88450000D01*
X238410605Y-88328821D01*
X238338988Y-88217526D01*
X238229714Y-88142862D01*
X238100000Y-88116594D01*
X236100000Y-88116594D01*
X235978821Y-88139395D01*
X235867526Y-88211012D01*
X235792862Y-88320286D01*
X235766594Y-88450000D01*
X234433406Y-88450000D01*
X234410605Y-88328821D01*
X234338988Y-88217526D01*
X234229714Y-88142862D01*
X234100000Y-88116594D01*
X232100000Y-88116594D01*
X231978821Y-88139395D01*
X231867526Y-88211012D01*
X231792862Y-88320286D01*
X231766594Y-88450000D01*
X231766594Y-90150000D01*
X231789395Y-90271179D01*
X231861012Y-90382474D01*
X231970286Y-90457138D01*
X232100000Y-90483406D01*
X233644182Y-90483406D01*
X233777370Y-90616594D01*
X232100000Y-90616594D01*
X231978821Y-90639395D01*
X231867526Y-90711012D01*
X231792862Y-90820286D01*
X231766594Y-90950000D01*
X231766594Y-92650000D01*
X231789395Y-92771179D01*
X231861012Y-92882474D01*
X231970286Y-92957138D01*
X232100000Y-92983406D01*
X233644182Y-92983406D01*
X233777370Y-93116594D01*
X232100000Y-93116594D01*
X231978821Y-93139395D01*
X231867526Y-93211012D01*
X231792862Y-93320286D01*
X231766594Y-93450000D01*
X231766594Y-95150000D01*
X231789395Y-95271179D01*
X231861012Y-95382474D01*
X231970286Y-95457138D01*
X232100000Y-95483406D01*
X233644182Y-95483406D01*
X234180388Y-96019612D01*
X234284036Y-96088868D01*
X234266594Y-96175000D01*
X234266594Y-97425000D01*
X234289395Y-97546179D01*
X234361012Y-97657474D01*
X234470286Y-97732138D01*
X234600000Y-97758406D01*
X235273000Y-97758406D01*
X235273000Y-98641594D01*
X235150000Y-98641594D01*
X235028821Y-98664395D01*
X234917526Y-98736012D01*
X234842862Y-98845286D01*
X234816999Y-98973000D01*
X234183598Y-98973000D01*
X234163988Y-98942526D01*
X234054714Y-98867862D01*
X233925000Y-98841594D01*
X232625000Y-98841594D01*
X232503821Y-98864395D01*
X232392526Y-98936012D01*
X232367253Y-98973000D01*
X231733030Y-98973000D01*
X231710605Y-98853821D01*
X231638988Y-98742526D01*
X231529714Y-98667862D01*
X231400000Y-98641594D01*
X230150000Y-98641594D01*
X230028821Y-98664395D01*
X229917526Y-98736012D01*
X229842862Y-98845286D01*
X229816999Y-98973000D01*
X229183598Y-98973000D01*
X229163988Y-98942526D01*
X229054714Y-98867862D01*
X228925000Y-98841594D01*
X227625000Y-98841594D01*
X227503821Y-98864395D01*
X227392526Y-98936012D01*
X227317862Y-99045286D01*
X227291594Y-99175000D01*
X211602000Y-99175000D01*
X211602000Y-79741524D01*
X225722657Y-79741524D01*
X226023003Y-80468418D01*
X226578657Y-81025042D01*
X227305025Y-81326656D01*
X228091524Y-81327343D01*
X228818418Y-81026997D01*
X228895549Y-80950000D01*
X231766594Y-80950000D01*
X231766594Y-82650000D01*
X231789395Y-82771179D01*
X231861012Y-82882474D01*
X231970286Y-82957138D01*
X232100000Y-82983406D01*
X234100000Y-82983406D01*
X234221179Y-82960605D01*
X234332474Y-82888988D01*
X234407138Y-82779714D01*
X234433406Y-82650000D01*
X234433406Y-81105818D01*
X234637224Y-80902000D01*
X235776314Y-80902000D01*
X235766594Y-80950000D01*
X235766594Y-82494182D01*
X234433406Y-83827370D01*
X234433406Y-83450000D01*
X234410605Y-83328821D01*
X234338988Y-83217526D01*
X234229714Y-83142862D01*
X234100000Y-83116594D01*
X232100000Y-83116594D01*
X231978821Y-83139395D01*
X231867526Y-83211012D01*
X231792862Y-83320286D01*
X231766594Y-83450000D01*
X231766594Y-85150000D01*
X231789395Y-85271179D01*
X231861012Y-85382474D01*
X231970286Y-85457138D01*
X232100000Y-85483406D01*
X234100000Y-85483406D01*
X234221179Y-85460605D01*
X234332474Y-85388988D01*
X234407138Y-85279714D01*
X234433406Y-85150000D01*
X234433406Y-84752000D01*
X234600000Y-84752000D01*
X234772973Y-84717594D01*
X234919612Y-84619612D01*
X235766594Y-83772630D01*
X235766594Y-84994182D01*
X234483406Y-86277370D01*
X234483406Y-85950000D01*
X234460605Y-85828821D01*
X234388988Y-85717526D01*
X234279714Y-85642862D01*
X234150000Y-85616594D01*
X232150000Y-85616594D01*
X232028821Y-85639395D01*
X231917526Y-85711012D01*
X231842862Y-85820286D01*
X231816594Y-85950000D01*
X231816594Y-87650000D01*
X231839395Y-87771179D01*
X231911012Y-87882474D01*
X232020286Y-87957138D01*
X232150000Y-87983406D01*
X234150000Y-87983406D01*
X234271179Y-87960605D01*
X234382474Y-87888988D01*
X234457138Y-87779714D01*
X234483406Y-87650000D01*
X234483406Y-87252000D01*
X234600000Y-87252000D01*
X234772973Y-87217594D01*
X234919612Y-87119612D01*
X235816594Y-86222630D01*
X235816594Y-87650000D01*
X235839395Y-87771179D01*
X235911012Y-87882474D01*
X236020286Y-87957138D01*
X236150000Y-87983406D01*
X238150000Y-87983406D01*
X238271179Y-87960605D01*
X238382474Y-87888988D01*
X238457138Y-87779714D01*
X238483406Y-87650000D01*
X238483406Y-87539350D01*
X238489395Y-87571179D01*
X238561012Y-87682474D01*
X238670286Y-87757138D01*
X238800000Y-87783406D01*
X239500000Y-87783406D01*
X239621179Y-87760605D01*
X239732474Y-87688988D01*
X239807138Y-87579714D01*
X239833406Y-87450000D01*
X239833406Y-86150000D01*
X239810605Y-86028821D01*
X239738988Y-85917526D01*
X239629714Y-85842862D01*
X239500000Y-85816594D01*
X238800000Y-85816594D01*
X238678821Y-85839395D01*
X238567526Y-85911012D01*
X238492862Y-86020286D01*
X238483406Y-86066981D01*
X238483406Y-85950000D01*
X238460605Y-85828821D01*
X238388988Y-85717526D01*
X238279714Y-85642862D01*
X238150000Y-85616594D01*
X236422630Y-85616594D01*
X236555818Y-85483406D01*
X238100000Y-85483406D01*
X238221179Y-85460605D01*
X238332474Y-85388988D01*
X238407138Y-85279714D01*
X238433406Y-85150000D01*
X238433406Y-84752000D01*
X238466594Y-84752000D01*
X238466594Y-84950000D01*
X238489395Y-85071179D01*
X238561012Y-85182474D01*
X238670286Y-85257138D01*
X238800000Y-85283406D01*
X239500000Y-85283406D01*
X239621179Y-85260605D01*
X239732474Y-85188988D01*
X239807138Y-85079714D01*
X239833406Y-84950000D01*
X239833406Y-83650000D01*
X239810605Y-83528821D01*
X239738988Y-83417526D01*
X239629714Y-83342862D01*
X239500000Y-83316594D01*
X238800000Y-83316594D01*
X238678821Y-83339395D01*
X238567526Y-83411012D01*
X238492862Y-83520286D01*
X238466594Y-83650000D01*
X238466594Y-83848000D01*
X238433406Y-83848000D01*
X238433406Y-83450000D01*
X238410605Y-83328821D01*
X238338988Y-83217526D01*
X238229714Y-83142862D01*
X238100000Y-83116594D01*
X236422630Y-83116594D01*
X236555818Y-82983406D01*
X238100000Y-82983406D01*
X238221179Y-82960605D01*
X238332474Y-82888988D01*
X238407138Y-82779714D01*
X238433406Y-82650000D01*
X238433406Y-82252000D01*
X238466594Y-82252000D01*
X238466594Y-82450000D01*
X238489395Y-82571179D01*
X238561012Y-82682474D01*
X238670286Y-82757138D01*
X238800000Y-82783406D01*
X239500000Y-82783406D01*
X239621179Y-82760605D01*
X239732474Y-82688988D01*
X239807138Y-82579714D01*
X239833406Y-82450000D01*
X239833406Y-81150000D01*
X239810605Y-81028821D01*
X239738988Y-80917526D01*
X239629714Y-80842862D01*
X239500000Y-80816594D01*
X238800000Y-80816594D01*
X238678821Y-80839395D01*
X238567526Y-80911012D01*
X238492862Y-81020286D01*
X238466594Y-81150000D01*
X238466594Y-81348000D01*
X238433406Y-81348000D01*
X238433406Y-80950000D01*
X238410605Y-80828821D01*
X238338988Y-80717526D01*
X238229714Y-80642862D01*
X238100000Y-80616594D01*
X237622630Y-80616594D01*
X237819612Y-80419612D01*
X237917594Y-80272973D01*
X237920492Y-80258406D01*
X238000000Y-80258406D01*
X238121179Y-80235605D01*
X238232474Y-80163988D01*
X238307138Y-80054714D01*
X238333406Y-79925000D01*
X238333406Y-79752000D01*
X238466594Y-79752000D01*
X238466594Y-79950000D01*
X238489395Y-80071179D01*
X238561012Y-80182474D01*
X238670286Y-80257138D01*
X238800000Y-80283406D01*
X239500000Y-80283406D01*
X239621179Y-80260605D01*
X239732474Y-80188988D01*
X239807138Y-80079714D01*
X239833406Y-79950000D01*
X239833406Y-78650000D01*
X239810605Y-78528821D01*
X239738988Y-78417526D01*
X239629714Y-78342862D01*
X239500000Y-78316594D01*
X238800000Y-78316594D01*
X238678821Y-78339395D01*
X238567526Y-78411012D01*
X238492862Y-78520286D01*
X238466594Y-78650000D01*
X238466594Y-78848000D01*
X238333406Y-78848000D01*
X238333406Y-78675000D01*
X238310605Y-78553821D01*
X238238988Y-78442526D01*
X238129714Y-78367862D01*
X238000000Y-78341594D01*
X237000000Y-78341594D01*
X236878821Y-78364395D01*
X236767526Y-78436012D01*
X236692862Y-78545286D01*
X236666594Y-78675000D01*
X236666594Y-79925000D01*
X236680330Y-79998000D01*
X236318623Y-79998000D01*
X236333406Y-79925000D01*
X236333406Y-78675000D01*
X236310605Y-78553821D01*
X236238988Y-78442526D01*
X236129714Y-78367862D01*
X236000000Y-78341594D01*
X235000000Y-78341594D01*
X234878821Y-78364395D01*
X234767526Y-78436012D01*
X234692862Y-78545286D01*
X234666594Y-78675000D01*
X234666594Y-78779747D01*
X234655631Y-78768765D01*
X234425265Y-78673109D01*
X234175829Y-78672891D01*
X233945297Y-78768145D01*
X233768765Y-78944369D01*
X233673109Y-79174735D01*
X233672891Y-79424171D01*
X233768145Y-79654703D01*
X233944369Y-79831235D01*
X234174735Y-79926891D01*
X234424171Y-79927109D01*
X234654703Y-79831855D01*
X234666594Y-79819985D01*
X234666594Y-79925000D01*
X234680330Y-79998000D01*
X234450000Y-79998000D01*
X234277027Y-80032406D01*
X234130388Y-80130388D01*
X233644182Y-80616594D01*
X232100000Y-80616594D01*
X231978821Y-80639395D01*
X231867526Y-80711012D01*
X231792862Y-80820286D01*
X231766594Y-80950000D01*
X228895549Y-80950000D01*
X229375042Y-80471343D01*
X229676656Y-79744975D01*
X229677343Y-78958476D01*
X229376997Y-78231582D01*
X228821343Y-77674958D01*
X228094975Y-77373344D01*
X227308476Y-77372657D01*
X226581582Y-77673003D01*
X226024958Y-78228657D01*
X225723344Y-78955025D01*
X225722657Y-79741524D01*
X211602000Y-79741524D01*
X211602000Y-74238705D01*
X211694369Y-74331235D01*
X211924735Y-74426891D01*
X212174171Y-74427109D01*
X212404703Y-74331855D01*
X212581235Y-74155631D01*
X212676891Y-73925265D01*
X212677109Y-73675829D01*
X212581855Y-73445297D01*
X212569985Y-73433406D01*
X212600000Y-73433406D01*
X212721179Y-73410605D01*
X212800581Y-73359511D01*
X212870286Y-73407138D01*
X213000000Y-73433406D01*
X213004747Y-73433406D01*
X212993765Y-73444369D01*
X212898109Y-73674735D01*
X212897891Y-73924171D01*
X212993145Y-74154703D01*
X213169369Y-74331235D01*
X213399735Y-74426891D01*
X213649171Y-74427109D01*
X213879703Y-74331855D01*
X214056235Y-74155631D01*
X214151891Y-73925265D01*
X214152109Y-73675829D01*
X214056855Y-73445297D01*
X214044985Y-73433406D01*
X214050000Y-73433406D01*
X214171179Y-73410605D01*
X214282474Y-73338988D01*
X214357138Y-73229714D01*
X214383406Y-73100000D01*
X214383406Y-71700000D01*
X214360605Y-71578821D01*
X214288988Y-71467526D01*
X214179714Y-71392862D01*
X214050000Y-71366594D01*
X213655818Y-71366594D01*
X213576116Y-71286892D01*
X213836053Y-71287119D01*
X214088646Y-71182750D01*
X214282071Y-70989662D01*
X214386880Y-70737252D01*
X214387119Y-70463947D01*
X214282750Y-70211354D01*
X214089662Y-70017929D01*
X213837252Y-69913120D01*
X213626288Y-69912936D01*
X213705818Y-69833406D01*
X214050000Y-69833406D01*
X214171179Y-69810605D01*
X214282474Y-69738988D01*
X214357138Y-69629714D01*
X214383406Y-69500000D01*
X214383406Y-68100000D01*
X214360605Y-67978821D01*
X214288988Y-67867526D01*
X214179714Y-67792862D01*
X214050000Y-67766594D01*
X213000000Y-67766594D01*
X212878821Y-67789395D01*
X212799419Y-67840489D01*
X212729714Y-67792862D01*
X212600000Y-67766594D01*
X212570253Y-67766594D01*
X212581235Y-67755631D01*
X212676891Y-67525265D01*
X212677109Y-67275829D01*
X212581855Y-67045297D01*
X212405631Y-66868765D01*
X212175265Y-66773109D01*
X211925829Y-66772891D01*
X211695297Y-66868145D01*
X211602000Y-66961279D01*
X211602000Y-63482603D01*
X212372752Y-63482603D01*
X212589543Y-64007275D01*
X212990614Y-64409047D01*
X213514907Y-64626752D01*
X214082603Y-64627248D01*
X214607275Y-64410457D01*
X215009047Y-64009386D01*
X215220562Y-63500000D01*
X223666594Y-63500000D01*
X223666594Y-65900000D01*
X223689395Y-66021179D01*
X223761012Y-66132474D01*
X223870286Y-66207138D01*
X224000000Y-66233406D01*
X224698000Y-66233406D01*
X224698000Y-71899995D01*
X224697999Y-71900000D01*
X224736212Y-72092107D01*
X224845032Y-72254968D01*
X225145032Y-72554968D01*
X225307892Y-72663788D01*
X225500000Y-72702001D01*
X225500005Y-72702000D01*
X228899995Y-72702000D01*
X228900000Y-72702001D01*
X229092107Y-72663788D01*
X229221995Y-72577000D01*
X229262766Y-72577000D01*
X229270286Y-72582138D01*
X229400000Y-72608406D01*
X231000000Y-72608406D01*
X231121179Y-72585605D01*
X231232474Y-72513988D01*
X231307138Y-72404714D01*
X231325990Y-72311622D01*
X231385286Y-72352138D01*
X231515000Y-72378406D01*
X233085000Y-72378406D01*
X233206179Y-72355605D01*
X233273598Y-72312222D01*
X233289395Y-72396179D01*
X233361012Y-72507474D01*
X233470286Y-72582138D01*
X233600000Y-72608406D01*
X233948000Y-72608406D01*
X233948000Y-72612776D01*
X233712776Y-72848000D01*
X230309771Y-72848000D01*
X230255631Y-72793765D01*
X230025265Y-72698109D01*
X229775829Y-72697891D01*
X229545297Y-72793145D01*
X229368765Y-72969369D01*
X229273109Y-73199735D01*
X229272891Y-73449171D01*
X229368145Y-73679703D01*
X229544369Y-73856235D01*
X229774735Y-73951891D01*
X230024171Y-73952109D01*
X230254703Y-73856855D01*
X230359741Y-73752000D01*
X233900000Y-73752000D01*
X234072973Y-73717594D01*
X234219612Y-73619612D01*
X234719612Y-73119612D01*
X234817594Y-72972973D01*
X234852000Y-72800000D01*
X234852000Y-72608406D01*
X235200000Y-72608406D01*
X235321179Y-72585605D01*
X235416594Y-72524207D01*
X235416594Y-72575000D01*
X235439395Y-72696179D01*
X235511012Y-72807474D01*
X235620286Y-72882138D01*
X235750000Y-72908406D01*
X236750000Y-72908406D01*
X236871179Y-72885605D01*
X236982474Y-72813988D01*
X237057138Y-72704714D01*
X237083406Y-72575000D01*
X237083406Y-72538968D01*
X237174735Y-72576891D01*
X237416990Y-72577103D01*
X237439395Y-72696179D01*
X237511012Y-72807474D01*
X237620286Y-72882138D01*
X237750000Y-72908406D01*
X238750000Y-72908406D01*
X238871179Y-72885605D01*
X238982474Y-72813988D01*
X239057138Y-72704714D01*
X239083406Y-72575000D01*
X239083406Y-71325000D01*
X239064966Y-71227000D01*
X240237776Y-71227000D01*
X240598000Y-71587225D01*
X240598000Y-78335786D01*
X240578821Y-78339395D01*
X240467526Y-78411012D01*
X240392862Y-78520286D01*
X240366594Y-78650000D01*
X240366594Y-79950000D01*
X240389395Y-80071179D01*
X240461012Y-80182474D01*
X240548000Y-80241911D01*
X240548000Y-80859228D01*
X240467526Y-80911012D01*
X240392862Y-81020286D01*
X240366594Y-81150000D01*
X240366594Y-82450000D01*
X240389395Y-82571179D01*
X240461012Y-82682474D01*
X240548000Y-82741911D01*
X240548000Y-83359228D01*
X240467526Y-83411012D01*
X240392862Y-83520286D01*
X240366594Y-83650000D01*
X240366594Y-84950000D01*
X240389395Y-85071179D01*
X240461012Y-85182474D01*
X240548000Y-85241911D01*
X240548000Y-85859228D01*
X240467526Y-85911012D01*
X240392862Y-86020286D01*
X240366594Y-86150000D01*
X240366594Y-87450000D01*
X240389395Y-87571179D01*
X240461012Y-87682474D01*
X240570286Y-87757138D01*
X240700000Y-87783406D01*
X241400000Y-87783406D01*
X241521179Y-87760605D01*
X241632474Y-87688988D01*
X241707138Y-87579714D01*
X241733406Y-87450000D01*
X241733406Y-86150000D01*
X241710605Y-86028821D01*
X241638988Y-85917526D01*
X241552000Y-85858089D01*
X241552000Y-85240772D01*
X241632474Y-85188988D01*
X241707138Y-85079714D01*
X241733406Y-84950000D01*
X241733406Y-83650000D01*
X241710605Y-83528821D01*
X241638988Y-83417526D01*
X241552000Y-83358089D01*
X241552000Y-82740772D01*
X241632474Y-82688988D01*
X241707138Y-82579714D01*
X241733406Y-82450000D01*
X241733406Y-81150000D01*
X241710605Y-81028821D01*
X241638988Y-80917526D01*
X241552000Y-80858089D01*
X241552000Y-80240772D01*
X241632474Y-80188988D01*
X241707138Y-80079714D01*
X241733406Y-79950000D01*
X241733406Y-78650000D01*
X241710605Y-78528821D01*
X241638988Y-78417526D01*
X241529714Y-78342862D01*
X241502000Y-78337250D01*
X241502000Y-71400000D01*
X241474991Y-71264216D01*
X241748000Y-71537225D01*
X241748000Y-87962775D01*
X241394181Y-88316594D01*
X240700000Y-88316594D01*
X240578821Y-88339395D01*
X240467526Y-88411012D01*
X240392862Y-88520286D01*
X240366594Y-88650000D01*
X240366594Y-89950000D01*
X240389395Y-90071179D01*
X240461012Y-90182474D01*
X240548000Y-90241911D01*
X240548000Y-90859228D01*
X240467526Y-90911012D01*
X240392862Y-91020286D01*
X240366594Y-91150000D01*
X240366594Y-92450000D01*
X240389395Y-92571179D01*
X240461012Y-92682474D01*
X240548000Y-92741911D01*
X240548000Y-93359228D01*
X240467526Y-93411012D01*
X240392862Y-93520286D01*
X240366594Y-93650000D01*
X240366594Y-94950000D01*
X240389395Y-95071179D01*
X240461012Y-95182474D01*
X240548000Y-95241911D01*
X240548000Y-95859228D01*
X240467526Y-95911012D01*
X240392862Y-96020286D01*
X240366594Y-96150000D01*
X240366594Y-97450000D01*
X240389395Y-97571179D01*
X240461012Y-97682474D01*
X240570286Y-97757138D01*
X240700000Y-97783406D01*
X241400000Y-97783406D01*
X241521179Y-97760605D01*
X241632474Y-97688988D01*
X241707138Y-97579714D01*
X241733406Y-97450000D01*
X241733406Y-96150000D01*
X241710605Y-96028821D01*
X241638988Y-95917526D01*
X241552000Y-95858089D01*
X241552000Y-95240772D01*
X241632474Y-95188988D01*
X241707138Y-95079714D01*
X241733406Y-94950000D01*
X241733406Y-93650000D01*
X241710605Y-93528821D01*
X241638988Y-93417526D01*
X241552000Y-93358089D01*
X241552000Y-92740772D01*
X241632474Y-92688988D01*
X241707138Y-92579714D01*
X241733406Y-92450000D01*
X241733406Y-91150000D01*
X241710605Y-91028821D01*
X241638988Y-90917526D01*
X241552000Y-90858089D01*
X241552000Y-90240772D01*
X241632474Y-90188988D01*
X241707138Y-90079714D01*
X241733406Y-89950000D01*
X241733406Y-89255818D01*
X242519613Y-88469612D01*
X242617594Y-88322973D01*
X242652000Y-88150000D01*
X242652000Y-71350000D01*
X242617594Y-71177027D01*
X242599535Y-71150000D01*
X242519613Y-71030388D01*
X241294612Y-69805388D01*
X241147973Y-69707406D01*
X240975000Y-69673000D01*
X235410411Y-69673000D01*
X235329714Y-69617862D01*
X235200000Y-69591594D01*
X233600000Y-69591594D01*
X233478821Y-69614395D01*
X233367526Y-69686012D01*
X233292862Y-69795286D01*
X233274010Y-69888378D01*
X233214714Y-69847862D01*
X233085000Y-69821594D01*
X231515000Y-69821594D01*
X231393821Y-69844395D01*
X231326402Y-69887778D01*
X231310605Y-69803821D01*
X231238988Y-69692526D01*
X231129714Y-69617862D01*
X231000000Y-69591594D01*
X230702000Y-69591594D01*
X230702000Y-69584815D01*
X230731235Y-69555631D01*
X230826891Y-69325265D01*
X230827109Y-69075829D01*
X230731855Y-68845297D01*
X230555631Y-68668765D01*
X230325265Y-68573109D01*
X230075829Y-68572891D01*
X229845297Y-68668145D01*
X229668765Y-68844369D01*
X229573109Y-69074735D01*
X229572891Y-69324171D01*
X229668145Y-69554703D01*
X229698000Y-69584610D01*
X229698000Y-69591594D01*
X229400000Y-69591594D01*
X229385000Y-69594416D01*
X229385000Y-69498690D01*
X229288327Y-69265301D01*
X229109698Y-69086673D01*
X228876309Y-68990000D01*
X228658750Y-68990000D01*
X228500000Y-69148750D01*
X228500000Y-69996000D01*
X228524000Y-69996000D01*
X228524000Y-70504000D01*
X228500000Y-70504000D01*
X228500000Y-70524000D01*
X228000000Y-70524000D01*
X228000000Y-70504000D01*
X227273750Y-70504000D01*
X227115000Y-70662750D01*
X227115000Y-71001310D01*
X227211673Y-71234699D01*
X227390302Y-71413327D01*
X227623691Y-71510000D01*
X227841250Y-71510000D01*
X227995998Y-71355252D01*
X227995998Y-71510000D01*
X228022991Y-71510000D01*
X228022891Y-71624171D01*
X228053397Y-71698000D01*
X225707936Y-71698000D01*
X225702000Y-71692064D01*
X225702000Y-71198686D01*
X225750000Y-71208406D01*
X226750000Y-71208406D01*
X226871179Y-71185605D01*
X226982474Y-71113988D01*
X227057138Y-71004714D01*
X227083406Y-70875000D01*
X227083406Y-69625000D01*
X227060605Y-69503821D01*
X227057304Y-69498690D01*
X227115000Y-69498690D01*
X227115000Y-69837250D01*
X227273750Y-69996000D01*
X228000000Y-69996000D01*
X228000000Y-69148750D01*
X227841250Y-68990000D01*
X227623691Y-68990000D01*
X227390302Y-69086673D01*
X227211673Y-69265301D01*
X227115000Y-69498690D01*
X227057304Y-69498690D01*
X226988988Y-69392526D01*
X226879714Y-69317862D01*
X226787585Y-69299205D01*
X226831235Y-69255631D01*
X226926891Y-69025265D01*
X226927109Y-68775829D01*
X226831855Y-68545297D01*
X226655631Y-68368765D01*
X226425265Y-68273109D01*
X226175829Y-68272891D01*
X225945297Y-68368145D01*
X225768765Y-68544369D01*
X225702000Y-68705158D01*
X225702000Y-66233406D01*
X226400000Y-66233406D01*
X226521179Y-66210605D01*
X226632474Y-66138988D01*
X226707138Y-66029714D01*
X226733406Y-65900000D01*
X226733406Y-65002407D01*
X228672735Y-65002407D01*
X228904717Y-65563846D01*
X229333894Y-65993773D01*
X229894928Y-66226735D01*
X230502407Y-66227265D01*
X231063846Y-65995283D01*
X231493773Y-65566106D01*
X231726735Y-65005072D01*
X231727265Y-64397593D01*
X231495283Y-63836154D01*
X231142349Y-63482603D01*
X240172752Y-63482603D01*
X240389543Y-64007275D01*
X240790614Y-64409047D01*
X241314907Y-64626752D01*
X241882603Y-64627248D01*
X242407275Y-64410457D01*
X242809047Y-64009386D01*
X243026752Y-63485093D01*
X243027248Y-62917397D01*
X242810457Y-62392725D01*
X242409386Y-61990953D01*
X241885093Y-61773248D01*
X241317397Y-61772752D01*
X240792725Y-61989543D01*
X240390953Y-62390614D01*
X240173248Y-62914907D01*
X240172752Y-63482603D01*
X231142349Y-63482603D01*
X231066106Y-63406227D01*
X230505072Y-63173265D01*
X229897593Y-63172735D01*
X229336154Y-63404717D01*
X228906227Y-63833894D01*
X228673265Y-64394928D01*
X228672735Y-65002407D01*
X226733406Y-65002407D01*
X226733406Y-63500000D01*
X226710605Y-63378821D01*
X226638988Y-63267526D01*
X226529714Y-63192862D01*
X226400000Y-63166594D01*
X224000000Y-63166594D01*
X223878821Y-63189395D01*
X223767526Y-63261012D01*
X223692862Y-63370286D01*
X223666594Y-63500000D01*
X215220562Y-63500000D01*
X215226752Y-63485093D01*
X215227248Y-62917397D01*
X215010457Y-62392725D01*
X214609386Y-61990953D01*
X214085093Y-61773248D01*
X213517397Y-61772752D01*
X212992725Y-61989543D01*
X212590953Y-62390614D01*
X212373248Y-62914907D01*
X212372752Y-63482603D01*
X211602000Y-63482603D01*
X211602000Y-61002000D01*
X243798000Y-61002000D01*
X243798000Y-124640698D01*
X243798000Y-124640698D01*
G37*
X243798000Y-124640698D02*
X243633990Y-124476402D01*
X243385254Y-124373118D01*
X243115927Y-124372883D01*
X242867011Y-124475733D01*
X242676402Y-124666010D01*
X242573118Y-124914746D01*
X242572883Y-125184073D01*
X242675733Y-125432989D01*
X242866010Y-125623598D01*
X243114746Y-125726882D01*
X243384073Y-125727117D01*
X243632989Y-125624267D01*
X243798000Y-125459543D01*
X243798000Y-130640698D01*
X243633990Y-130476402D01*
X243385254Y-130373118D01*
X243115927Y-130372883D01*
X242867011Y-130475733D01*
X242676402Y-130666010D01*
X242573118Y-130914746D01*
X242572883Y-131184073D01*
X242675733Y-131432989D01*
X242866010Y-131623598D01*
X243114746Y-131726882D01*
X243384073Y-131727117D01*
X243632989Y-131624267D01*
X243798000Y-131459543D01*
X243798000Y-136640698D01*
X243633990Y-136476402D01*
X243385254Y-136373118D01*
X243115927Y-136372883D01*
X242867011Y-136475733D01*
X242676402Y-136666010D01*
X242573118Y-136914746D01*
X242572883Y-137184073D01*
X242675733Y-137432989D01*
X242866010Y-137623598D01*
X243114746Y-137726882D01*
X243384073Y-137727117D01*
X243632989Y-137624267D01*
X243798000Y-137459543D01*
X243798000Y-142273000D01*
X242466224Y-142273000D01*
X242619612Y-142119612D01*
X242717594Y-141972973D01*
X242752000Y-141800000D01*
X242752000Y-140033406D01*
X242900000Y-140033406D01*
X243021179Y-140010605D01*
X243132474Y-139938988D01*
X243207138Y-139829714D01*
X243233406Y-139700000D01*
X243233406Y-138500000D01*
X243210605Y-138378821D01*
X243138988Y-138267526D01*
X243029714Y-138192862D01*
X242900000Y-138166594D01*
X241700000Y-138166594D01*
X241578821Y-138189395D01*
X241467526Y-138261012D01*
X241392862Y-138370286D01*
X241366594Y-138500000D01*
X241366594Y-139700000D01*
X241389395Y-139821179D01*
X241461012Y-139932474D01*
X241570286Y-140007138D01*
X241700000Y-140033406D01*
X241848000Y-140033406D01*
X241848000Y-141612776D01*
X241762776Y-141698000D01*
X239559302Y-141698000D01*
X239723598Y-141533990D01*
X239826882Y-141285254D01*
X239827117Y-141015927D01*
X239724267Y-140767011D01*
X239533990Y-140576402D01*
X239285254Y-140473118D01*
X239015927Y-140472883D01*
X238767011Y-140575733D01*
X238576402Y-140766010D01*
X238473118Y-141014746D01*
X238472883Y-141284073D01*
X238575733Y-141532989D01*
X238740457Y-141698000D01*
X238200000Y-141698000D01*
X238067945Y-141724267D01*
X238027026Y-141732406D01*
X237880387Y-141830388D01*
X237437776Y-142273000D01*
X230833406Y-142273000D01*
X230833406Y-141750000D01*
X230810605Y-141628821D01*
X230738988Y-141517526D01*
X230629714Y-141442862D01*
X230500000Y-141416594D01*
X230302000Y-141416594D01*
X230302000Y-139737224D01*
X230487224Y-139552000D01*
X239166594Y-139552000D01*
X239166594Y-139700000D01*
X239189395Y-139821179D01*
X239261012Y-139932474D01*
X239370286Y-140007138D01*
X239500000Y-140033406D01*
X240700000Y-140033406D01*
X240821179Y-140010605D01*
X240932474Y-139938988D01*
X241007138Y-139829714D01*
X241033406Y-139700000D01*
X241033406Y-138500000D01*
X241010605Y-138378821D01*
X240938988Y-138267526D01*
X240829714Y-138192862D01*
X240700000Y-138166594D01*
X239500000Y-138166594D01*
X239378821Y-138189395D01*
X239267526Y-138261012D01*
X239192862Y-138370286D01*
X239166594Y-138500000D01*
X239166594Y-138648000D01*
X230300000Y-138648000D01*
X230127027Y-138682406D01*
X229980388Y-138780388D01*
X229530388Y-139230388D01*
X229432406Y-139377027D01*
X229398000Y-139550000D01*
X229398000Y-141416594D01*
X229200000Y-141416594D01*
X229078821Y-141439395D01*
X228967526Y-141511012D01*
X228892862Y-141620286D01*
X228866594Y-141750000D01*
X228866594Y-142273000D01*
X224600000Y-142273000D01*
X224550590Y-142283006D01*
X224508965Y-142311447D01*
X224481685Y-142353841D01*
X224473000Y-142400000D01*
X224473000Y-143515884D01*
X224381855Y-143295297D01*
X224205631Y-143118765D01*
X223975265Y-143023109D01*
X223725829Y-143022891D01*
X223495297Y-143118145D01*
X223318765Y-143294369D01*
X223223109Y-143524735D01*
X223222891Y-143774171D01*
X223318145Y-144004703D01*
X223330015Y-144016594D01*
X223200000Y-144016594D01*
X223078821Y-144039395D01*
X222967526Y-144111012D01*
X222906336Y-144200566D01*
X222868988Y-144142526D01*
X222759714Y-144067862D01*
X222630000Y-144041594D01*
X222595209Y-144041594D01*
X222631235Y-144005631D01*
X222726891Y-143775265D01*
X222727109Y-143525829D01*
X222631855Y-143295297D01*
X222455631Y-143118765D01*
X222225265Y-143023109D01*
X221975829Y-143022891D01*
X221745297Y-143118145D01*
X221568765Y-143294369D01*
X221473109Y-143524735D01*
X221472891Y-143774171D01*
X221568145Y-144004703D01*
X221604972Y-144041594D01*
X221570000Y-144041594D01*
X221448821Y-144064395D01*
X221337526Y-144136012D01*
X221262862Y-144245286D01*
X221236594Y-144375000D01*
X221236594Y-145025000D01*
X221259395Y-145146179D01*
X221331012Y-145257474D01*
X221440286Y-145332138D01*
X221570000Y-145358406D01*
X222630000Y-145358406D01*
X222751179Y-145335605D01*
X222862474Y-145263988D01*
X222907094Y-145198684D01*
X222961012Y-145282474D01*
X223070286Y-145357138D01*
X223200000Y-145383406D01*
X224473000Y-145383406D01*
X224473000Y-145916594D01*
X223200000Y-145916594D01*
X223078821Y-145939395D01*
X222967526Y-146011012D01*
X222906336Y-146100566D01*
X222868988Y-146042526D01*
X222759714Y-145967862D01*
X222630000Y-145941594D01*
X221570000Y-145941594D01*
X221448821Y-145964395D01*
X221337526Y-146036012D01*
X221262862Y-146145286D01*
X221236594Y-146275000D01*
X221236594Y-146925000D01*
X221259395Y-147046179D01*
X221331012Y-147157474D01*
X221331198Y-147157601D01*
X221140302Y-147236673D01*
X220961673Y-147415301D01*
X220865000Y-147648690D01*
X220865000Y-147987250D01*
X221023750Y-148146000D01*
X221750000Y-148146000D01*
X221750000Y-148126000D01*
X222250000Y-148126000D01*
X222250000Y-148146000D01*
X222274000Y-148146000D01*
X222274000Y-148654000D01*
X222250000Y-148654000D01*
X222250000Y-149501250D01*
X222408750Y-149660000D01*
X222626309Y-149660000D01*
X222831517Y-149575000D01*
X223596000Y-149575000D01*
X223596000Y-148923750D01*
X224104000Y-148923750D01*
X224104000Y-149575000D01*
X224976250Y-149575000D01*
X225135000Y-149416250D01*
X225135000Y-149273691D01*
X225038327Y-149040302D01*
X224859699Y-148861673D01*
X224626310Y-148765000D01*
X224262750Y-148765000D01*
X224104000Y-148923750D01*
X223596000Y-148923750D01*
X223437250Y-148765000D01*
X223087250Y-148765000D01*
X222976252Y-148654002D01*
X223135000Y-148654002D01*
X223135000Y-148520243D01*
X223200000Y-148533406D01*
X224500000Y-148533406D01*
X224621179Y-148510605D01*
X224732474Y-148438988D01*
X224807138Y-148329714D01*
X224833406Y-148200000D01*
X224833406Y-147500000D01*
X224810605Y-147378821D01*
X224777259Y-147327000D01*
X230273000Y-147327000D01*
X230273000Y-160198000D01*
X211602000Y-160198000D01*
X211602000Y-158282603D01*
X212372752Y-158282603D01*
X212589543Y-158807275D01*
X212990614Y-159209047D01*
X213514907Y-159426752D01*
X214082603Y-159427248D01*
X214607275Y-159210457D01*
X215009047Y-158809386D01*
X215226752Y-158285093D01*
X215227248Y-157717397D01*
X215010457Y-157192725D01*
X214609386Y-156790953D01*
X214085093Y-156573248D01*
X213517397Y-156572752D01*
X212992725Y-156789543D01*
X212590953Y-157190614D01*
X212373248Y-157714907D01*
X212372752Y-158282603D01*
X211602000Y-158282603D01*
X211602000Y-153954202D01*
X226355008Y-153954202D01*
X226544251Y-154272883D01*
X227406351Y-154561186D01*
X228313156Y-154497632D01*
X228855749Y-154272883D01*
X229044992Y-153954202D01*
X227700000Y-152609210D01*
X226355008Y-153954202D01*
X211602000Y-153954202D01*
X211602000Y-151956351D01*
X225388814Y-151956351D01*
X225452368Y-152863156D01*
X225677117Y-153405749D01*
X225995798Y-153594992D01*
X227340790Y-152250000D01*
X228059210Y-152250000D01*
X229404202Y-153594992D01*
X229722883Y-153405749D01*
X230011186Y-152543649D01*
X229947632Y-151636844D01*
X229722883Y-151094251D01*
X229404202Y-150905008D01*
X228059210Y-152250000D01*
X227340790Y-152250000D01*
X225995798Y-150905008D01*
X225677117Y-151094251D01*
X225388814Y-151956351D01*
X211602000Y-151956351D01*
X211602000Y-150083750D01*
X222565000Y-150083750D01*
X222565000Y-150226309D01*
X222661673Y-150459698D01*
X222840301Y-150638327D01*
X223073690Y-150735000D01*
X223437250Y-150735000D01*
X223596000Y-150576250D01*
X223596000Y-149925000D01*
X224104000Y-149925000D01*
X224104000Y-150576250D01*
X224262750Y-150735000D01*
X224626310Y-150735000D01*
X224859699Y-150638327D01*
X224952227Y-150545798D01*
X226355008Y-150545798D01*
X227700000Y-151890790D01*
X229044992Y-150545798D01*
X228855749Y-150227117D01*
X227993649Y-149938814D01*
X227086844Y-150002368D01*
X226544251Y-150227117D01*
X226355008Y-150545798D01*
X224952227Y-150545798D01*
X225038327Y-150459698D01*
X225135000Y-150226309D01*
X225135000Y-150083750D01*
X224976250Y-149925000D01*
X224104000Y-149925000D01*
X223596000Y-149925000D01*
X222723750Y-149925000D01*
X222565000Y-150083750D01*
X211602000Y-150083750D01*
X211602000Y-148524171D01*
X218172891Y-148524171D01*
X218268145Y-148754703D01*
X218444369Y-148931235D01*
X218674735Y-149026891D01*
X218924171Y-149027109D01*
X219154703Y-148931855D01*
X219166594Y-148919985D01*
X219166594Y-149025000D01*
X219189395Y-149146179D01*
X219261012Y-149257474D01*
X219370286Y-149332138D01*
X219500000Y-149358406D01*
X220500000Y-149358406D01*
X220621179Y-149335605D01*
X220732474Y-149263988D01*
X220807138Y-149154714D01*
X220833406Y-149025000D01*
X220833406Y-148812750D01*
X220865000Y-148812750D01*
X220865000Y-149151310D01*
X220961673Y-149384699D01*
X221140302Y-149563327D01*
X221373691Y-149660000D01*
X221591250Y-149660000D01*
X221750000Y-149501250D01*
X221750000Y-148654000D01*
X221023750Y-148654000D01*
X220865000Y-148812750D01*
X220833406Y-148812750D01*
X220833406Y-147775000D01*
X220810605Y-147653821D01*
X220738988Y-147542526D01*
X220629714Y-147467862D01*
X220500000Y-147441594D01*
X219500000Y-147441594D01*
X219378821Y-147464395D01*
X219267526Y-147536012D01*
X219192862Y-147645286D01*
X219166594Y-147775000D01*
X219166594Y-147879747D01*
X219155631Y-147868765D01*
X218925265Y-147773109D01*
X218675829Y-147772891D01*
X218445297Y-147868145D01*
X218268765Y-148044369D01*
X218173109Y-148274735D01*
X218172891Y-148524171D01*
X211602000Y-148524171D01*
X211602000Y-146724171D01*
X218072891Y-146724171D01*
X218168145Y-146954703D01*
X218344369Y-147131235D01*
X218574735Y-147226891D01*
X218824171Y-147227109D01*
X219054703Y-147131855D01*
X219091128Y-147095493D01*
X219131012Y-147157474D01*
X219240286Y-147232138D01*
X219370000Y-147258406D01*
X220430000Y-147258406D01*
X220551179Y-147235605D01*
X220662474Y-147163988D01*
X220737138Y-147054714D01*
X220763406Y-146925000D01*
X220763406Y-146524218D01*
X220789698Y-146513327D01*
X220968327Y-146334699D01*
X221065000Y-146101310D01*
X221065000Y-145971250D01*
X220906250Y-145812500D01*
X220154000Y-145812500D01*
X220154000Y-145924000D01*
X219646000Y-145924000D01*
X219646000Y-145812500D01*
X218893750Y-145812500D01*
X218735000Y-145971250D01*
X218735000Y-145973030D01*
X218575829Y-145972891D01*
X218345297Y-146068145D01*
X218168765Y-146244369D01*
X218073109Y-146474735D01*
X218072891Y-146724171D01*
X211602000Y-146724171D01*
X211602000Y-130848690D01*
X228215000Y-130848690D01*
X228215000Y-131187250D01*
X228373750Y-131346000D01*
X229100000Y-131346000D01*
X229100000Y-130983750D01*
X229237500Y-130846250D01*
X229237500Y-130014000D01*
X228598750Y-130014000D01*
X228440000Y-130172750D01*
X228440000Y-130486975D01*
X228311673Y-130615301D01*
X228215000Y-130848690D01*
X211602000Y-130848690D01*
X211602000Y-129023691D01*
X228440000Y-129023691D01*
X228440000Y-129347250D01*
X228598750Y-129506000D01*
X229237500Y-129506000D01*
X229237500Y-128673750D01*
X229078750Y-128515000D01*
X228948690Y-128515000D01*
X228715301Y-128611673D01*
X228536673Y-128790302D01*
X228440000Y-129023691D01*
X211602000Y-129023691D01*
X211602000Y-118599171D01*
X217422891Y-118599171D01*
X217518145Y-118829703D01*
X217694369Y-119006235D01*
X217924735Y-119101891D01*
X218174171Y-119102109D01*
X218404703Y-119006855D01*
X218484698Y-118927000D01*
X224966594Y-118927000D01*
X224966594Y-119350000D01*
X224989395Y-119471179D01*
X225061012Y-119582474D01*
X225170286Y-119657138D01*
X225300000Y-119683406D01*
X226800000Y-119683406D01*
X226921179Y-119660605D01*
X226998843Y-119610629D01*
X227044369Y-119656235D01*
X227274735Y-119751891D01*
X227524171Y-119752109D01*
X227754703Y-119656855D01*
X227931235Y-119480631D01*
X228026891Y-119250265D01*
X228027109Y-119000829D01*
X227931855Y-118770297D01*
X227755631Y-118593765D01*
X227525265Y-118498109D01*
X227275829Y-118497891D01*
X227133406Y-118556739D01*
X227133406Y-118250000D01*
X227113899Y-118146327D01*
X227133406Y-118050000D01*
X227133406Y-117627000D01*
X227150000Y-117627000D01*
X227322973Y-117592594D01*
X227469612Y-117494612D01*
X227669612Y-117294612D01*
X227767594Y-117147973D01*
X227802000Y-116975000D01*
X227802000Y-115810020D01*
X228969616Y-114642404D01*
X229067598Y-114495765D01*
X229080602Y-114430388D01*
X229102004Y-114322792D01*
X229102004Y-113075955D01*
X229136431Y-113159275D01*
X229439132Y-113462504D01*
X229598000Y-113528472D01*
X229598000Y-113975000D01*
X229632406Y-114147973D01*
X229730388Y-114294612D01*
X230330388Y-114894612D01*
X230477027Y-114992594D01*
X230650000Y-115027000D01*
X230866594Y-115027000D01*
X230866594Y-115373000D01*
X229459859Y-115373000D01*
X229455631Y-115368765D01*
X229225265Y-115273109D01*
X228975829Y-115272891D01*
X228745297Y-115368145D01*
X228568765Y-115544369D01*
X228473109Y-115774735D01*
X228472891Y-116024171D01*
X228568145Y-116254703D01*
X228744369Y-116431235D01*
X228974735Y-116526891D01*
X229224171Y-116527109D01*
X229290265Y-116499799D01*
X228995032Y-116795032D01*
X228886212Y-116957893D01*
X228847999Y-117150000D01*
X228848000Y-117150005D01*
X228848000Y-124391970D01*
X228728821Y-124414395D01*
X228617526Y-124486012D01*
X228542862Y-124595286D01*
X228516594Y-124725000D01*
X228516594Y-125975000D01*
X228539395Y-126096179D01*
X228611012Y-126207474D01*
X228720286Y-126282138D01*
X228832994Y-126304962D01*
X228767862Y-126400286D01*
X228741594Y-126530000D01*
X228741594Y-127750000D01*
X228764395Y-127871179D01*
X228836012Y-127982474D01*
X228945286Y-128057138D01*
X229075000Y-128083406D01*
X229725000Y-128083406D01*
X229846179Y-128060605D01*
X229864213Y-128049000D01*
X229818765Y-128094369D01*
X229723109Y-128324735D01*
X229722943Y-128515000D01*
X229721250Y-128515000D01*
X229562500Y-128673750D01*
X229562500Y-129506000D01*
X229674000Y-129506000D01*
X229674000Y-130014000D01*
X229562500Y-130014000D01*
X229562500Y-130846250D01*
X229600000Y-130883750D01*
X229600000Y-131346000D01*
X229624000Y-131346000D01*
X229624000Y-131854000D01*
X229600000Y-131854000D01*
X229600000Y-131874000D01*
X229100000Y-131874000D01*
X229100000Y-131854000D01*
X228373750Y-131854000D01*
X228215000Y-132012750D01*
X228215000Y-132165000D01*
X228095998Y-132165000D01*
X228095998Y-132323748D01*
X227937250Y-132165000D01*
X227223691Y-132165000D01*
X226990302Y-132261673D01*
X226811673Y-132440301D01*
X226715000Y-132673690D01*
X226715000Y-133237250D01*
X226873750Y-133396000D01*
X228096000Y-133396000D01*
X228096000Y-133376000D01*
X228604000Y-133376000D01*
X228604000Y-133396000D01*
X229826250Y-133396000D01*
X229985000Y-133237250D01*
X229985000Y-132856400D01*
X230209698Y-132763327D01*
X230388327Y-132584699D01*
X230485000Y-132351310D01*
X230485000Y-132226966D01*
X230516969Y-132226993D01*
X230539395Y-132346179D01*
X230611012Y-132457474D01*
X230720286Y-132532138D01*
X230850000Y-132558406D01*
X231121576Y-132558406D01*
X231117526Y-132561012D01*
X231042862Y-132670286D01*
X231016594Y-132800000D01*
X231016594Y-134500000D01*
X231039395Y-134621179D01*
X231111012Y-134732474D01*
X231220286Y-134807138D01*
X231350000Y-134833406D01*
X233350000Y-134833406D01*
X233471179Y-134810605D01*
X233582474Y-134738988D01*
X233657138Y-134629714D01*
X233683406Y-134500000D01*
X233683406Y-132800000D01*
X233660605Y-132678821D01*
X233588988Y-132567526D01*
X233479714Y-132492862D01*
X233350000Y-132466594D01*
X232802000Y-132466594D01*
X232802000Y-130100000D01*
X232767594Y-129927027D01*
X232700679Y-129826882D01*
X232669613Y-129780388D01*
X232329612Y-129440388D01*
X232182973Y-129342406D01*
X232010000Y-129308000D01*
X231958406Y-129308000D01*
X231958406Y-129150000D01*
X231935605Y-129028821D01*
X231863988Y-128917526D01*
X231754714Y-128842862D01*
X231625000Y-128816594D01*
X230975000Y-128816594D01*
X230853821Y-128839395D01*
X230835787Y-128851000D01*
X230881235Y-128805631D01*
X230976891Y-128575265D01*
X230977109Y-128325829D01*
X230881855Y-128095297D01*
X230840494Y-128053864D01*
X230845286Y-128057138D01*
X230975000Y-128083406D01*
X231625000Y-128083406D01*
X231746179Y-128060605D01*
X231857474Y-127988988D01*
X231932138Y-127879714D01*
X231958406Y-127750000D01*
X231958406Y-127642000D01*
X232020294Y-127642000D01*
X232224735Y-127726891D01*
X232474171Y-127727109D01*
X232704703Y-127631855D01*
X232881235Y-127455631D01*
X232976891Y-127225265D01*
X232977109Y-126975829D01*
X232881855Y-126745297D01*
X232705631Y-126568765D01*
X232475265Y-126473109D01*
X232225829Y-126472891D01*
X231995297Y-126568145D01*
X231958406Y-126604972D01*
X231958406Y-126530000D01*
X231935605Y-126408821D01*
X231868722Y-126304883D01*
X231971179Y-126285605D01*
X232082474Y-126213988D01*
X232157138Y-126104714D01*
X232183406Y-125975000D01*
X232183406Y-125870253D01*
X232194369Y-125881235D01*
X232424735Y-125976891D01*
X232674171Y-125977109D01*
X232904703Y-125881855D01*
X233081235Y-125705631D01*
X233176891Y-125475265D01*
X233177109Y-125225829D01*
X233081855Y-124995297D01*
X232905631Y-124818765D01*
X232675265Y-124723109D01*
X232425829Y-124722891D01*
X232195297Y-124818145D01*
X232183406Y-124830015D01*
X232183406Y-124725000D01*
X232160605Y-124603821D01*
X232088988Y-124492526D01*
X231979714Y-124417862D01*
X231850000Y-124391594D01*
X230850000Y-124391594D01*
X230728821Y-124414395D01*
X230617526Y-124486012D01*
X230542862Y-124595286D01*
X230516594Y-124725000D01*
X230516594Y-125975000D01*
X230539395Y-126096179D01*
X230611012Y-126207474D01*
X230720286Y-126282138D01*
X230747692Y-126287688D01*
X230742526Y-126291012D01*
X230667862Y-126400286D01*
X230641594Y-126530000D01*
X230641594Y-127750000D01*
X230664395Y-127871179D01*
X230691146Y-127912750D01*
X230475265Y-127823109D01*
X230225829Y-127822891D01*
X230010042Y-127912052D01*
X230032138Y-127879714D01*
X230058406Y-127750000D01*
X230058406Y-126530000D01*
X230035605Y-126408821D01*
X229963988Y-126297526D01*
X229951861Y-126289240D01*
X229971179Y-126285605D01*
X230082474Y-126213988D01*
X230157138Y-126104714D01*
X230183406Y-125975000D01*
X230183406Y-124725000D01*
X230160605Y-124603821D01*
X230088988Y-124492526D01*
X229979714Y-124417862D01*
X229852000Y-124391999D01*
X229852000Y-117357936D01*
X230182935Y-117027000D01*
X230866594Y-117027000D01*
X230866594Y-117400000D01*
X230886101Y-117503673D01*
X230866594Y-117600000D01*
X230866594Y-118050000D01*
X230886101Y-118153673D01*
X230866594Y-118250000D01*
X230866594Y-118700000D01*
X230886101Y-118803673D01*
X230866594Y-118900000D01*
X230866594Y-119350000D01*
X230889395Y-119471179D01*
X230961012Y-119582474D01*
X231070286Y-119657138D01*
X231200000Y-119683406D01*
X231498000Y-119683406D01*
X231498000Y-120571446D01*
X231340725Y-120636431D01*
X231037496Y-120939132D01*
X230873187Y-121334832D01*
X230872813Y-121763289D01*
X231036431Y-122159275D01*
X231339132Y-122462504D01*
X231734832Y-122626813D01*
X232163289Y-122627187D01*
X232559275Y-122463569D01*
X232862504Y-122160868D01*
X233026813Y-121765168D01*
X233027187Y-121336711D01*
X232863569Y-120940725D01*
X232560868Y-120637496D01*
X232402000Y-120571528D01*
X232402000Y-119683406D01*
X232700000Y-119683406D01*
X232821179Y-119660605D01*
X232932474Y-119588988D01*
X233007138Y-119479714D01*
X233033406Y-119350000D01*
X233033406Y-119022630D01*
X233198000Y-119187224D01*
X233198000Y-127800000D01*
X233232406Y-127972973D01*
X233330388Y-128119612D01*
X234080388Y-128869612D01*
X234227027Y-128967594D01*
X234400000Y-129002000D01*
X235116594Y-129002000D01*
X235116594Y-129200000D01*
X235139395Y-129321179D01*
X235211012Y-129432474D01*
X235273367Y-129475079D01*
X235217526Y-129511012D01*
X235142862Y-129620286D01*
X235116594Y-129750000D01*
X235116594Y-131050000D01*
X235139395Y-131171179D01*
X235211012Y-131282474D01*
X235298000Y-131341911D01*
X235298000Y-131416970D01*
X235178821Y-131439395D01*
X235067526Y-131511012D01*
X234992862Y-131620286D01*
X234977124Y-131698000D01*
X234700000Y-131698000D01*
X234527027Y-131732406D01*
X234380388Y-131830388D01*
X234080388Y-132130388D01*
X233982406Y-132277027D01*
X233948000Y-132450000D01*
X233948000Y-134562775D01*
X233662776Y-134848000D01*
X229893173Y-134848000D01*
X229985000Y-134626310D01*
X229985000Y-134062750D01*
X229826250Y-133904000D01*
X228604000Y-133904000D01*
X228604000Y-133924000D01*
X228096000Y-133924000D01*
X228096000Y-133904000D01*
X226873750Y-133904000D01*
X226715000Y-134062750D01*
X226715000Y-134626310D01*
X226806827Y-134848000D01*
X221200000Y-134848000D01*
X221027027Y-134882406D01*
X220880388Y-134980388D01*
X220130388Y-135730388D01*
X220032406Y-135877027D01*
X219998000Y-136050000D01*
X219998000Y-143412775D01*
X219580388Y-143830388D01*
X219482406Y-143977027D01*
X219469563Y-144041594D01*
X219370000Y-144041594D01*
X219248821Y-144064395D01*
X219137526Y-144136012D01*
X219062862Y-144245286D01*
X219036594Y-144375000D01*
X219036594Y-144775782D01*
X219010302Y-144786673D01*
X218831673Y-144965301D01*
X218735000Y-145198690D01*
X218735000Y-145328750D01*
X218893750Y-145487500D01*
X219646000Y-145487500D01*
X219646000Y-145376000D01*
X220154000Y-145376000D01*
X220154000Y-145487500D01*
X220906250Y-145487500D01*
X221065000Y-145328750D01*
X221065000Y-145198690D01*
X220968327Y-144965301D01*
X220789698Y-144786673D01*
X220763406Y-144775782D01*
X220763406Y-144375000D01*
X220740605Y-144253821D01*
X220668988Y-144142526D01*
X220596338Y-144092886D01*
X220769612Y-143919613D01*
X220867594Y-143772973D01*
X220882109Y-143700000D01*
X220902000Y-143600000D01*
X220902000Y-136237224D01*
X220926474Y-136212750D01*
X234815000Y-136212750D01*
X234815000Y-136576310D01*
X234911673Y-136809699D01*
X235090302Y-136988327D01*
X235323691Y-137085000D01*
X235466250Y-137085000D01*
X235625000Y-136926250D01*
X235625000Y-136054000D01*
X235975000Y-136054000D01*
X235975000Y-136926250D01*
X236133750Y-137085000D01*
X236276309Y-137085000D01*
X236509698Y-136988327D01*
X236688327Y-136809699D01*
X236785000Y-136576310D01*
X236785000Y-136212750D01*
X236626250Y-136054000D01*
X235975000Y-136054000D01*
X235625000Y-136054000D01*
X234973750Y-136054000D01*
X234815000Y-136212750D01*
X220926474Y-136212750D01*
X221387224Y-135752000D01*
X233850000Y-135752000D01*
X234022973Y-135717594D01*
X234169612Y-135619612D01*
X234719612Y-135069613D01*
X234817594Y-134922973D01*
X234825663Y-134882406D01*
X234852000Y-134750000D01*
X234852000Y-132637224D01*
X234887224Y-132602000D01*
X234976378Y-132602000D01*
X234989395Y-132671179D01*
X235061012Y-132782474D01*
X235170286Y-132857138D01*
X235190962Y-132861325D01*
X235123109Y-133024735D01*
X235122891Y-133274171D01*
X235155928Y-133354126D01*
X235067526Y-133411012D01*
X234992862Y-133520286D01*
X234966594Y-133650000D01*
X234966594Y-134450000D01*
X234989395Y-134571179D01*
X235044759Y-134657216D01*
X234911673Y-134790301D01*
X234815000Y-135023690D01*
X234815000Y-135387250D01*
X234973750Y-135546000D01*
X235625000Y-135546000D01*
X235625000Y-135526000D01*
X235975000Y-135526000D01*
X235975000Y-135546000D01*
X236626250Y-135546000D01*
X236785000Y-135387250D01*
X236785000Y-135023690D01*
X236688327Y-134790301D01*
X236509698Y-134611673D01*
X236490683Y-134603797D01*
X236507138Y-134579714D01*
X236533406Y-134450000D01*
X236533406Y-133650000D01*
X236510605Y-133528821D01*
X236438988Y-133417526D01*
X236344599Y-133353033D01*
X236376891Y-133275265D01*
X236377109Y-133025829D01*
X236309730Y-132862759D01*
X236321179Y-132860605D01*
X236432474Y-132788988D01*
X236493277Y-132700000D01*
X236966594Y-132700000D01*
X236966594Y-133500000D01*
X236989395Y-133621179D01*
X237061012Y-133732474D01*
X237170286Y-133807138D01*
X237300000Y-133833406D01*
X237775530Y-133833406D01*
X237630387Y-133930388D01*
X237380388Y-134180388D01*
X237282406Y-134327027D01*
X237248000Y-134500000D01*
X237248000Y-134835786D01*
X237228821Y-134839395D01*
X237117526Y-134911012D01*
X237042862Y-135020286D01*
X237016594Y-135150000D01*
X237016594Y-136450000D01*
X237039395Y-136571179D01*
X237111012Y-136682474D01*
X237220286Y-136757138D01*
X237350000Y-136783406D01*
X238050000Y-136783406D01*
X238171179Y-136760605D01*
X238282474Y-136688988D01*
X238357138Y-136579714D01*
X238383406Y-136450000D01*
X238383406Y-135150000D01*
X238360605Y-135028821D01*
X238288988Y-134917526D01*
X238179714Y-134842862D01*
X238152000Y-134837250D01*
X238152000Y-134702000D01*
X238640524Y-134702000D01*
X238576402Y-134766010D01*
X238473118Y-135014746D01*
X238472883Y-135284073D01*
X238575733Y-135532989D01*
X238766010Y-135723598D01*
X239014746Y-135826882D01*
X239284073Y-135827117D01*
X239532989Y-135724267D01*
X239723598Y-135533990D01*
X239826882Y-135285254D01*
X239827117Y-135015927D01*
X239724267Y-134767011D01*
X239659369Y-134702000D01*
X242000000Y-134702000D01*
X242172973Y-134667594D01*
X242319612Y-134569612D01*
X242619612Y-134269612D01*
X242717594Y-134122973D01*
X242735410Y-134033406D01*
X242900000Y-134033406D01*
X243021179Y-134010605D01*
X243132474Y-133938988D01*
X243207138Y-133829714D01*
X243233406Y-133700000D01*
X243233406Y-132500000D01*
X243210605Y-132378821D01*
X243138988Y-132267526D01*
X243029714Y-132192862D01*
X242900000Y-132166594D01*
X241700000Y-132166594D01*
X241578821Y-132189395D01*
X241467526Y-132261012D01*
X241392862Y-132370286D01*
X241366594Y-132500000D01*
X241366594Y-133700000D01*
X241385034Y-133798000D01*
X241013560Y-133798000D01*
X241033406Y-133700000D01*
X241033406Y-132500000D01*
X241010605Y-132378821D01*
X240938988Y-132267526D01*
X240829714Y-132192862D01*
X240700000Y-132166594D01*
X239500000Y-132166594D01*
X239378821Y-132189395D01*
X239267526Y-132261012D01*
X239192862Y-132370286D01*
X239166594Y-132500000D01*
X239166594Y-132648000D01*
X238523622Y-132648000D01*
X238510605Y-132578821D01*
X238438988Y-132467526D01*
X238329714Y-132392862D01*
X238200000Y-132366594D01*
X237300000Y-132366594D01*
X237178821Y-132389395D01*
X237067526Y-132461012D01*
X236992862Y-132570286D01*
X236966594Y-132700000D01*
X236493277Y-132700000D01*
X236507138Y-132679714D01*
X236533406Y-132550000D01*
X236533406Y-131750000D01*
X236510605Y-131628821D01*
X236438988Y-131517526D01*
X236329714Y-131442862D01*
X236202000Y-131416999D01*
X236202000Y-131373622D01*
X236271179Y-131360605D01*
X236382474Y-131288988D01*
X236457138Y-131179714D01*
X236483406Y-131050000D01*
X236483406Y-130812750D01*
X236715000Y-130812750D01*
X236715000Y-131176310D01*
X236811673Y-131409699D01*
X236990302Y-131588327D01*
X237223691Y-131685000D01*
X237366250Y-131685000D01*
X237525000Y-131526250D01*
X237525000Y-130654000D01*
X237875000Y-130654000D01*
X237875000Y-131526250D01*
X238033750Y-131685000D01*
X238176309Y-131685000D01*
X238409698Y-131588327D01*
X238588327Y-131409699D01*
X238685000Y-131176310D01*
X238685000Y-130812750D01*
X238526250Y-130654000D01*
X237875000Y-130654000D01*
X237525000Y-130654000D01*
X236873750Y-130654000D01*
X236715000Y-130812750D01*
X236483406Y-130812750D01*
X236483406Y-129750000D01*
X236460605Y-129628821D01*
X236457304Y-129623690D01*
X236715000Y-129623690D01*
X236715000Y-129987250D01*
X236873750Y-130146000D01*
X237525000Y-130146000D01*
X237525000Y-130126000D01*
X237875000Y-130126000D01*
X237875000Y-130146000D01*
X238526250Y-130146000D01*
X238685000Y-129987250D01*
X238685000Y-129642447D01*
X238766010Y-129723598D01*
X239014746Y-129826882D01*
X239284073Y-129827117D01*
X239532989Y-129724267D01*
X239723598Y-129533990D01*
X239826882Y-129285254D01*
X239827117Y-129015927D01*
X239724267Y-128767011D01*
X239609456Y-128652000D01*
X242100000Y-128652000D01*
X242272973Y-128617594D01*
X242419612Y-128519612D01*
X242619612Y-128319612D01*
X242717594Y-128172973D01*
X242745355Y-128033406D01*
X242900000Y-128033406D01*
X243021179Y-128010605D01*
X243132474Y-127938988D01*
X243207138Y-127829714D01*
X243233406Y-127700000D01*
X243233406Y-126500000D01*
X243210605Y-126378821D01*
X243138988Y-126267526D01*
X243029714Y-126192862D01*
X242900000Y-126166594D01*
X241700000Y-126166594D01*
X241578821Y-126189395D01*
X241467526Y-126261012D01*
X241392862Y-126370286D01*
X241366594Y-126500000D01*
X241366594Y-127700000D01*
X241375626Y-127748000D01*
X241023686Y-127748000D01*
X241033406Y-127700000D01*
X241033406Y-126500000D01*
X241010605Y-126378821D01*
X240938988Y-126267526D01*
X240829714Y-126192862D01*
X240700000Y-126166594D01*
X239500000Y-126166594D01*
X239378821Y-126189395D01*
X239267526Y-126261012D01*
X239192862Y-126370286D01*
X239166594Y-126500000D01*
X239166594Y-126648000D01*
X239134728Y-126648000D01*
X239055631Y-126568765D01*
X238825265Y-126473109D01*
X238575829Y-126472891D01*
X238345297Y-126568145D01*
X238168765Y-126744369D01*
X238073109Y-126974735D01*
X238072891Y-127224171D01*
X238168145Y-127454703D01*
X238344369Y-127631235D01*
X238574735Y-127726891D01*
X238824171Y-127727109D01*
X239054703Y-127631855D01*
X239134698Y-127552000D01*
X239166594Y-127552000D01*
X239166594Y-127700000D01*
X239175626Y-127748000D01*
X238600000Y-127748000D01*
X238427027Y-127782406D01*
X238368622Y-127821431D01*
X238360605Y-127778821D01*
X238288988Y-127667526D01*
X238179714Y-127592862D01*
X238050000Y-127566594D01*
X237350000Y-127566594D01*
X237228821Y-127589395D01*
X237117526Y-127661012D01*
X237042862Y-127770286D01*
X237016594Y-127900000D01*
X237016594Y-129200000D01*
X237016731Y-129200726D01*
X236990302Y-129211673D01*
X236811673Y-129390301D01*
X236715000Y-129623690D01*
X236457304Y-129623690D01*
X236388988Y-129517526D01*
X236326633Y-129474921D01*
X236382474Y-129438988D01*
X236457138Y-129329714D01*
X236483406Y-129200000D01*
X236483406Y-127900000D01*
X236460605Y-127778821D01*
X236388988Y-127667526D01*
X236279714Y-127592862D01*
X236150000Y-127566594D01*
X235450000Y-127566594D01*
X235328821Y-127589395D01*
X235217526Y-127661012D01*
X235142862Y-127770286D01*
X235116594Y-127900000D01*
X235116594Y-128098000D01*
X234587224Y-128098000D01*
X234102000Y-127612776D01*
X234102000Y-124324171D01*
X240722891Y-124324171D01*
X240818145Y-124554703D01*
X240994369Y-124731235D01*
X241224735Y-124826891D01*
X241474171Y-124827109D01*
X241704703Y-124731855D01*
X241881235Y-124555631D01*
X241976891Y-124325265D01*
X241976928Y-124283008D01*
X242115033Y-124144903D01*
X242376941Y-124197000D01*
X242423059Y-124197000D01*
X242873477Y-124107406D01*
X243255324Y-123852265D01*
X243510465Y-123470418D01*
X243600059Y-123020000D01*
X243510465Y-122569582D01*
X243255324Y-122187735D01*
X242873477Y-121932594D01*
X242423059Y-121843000D01*
X242376941Y-121843000D01*
X241926523Y-121932594D01*
X241544676Y-122187735D01*
X241289535Y-122569582D01*
X241199941Y-123020000D01*
X241289535Y-123470418D01*
X241321623Y-123518441D01*
X241267137Y-123572927D01*
X241225829Y-123572891D01*
X240995297Y-123668145D01*
X240818765Y-123844369D01*
X240723109Y-124074735D01*
X240722891Y-124324171D01*
X234102000Y-124324171D01*
X234102000Y-119000000D01*
X234067594Y-118827027D01*
X233969612Y-118680388D01*
X233566224Y-118277000D01*
X233687776Y-118277000D01*
X234130388Y-118719612D01*
X234277027Y-118817594D01*
X234450000Y-118852000D01*
X240132776Y-118852000D01*
X241297876Y-120017100D01*
X241289535Y-120029582D01*
X241199941Y-120480000D01*
X241289535Y-120930418D01*
X241544676Y-121312265D01*
X241926523Y-121567406D01*
X242376941Y-121657000D01*
X242423059Y-121657000D01*
X242873477Y-121567406D01*
X243255324Y-121312265D01*
X243510465Y-120930418D01*
X243600059Y-120480000D01*
X243510465Y-120029582D01*
X243255324Y-119647735D01*
X242873477Y-119392594D01*
X242423059Y-119303000D01*
X242376941Y-119303000D01*
X241947621Y-119388397D01*
X240951224Y-118392000D01*
X241290592Y-118392000D01*
X241544676Y-118772265D01*
X241926523Y-119027406D01*
X242376941Y-119117000D01*
X242423059Y-119117000D01*
X242873477Y-119027406D01*
X243255324Y-118772265D01*
X243510465Y-118390418D01*
X243600059Y-117940000D01*
X243510465Y-117489582D01*
X243255324Y-117107735D01*
X242873477Y-116852594D01*
X242423059Y-116763000D01*
X242376941Y-116763000D01*
X241926523Y-116852594D01*
X241544676Y-117107735D01*
X241290592Y-117488000D01*
X237165585Y-117488000D01*
X237183406Y-117400000D01*
X237183406Y-116100000D01*
X237160605Y-115978821D01*
X237088988Y-115867526D01*
X237039052Y-115833406D01*
X237275000Y-115833406D01*
X237396179Y-115810605D01*
X237507474Y-115738988D01*
X237582138Y-115629714D01*
X237608001Y-115502000D01*
X239549995Y-115502000D01*
X239550000Y-115502001D01*
X239742107Y-115463788D01*
X239904968Y-115354968D01*
X240254965Y-115004970D01*
X240254968Y-115004968D01*
X240363788Y-114842107D01*
X240370594Y-114807892D01*
X240402001Y-114650000D01*
X240402000Y-114649995D01*
X240402000Y-114550000D01*
X241216594Y-114550000D01*
X241216594Y-116250000D01*
X241239395Y-116371179D01*
X241311012Y-116482474D01*
X241420286Y-116557138D01*
X241550000Y-116583406D01*
X243250000Y-116583406D01*
X243371179Y-116560605D01*
X243482474Y-116488988D01*
X243557138Y-116379714D01*
X243583406Y-116250000D01*
X243583406Y-114550000D01*
X243560605Y-114428821D01*
X243488988Y-114317526D01*
X243379714Y-114242862D01*
X243250000Y-114216594D01*
X242902000Y-114216594D01*
X242902000Y-112852726D01*
X243272265Y-112605324D01*
X243527406Y-112223477D01*
X243617000Y-111773059D01*
X243617000Y-111726941D01*
X243527406Y-111276523D01*
X243272265Y-110894676D01*
X242890418Y-110639535D01*
X242440000Y-110549941D01*
X241989582Y-110639535D01*
X241607735Y-110894676D01*
X241352594Y-111276523D01*
X241263000Y-111726941D01*
X241263000Y-111773059D01*
X241352594Y-112223477D01*
X241607735Y-112605324D01*
X241898000Y-112799272D01*
X241898000Y-114216594D01*
X241550000Y-114216594D01*
X241428821Y-114239395D01*
X241317526Y-114311012D01*
X241242862Y-114420286D01*
X241216594Y-114550000D01*
X240402000Y-114550000D01*
X240402000Y-112933406D01*
X240750000Y-112933406D01*
X240871179Y-112910605D01*
X240982474Y-112838988D01*
X241057138Y-112729714D01*
X241083406Y-112600000D01*
X241083406Y-110900000D01*
X241060605Y-110778821D01*
X240988988Y-110667526D01*
X240879714Y-110592862D01*
X240750000Y-110566594D01*
X239050000Y-110566594D01*
X238928821Y-110589395D01*
X238817526Y-110661012D01*
X238742862Y-110770286D01*
X238716594Y-110900000D01*
X238716594Y-112600000D01*
X238739395Y-112721179D01*
X238811012Y-112832474D01*
X238920286Y-112907138D01*
X239050000Y-112933406D01*
X239398000Y-112933406D01*
X239398000Y-114442065D01*
X239342064Y-114498000D01*
X237608030Y-114498000D01*
X237585605Y-114378821D01*
X237513988Y-114267526D01*
X237404714Y-114192862D01*
X237275000Y-114166594D01*
X236025000Y-114166594D01*
X235903821Y-114189395D01*
X235792526Y-114261012D01*
X235749921Y-114323367D01*
X235713988Y-114267526D01*
X235604714Y-114192862D01*
X235475000Y-114166594D01*
X234225000Y-114166594D01*
X234103821Y-114189395D01*
X233992526Y-114261012D01*
X233917862Y-114370286D01*
X233891999Y-114498000D01*
X233850005Y-114498000D01*
X233850000Y-114497999D01*
X233702000Y-114527438D01*
X233702000Y-113150000D01*
X233667594Y-112977027D01*
X233649861Y-112950488D01*
X233726813Y-112765168D01*
X233727044Y-112500000D01*
X233891594Y-112500000D01*
X233891594Y-113500000D01*
X233914395Y-113621179D01*
X233986012Y-113732474D01*
X234095286Y-113807138D01*
X234225000Y-113833406D01*
X235475000Y-113833406D01*
X235596179Y-113810605D01*
X235707474Y-113738988D01*
X235750079Y-113676633D01*
X235786012Y-113732474D01*
X235895286Y-113807138D01*
X236025000Y-113833406D01*
X237275000Y-113833406D01*
X237396179Y-113810605D01*
X237507474Y-113738988D01*
X237582138Y-113629714D01*
X237608406Y-113500000D01*
X237608406Y-112500000D01*
X237585605Y-112378821D01*
X237513988Y-112267526D01*
X237404714Y-112192862D01*
X237275000Y-112166594D01*
X237170253Y-112166594D01*
X237181235Y-112155631D01*
X237276891Y-111925265D01*
X237277109Y-111675829D01*
X237181855Y-111445297D01*
X237005631Y-111268765D01*
X236775265Y-111173109D01*
X236525829Y-111172891D01*
X236295297Y-111268145D01*
X236118765Y-111444369D01*
X236023109Y-111674735D01*
X236022891Y-111924171D01*
X236118145Y-112154703D01*
X236130015Y-112166594D01*
X236025000Y-112166594D01*
X235903821Y-112189395D01*
X235792526Y-112261012D01*
X235749921Y-112323367D01*
X235713988Y-112267526D01*
X235604714Y-112192862D01*
X235475000Y-112166594D01*
X235370253Y-112166594D01*
X235381235Y-112155631D01*
X235476891Y-111925265D01*
X235477109Y-111675829D01*
X235381855Y-111445297D01*
X235205631Y-111268765D01*
X234975265Y-111173109D01*
X234725829Y-111172891D01*
X234495297Y-111268145D01*
X234318765Y-111444369D01*
X234223109Y-111674735D01*
X234222891Y-111924171D01*
X234318145Y-112154703D01*
X234330015Y-112166594D01*
X234225000Y-112166594D01*
X234103821Y-112189395D01*
X233992526Y-112261012D01*
X233917862Y-112370286D01*
X233891594Y-112500000D01*
X233727044Y-112500000D01*
X233727187Y-112336711D01*
X233563569Y-111940725D01*
X233260868Y-111637496D01*
X232865168Y-111473187D01*
X232436711Y-111472813D01*
X232040725Y-111636431D01*
X231737496Y-111939132D01*
X231573187Y-112334832D01*
X231572813Y-112763289D01*
X231736431Y-113159275D01*
X232039132Y-113462504D01*
X232434832Y-113626813D01*
X232798000Y-113627130D01*
X232798000Y-114036440D01*
X232700000Y-114016594D01*
X231200000Y-114016594D01*
X231078821Y-114039395D01*
X230967526Y-114111012D01*
X230959335Y-114123000D01*
X230837224Y-114123000D01*
X230502000Y-113787776D01*
X230502000Y-113528554D01*
X230659275Y-113463569D01*
X230962504Y-113160868D01*
X231126813Y-112765168D01*
X231127187Y-112336711D01*
X230963569Y-111940725D01*
X230660868Y-111637496D01*
X230265168Y-111473187D01*
X229836711Y-111472813D01*
X229440725Y-111636431D01*
X229137496Y-111939132D01*
X229102004Y-112024606D01*
X229102004Y-110687222D01*
X229337226Y-110452000D01*
X233275000Y-110452000D01*
X233447973Y-110417594D01*
X233594612Y-110319612D01*
X233937225Y-109977000D01*
X238125000Y-109977000D01*
X238297973Y-109942594D01*
X238444612Y-109844612D01*
X238594612Y-109694612D01*
X238692594Y-109547973D01*
X238727000Y-109375000D01*
X238727000Y-109308406D01*
X238925000Y-109308406D01*
X239046179Y-109285605D01*
X239157474Y-109213988D01*
X239216245Y-109127974D01*
X239294369Y-109206235D01*
X239524735Y-109301891D01*
X239774171Y-109302109D01*
X239835725Y-109276675D01*
X239839395Y-109296179D01*
X239911012Y-109407474D01*
X240020286Y-109482138D01*
X240150000Y-109508406D01*
X241400000Y-109508406D01*
X241521179Y-109485605D01*
X241632474Y-109413988D01*
X241707138Y-109304714D01*
X241733406Y-109175000D01*
X241733406Y-108175000D01*
X241710605Y-108053821D01*
X241638988Y-107942526D01*
X241529714Y-107867862D01*
X241400000Y-107841594D01*
X240150000Y-107841594D01*
X240028821Y-107864395D01*
X239917526Y-107936012D01*
X239842862Y-108045286D01*
X239837091Y-108073782D01*
X239775265Y-108048109D01*
X239525829Y-108047891D01*
X239295297Y-108143145D01*
X239243353Y-108194998D01*
X239235605Y-108153821D01*
X239163988Y-108042526D01*
X239054714Y-107967862D01*
X238925000Y-107941594D01*
X237625000Y-107941594D01*
X237503821Y-107964395D01*
X237392526Y-108036012D01*
X237317862Y-108145286D01*
X237307623Y-108195848D01*
X237255631Y-108143765D01*
X237025265Y-108048109D01*
X236775829Y-108047891D01*
X236714275Y-108073325D01*
X236710605Y-108053821D01*
X236638988Y-107942526D01*
X236529714Y-107867862D01*
X236400000Y-107841594D01*
X235150000Y-107841594D01*
X235028821Y-107864395D01*
X234917526Y-107936012D01*
X234842862Y-108045286D01*
X234816594Y-108175000D01*
X234816594Y-109073000D01*
X234238560Y-109073000D01*
X234258406Y-108975000D01*
X234258406Y-108275000D01*
X234235605Y-108153821D01*
X234163988Y-108042526D01*
X234054714Y-107967862D01*
X233925000Y-107941594D01*
X232625000Y-107941594D01*
X232503821Y-107964395D01*
X232392526Y-108036012D01*
X232317862Y-108145286D01*
X232307623Y-108195848D01*
X232255631Y-108143765D01*
X232025265Y-108048109D01*
X231775829Y-108047891D01*
X231714275Y-108073325D01*
X231710605Y-108053821D01*
X231638988Y-107942526D01*
X231529714Y-107867862D01*
X231400000Y-107841594D01*
X230150000Y-107841594D01*
X230028821Y-107864395D01*
X229917526Y-107936012D01*
X229842862Y-108045286D01*
X229816594Y-108175000D01*
X229816594Y-109073000D01*
X229238560Y-109073000D01*
X229258406Y-108975000D01*
X229258406Y-108275000D01*
X229235605Y-108153821D01*
X229163988Y-108042526D01*
X229054714Y-107967862D01*
X228925000Y-107941594D01*
X227625000Y-107941594D01*
X227503821Y-107964395D01*
X227392526Y-108036012D01*
X227317862Y-108145286D01*
X227291594Y-108275000D01*
X227291594Y-108975000D01*
X227314395Y-109096179D01*
X227386012Y-109207474D01*
X227404053Y-109219801D01*
X227332406Y-109327027D01*
X227298000Y-109500000D01*
X227298000Y-113762775D01*
X226982112Y-114078664D01*
X226929714Y-114042862D01*
X226800000Y-114016594D01*
X225300000Y-114016594D01*
X225178821Y-114039395D01*
X225067526Y-114111012D01*
X224992862Y-114220286D01*
X224966594Y-114350000D01*
X224966594Y-114800000D01*
X224986101Y-114903673D01*
X224966594Y-115000000D01*
X224966594Y-115275651D01*
X224900265Y-115248109D01*
X224650829Y-115247891D01*
X224420297Y-115343145D01*
X224243765Y-115519369D01*
X224218775Y-115579551D01*
X223761554Y-115122330D01*
X223826813Y-114965168D01*
X223827187Y-114536711D01*
X223663569Y-114140725D01*
X223360868Y-113837496D01*
X222965168Y-113673187D01*
X222536711Y-113672813D01*
X222140725Y-113836431D01*
X221837496Y-114139132D01*
X221673187Y-114534832D01*
X221672813Y-114963289D01*
X221836431Y-115359275D01*
X222139132Y-115662504D01*
X222534832Y-115826813D01*
X222963289Y-115827187D01*
X223122272Y-115761496D01*
X224205388Y-116844612D01*
X224352027Y-116942594D01*
X224525000Y-116977000D01*
X224966594Y-116977000D01*
X224966594Y-117373000D01*
X223826937Y-117373000D01*
X223827187Y-117086711D01*
X223663569Y-116690725D01*
X223360868Y-116387496D01*
X222965168Y-116223187D01*
X222536711Y-116222813D01*
X222140725Y-116386431D01*
X221837496Y-116689132D01*
X221673187Y-117084832D01*
X221672813Y-117513289D01*
X221836431Y-117909275D01*
X221949958Y-118023000D01*
X218484728Y-118023000D01*
X218405631Y-117943765D01*
X218175265Y-117848109D01*
X217925829Y-117847891D01*
X217695297Y-117943145D01*
X217518765Y-118119369D01*
X217423109Y-118349735D01*
X217422891Y-118599171D01*
X211602000Y-118599171D01*
X211602000Y-104675000D01*
X227291594Y-104675000D01*
X227291594Y-105375000D01*
X227314395Y-105496179D01*
X227386012Y-105607474D01*
X227495286Y-105682138D01*
X227625000Y-105708406D01*
X227823000Y-105708406D01*
X227823000Y-106041594D01*
X227625000Y-106041594D01*
X227503821Y-106064395D01*
X227392526Y-106136012D01*
X227317862Y-106245286D01*
X227291594Y-106375000D01*
X227291594Y-107075000D01*
X227314395Y-107196179D01*
X227386012Y-107307474D01*
X227495286Y-107382138D01*
X227625000Y-107408406D01*
X228925000Y-107408406D01*
X229046179Y-107385605D01*
X229157474Y-107313988D01*
X229232138Y-107204714D01*
X229247876Y-107127000D01*
X229816594Y-107127000D01*
X229816594Y-107175000D01*
X229839395Y-107296179D01*
X229911012Y-107407474D01*
X230020286Y-107482138D01*
X230150000Y-107508406D01*
X231400000Y-107508406D01*
X231521179Y-107485605D01*
X231632474Y-107413988D01*
X231707138Y-107304714D01*
X231733406Y-107175000D01*
X231733406Y-106175000D01*
X231710605Y-106053821D01*
X231638988Y-105942526D01*
X231538948Y-105874171D01*
X231632474Y-105813988D01*
X231707138Y-105704714D01*
X231712909Y-105676218D01*
X231774735Y-105701891D01*
X232024171Y-105702109D01*
X232254703Y-105606855D01*
X232334412Y-105527285D01*
X232386012Y-105607474D01*
X232495286Y-105682138D01*
X232625000Y-105708406D01*
X232823000Y-105708406D01*
X232823000Y-106041594D01*
X232625000Y-106041594D01*
X232503821Y-106064395D01*
X232392526Y-106136012D01*
X232317862Y-106245286D01*
X232291594Y-106375000D01*
X232291594Y-107075000D01*
X232314395Y-107196179D01*
X232386012Y-107307474D01*
X232495286Y-107382138D01*
X232625000Y-107408406D01*
X233925000Y-107408406D01*
X234046179Y-107385605D01*
X234157474Y-107313988D01*
X234232138Y-107204714D01*
X234247876Y-107127000D01*
X234816594Y-107127000D01*
X234816594Y-107175000D01*
X234839395Y-107296179D01*
X234911012Y-107407474D01*
X235020286Y-107482138D01*
X235150000Y-107508406D01*
X236400000Y-107508406D01*
X236521179Y-107485605D01*
X236632474Y-107413988D01*
X236707138Y-107304714D01*
X236733406Y-107175000D01*
X236733406Y-106175000D01*
X236710605Y-106053821D01*
X236638988Y-105942526D01*
X236538948Y-105874171D01*
X236632474Y-105813988D01*
X236707138Y-105704714D01*
X236712909Y-105676218D01*
X236774735Y-105701891D01*
X237024171Y-105702109D01*
X237254703Y-105606855D01*
X237334412Y-105527285D01*
X237386012Y-105607474D01*
X237495286Y-105682138D01*
X237625000Y-105708406D01*
X237823000Y-105708406D01*
X237823000Y-106041594D01*
X237625000Y-106041594D01*
X237503821Y-106064395D01*
X237392526Y-106136012D01*
X237317862Y-106245286D01*
X237291594Y-106375000D01*
X237291594Y-107075000D01*
X237314395Y-107196179D01*
X237386012Y-107307474D01*
X237495286Y-107382138D01*
X237625000Y-107408406D01*
X238925000Y-107408406D01*
X239046179Y-107385605D01*
X239157474Y-107313988D01*
X239232138Y-107204714D01*
X239247876Y-107127000D01*
X239816594Y-107127000D01*
X239816594Y-107175000D01*
X239839395Y-107296179D01*
X239911012Y-107407474D01*
X240020286Y-107482138D01*
X240150000Y-107508406D01*
X241400000Y-107508406D01*
X241521179Y-107485605D01*
X241632474Y-107413988D01*
X241707138Y-107304714D01*
X241733406Y-107175000D01*
X241733406Y-106175000D01*
X241710605Y-106053821D01*
X241638988Y-105942526D01*
X241538948Y-105874171D01*
X241632474Y-105813988D01*
X241707138Y-105704714D01*
X241733406Y-105575000D01*
X241733406Y-104575000D01*
X241710605Y-104453821D01*
X241638988Y-104342526D01*
X241529714Y-104267862D01*
X241400000Y-104241594D01*
X240150000Y-104241594D01*
X240028821Y-104264395D01*
X239917526Y-104336012D01*
X239842862Y-104445286D01*
X239837091Y-104473782D01*
X239775265Y-104448109D01*
X239525829Y-104447891D01*
X239295297Y-104543145D01*
X239243353Y-104594998D01*
X239235605Y-104553821D01*
X239163988Y-104442526D01*
X239054714Y-104367862D01*
X238925000Y-104341594D01*
X237625000Y-104341594D01*
X237503821Y-104364395D01*
X237392526Y-104436012D01*
X237317862Y-104545286D01*
X237307623Y-104595848D01*
X237255631Y-104543765D01*
X237025265Y-104448109D01*
X236775829Y-104447891D01*
X236714275Y-104473325D01*
X236710605Y-104453821D01*
X236638988Y-104342526D01*
X236529714Y-104267862D01*
X236400000Y-104241594D01*
X235150000Y-104241594D01*
X235028821Y-104264395D01*
X234917526Y-104336012D01*
X234842862Y-104445286D01*
X234816594Y-104575000D01*
X234816594Y-105575000D01*
X234839395Y-105696179D01*
X234911012Y-105807474D01*
X235011052Y-105875829D01*
X234917526Y-105936012D01*
X234842862Y-106045286D01*
X234816594Y-106175000D01*
X234816594Y-106223000D01*
X234215772Y-106223000D01*
X234163988Y-106142526D01*
X234054714Y-106067862D01*
X233925000Y-106041594D01*
X233727000Y-106041594D01*
X233727000Y-105708406D01*
X233925000Y-105708406D01*
X234046179Y-105685605D01*
X234157474Y-105613988D01*
X234232138Y-105504714D01*
X234258406Y-105375000D01*
X234258406Y-104675000D01*
X234235605Y-104553821D01*
X234163988Y-104442526D01*
X234054714Y-104367862D01*
X233925000Y-104341594D01*
X232625000Y-104341594D01*
X232503821Y-104364395D01*
X232392526Y-104436012D01*
X232317862Y-104545286D01*
X232307623Y-104595848D01*
X232255631Y-104543765D01*
X232025265Y-104448109D01*
X231775829Y-104447891D01*
X231714275Y-104473325D01*
X231710605Y-104453821D01*
X231638988Y-104342526D01*
X231529714Y-104267862D01*
X231400000Y-104241594D01*
X230150000Y-104241594D01*
X230028821Y-104264395D01*
X229917526Y-104336012D01*
X229842862Y-104445286D01*
X229816594Y-104575000D01*
X229816594Y-105575000D01*
X229839395Y-105696179D01*
X229911012Y-105807474D01*
X230011052Y-105875829D01*
X229917526Y-105936012D01*
X229842862Y-106045286D01*
X229816594Y-106175000D01*
X229816594Y-106223000D01*
X229215772Y-106223000D01*
X229163988Y-106142526D01*
X229054714Y-106067862D01*
X228925000Y-106041594D01*
X228727000Y-106041594D01*
X228727000Y-105708406D01*
X228925000Y-105708406D01*
X229046179Y-105685605D01*
X229157474Y-105613988D01*
X229232138Y-105504714D01*
X229258406Y-105375000D01*
X229258406Y-104675000D01*
X229235605Y-104553821D01*
X229163988Y-104442526D01*
X229054714Y-104367862D01*
X228925000Y-104341594D01*
X227625000Y-104341594D01*
X227503821Y-104364395D01*
X227392526Y-104436012D01*
X227317862Y-104545286D01*
X227291594Y-104675000D01*
X211602000Y-104675000D01*
X211602000Y-101075000D01*
X227291594Y-101075000D01*
X227291594Y-101775000D01*
X227314395Y-101896179D01*
X227386012Y-102007474D01*
X227495286Y-102082138D01*
X227625000Y-102108406D01*
X227823000Y-102108406D01*
X227823000Y-102441594D01*
X227625000Y-102441594D01*
X227503821Y-102464395D01*
X227392526Y-102536012D01*
X227317862Y-102645286D01*
X227291594Y-102775000D01*
X227291594Y-103475000D01*
X227314395Y-103596179D01*
X227386012Y-103707474D01*
X227495286Y-103782138D01*
X227625000Y-103808406D01*
X228925000Y-103808406D01*
X229046179Y-103785605D01*
X229157474Y-103713988D01*
X229232138Y-103604714D01*
X229247876Y-103527000D01*
X229816594Y-103527000D01*
X229816594Y-103575000D01*
X229839395Y-103696179D01*
X229911012Y-103807474D01*
X230020286Y-103882138D01*
X230150000Y-103908406D01*
X231400000Y-103908406D01*
X231521179Y-103885605D01*
X231632474Y-103813988D01*
X231707138Y-103704714D01*
X231733406Y-103575000D01*
X231733406Y-102575000D01*
X231710605Y-102453821D01*
X231638988Y-102342526D01*
X231538948Y-102274171D01*
X231632474Y-102213988D01*
X231707138Y-102104714D01*
X231712909Y-102076218D01*
X231774735Y-102101891D01*
X232024171Y-102102109D01*
X232254703Y-102006855D01*
X232334412Y-101927285D01*
X232386012Y-102007474D01*
X232495286Y-102082138D01*
X232625000Y-102108406D01*
X232823000Y-102108406D01*
X232823000Y-102441594D01*
X232625000Y-102441594D01*
X232503821Y-102464395D01*
X232392526Y-102536012D01*
X232317862Y-102645286D01*
X232291594Y-102775000D01*
X232291594Y-103475000D01*
X232314395Y-103596179D01*
X232386012Y-103707474D01*
X232495286Y-103782138D01*
X232625000Y-103808406D01*
X233925000Y-103808406D01*
X234046179Y-103785605D01*
X234157474Y-103713988D01*
X234232138Y-103604714D01*
X234247876Y-103527000D01*
X234816594Y-103527000D01*
X234816594Y-103575000D01*
X234839395Y-103696179D01*
X234911012Y-103807474D01*
X235020286Y-103882138D01*
X235150000Y-103908406D01*
X236400000Y-103908406D01*
X236521179Y-103885605D01*
X236632474Y-103813988D01*
X236707138Y-103704714D01*
X236733406Y-103575000D01*
X236733406Y-102575000D01*
X236710605Y-102453821D01*
X236638988Y-102342526D01*
X236538948Y-102274171D01*
X236632474Y-102213988D01*
X236707138Y-102104714D01*
X236712909Y-102076218D01*
X236774735Y-102101891D01*
X237024171Y-102102109D01*
X237254703Y-102006855D01*
X237334412Y-101927285D01*
X237386012Y-102007474D01*
X237495286Y-102082138D01*
X237625000Y-102108406D01*
X237823000Y-102108406D01*
X237823000Y-102441594D01*
X237625000Y-102441594D01*
X237503821Y-102464395D01*
X237392526Y-102536012D01*
X237317862Y-102645286D01*
X237291594Y-102775000D01*
X237291594Y-103475000D01*
X237314395Y-103596179D01*
X237386012Y-103707474D01*
X237495286Y-103782138D01*
X237625000Y-103808406D01*
X238925000Y-103808406D01*
X239046179Y-103785605D01*
X239157474Y-103713988D01*
X239232138Y-103604714D01*
X239247876Y-103527000D01*
X239816594Y-103527000D01*
X239816594Y-103575000D01*
X239839395Y-103696179D01*
X239911012Y-103807474D01*
X240020286Y-103882138D01*
X240150000Y-103908406D01*
X241400000Y-103908406D01*
X241521179Y-103885605D01*
X241632474Y-103813988D01*
X241707138Y-103704714D01*
X241733406Y-103575000D01*
X241733406Y-102575000D01*
X241710605Y-102453821D01*
X241638988Y-102342526D01*
X241538948Y-102274171D01*
X241632474Y-102213988D01*
X241707138Y-102104714D01*
X241733406Y-101975000D01*
X241733406Y-100975000D01*
X241710605Y-100853821D01*
X241638988Y-100742526D01*
X241529714Y-100667862D01*
X241400000Y-100641594D01*
X240150000Y-100641594D01*
X240028821Y-100664395D01*
X239917526Y-100736012D01*
X239842862Y-100845286D01*
X239837091Y-100873782D01*
X239775265Y-100848109D01*
X239525829Y-100847891D01*
X239295297Y-100943145D01*
X239243353Y-100994998D01*
X239235605Y-100953821D01*
X239163988Y-100842526D01*
X239054714Y-100767862D01*
X238925000Y-100741594D01*
X237625000Y-100741594D01*
X237503821Y-100764395D01*
X237392526Y-100836012D01*
X237317862Y-100945286D01*
X237307623Y-100995848D01*
X237255631Y-100943765D01*
X237025265Y-100848109D01*
X236775829Y-100847891D01*
X236714275Y-100873325D01*
X236710605Y-100853821D01*
X236638988Y-100742526D01*
X236529714Y-100667862D01*
X236400000Y-100641594D01*
X235150000Y-100641594D01*
X235028821Y-100664395D01*
X234917526Y-100736012D01*
X234842862Y-100845286D01*
X234816594Y-100975000D01*
X234816594Y-101975000D01*
X234839395Y-102096179D01*
X234911012Y-102207474D01*
X235011052Y-102275829D01*
X234917526Y-102336012D01*
X234842862Y-102445286D01*
X234816594Y-102575000D01*
X234816594Y-102623000D01*
X234215772Y-102623000D01*
X234163988Y-102542526D01*
X234054714Y-102467862D01*
X233925000Y-102441594D01*
X233727000Y-102441594D01*
X233727000Y-102108406D01*
X233925000Y-102108406D01*
X234046179Y-102085605D01*
X234157474Y-102013988D01*
X234232138Y-101904714D01*
X234258406Y-101775000D01*
X234258406Y-101075000D01*
X234235605Y-100953821D01*
X234163988Y-100842526D01*
X234054714Y-100767862D01*
X233925000Y-100741594D01*
X232625000Y-100741594D01*
X232503821Y-100764395D01*
X232392526Y-100836012D01*
X232317862Y-100945286D01*
X232307623Y-100995848D01*
X232255631Y-100943765D01*
X232025265Y-100848109D01*
X231775829Y-100847891D01*
X231714275Y-100873325D01*
X231710605Y-100853821D01*
X231638988Y-100742526D01*
X231529714Y-100667862D01*
X231400000Y-100641594D01*
X230150000Y-100641594D01*
X230028821Y-100664395D01*
X229917526Y-100736012D01*
X229842862Y-100845286D01*
X229816594Y-100975000D01*
X229816594Y-101975000D01*
X229839395Y-102096179D01*
X229911012Y-102207474D01*
X230011052Y-102275829D01*
X229917526Y-102336012D01*
X229842862Y-102445286D01*
X229816594Y-102575000D01*
X229816594Y-102623000D01*
X229215772Y-102623000D01*
X229163988Y-102542526D01*
X229054714Y-102467862D01*
X228925000Y-102441594D01*
X228727000Y-102441594D01*
X228727000Y-102108406D01*
X228925000Y-102108406D01*
X229046179Y-102085605D01*
X229157474Y-102013988D01*
X229232138Y-101904714D01*
X229258406Y-101775000D01*
X229258406Y-101075000D01*
X229235605Y-100953821D01*
X229163988Y-100842526D01*
X229054714Y-100767862D01*
X228925000Y-100741594D01*
X227625000Y-100741594D01*
X227503821Y-100764395D01*
X227392526Y-100836012D01*
X227317862Y-100945286D01*
X227291594Y-101075000D01*
X211602000Y-101075000D01*
X211602000Y-99175000D01*
X227291594Y-99175000D01*
X227291594Y-99875000D01*
X227314395Y-99996179D01*
X227386012Y-100107474D01*
X227495286Y-100182138D01*
X227625000Y-100208406D01*
X228925000Y-100208406D01*
X229046179Y-100185605D01*
X229157474Y-100113988D01*
X229232138Y-100004714D01*
X229237750Y-99977000D01*
X229816970Y-99977000D01*
X229839395Y-100096179D01*
X229911012Y-100207474D01*
X230020286Y-100282138D01*
X230150000Y-100308406D01*
X231400000Y-100308406D01*
X231521179Y-100285605D01*
X231632474Y-100213988D01*
X231707138Y-100104714D01*
X231733001Y-99977000D01*
X232310786Y-99977000D01*
X232314395Y-99996179D01*
X232386012Y-100107474D01*
X232495286Y-100182138D01*
X232625000Y-100208406D01*
X233925000Y-100208406D01*
X234046179Y-100185605D01*
X234157474Y-100113988D01*
X234232138Y-100004714D01*
X234237750Y-99977000D01*
X234816970Y-99977000D01*
X234839395Y-100096179D01*
X234911012Y-100207474D01*
X235020286Y-100282138D01*
X235150000Y-100308406D01*
X236400000Y-100308406D01*
X236521179Y-100285605D01*
X236632474Y-100213988D01*
X236707138Y-100104714D01*
X236733001Y-99977000D01*
X237310786Y-99977000D01*
X237314395Y-99996179D01*
X237386012Y-100107474D01*
X237495286Y-100182138D01*
X237625000Y-100208406D01*
X238925000Y-100208406D01*
X239046179Y-100185605D01*
X239157474Y-100113988D01*
X239232138Y-100004714D01*
X239237750Y-99977000D01*
X239816970Y-99977000D01*
X239839395Y-100096179D01*
X239911012Y-100207474D01*
X240020286Y-100282138D01*
X240150000Y-100308406D01*
X241400000Y-100308406D01*
X241521179Y-100285605D01*
X241632474Y-100213988D01*
X241707138Y-100104714D01*
X241733406Y-99975000D01*
X241733406Y-98975000D01*
X241710605Y-98853821D01*
X241638988Y-98742526D01*
X241529714Y-98667862D01*
X241400000Y-98641594D01*
X240150000Y-98641594D01*
X240028821Y-98664395D01*
X239917526Y-98736012D01*
X239842862Y-98845286D01*
X239816999Y-98973000D01*
X239183598Y-98973000D01*
X239163988Y-98942526D01*
X239054714Y-98867862D01*
X238925000Y-98841594D01*
X237625000Y-98841594D01*
X237503821Y-98864395D01*
X237392526Y-98936012D01*
X237367253Y-98973000D01*
X236733030Y-98973000D01*
X236710605Y-98853821D01*
X236638988Y-98742526D01*
X236529714Y-98667862D01*
X236400000Y-98641594D01*
X236277000Y-98641594D01*
X236277000Y-97480304D01*
X236289395Y-97546179D01*
X236361012Y-97657474D01*
X236470286Y-97732138D01*
X236600000Y-97758406D01*
X237600000Y-97758406D01*
X237721179Y-97735605D01*
X237832474Y-97663988D01*
X237907138Y-97554714D01*
X237933406Y-97425000D01*
X237933406Y-97252000D01*
X238466594Y-97252000D01*
X238466594Y-97450000D01*
X238489395Y-97571179D01*
X238561012Y-97682474D01*
X238670286Y-97757138D01*
X238800000Y-97783406D01*
X239500000Y-97783406D01*
X239621179Y-97760605D01*
X239732474Y-97688988D01*
X239807138Y-97579714D01*
X239833406Y-97450000D01*
X239833406Y-96150000D01*
X239810605Y-96028821D01*
X239738988Y-95917526D01*
X239629714Y-95842862D01*
X239500000Y-95816594D01*
X238800000Y-95816594D01*
X238678821Y-95839395D01*
X238567526Y-95911012D01*
X238492862Y-96020286D01*
X238466594Y-96150000D01*
X238466594Y-96348000D01*
X237933406Y-96348000D01*
X237933406Y-96175000D01*
X237910605Y-96053821D01*
X237838988Y-95942526D01*
X237729714Y-95867862D01*
X237600000Y-95841594D01*
X237520492Y-95841594D01*
X237517594Y-95827027D01*
X237419612Y-95680388D01*
X237222630Y-95483406D01*
X238100000Y-95483406D01*
X238221179Y-95460605D01*
X238332474Y-95388988D01*
X238407138Y-95279714D01*
X238433406Y-95150000D01*
X238433406Y-94752000D01*
X238466594Y-94752000D01*
X238466594Y-94950000D01*
X238489395Y-95071179D01*
X238561012Y-95182474D01*
X238670286Y-95257138D01*
X238800000Y-95283406D01*
X239500000Y-95283406D01*
X239621179Y-95260605D01*
X239732474Y-95188988D01*
X239807138Y-95079714D01*
X239833406Y-94950000D01*
X239833406Y-93650000D01*
X239810605Y-93528821D01*
X239738988Y-93417526D01*
X239629714Y-93342862D01*
X239500000Y-93316594D01*
X238800000Y-93316594D01*
X238678821Y-93339395D01*
X238567526Y-93411012D01*
X238492862Y-93520286D01*
X238466594Y-93650000D01*
X238466594Y-93848000D01*
X238433406Y-93848000D01*
X238433406Y-93450000D01*
X238410605Y-93328821D01*
X238338988Y-93217526D01*
X238229714Y-93142862D01*
X238100000Y-93116594D01*
X236100000Y-93116594D01*
X235978821Y-93139395D01*
X235867526Y-93211012D01*
X235792862Y-93320286D01*
X235766594Y-93450000D01*
X235766594Y-93827370D01*
X234433406Y-92494182D01*
X234433406Y-91272630D01*
X235280388Y-92119612D01*
X235427027Y-92217594D01*
X235600000Y-92252000D01*
X235766594Y-92252000D01*
X235766594Y-92650000D01*
X235789395Y-92771179D01*
X235861012Y-92882474D01*
X235970286Y-92957138D01*
X236100000Y-92983406D01*
X238100000Y-92983406D01*
X238221179Y-92960605D01*
X238332474Y-92888988D01*
X238407138Y-92779714D01*
X238433406Y-92650000D01*
X238433406Y-92252000D01*
X238466594Y-92252000D01*
X238466594Y-92450000D01*
X238489395Y-92571179D01*
X238561012Y-92682474D01*
X238670286Y-92757138D01*
X238800000Y-92783406D01*
X239500000Y-92783406D01*
X239621179Y-92760605D01*
X239732474Y-92688988D01*
X239807138Y-92579714D01*
X239833406Y-92450000D01*
X239833406Y-91150000D01*
X239810605Y-91028821D01*
X239738988Y-90917526D01*
X239629714Y-90842862D01*
X239500000Y-90816594D01*
X238800000Y-90816594D01*
X238678821Y-90839395D01*
X238567526Y-90911012D01*
X238492862Y-91020286D01*
X238466594Y-91150000D01*
X238466594Y-91348000D01*
X238433406Y-91348000D01*
X238433406Y-90950000D01*
X238410605Y-90828821D01*
X238338988Y-90717526D01*
X238229714Y-90642862D01*
X238100000Y-90616594D01*
X236100000Y-90616594D01*
X235978821Y-90639395D01*
X235867526Y-90711012D01*
X235792862Y-90820286D01*
X235766594Y-90950000D01*
X235766594Y-91327370D01*
X234433406Y-89994182D01*
X234433406Y-88450000D01*
X235766594Y-88450000D01*
X235766594Y-90150000D01*
X235789395Y-90271179D01*
X235861012Y-90382474D01*
X235970286Y-90457138D01*
X236100000Y-90483406D01*
X238100000Y-90483406D01*
X238221179Y-90460605D01*
X238332474Y-90388988D01*
X238407138Y-90279714D01*
X238433406Y-90150000D01*
X238433406Y-89752000D01*
X238466594Y-89752000D01*
X238466594Y-89950000D01*
X238489395Y-90071179D01*
X238561012Y-90182474D01*
X238670286Y-90257138D01*
X238800000Y-90283406D01*
X239500000Y-90283406D01*
X239621179Y-90260605D01*
X239732474Y-90188988D01*
X239807138Y-90079714D01*
X239833406Y-89950000D01*
X239833406Y-88650000D01*
X239810605Y-88528821D01*
X239738988Y-88417526D01*
X239629714Y-88342862D01*
X239500000Y-88316594D01*
X238800000Y-88316594D01*
X238678821Y-88339395D01*
X238567526Y-88411012D01*
X238492862Y-88520286D01*
X238466594Y-88650000D01*
X238466594Y-88848000D01*
X238433406Y-88848000D01*
X238433406Y-88450000D01*
X238410605Y-88328821D01*
X238338988Y-88217526D01*
X238229714Y-88142862D01*
X238100000Y-88116594D01*
X236100000Y-88116594D01*
X235978821Y-88139395D01*
X235867526Y-88211012D01*
X235792862Y-88320286D01*
X235766594Y-88450000D01*
X234433406Y-88450000D01*
X234410605Y-88328821D01*
X234338988Y-88217526D01*
X234229714Y-88142862D01*
X234100000Y-88116594D01*
X232100000Y-88116594D01*
X231978821Y-88139395D01*
X231867526Y-88211012D01*
X231792862Y-88320286D01*
X231766594Y-88450000D01*
X231766594Y-90150000D01*
X231789395Y-90271179D01*
X231861012Y-90382474D01*
X231970286Y-90457138D01*
X232100000Y-90483406D01*
X233644182Y-90483406D01*
X233777370Y-90616594D01*
X232100000Y-90616594D01*
X231978821Y-90639395D01*
X231867526Y-90711012D01*
X231792862Y-90820286D01*
X231766594Y-90950000D01*
X231766594Y-92650000D01*
X231789395Y-92771179D01*
X231861012Y-92882474D01*
X231970286Y-92957138D01*
X232100000Y-92983406D01*
X233644182Y-92983406D01*
X233777370Y-93116594D01*
X232100000Y-93116594D01*
X231978821Y-93139395D01*
X231867526Y-93211012D01*
X231792862Y-93320286D01*
X231766594Y-93450000D01*
X231766594Y-95150000D01*
X231789395Y-95271179D01*
X231861012Y-95382474D01*
X231970286Y-95457138D01*
X232100000Y-95483406D01*
X233644182Y-95483406D01*
X234180388Y-96019612D01*
X234284036Y-96088868D01*
X234266594Y-96175000D01*
X234266594Y-97425000D01*
X234289395Y-97546179D01*
X234361012Y-97657474D01*
X234470286Y-97732138D01*
X234600000Y-97758406D01*
X235273000Y-97758406D01*
X235273000Y-98641594D01*
X235150000Y-98641594D01*
X235028821Y-98664395D01*
X234917526Y-98736012D01*
X234842862Y-98845286D01*
X234816999Y-98973000D01*
X234183598Y-98973000D01*
X234163988Y-98942526D01*
X234054714Y-98867862D01*
X233925000Y-98841594D01*
X232625000Y-98841594D01*
X232503821Y-98864395D01*
X232392526Y-98936012D01*
X232367253Y-98973000D01*
X231733030Y-98973000D01*
X231710605Y-98853821D01*
X231638988Y-98742526D01*
X231529714Y-98667862D01*
X231400000Y-98641594D01*
X230150000Y-98641594D01*
X230028821Y-98664395D01*
X229917526Y-98736012D01*
X229842862Y-98845286D01*
X229816999Y-98973000D01*
X229183598Y-98973000D01*
X229163988Y-98942526D01*
X229054714Y-98867862D01*
X228925000Y-98841594D01*
X227625000Y-98841594D01*
X227503821Y-98864395D01*
X227392526Y-98936012D01*
X227317862Y-99045286D01*
X227291594Y-99175000D01*
X211602000Y-99175000D01*
X211602000Y-79741524D01*
X225722657Y-79741524D01*
X226023003Y-80468418D01*
X226578657Y-81025042D01*
X227305025Y-81326656D01*
X228091524Y-81327343D01*
X228818418Y-81026997D01*
X228895549Y-80950000D01*
X231766594Y-80950000D01*
X231766594Y-82650000D01*
X231789395Y-82771179D01*
X231861012Y-82882474D01*
X231970286Y-82957138D01*
X232100000Y-82983406D01*
X234100000Y-82983406D01*
X234221179Y-82960605D01*
X234332474Y-82888988D01*
X234407138Y-82779714D01*
X234433406Y-82650000D01*
X234433406Y-81105818D01*
X234637224Y-80902000D01*
X235776314Y-80902000D01*
X235766594Y-80950000D01*
X235766594Y-82494182D01*
X234433406Y-83827370D01*
X234433406Y-83450000D01*
X234410605Y-83328821D01*
X234338988Y-83217526D01*
X234229714Y-83142862D01*
X234100000Y-83116594D01*
X232100000Y-83116594D01*
X231978821Y-83139395D01*
X231867526Y-83211012D01*
X231792862Y-83320286D01*
X231766594Y-83450000D01*
X231766594Y-85150000D01*
X231789395Y-85271179D01*
X231861012Y-85382474D01*
X231970286Y-85457138D01*
X232100000Y-85483406D01*
X234100000Y-85483406D01*
X234221179Y-85460605D01*
X234332474Y-85388988D01*
X234407138Y-85279714D01*
X234433406Y-85150000D01*
X234433406Y-84752000D01*
X234600000Y-84752000D01*
X234772973Y-84717594D01*
X234919612Y-84619612D01*
X235766594Y-83772630D01*
X235766594Y-84994182D01*
X234483406Y-86277370D01*
X234483406Y-85950000D01*
X234460605Y-85828821D01*
X234388988Y-85717526D01*
X234279714Y-85642862D01*
X234150000Y-85616594D01*
X232150000Y-85616594D01*
X232028821Y-85639395D01*
X231917526Y-85711012D01*
X231842862Y-85820286D01*
X231816594Y-85950000D01*
X231816594Y-87650000D01*
X231839395Y-87771179D01*
X231911012Y-87882474D01*
X232020286Y-87957138D01*
X232150000Y-87983406D01*
X234150000Y-87983406D01*
X234271179Y-87960605D01*
X234382474Y-87888988D01*
X234457138Y-87779714D01*
X234483406Y-87650000D01*
X234483406Y-87252000D01*
X234600000Y-87252000D01*
X234772973Y-87217594D01*
X234919612Y-87119612D01*
X235816594Y-86222630D01*
X235816594Y-87650000D01*
X235839395Y-87771179D01*
X235911012Y-87882474D01*
X236020286Y-87957138D01*
X236150000Y-87983406D01*
X238150000Y-87983406D01*
X238271179Y-87960605D01*
X238382474Y-87888988D01*
X238457138Y-87779714D01*
X238483406Y-87650000D01*
X238483406Y-87539350D01*
X238489395Y-87571179D01*
X238561012Y-87682474D01*
X238670286Y-87757138D01*
X238800000Y-87783406D01*
X239500000Y-87783406D01*
X239621179Y-87760605D01*
X239732474Y-87688988D01*
X239807138Y-87579714D01*
X239833406Y-87450000D01*
X239833406Y-86150000D01*
X239810605Y-86028821D01*
X239738988Y-85917526D01*
X239629714Y-85842862D01*
X239500000Y-85816594D01*
X238800000Y-85816594D01*
X238678821Y-85839395D01*
X238567526Y-85911012D01*
X238492862Y-86020286D01*
X238483406Y-86066981D01*
X238483406Y-85950000D01*
X238460605Y-85828821D01*
X238388988Y-85717526D01*
X238279714Y-85642862D01*
X238150000Y-85616594D01*
X236422630Y-85616594D01*
X236555818Y-85483406D01*
X238100000Y-85483406D01*
X238221179Y-85460605D01*
X238332474Y-85388988D01*
X238407138Y-85279714D01*
X238433406Y-85150000D01*
X238433406Y-84752000D01*
X238466594Y-84752000D01*
X238466594Y-84950000D01*
X238489395Y-85071179D01*
X238561012Y-85182474D01*
X238670286Y-85257138D01*
X238800000Y-85283406D01*
X239500000Y-85283406D01*
X239621179Y-85260605D01*
X239732474Y-85188988D01*
X239807138Y-85079714D01*
X239833406Y-84950000D01*
X239833406Y-83650000D01*
X239810605Y-83528821D01*
X239738988Y-83417526D01*
X239629714Y-83342862D01*
X239500000Y-83316594D01*
X238800000Y-83316594D01*
X238678821Y-83339395D01*
X238567526Y-83411012D01*
X238492862Y-83520286D01*
X238466594Y-83650000D01*
X238466594Y-83848000D01*
X238433406Y-83848000D01*
X238433406Y-83450000D01*
X238410605Y-83328821D01*
X238338988Y-83217526D01*
X238229714Y-83142862D01*
X238100000Y-83116594D01*
X236422630Y-83116594D01*
X236555818Y-82983406D01*
X238100000Y-82983406D01*
X238221179Y-82960605D01*
X238332474Y-82888988D01*
X238407138Y-82779714D01*
X238433406Y-82650000D01*
X238433406Y-82252000D01*
X238466594Y-82252000D01*
X238466594Y-82450000D01*
X238489395Y-82571179D01*
X238561012Y-82682474D01*
X238670286Y-82757138D01*
X238800000Y-82783406D01*
X239500000Y-82783406D01*
X239621179Y-82760605D01*
X239732474Y-82688988D01*
X239807138Y-82579714D01*
X239833406Y-82450000D01*
X239833406Y-81150000D01*
X239810605Y-81028821D01*
X239738988Y-80917526D01*
X239629714Y-80842862D01*
X239500000Y-80816594D01*
X238800000Y-80816594D01*
X238678821Y-80839395D01*
X238567526Y-80911012D01*
X238492862Y-81020286D01*
X238466594Y-81150000D01*
X238466594Y-81348000D01*
X238433406Y-81348000D01*
X238433406Y-80950000D01*
X238410605Y-80828821D01*
X238338988Y-80717526D01*
X238229714Y-80642862D01*
X238100000Y-80616594D01*
X237622630Y-80616594D01*
X237819612Y-80419612D01*
X237917594Y-80272973D01*
X237920492Y-80258406D01*
X238000000Y-80258406D01*
X238121179Y-80235605D01*
X238232474Y-80163988D01*
X238307138Y-80054714D01*
X238333406Y-79925000D01*
X238333406Y-79752000D01*
X238466594Y-79752000D01*
X238466594Y-79950000D01*
X238489395Y-80071179D01*
X238561012Y-80182474D01*
X238670286Y-80257138D01*
X238800000Y-80283406D01*
X239500000Y-80283406D01*
X239621179Y-80260605D01*
X239732474Y-80188988D01*
X239807138Y-80079714D01*
X239833406Y-79950000D01*
X239833406Y-78650000D01*
X239810605Y-78528821D01*
X239738988Y-78417526D01*
X239629714Y-78342862D01*
X239500000Y-78316594D01*
X238800000Y-78316594D01*
X238678821Y-78339395D01*
X238567526Y-78411012D01*
X238492862Y-78520286D01*
X238466594Y-78650000D01*
X238466594Y-78848000D01*
X238333406Y-78848000D01*
X238333406Y-78675000D01*
X238310605Y-78553821D01*
X238238988Y-78442526D01*
X238129714Y-78367862D01*
X238000000Y-78341594D01*
X237000000Y-78341594D01*
X236878821Y-78364395D01*
X236767526Y-78436012D01*
X236692862Y-78545286D01*
X236666594Y-78675000D01*
X236666594Y-79925000D01*
X236680330Y-79998000D01*
X236318623Y-79998000D01*
X236333406Y-79925000D01*
X236333406Y-78675000D01*
X236310605Y-78553821D01*
X236238988Y-78442526D01*
X236129714Y-78367862D01*
X236000000Y-78341594D01*
X235000000Y-78341594D01*
X234878821Y-78364395D01*
X234767526Y-78436012D01*
X234692862Y-78545286D01*
X234666594Y-78675000D01*
X234666594Y-78779747D01*
X234655631Y-78768765D01*
X234425265Y-78673109D01*
X234175829Y-78672891D01*
X233945297Y-78768145D01*
X233768765Y-78944369D01*
X233673109Y-79174735D01*
X233672891Y-79424171D01*
X233768145Y-79654703D01*
X233944369Y-79831235D01*
X234174735Y-79926891D01*
X234424171Y-79927109D01*
X234654703Y-79831855D01*
X234666594Y-79819985D01*
X234666594Y-79925000D01*
X234680330Y-79998000D01*
X234450000Y-79998000D01*
X234277027Y-80032406D01*
X234130388Y-80130388D01*
X233644182Y-80616594D01*
X232100000Y-80616594D01*
X231978821Y-80639395D01*
X231867526Y-80711012D01*
X231792862Y-80820286D01*
X231766594Y-80950000D01*
X228895549Y-80950000D01*
X229375042Y-80471343D01*
X229676656Y-79744975D01*
X229677343Y-78958476D01*
X229376997Y-78231582D01*
X228821343Y-77674958D01*
X228094975Y-77373344D01*
X227308476Y-77372657D01*
X226581582Y-77673003D01*
X226024958Y-78228657D01*
X225723344Y-78955025D01*
X225722657Y-79741524D01*
X211602000Y-79741524D01*
X211602000Y-74238705D01*
X211694369Y-74331235D01*
X211924735Y-74426891D01*
X212174171Y-74427109D01*
X212404703Y-74331855D01*
X212581235Y-74155631D01*
X212676891Y-73925265D01*
X212677109Y-73675829D01*
X212581855Y-73445297D01*
X212569985Y-73433406D01*
X212600000Y-73433406D01*
X212721179Y-73410605D01*
X212800581Y-73359511D01*
X212870286Y-73407138D01*
X213000000Y-73433406D01*
X213004747Y-73433406D01*
X212993765Y-73444369D01*
X212898109Y-73674735D01*
X212897891Y-73924171D01*
X212993145Y-74154703D01*
X213169369Y-74331235D01*
X213399735Y-74426891D01*
X213649171Y-74427109D01*
X213879703Y-74331855D01*
X214056235Y-74155631D01*
X214151891Y-73925265D01*
X214152109Y-73675829D01*
X214056855Y-73445297D01*
X214044985Y-73433406D01*
X214050000Y-73433406D01*
X214171179Y-73410605D01*
X214282474Y-73338988D01*
X214357138Y-73229714D01*
X214383406Y-73100000D01*
X214383406Y-71700000D01*
X214360605Y-71578821D01*
X214288988Y-71467526D01*
X214179714Y-71392862D01*
X214050000Y-71366594D01*
X213655818Y-71366594D01*
X213576116Y-71286892D01*
X213836053Y-71287119D01*
X214088646Y-71182750D01*
X214282071Y-70989662D01*
X214386880Y-70737252D01*
X214387119Y-70463947D01*
X214282750Y-70211354D01*
X214089662Y-70017929D01*
X213837252Y-69913120D01*
X213626288Y-69912936D01*
X213705818Y-69833406D01*
X214050000Y-69833406D01*
X214171179Y-69810605D01*
X214282474Y-69738988D01*
X214357138Y-69629714D01*
X214383406Y-69500000D01*
X214383406Y-68100000D01*
X214360605Y-67978821D01*
X214288988Y-67867526D01*
X214179714Y-67792862D01*
X214050000Y-67766594D01*
X213000000Y-67766594D01*
X212878821Y-67789395D01*
X212799419Y-67840489D01*
X212729714Y-67792862D01*
X212600000Y-67766594D01*
X212570253Y-67766594D01*
X212581235Y-67755631D01*
X212676891Y-67525265D01*
X212677109Y-67275829D01*
X212581855Y-67045297D01*
X212405631Y-66868765D01*
X212175265Y-66773109D01*
X211925829Y-66772891D01*
X211695297Y-66868145D01*
X211602000Y-66961279D01*
X211602000Y-63482603D01*
X212372752Y-63482603D01*
X212589543Y-64007275D01*
X212990614Y-64409047D01*
X213514907Y-64626752D01*
X214082603Y-64627248D01*
X214607275Y-64410457D01*
X215009047Y-64009386D01*
X215220562Y-63500000D01*
X223666594Y-63500000D01*
X223666594Y-65900000D01*
X223689395Y-66021179D01*
X223761012Y-66132474D01*
X223870286Y-66207138D01*
X224000000Y-66233406D01*
X224698000Y-66233406D01*
X224698000Y-71899995D01*
X224697999Y-71900000D01*
X224736212Y-72092107D01*
X224845032Y-72254968D01*
X225145032Y-72554968D01*
X225307892Y-72663788D01*
X225500000Y-72702001D01*
X225500005Y-72702000D01*
X228899995Y-72702000D01*
X228900000Y-72702001D01*
X229092107Y-72663788D01*
X229221995Y-72577000D01*
X229262766Y-72577000D01*
X229270286Y-72582138D01*
X229400000Y-72608406D01*
X231000000Y-72608406D01*
X231121179Y-72585605D01*
X231232474Y-72513988D01*
X231307138Y-72404714D01*
X231325990Y-72311622D01*
X231385286Y-72352138D01*
X231515000Y-72378406D01*
X233085000Y-72378406D01*
X233206179Y-72355605D01*
X233273598Y-72312222D01*
X233289395Y-72396179D01*
X233361012Y-72507474D01*
X233470286Y-72582138D01*
X233600000Y-72608406D01*
X233948000Y-72608406D01*
X233948000Y-72612776D01*
X233712776Y-72848000D01*
X230309771Y-72848000D01*
X230255631Y-72793765D01*
X230025265Y-72698109D01*
X229775829Y-72697891D01*
X229545297Y-72793145D01*
X229368765Y-72969369D01*
X229273109Y-73199735D01*
X229272891Y-73449171D01*
X229368145Y-73679703D01*
X229544369Y-73856235D01*
X229774735Y-73951891D01*
X230024171Y-73952109D01*
X230254703Y-73856855D01*
X230359741Y-73752000D01*
X233900000Y-73752000D01*
X234072973Y-73717594D01*
X234219612Y-73619612D01*
X234719612Y-73119612D01*
X234817594Y-72972973D01*
X234852000Y-72800000D01*
X234852000Y-72608406D01*
X235200000Y-72608406D01*
X235321179Y-72585605D01*
X235416594Y-72524207D01*
X235416594Y-72575000D01*
X235439395Y-72696179D01*
X235511012Y-72807474D01*
X235620286Y-72882138D01*
X235750000Y-72908406D01*
X236750000Y-72908406D01*
X236871179Y-72885605D01*
X236982474Y-72813988D01*
X237057138Y-72704714D01*
X237083406Y-72575000D01*
X237083406Y-72538968D01*
X237174735Y-72576891D01*
X237416990Y-72577103D01*
X237439395Y-72696179D01*
X237511012Y-72807474D01*
X237620286Y-72882138D01*
X237750000Y-72908406D01*
X238750000Y-72908406D01*
X238871179Y-72885605D01*
X238982474Y-72813988D01*
X239057138Y-72704714D01*
X239083406Y-72575000D01*
X239083406Y-71325000D01*
X239064966Y-71227000D01*
X240237776Y-71227000D01*
X240598000Y-71587225D01*
X240598000Y-78335786D01*
X240578821Y-78339395D01*
X240467526Y-78411012D01*
X240392862Y-78520286D01*
X240366594Y-78650000D01*
X240366594Y-79950000D01*
X240389395Y-80071179D01*
X240461012Y-80182474D01*
X240548000Y-80241911D01*
X240548000Y-80859228D01*
X240467526Y-80911012D01*
X240392862Y-81020286D01*
X240366594Y-81150000D01*
X240366594Y-82450000D01*
X240389395Y-82571179D01*
X240461012Y-82682474D01*
X240548000Y-82741911D01*
X240548000Y-83359228D01*
X240467526Y-83411012D01*
X240392862Y-83520286D01*
X240366594Y-83650000D01*
X240366594Y-84950000D01*
X240389395Y-85071179D01*
X240461012Y-85182474D01*
X240548000Y-85241911D01*
X240548000Y-85859228D01*
X240467526Y-85911012D01*
X240392862Y-86020286D01*
X240366594Y-86150000D01*
X240366594Y-87450000D01*
X240389395Y-87571179D01*
X240461012Y-87682474D01*
X240570286Y-87757138D01*
X240700000Y-87783406D01*
X241400000Y-87783406D01*
X241521179Y-87760605D01*
X241632474Y-87688988D01*
X241707138Y-87579714D01*
X241733406Y-87450000D01*
X241733406Y-86150000D01*
X241710605Y-86028821D01*
X241638988Y-85917526D01*
X241552000Y-85858089D01*
X241552000Y-85240772D01*
X241632474Y-85188988D01*
X241707138Y-85079714D01*
X241733406Y-84950000D01*
X241733406Y-83650000D01*
X241710605Y-83528821D01*
X241638988Y-83417526D01*
X241552000Y-83358089D01*
X241552000Y-82740772D01*
X241632474Y-82688988D01*
X241707138Y-82579714D01*
X241733406Y-82450000D01*
X241733406Y-81150000D01*
X241710605Y-81028821D01*
X241638988Y-80917526D01*
X241552000Y-80858089D01*
X241552000Y-80240772D01*
X241632474Y-80188988D01*
X241707138Y-80079714D01*
X241733406Y-79950000D01*
X241733406Y-78650000D01*
X241710605Y-78528821D01*
X241638988Y-78417526D01*
X241529714Y-78342862D01*
X241502000Y-78337250D01*
X241502000Y-71400000D01*
X241474991Y-71264216D01*
X241748000Y-71537225D01*
X241748000Y-87962775D01*
X241394181Y-88316594D01*
X240700000Y-88316594D01*
X240578821Y-88339395D01*
X240467526Y-88411012D01*
X240392862Y-88520286D01*
X240366594Y-88650000D01*
X240366594Y-89950000D01*
X240389395Y-90071179D01*
X240461012Y-90182474D01*
X240548000Y-90241911D01*
X240548000Y-90859228D01*
X240467526Y-90911012D01*
X240392862Y-91020286D01*
X240366594Y-91150000D01*
X240366594Y-92450000D01*
X240389395Y-92571179D01*
X240461012Y-92682474D01*
X240548000Y-92741911D01*
X240548000Y-93359228D01*
X240467526Y-93411012D01*
X240392862Y-93520286D01*
X240366594Y-93650000D01*
X240366594Y-94950000D01*
X240389395Y-95071179D01*
X240461012Y-95182474D01*
X240548000Y-95241911D01*
X240548000Y-95859228D01*
X240467526Y-95911012D01*
X240392862Y-96020286D01*
X240366594Y-96150000D01*
X240366594Y-97450000D01*
X240389395Y-97571179D01*
X240461012Y-97682474D01*
X240570286Y-97757138D01*
X240700000Y-97783406D01*
X241400000Y-97783406D01*
X241521179Y-97760605D01*
X241632474Y-97688988D01*
X241707138Y-97579714D01*
X241733406Y-97450000D01*
X241733406Y-96150000D01*
X241710605Y-96028821D01*
X241638988Y-95917526D01*
X241552000Y-95858089D01*
X241552000Y-95240772D01*
X241632474Y-95188988D01*
X241707138Y-95079714D01*
X241733406Y-94950000D01*
X241733406Y-93650000D01*
X241710605Y-93528821D01*
X241638988Y-93417526D01*
X241552000Y-93358089D01*
X241552000Y-92740772D01*
X241632474Y-92688988D01*
X241707138Y-92579714D01*
X241733406Y-92450000D01*
X241733406Y-91150000D01*
X241710605Y-91028821D01*
X241638988Y-90917526D01*
X241552000Y-90858089D01*
X241552000Y-90240772D01*
X241632474Y-90188988D01*
X241707138Y-90079714D01*
X241733406Y-89950000D01*
X241733406Y-89255818D01*
X242519613Y-88469612D01*
X242617594Y-88322973D01*
X242652000Y-88150000D01*
X242652000Y-71350000D01*
X242617594Y-71177027D01*
X242599535Y-71150000D01*
X242519613Y-71030388D01*
X241294612Y-69805388D01*
X241147973Y-69707406D01*
X240975000Y-69673000D01*
X235410411Y-69673000D01*
X235329714Y-69617862D01*
X235200000Y-69591594D01*
X233600000Y-69591594D01*
X233478821Y-69614395D01*
X233367526Y-69686012D01*
X233292862Y-69795286D01*
X233274010Y-69888378D01*
X233214714Y-69847862D01*
X233085000Y-69821594D01*
X231515000Y-69821594D01*
X231393821Y-69844395D01*
X231326402Y-69887778D01*
X231310605Y-69803821D01*
X231238988Y-69692526D01*
X231129714Y-69617862D01*
X231000000Y-69591594D01*
X230702000Y-69591594D01*
X230702000Y-69584815D01*
X230731235Y-69555631D01*
X230826891Y-69325265D01*
X230827109Y-69075829D01*
X230731855Y-68845297D01*
X230555631Y-68668765D01*
X230325265Y-68573109D01*
X230075829Y-68572891D01*
X229845297Y-68668145D01*
X229668765Y-68844369D01*
X229573109Y-69074735D01*
X229572891Y-69324171D01*
X229668145Y-69554703D01*
X229698000Y-69584610D01*
X229698000Y-69591594D01*
X229400000Y-69591594D01*
X229385000Y-69594416D01*
X229385000Y-69498690D01*
X229288327Y-69265301D01*
X229109698Y-69086673D01*
X228876309Y-68990000D01*
X228658750Y-68990000D01*
X228500000Y-69148750D01*
X228500000Y-69996000D01*
X228524000Y-69996000D01*
X228524000Y-70504000D01*
X228500000Y-70504000D01*
X228500000Y-70524000D01*
X228000000Y-70524000D01*
X228000000Y-70504000D01*
X227273750Y-70504000D01*
X227115000Y-70662750D01*
X227115000Y-71001310D01*
X227211673Y-71234699D01*
X227390302Y-71413327D01*
X227623691Y-71510000D01*
X227841250Y-71510000D01*
X227995998Y-71355252D01*
X227995998Y-71510000D01*
X228022991Y-71510000D01*
X228022891Y-71624171D01*
X228053397Y-71698000D01*
X225707936Y-71698000D01*
X225702000Y-71692064D01*
X225702000Y-71198686D01*
X225750000Y-71208406D01*
X226750000Y-71208406D01*
X226871179Y-71185605D01*
X226982474Y-71113988D01*
X227057138Y-71004714D01*
X227083406Y-70875000D01*
X227083406Y-69625000D01*
X227060605Y-69503821D01*
X227057304Y-69498690D01*
X227115000Y-69498690D01*
X227115000Y-69837250D01*
X227273750Y-69996000D01*
X228000000Y-69996000D01*
X228000000Y-69148750D01*
X227841250Y-68990000D01*
X227623691Y-68990000D01*
X227390302Y-69086673D01*
X227211673Y-69265301D01*
X227115000Y-69498690D01*
X227057304Y-69498690D01*
X226988988Y-69392526D01*
X226879714Y-69317862D01*
X226787585Y-69299205D01*
X226831235Y-69255631D01*
X226926891Y-69025265D01*
X226927109Y-68775829D01*
X226831855Y-68545297D01*
X226655631Y-68368765D01*
X226425265Y-68273109D01*
X226175829Y-68272891D01*
X225945297Y-68368145D01*
X225768765Y-68544369D01*
X225702000Y-68705158D01*
X225702000Y-66233406D01*
X226400000Y-66233406D01*
X226521179Y-66210605D01*
X226632474Y-66138988D01*
X226707138Y-66029714D01*
X226733406Y-65900000D01*
X226733406Y-65002407D01*
X228672735Y-65002407D01*
X228904717Y-65563846D01*
X229333894Y-65993773D01*
X229894928Y-66226735D01*
X230502407Y-66227265D01*
X231063846Y-65995283D01*
X231493773Y-65566106D01*
X231726735Y-65005072D01*
X231727265Y-64397593D01*
X231495283Y-63836154D01*
X231142349Y-63482603D01*
X240172752Y-63482603D01*
X240389543Y-64007275D01*
X240790614Y-64409047D01*
X241314907Y-64626752D01*
X241882603Y-64627248D01*
X242407275Y-64410457D01*
X242809047Y-64009386D01*
X243026752Y-63485093D01*
X243027248Y-62917397D01*
X242810457Y-62392725D01*
X242409386Y-61990953D01*
X241885093Y-61773248D01*
X241317397Y-61772752D01*
X240792725Y-61989543D01*
X240390953Y-62390614D01*
X240173248Y-62914907D01*
X240172752Y-63482603D01*
X231142349Y-63482603D01*
X231066106Y-63406227D01*
X230505072Y-63173265D01*
X229897593Y-63172735D01*
X229336154Y-63404717D01*
X228906227Y-63833894D01*
X228673265Y-64394928D01*
X228672735Y-65002407D01*
X226733406Y-65002407D01*
X226733406Y-63500000D01*
X226710605Y-63378821D01*
X226638988Y-63267526D01*
X226529714Y-63192862D01*
X226400000Y-63166594D01*
X224000000Y-63166594D01*
X223878821Y-63189395D01*
X223767526Y-63261012D01*
X223692862Y-63370286D01*
X223666594Y-63500000D01*
X215220562Y-63500000D01*
X215226752Y-63485093D01*
X215227248Y-62917397D01*
X215010457Y-62392725D01*
X214609386Y-61990953D01*
X214085093Y-61773248D01*
X213517397Y-61772752D01*
X212992725Y-61989543D01*
X212590953Y-62390614D01*
X212373248Y-62914907D01*
X212372752Y-63482603D01*
X211602000Y-63482603D01*
X211602000Y-61002000D01*
X243798000Y-61002000D01*
X243798000Y-124640698D01*
G36*
X230454000Y-70675000D02*
X230474000Y-70675000D01*
X230474000Y-70875000D01*
X230454000Y-70875000D01*
X230454000Y-70891594D01*
X229946000Y-70891594D01*
X229946000Y-70875000D01*
X229926000Y-70875000D01*
X229926000Y-70675000D01*
X229946000Y-70675000D01*
X229946000Y-70658406D01*
X230454000Y-70658406D01*
X230454000Y-70675000D01*
X230454000Y-70675000D01*
G37*
X230454000Y-70675000D02*
X230474000Y-70675000D01*
X230474000Y-70875000D01*
X230454000Y-70875000D01*
X230454000Y-70891594D01*
X229946000Y-70891594D01*
X229946000Y-70875000D01*
X229926000Y-70875000D01*
X229926000Y-70675000D01*
X229946000Y-70675000D01*
X229946000Y-70658406D01*
X230454000Y-70658406D01*
X230454000Y-70675000D01*
G36*
X236873000Y-150273000D02*
X231627000Y-150273000D01*
X231627000Y-147327000D01*
X236873000Y-147327000D01*
X236873000Y-150273000D01*
X236873000Y-150273000D01*
G37*
X236873000Y-150273000D02*
X231627000Y-150273000D01*
X231627000Y-147327000D01*
X236873000Y-147327000D01*
X236873000Y-150273000D01*
G36*
X243773000Y-143500000D02*
X243783006Y-143549410D01*
X243798000Y-143571355D01*
X243798000Y-152028487D01*
X243781685Y-152053841D01*
X243773000Y-152100000D01*
X243773000Y-152573000D01*
X239327000Y-152573000D01*
X239327000Y-149627000D01*
X239368367Y-149627000D01*
X239400000Y-149633406D01*
X240750000Y-149633406D01*
X240784046Y-149627000D01*
X241600000Y-149627000D01*
X241649410Y-149616994D01*
X241691035Y-149588553D01*
X241718315Y-149546159D01*
X241727000Y-149500000D01*
X241727000Y-146100000D01*
X241716994Y-146050590D01*
X241688553Y-146008965D01*
X241646159Y-145981685D01*
X241600000Y-145973000D01*
X240781633Y-145973000D01*
X240750000Y-145966594D01*
X239400000Y-145966594D01*
X239365954Y-145973000D01*
X239327000Y-145973000D01*
X239327000Y-143027000D01*
X243773000Y-143027000D01*
X243773000Y-143500000D01*
X243773000Y-143500000D01*
G37*
X243773000Y-143500000D02*
X243783006Y-143549410D01*
X243798000Y-143571355D01*
X243798000Y-152028487D01*
X243781685Y-152053841D01*
X243773000Y-152100000D01*
X243773000Y-152573000D01*
X239327000Y-152573000D01*
X239327000Y-149627000D01*
X239368367Y-149627000D01*
X239400000Y-149633406D01*
X240750000Y-149633406D01*
X240784046Y-149627000D01*
X241600000Y-149627000D01*
X241649410Y-149616994D01*
X241691035Y-149588553D01*
X241718315Y-149546159D01*
X241727000Y-149500000D01*
X241727000Y-146100000D01*
X241716994Y-146050590D01*
X241688553Y-146008965D01*
X241646159Y-145981685D01*
X241600000Y-145973000D01*
X240781633Y-145973000D01*
X240750000Y-145966594D01*
X239400000Y-145966594D01*
X239365954Y-145973000D01*
X239327000Y-145973000D01*
X239327000Y-143027000D01*
X243773000Y-143027000D01*
X243773000Y-143500000D01*
M02*
