G04 #@! TF.FileFunction,Legend,Bot*
%FSLAX46Y46*%
G04 Gerber Fmt 4.6, Leading zero omitted, Abs format (unit mm)*
G04 Created by KiCad (PCBNEW 4.0.7) date 02/23/18 16:34:00*
%MOMM*%
%LPD*%
G01*
G04 APERTURE LIST*
%ADD10C,0.100000*%
%ADD11C,0.300000*%
%ADD12C,0.200000*%
%ADD13C,0.150000*%
%ADD14C,0.120000*%
G04 APERTURE END LIST*
D10*
D11*
X214821429Y-126942856D02*
X214821429Y-127799999D01*
X214821429Y-127371427D02*
X216321429Y-127371427D01*
X216107143Y-127514284D01*
X215964286Y-127657142D01*
X215892857Y-127799999D01*
X215678571Y-126085713D02*
X215750000Y-126228571D01*
X215821429Y-126299999D01*
X215964286Y-126371428D01*
X216035714Y-126371428D01*
X216178571Y-126299999D01*
X216250000Y-126228571D01*
X216321429Y-126085713D01*
X216321429Y-125799999D01*
X216250000Y-125657142D01*
X216178571Y-125585713D01*
X216035714Y-125514285D01*
X215964286Y-125514285D01*
X215821429Y-125585713D01*
X215750000Y-125657142D01*
X215678571Y-125799999D01*
X215678571Y-126085713D01*
X215607143Y-126228571D01*
X215535714Y-126299999D01*
X215392857Y-126371428D01*
X215107143Y-126371428D01*
X214964286Y-126299999D01*
X214892857Y-126228571D01*
X214821429Y-126085713D01*
X214821429Y-125799999D01*
X214892857Y-125657142D01*
X214964286Y-125585713D01*
X215107143Y-125514285D01*
X215392857Y-125514285D01*
X215535714Y-125585713D01*
X215607143Y-125657142D01*
X215678571Y-125799999D01*
X216321429Y-124228571D02*
X216321429Y-124514285D01*
X216250000Y-124657142D01*
X216178571Y-124728571D01*
X215964286Y-124871428D01*
X215678571Y-124942857D01*
X215107143Y-124942857D01*
X214964286Y-124871428D01*
X214892857Y-124800000D01*
X214821429Y-124657142D01*
X214821429Y-124371428D01*
X214892857Y-124228571D01*
X214964286Y-124157142D01*
X215107143Y-124085714D01*
X215464286Y-124085714D01*
X215607143Y-124157142D01*
X215678571Y-124228571D01*
X215750000Y-124371428D01*
X215750000Y-124657142D01*
X215678571Y-124800000D01*
X215607143Y-124871428D01*
X215464286Y-124942857D01*
X216321429Y-122728571D02*
X216321429Y-123442857D01*
X215607143Y-123514286D01*
X215678571Y-123442857D01*
X215750000Y-123300000D01*
X215750000Y-122942857D01*
X215678571Y-122800000D01*
X215607143Y-122728571D01*
X215464286Y-122657143D01*
X215107143Y-122657143D01*
X214964286Y-122728571D01*
X214892857Y-122800000D01*
X214821429Y-122942857D01*
X214821429Y-123300000D01*
X214892857Y-123442857D01*
X214964286Y-123514286D01*
X216321429Y-121728572D02*
X216321429Y-121585715D01*
X216250000Y-121442858D01*
X216178571Y-121371429D01*
X216035714Y-121300000D01*
X215750000Y-121228572D01*
X215392857Y-121228572D01*
X215107143Y-121300000D01*
X214964286Y-121371429D01*
X214892857Y-121442858D01*
X214821429Y-121585715D01*
X214821429Y-121728572D01*
X214892857Y-121871429D01*
X214964286Y-121942858D01*
X215107143Y-122014286D01*
X215392857Y-122085715D01*
X215750000Y-122085715D01*
X216035714Y-122014286D01*
X216178571Y-121942858D01*
X216250000Y-121871429D01*
X216321429Y-121728572D01*
X214821429Y-118728572D02*
X214821429Y-119442858D01*
X216321429Y-119442858D01*
X214821429Y-118228572D02*
X215821429Y-118228572D01*
X216321429Y-118228572D02*
X216250000Y-118300001D01*
X216178571Y-118228572D01*
X216250000Y-118157144D01*
X216321429Y-118228572D01*
X216178571Y-118228572D01*
X214821429Y-117514286D02*
X216321429Y-117514286D01*
X216321429Y-116942858D01*
X216250000Y-116800000D01*
X216178571Y-116728572D01*
X216035714Y-116657143D01*
X215821429Y-116657143D01*
X215678571Y-116728572D01*
X215607143Y-116800000D01*
X215535714Y-116942858D01*
X215535714Y-117514286D01*
X214821429Y-115800000D02*
X214892857Y-115942858D01*
X214964286Y-116014286D01*
X215107143Y-116085715D01*
X215535714Y-116085715D01*
X215678571Y-116014286D01*
X215750000Y-115942858D01*
X215821429Y-115800000D01*
X215821429Y-115585715D01*
X215750000Y-115442858D01*
X215678571Y-115371429D01*
X215535714Y-115300000D01*
X215107143Y-115300000D01*
X214964286Y-115371429D01*
X214892857Y-115442858D01*
X214821429Y-115585715D01*
X214821429Y-115800000D01*
X214964286Y-112657143D02*
X214892857Y-112728572D01*
X214821429Y-112942858D01*
X214821429Y-113085715D01*
X214892857Y-113300000D01*
X215035714Y-113442858D01*
X215178571Y-113514286D01*
X215464286Y-113585715D01*
X215678571Y-113585715D01*
X215964286Y-113514286D01*
X216107143Y-113442858D01*
X216250000Y-113300000D01*
X216321429Y-113085715D01*
X216321429Y-112942858D01*
X216250000Y-112728572D01*
X216178571Y-112657143D01*
X214892857Y-111442858D02*
X214821429Y-111585715D01*
X214821429Y-111871429D01*
X214892857Y-112014286D01*
X215035714Y-112085715D01*
X215607143Y-112085715D01*
X215750000Y-112014286D01*
X215821429Y-111871429D01*
X215821429Y-111585715D01*
X215750000Y-111442858D01*
X215607143Y-111371429D01*
X215464286Y-111371429D01*
X215321429Y-112085715D01*
X214821429Y-110514286D02*
X214892857Y-110657144D01*
X215035714Y-110728572D01*
X216321429Y-110728572D01*
X214821429Y-109728572D02*
X214892857Y-109871430D01*
X215035714Y-109942858D01*
X216321429Y-109942858D01*
X216321429Y-107728573D02*
X216321429Y-107442859D01*
X216250000Y-107300001D01*
X216107143Y-107157144D01*
X215821429Y-107085716D01*
X215321429Y-107085716D01*
X215035714Y-107157144D01*
X214892857Y-107300001D01*
X214821429Y-107442859D01*
X214821429Y-107728573D01*
X214892857Y-107871430D01*
X215035714Y-108014287D01*
X215321429Y-108085716D01*
X215821429Y-108085716D01*
X216107143Y-108014287D01*
X216250000Y-107871430D01*
X216321429Y-107728573D01*
X215821429Y-106442858D02*
X214821429Y-106442858D01*
X215678571Y-106442858D02*
X215750000Y-106371430D01*
X215821429Y-106228572D01*
X215821429Y-106014287D01*
X215750000Y-105871430D01*
X215607143Y-105800001D01*
X214821429Y-105800001D01*
X214821429Y-104871429D02*
X214892857Y-105014287D01*
X215035714Y-105085715D01*
X216321429Y-105085715D01*
X215821429Y-104442858D02*
X214821429Y-104085715D01*
X215821429Y-103728573D02*
X214821429Y-104085715D01*
X214464286Y-104228573D01*
X214392857Y-104300001D01*
X214321429Y-104442858D01*
X243767857Y-127778571D02*
X243767857Y-126278571D01*
X243196429Y-126278571D01*
X243053571Y-126350000D01*
X242982143Y-126421429D01*
X242910714Y-126564286D01*
X242910714Y-126778571D01*
X242982143Y-126921429D01*
X243053571Y-126992857D01*
X243196429Y-127064286D01*
X243767857Y-127064286D01*
X241553571Y-127778571D02*
X242267857Y-127778571D01*
X242267857Y-126278571D01*
X241125000Y-127350000D02*
X240410714Y-127350000D01*
X241267857Y-127778571D02*
X240767857Y-126278571D01*
X240267857Y-127778571D01*
X239482143Y-127064286D02*
X239482143Y-127778571D01*
X239982143Y-126278571D02*
X239482143Y-127064286D01*
X238982143Y-126278571D01*
X243053571Y-133778571D02*
X243767857Y-133778571D01*
X243767857Y-132278571D01*
X242267857Y-132278571D02*
X241982143Y-132278571D01*
X241839285Y-132350000D01*
X241696428Y-132492857D01*
X241625000Y-132778571D01*
X241625000Y-133278571D01*
X241696428Y-133564286D01*
X241839285Y-133707143D01*
X241982143Y-133778571D01*
X242267857Y-133778571D01*
X242410714Y-133707143D01*
X242553571Y-133564286D01*
X242625000Y-133278571D01*
X242625000Y-132778571D01*
X242553571Y-132492857D01*
X242410714Y-132350000D01*
X242267857Y-132278571D01*
X241124999Y-132278571D02*
X240767856Y-133778571D01*
X240482142Y-132707143D01*
X240196428Y-133778571D01*
X239839285Y-132278571D01*
X242935714Y-139635714D02*
X243007143Y-139707143D01*
X243221429Y-139778571D01*
X243364286Y-139778571D01*
X243578571Y-139707143D01*
X243721429Y-139564286D01*
X243792857Y-139421429D01*
X243864286Y-139135714D01*
X243864286Y-138921429D01*
X243792857Y-138635714D01*
X243721429Y-138492857D01*
X243578571Y-138350000D01*
X243364286Y-138278571D01*
X243221429Y-138278571D01*
X243007143Y-138350000D01*
X242935714Y-138421429D01*
X242292857Y-139778571D02*
X242292857Y-138278571D01*
X242292857Y-138992857D02*
X241435714Y-138992857D01*
X241435714Y-139778571D02*
X241435714Y-138278571D01*
X239864285Y-139778571D02*
X240364285Y-139064286D01*
X240721428Y-139778571D02*
X240721428Y-138278571D01*
X240150000Y-138278571D01*
X240007142Y-138350000D01*
X239935714Y-138421429D01*
X239864285Y-138564286D01*
X239864285Y-138778571D01*
X239935714Y-138921429D01*
X240007142Y-138992857D01*
X240150000Y-139064286D01*
X240721428Y-139064286D01*
X238435714Y-138350000D02*
X238578571Y-138278571D01*
X238792857Y-138278571D01*
X239007142Y-138350000D01*
X239150000Y-138492857D01*
X239221428Y-138635714D01*
X239292857Y-138921429D01*
X239292857Y-139135714D01*
X239221428Y-139421429D01*
X239150000Y-139564286D01*
X239007142Y-139707143D01*
X238792857Y-139778571D01*
X238650000Y-139778571D01*
X238435714Y-139707143D01*
X238364285Y-139635714D01*
X238364285Y-139135714D01*
X238650000Y-139135714D01*
D12*
X221950000Y-64825000D02*
G75*
G03X221950000Y-64825000I-1000000J0D01*
G01*
X235425000Y-64825000D02*
G75*
G03X235425000Y-64825000I-1000000J0D01*
G01*
D11*
X221521428Y-64832143D02*
X220378571Y-64832143D01*
X234996428Y-64832143D02*
X233853571Y-64832143D01*
X234425000Y-65403571D02*
X234425000Y-64260714D01*
X235928570Y-70321429D02*
X236071428Y-70250000D01*
X236142856Y-70178571D01*
X236214285Y-70035714D01*
X236214285Y-69964286D01*
X236142856Y-69821429D01*
X236071428Y-69750000D01*
X235928570Y-69678571D01*
X235642856Y-69678571D01*
X235499999Y-69750000D01*
X235428570Y-69821429D01*
X235357142Y-69964286D01*
X235357142Y-70035714D01*
X235428570Y-70178571D01*
X235499999Y-70250000D01*
X235642856Y-70321429D01*
X235928570Y-70321429D01*
X236071428Y-70392857D01*
X236142856Y-70464286D01*
X236214285Y-70607143D01*
X236214285Y-70892857D01*
X236142856Y-71035714D01*
X236071428Y-71107143D01*
X235928570Y-71178571D01*
X235642856Y-71178571D01*
X235499999Y-71107143D01*
X235428570Y-71035714D01*
X235357142Y-70892857D01*
X235357142Y-70607143D01*
X235428570Y-70464286D01*
X235499999Y-70392857D01*
X235642856Y-70321429D01*
X234714285Y-70607143D02*
X233571428Y-70607143D01*
X232214285Y-70178571D02*
X232214285Y-71178571D01*
X232571428Y-69607143D02*
X232928571Y-70678571D01*
X231999999Y-70678571D01*
X231500000Y-71178571D02*
X231142857Y-71178571D01*
X231142857Y-70892857D01*
X231285714Y-70821429D01*
X231428571Y-70678571D01*
X231500000Y-70464286D01*
X231500000Y-70107143D01*
X231428571Y-69892857D01*
X231285714Y-69750000D01*
X231071428Y-69678571D01*
X230785714Y-69678571D01*
X230571428Y-69750000D01*
X230428571Y-69892857D01*
X230357143Y-70107143D01*
X230357143Y-70464286D01*
X230428571Y-70678571D01*
X230571428Y-70821429D01*
X230714285Y-70892857D01*
X230714285Y-71178571D01*
X230357143Y-71178571D01*
X228642857Y-71107143D02*
X228428571Y-71178571D01*
X228071428Y-71178571D01*
X227928571Y-71107143D01*
X227857142Y-71035714D01*
X227785714Y-70892857D01*
X227785714Y-70750000D01*
X227857142Y-70607143D01*
X227928571Y-70535714D01*
X228071428Y-70464286D01*
X228357142Y-70392857D01*
X228500000Y-70321429D01*
X228571428Y-70250000D01*
X228642857Y-70107143D01*
X228642857Y-69964286D01*
X228571428Y-69821429D01*
X228500000Y-69750000D01*
X228357142Y-69678571D01*
X228000000Y-69678571D01*
X227785714Y-69750000D01*
X227142857Y-71178571D02*
X227142857Y-69678571D01*
X226571429Y-69678571D01*
X226428571Y-69750000D01*
X226357143Y-69821429D01*
X226285714Y-69964286D01*
X226285714Y-70178571D01*
X226357143Y-70321429D01*
X226428571Y-70392857D01*
X226571429Y-70464286D01*
X227142857Y-70464286D01*
X225642857Y-70392857D02*
X225142857Y-70392857D01*
X224928571Y-71178571D02*
X225642857Y-71178571D01*
X225642857Y-69678571D01*
X224928571Y-69678571D01*
X224357143Y-70750000D02*
X223642857Y-70750000D01*
X224500000Y-71178571D02*
X224000000Y-69678571D01*
X223500000Y-71178571D01*
X223000000Y-71178571D02*
X223000000Y-69678571D01*
X222142857Y-71178571D02*
X222785714Y-70321429D01*
X222142857Y-69678571D02*
X223000000Y-70535714D01*
X221500000Y-70392857D02*
X221000000Y-70392857D01*
X220785714Y-71178571D02*
X221500000Y-71178571D01*
X221500000Y-69678571D01*
X220785714Y-69678571D01*
X219285714Y-71178571D02*
X219785714Y-70464286D01*
X220142857Y-71178571D02*
X220142857Y-69678571D01*
X219571429Y-69678571D01*
X219428571Y-69750000D01*
X219357143Y-69821429D01*
X219285714Y-69964286D01*
X219285714Y-70178571D01*
X219357143Y-70321429D01*
X219428571Y-70392857D01*
X219571429Y-70464286D01*
X220142857Y-70464286D01*
X239196429Y-121853571D02*
X240696429Y-121853571D01*
X240696429Y-121282143D01*
X240625000Y-121139285D01*
X240553571Y-121067857D01*
X240410714Y-120996428D01*
X240196429Y-120996428D01*
X240053571Y-121067857D01*
X239982143Y-121139285D01*
X239910714Y-121282143D01*
X239910714Y-121853571D01*
X239196429Y-119496428D02*
X239910714Y-119996428D01*
X239196429Y-120353571D02*
X240696429Y-120353571D01*
X240696429Y-119782143D01*
X240625000Y-119639285D01*
X240553571Y-119567857D01*
X240410714Y-119496428D01*
X240196429Y-119496428D01*
X240053571Y-119567857D01*
X239982143Y-119639285D01*
X239910714Y-119782143D01*
X239910714Y-120353571D01*
X240696429Y-118567857D02*
X240696429Y-118282143D01*
X240625000Y-118139285D01*
X240482143Y-117996428D01*
X240196429Y-117925000D01*
X239696429Y-117925000D01*
X239410714Y-117996428D01*
X239267857Y-118139285D01*
X239196429Y-118282143D01*
X239196429Y-118567857D01*
X239267857Y-118710714D01*
X239410714Y-118853571D01*
X239696429Y-118925000D01*
X240196429Y-118925000D01*
X240482143Y-118853571D01*
X240625000Y-118710714D01*
X240696429Y-118567857D01*
X240625000Y-116496428D02*
X240696429Y-116639285D01*
X240696429Y-116853571D01*
X240625000Y-117067856D01*
X240482143Y-117210714D01*
X240339286Y-117282142D01*
X240053571Y-117353571D01*
X239839286Y-117353571D01*
X239553571Y-117282142D01*
X239410714Y-117210714D01*
X239267857Y-117067856D01*
X239196429Y-116853571D01*
X239196429Y-116710714D01*
X239267857Y-116496428D01*
X239339286Y-116424999D01*
X239839286Y-116424999D01*
X239839286Y-116710714D01*
X243107143Y-109599999D02*
X243107143Y-109099999D01*
X242321429Y-108885713D02*
X242321429Y-109599999D01*
X243821429Y-109599999D01*
X243821429Y-108885713D01*
X243821429Y-108385713D02*
X242321429Y-107385713D01*
X243821429Y-107385713D02*
X242321429Y-108385713D01*
X243821429Y-107028571D02*
X243821429Y-106171428D01*
X242321429Y-106599999D02*
X243821429Y-106599999D01*
X243821429Y-104671428D02*
X243821429Y-103742857D01*
X243250000Y-104242857D01*
X243250000Y-104028571D01*
X243178571Y-103885714D01*
X243107143Y-103814285D01*
X242964286Y-103742857D01*
X242607143Y-103742857D01*
X242464286Y-103814285D01*
X242392857Y-103885714D01*
X242321429Y-104028571D01*
X242321429Y-104457143D01*
X242392857Y-104600000D01*
X242464286Y-104671428D01*
X243821429Y-103314286D02*
X242321429Y-102814286D01*
X243821429Y-102314286D01*
X243821429Y-101957143D02*
X243821429Y-101028572D01*
X243250000Y-101528572D01*
X243250000Y-101314286D01*
X243178571Y-101171429D01*
X243107143Y-101100000D01*
X242964286Y-101028572D01*
X242607143Y-101028572D01*
X242464286Y-101100000D01*
X242392857Y-101171429D01*
X242321429Y-101314286D01*
X242321429Y-101742858D01*
X242392857Y-101885715D01*
X242464286Y-101957143D01*
D13*
X214880000Y-68690000D02*
X211200000Y-68690000D01*
X211200000Y-75810000D02*
X214880000Y-75810000D01*
X214880000Y-75810000D02*
X214880000Y-68690000D01*
X211200000Y-75810000D02*
X211200000Y-68690000D01*
D14*
X222600000Y-61900000D02*
X232800000Y-61900000D01*
X222600000Y-61200000D02*
X232800000Y-61200000D01*
X222600000Y-60800000D02*
X222600000Y-69000000D01*
X222600000Y-69000000D02*
X232800000Y-69000000D01*
X232800000Y-69000000D02*
X232800000Y-60800000D01*
X227700000Y-61200000D02*
X227700000Y-60800000D01*
X222360000Y-63700000D02*
X222360000Y-60860000D01*
X222360000Y-60860000D02*
X225200000Y-60860000D01*
D13*
X221700000Y-148800000D02*
X233700000Y-148800000D01*
X233700000Y-148800000D02*
X233700000Y-81300000D01*
X233700000Y-81300000D02*
X221700000Y-81300000D01*
X221700000Y-81300000D02*
X221700000Y-148800000D01*
X225700000Y-150300000D02*
X225700000Y-148800000D01*
X225700000Y-150300000D02*
X229700000Y-150300000D01*
X229700000Y-150300000D02*
X229700000Y-148800000D01*
X217250000Y-154650000D02*
X217250000Y-76950000D01*
X238150000Y-76950000D02*
X238150000Y-154650000D01*
X217250000Y-76950000D02*
X238150000Y-76950000D01*
X217250000Y-154650000D02*
X238150000Y-154650000D01*
D14*
X243730000Y-124350000D02*
X241070000Y-124350000D01*
X243730000Y-116670000D02*
X243730000Y-124350000D01*
X241070000Y-116670000D02*
X241070000Y-124350000D01*
X243730000Y-116670000D02*
X241070000Y-116670000D01*
X243730000Y-115400000D02*
X243730000Y-114070000D01*
X243730000Y-114070000D02*
X242400000Y-114070000D01*
X243770000Y-110420000D02*
X243770000Y-113080000D01*
X241170000Y-110420000D02*
X243770000Y-110420000D01*
X241170000Y-113080000D02*
X243770000Y-113080000D01*
X241170000Y-110420000D02*
X241170000Y-113080000D01*
X239900000Y-110420000D02*
X238570000Y-110420000D01*
X238570000Y-110420000D02*
X238570000Y-111750000D01*
D13*
X226628571Y-115014286D02*
X226676190Y-115157143D01*
X226723810Y-115204762D01*
X226819048Y-115252381D01*
X226961905Y-115252381D01*
X227057143Y-115204762D01*
X227104762Y-115157143D01*
X227152381Y-115061905D01*
X227152381Y-114680952D01*
X226152381Y-114680952D01*
X226152381Y-115014286D01*
X226200000Y-115109524D01*
X226247619Y-115157143D01*
X226342857Y-115204762D01*
X226438095Y-115204762D01*
X226533333Y-115157143D01*
X226580952Y-115109524D01*
X226628571Y-115014286D01*
X226628571Y-114680952D01*
X226152381Y-115538095D02*
X226152381Y-116109524D01*
X227152381Y-115823809D02*
X226152381Y-115823809D01*
X227152381Y-116966667D02*
X227152381Y-116395238D01*
X227152381Y-116680952D02*
X226152381Y-116680952D01*
X226295238Y-116585714D01*
X226390476Y-116490476D01*
X226438095Y-116395238D01*
X229152381Y-108752381D02*
X229152381Y-108180952D01*
X229152381Y-108466666D02*
X228152381Y-108466666D01*
X228295238Y-108371428D01*
X228390476Y-108276190D01*
X228438095Y-108180952D01*
X228580952Y-109323809D02*
X228533333Y-109228571D01*
X228485714Y-109180952D01*
X228390476Y-109133333D01*
X228342857Y-109133333D01*
X228247619Y-109180952D01*
X228200000Y-109228571D01*
X228152381Y-109323809D01*
X228152381Y-109514286D01*
X228200000Y-109609524D01*
X228247619Y-109657143D01*
X228342857Y-109704762D01*
X228390476Y-109704762D01*
X228485714Y-109657143D01*
X228533333Y-109609524D01*
X228580952Y-109514286D01*
X228580952Y-109323809D01*
X228628571Y-109228571D01*
X228676190Y-109180952D01*
X228771429Y-109133333D01*
X228961905Y-109133333D01*
X229057143Y-109180952D01*
X229104762Y-109228571D01*
X229152381Y-109323809D01*
X229152381Y-109514286D01*
X229104762Y-109609524D01*
X229057143Y-109657143D01*
X228961905Y-109704762D01*
X228771429Y-109704762D01*
X228676190Y-109657143D01*
X228628571Y-109609524D01*
X228580952Y-109514286D01*
X228152381Y-110561905D02*
X228152381Y-110371428D01*
X228200000Y-110276190D01*
X228247619Y-110228571D01*
X228390476Y-110133333D01*
X228580952Y-110085714D01*
X228961905Y-110085714D01*
X229057143Y-110133333D01*
X229104762Y-110180952D01*
X229152381Y-110276190D01*
X229152381Y-110466667D01*
X229104762Y-110561905D01*
X229057143Y-110609524D01*
X228961905Y-110657143D01*
X228723810Y-110657143D01*
X228628571Y-110609524D01*
X228580952Y-110561905D01*
X228533333Y-110466667D01*
X228533333Y-110276190D01*
X228580952Y-110180952D01*
X228628571Y-110133333D01*
X228723810Y-110085714D01*
X228152381Y-111561905D02*
X228152381Y-111085714D01*
X228628571Y-111038095D01*
X228580952Y-111085714D01*
X228533333Y-111180952D01*
X228533333Y-111419048D01*
X228580952Y-111514286D01*
X228628571Y-111561905D01*
X228723810Y-111609524D01*
X228961905Y-111609524D01*
X229057143Y-111561905D01*
X229104762Y-111514286D01*
X229152381Y-111419048D01*
X229152381Y-111180952D01*
X229104762Y-111085714D01*
X229057143Y-111038095D01*
X228152381Y-112228571D02*
X228152381Y-112323810D01*
X228200000Y-112419048D01*
X228247619Y-112466667D01*
X228342857Y-112514286D01*
X228533333Y-112561905D01*
X228771429Y-112561905D01*
X228961905Y-112514286D01*
X229057143Y-112466667D01*
X229104762Y-112419048D01*
X229152381Y-112323810D01*
X229152381Y-112228571D01*
X229104762Y-112133333D01*
X229057143Y-112085714D01*
X228961905Y-112038095D01*
X228771429Y-111990476D01*
X228533333Y-111990476D01*
X228342857Y-112038095D01*
X228247619Y-112085714D01*
X228200000Y-112133333D01*
X228152381Y-112228571D01*
X228771429Y-112990476D02*
X228771429Y-113752381D01*
X229152381Y-114228571D02*
X228152381Y-114228571D01*
X228152381Y-114609524D01*
X228200000Y-114704762D01*
X228247619Y-114752381D01*
X228342857Y-114800000D01*
X228485714Y-114800000D01*
X228580952Y-114752381D01*
X228628571Y-114704762D01*
X228676190Y-114609524D01*
X228676190Y-114228571D01*
X229057143Y-115800000D02*
X229104762Y-115752381D01*
X229152381Y-115609524D01*
X229152381Y-115514286D01*
X229104762Y-115371428D01*
X229009524Y-115276190D01*
X228914286Y-115228571D01*
X228723810Y-115180952D01*
X228580952Y-115180952D01*
X228390476Y-115228571D01*
X228295238Y-115276190D01*
X228200000Y-115371428D01*
X228152381Y-115514286D01*
X228152381Y-115609524D01*
X228200000Y-115752381D01*
X228247619Y-115800000D01*
X228247619Y-116180952D02*
X228200000Y-116228571D01*
X228152381Y-116323809D01*
X228152381Y-116561905D01*
X228200000Y-116657143D01*
X228247619Y-116704762D01*
X228342857Y-116752381D01*
X228438095Y-116752381D01*
X228580952Y-116704762D01*
X229152381Y-116133333D01*
X229152381Y-116752381D01*
X228628571Y-118276191D02*
X228676190Y-118419048D01*
X228723810Y-118466667D01*
X228819048Y-118514286D01*
X228961905Y-118514286D01*
X229057143Y-118466667D01*
X229104762Y-118419048D01*
X229152381Y-118323810D01*
X229152381Y-117942857D01*
X228152381Y-117942857D01*
X228152381Y-118276191D01*
X228200000Y-118371429D01*
X228247619Y-118419048D01*
X228342857Y-118466667D01*
X228438095Y-118466667D01*
X228533333Y-118419048D01*
X228580952Y-118371429D01*
X228628571Y-118276191D01*
X228628571Y-117942857D01*
X229152381Y-119419048D02*
X229152381Y-118942857D01*
X228152381Y-118942857D01*
X228152381Y-119942857D02*
X228152381Y-120133334D01*
X228200000Y-120228572D01*
X228295238Y-120323810D01*
X228485714Y-120371429D01*
X228819048Y-120371429D01*
X229009524Y-120323810D01*
X229104762Y-120228572D01*
X229152381Y-120133334D01*
X229152381Y-119942857D01*
X229104762Y-119847619D01*
X229009524Y-119752381D01*
X228819048Y-119704762D01*
X228485714Y-119704762D01*
X228295238Y-119752381D01*
X228200000Y-119847619D01*
X228152381Y-119942857D01*
X229104762Y-120752381D02*
X229152381Y-120895238D01*
X229152381Y-121133334D01*
X229104762Y-121228572D01*
X229057143Y-121276191D01*
X228961905Y-121323810D01*
X228866667Y-121323810D01*
X228771429Y-121276191D01*
X228723810Y-121228572D01*
X228676190Y-121133334D01*
X228628571Y-120942857D01*
X228580952Y-120847619D01*
X228533333Y-120800000D01*
X228438095Y-120752381D01*
X228342857Y-120752381D01*
X228247619Y-120800000D01*
X228200000Y-120847619D01*
X228152381Y-120942857D01*
X228152381Y-121180953D01*
X228200000Y-121323810D01*
X229104762Y-121704762D02*
X229152381Y-121847619D01*
X229152381Y-122085715D01*
X229104762Y-122180953D01*
X229057143Y-122228572D01*
X228961905Y-122276191D01*
X228866667Y-122276191D01*
X228771429Y-122228572D01*
X228723810Y-122180953D01*
X228676190Y-122085715D01*
X228628571Y-121895238D01*
X228580952Y-121800000D01*
X228533333Y-121752381D01*
X228438095Y-121704762D01*
X228342857Y-121704762D01*
X228247619Y-121752381D01*
X228200000Y-121800000D01*
X228152381Y-121895238D01*
X228152381Y-122133334D01*
X228200000Y-122276191D01*
X229152381Y-122704762D02*
X228152381Y-122704762D01*
X228866667Y-123038096D01*
X228152381Y-123371429D01*
X229152381Y-123371429D01*
X228080952Y-76471429D02*
X227319047Y-76471429D01*
X228080952Y-155371429D02*
X227319047Y-155371429D01*
X227699999Y-155752381D02*
X227699999Y-154990476D01*
M02*
