M48
;DRILL file {KiCad 4.0.7} date 02/23/18 16:34:04
;FORMAT={-:-/ absolute / inch / decimal}
FMAT,2
INCH,TZ
T1C0.010
T2C0.012
T3C0.016
T4C0.039
T5C0.051
T6C0.058
T7C0.063
%
G90
G05
M72
T1
X9.1299Y-2.7776
X9.1299Y-2.8209
X9.1457Y-2.7992
X9.1614Y-2.7776
X9.1614Y-2.8209
T2
X8.876Y-5.6811
X8.876Y-5.7323
X8.9085Y-5.853
X8.9085Y-5.895
X8.9193Y-5.6811
X8.9193Y-5.7323
X8.9626Y-5.853
X8.9626Y-5.895
X9.0167Y-5.853
X9.0167Y-5.895
X9.1683Y-5.853
X9.1683Y-5.895
X9.2224Y-5.853
X9.2224Y-5.895
X9.2677Y-5.6594
X9.2677Y-5.7008
X9.2677Y-5.7421
X9.2766Y-5.853
X9.2766Y-5.895
X9.3091Y-5.6594
X9.3091Y-5.7008
X9.3091Y-5.7421
T3
X8.3504Y-4.6535
X8.3504Y-4.9055
X8.6102Y-5.7717
X8.6142Y-5.8425
X8.7441Y-5.6555
X8.813Y-5.6555
X8.8494Y-4.562
X8.9094Y-2.7126
X8.9528Y-4.69
X9.002Y-2.815
X9.0197Y-4.563
X9.0512Y-2.8868
X9.063Y-2.7244
X9.0689Y-5.0571
X9.0758Y-5.1811
X9.1299Y-3.9951
X9.1299Y-4.1368
X9.1299Y-4.2785
X9.1476Y-5.0039
X9.1555Y-4.935
X9.2244Y-3.122
X9.2461Y-4.4016
X9.2815Y-5.2421
X9.3169Y-4.4016
X9.3268Y-3.9951
X9.3268Y-4.1368
X9.3268Y-4.2785
X9.3425Y-2.8327
X9.3976Y-5.0039
X9.3976Y-5.7677
X9.435Y-3.9951
X9.435Y-4.1368
X9.435Y-4.2785
X9.502Y-4.8898
T4
X8.4173Y-2.7559
X8.4173Y-2.9331
X9.4449Y-4.3996
X9.5433Y-4.5433
X9.5433Y-4.6433
X9.5433Y-4.7433
X9.5433Y-4.8433
X9.5449Y-4.3996
T5
X8.5154Y-2.7065
X8.5154Y-2.9825
T6
X8.8661Y-2.5472
X9.063Y-2.5472
T7
X8.9646Y-3.124
X8.9646Y-5.9941
T0
M30
