<?xml version="1.0" encoding="UTF-8" standalone="no"?>
<!-- Created with Inkscape (http://www.inkscape.org/) -->

<svg
   xmlns:dc="http://purl.org/dc/elements/1.1/"
   xmlns:cc="http://creativecommons.org/ns#"
   xmlns:rdf="http://www.w3.org/1999/02/22-rdf-syntax-ns#"
   xmlns:svg="http://www.w3.org/2000/svg"
   xmlns="http://www.w3.org/2000/svg"
   xmlns:sodipodi="http://sodipodi.sourceforge.net/DTD/sodipodi-0.dtd"
   xmlns:inkscape="http://www.inkscape.org/namespaces/inkscape"
   width="6.25mm"
   height="9.2604198mm"
   viewBox="0 0 23.621876 34.999756"
   id="svg2"
   version="1.1"
   inkscape:version="0.92.0 r15299"
   sodipodi:docname="Logo_9x6mm.svg"
   inkscape:export-filename="C:\Users\Sam\Dropbox\KiCAD\projects\train_horn\images\logo_9x6mm.png"
   inkscape:export-xdpi="600"
   inkscape:export-ydpi="600">
  <defs
     id="defs4" />
  <sodipodi:namedview
     id="base"
     pagecolor="#ffffff"
     bordercolor="#666666"
     borderopacity="1.0"
     inkscape:pageopacity="0.0"
     inkscape:pageshadow="2"
     inkscape:zoom="24.285706"
     inkscape:cx="11.017641"
     inkscape:cy="17.500006"
     inkscape:document-units="mm"
     inkscape:current-layer="layer1"
     showgrid="false"
     inkscape:window-width="1920"
     inkscape:window-height="1017"
     inkscape:window-x="1912"
     inkscape:window-y="-8"
     inkscape:window-maximized="1"
     units="mm"
     scale-x="3.7795" />
  <metadata
     id="metadata7">
    <rdf:RDF>
      <cc:Work
         rdf:about="">
        <dc:format>image/svg+xml</dc:format>
        <dc:type
           rdf:resource="http://purl.org/dc/dcmitype/StillImage" />
        <dc:title></dc:title>
      </cc:Work>
    </rdf:RDF>
  </metadata>
  <g
     inkscape:label="Layer 1"
     inkscape:groupmode="layer"
     id="layer1"
     transform="translate(0,-1017.3598)">
    <path
       style="fill:#000000;fill-opacity:1;fill-rule:nonzero;stroke:none;stroke-width:0.10190101px;stroke-linecap:butt;stroke-linejoin:miter;stroke-opacity:1"
       id="path3336"
       d="m 1.7804024,1038.0461 c 0.8299662,-0.034 1.6491003,-0.1556 2.4566589,-0.3463 0.8930909,-0.2144 1.7624509,-0.5162 2.5982852,-0.8957 0.3573422,-0.1582 0.1487604,-0.054 0.4534968,-0.2268 0.055594,-0.031 0.223039,-0.1239 0.1677352,-0.092 -3.0940048,1.7787 -2.0271991,1.2906 -1.492835,0.8036 0.2013195,-0.2324 0.419713,-0.4491 0.6363645,-0.6668 0.2568986,-0.2789 0.4971588,-0.5737 0.7309025,-0.8722 0.3238086,-0.4293 0.7002472,-0.813 1.0809406,-1.1912 0.4380763,-0.4158 0.8679414,-0.8395 1.2863135,-1.275 0.3682794,-0.3898 0.7406024,-0.7755 1.1164434,-1.1579 0.355683,-0.3494 0.677858,-0.7308 0.986408,-1.1217 0.276833,-0.3637 0.519503,-0.7537 0.737476,-1.1553 0.22082,-0.3945 0.412103,-0.8045 0.616013,-1.208 0.195252,-0.3733 0.335312,-0.7726 0.460291,-1.174 0.08213,-0.3113 0.16268,-0.6234 0.260086,-0.9303 0.102656,-0.3067 0.189019,-0.6158 0.263146,-0.9304 0.09325,-0.3006 0.127793,-0.6126 0.176702,-0.922 0.02243,-0.014 0.08755,-0.3954 0.08854,-0.396 1.988831,-0.9355 1.852681,-1.5724 1.976916,-0.746 0.02239,0.2829 0.0144,0.5673 0.0093,0.8509 -0.01065,0.4391 -0.08068,0.8743 -0.11458,1.3123 -0.03736,0.5504 -0.04049,1.1023 -0.04351,1.6536 -0.02601,0.4781 -0.08608,0.9532 -0.114432,1.4313 -0.02715,0.4886 -0.02776,0.9782 -0.03058,1.4675 -0.0026,0.5717 -0.0054,1.1433 -0.0028,1.7149 6.12e-4,0.5474 0.0018,1.0948 0.0027,1.6423 -5.1e-4,0.5431 7.14e-4,1.0861 -0.003,1.6293 -0.0035,0.6941 -0.07104,1.3862 -0.107422,2.0791 -0.01184,0.6592 -0.04464,1.3158 -0.09959,1.9725 -0.04154,0.5808 -0.133173,1.1569 -0.220342,1.7323 -0.07794,0.6661 -0.206114,1.3246 -0.310255,1.9868 -0.129957,0.6065 -0.18589,1.2231 -0.259381,1.8375 -0.05976,0.4892 -0.113006,0.9774 -0.217349,1.4595 -0.115356,0.5232 -0.26198,1.0389 -0.375822,1.5626 -0.112788,0.4765 -0.24534,0.9492 -0.391593,1.4167 -0.108659,0.3322 -0.254129,0.6499 -0.404466,0.9648 -0.128069,0.2563 -0.280386,0.505 -0.451211,0.7353 -0.645842,0.6488 -1.487343,1.4574 -2.429564,1.3117 -0.227894,-0.091 -0.421191,-0.1939 -0.586896,-0.3784 -0.180292,-0.2449 -0.407582,-0.446 -0.6072964,-0.6744 -0.2601395,-0.2688 -0.4838807,-0.5615 -0.6929121,-0.8706 -0.2012384,-0.3193 -0.3970579,-0.639 -0.5707246,-0.9742 -0.1517162,-0.3058 -0.2907711,-0.6164 -0.4252976,-0.9299 -0.1480718,-0.3788 -0.3451008,-0.7334 -0.5274064,-1.0958 -0.2249183,-0.3851 -0.382347,-0.8001 -0.5199414,-1.2227 -0.1451925,-0.5168 -0.2837041,-1.0358 -0.389835,-1.5622 -0.1318086,-0.5114 -0.2149451,-1.0314 -0.2582025,-1.5572 -0.034023,-0.5494 -0.031906,-1.1004 -0.032461,-1.6507 4.077e-4,-0.5788 0.00168,-1.1576 0.00231,-1.7365 -0.00304,-0.5462 0.05201,-1.093 0.116254,-1.6352 0.063204,-0.5726 0.1671157,-1.1389 0.2782893,-1.7039 0.1013671,-0.5775 0.1767724,-1.1594 0.2722624,-1.7379 0.068004,-0.5272 0.1999031,-1.0393 0.3266932,-1.554 0.1336062,-0.5072 0.2661705,-1.0146 0.3970924,-1.5225 0.1299848,-0.4669 0.2683884,-0.9313 0.4025701,-1.3969 0.1205623,-0.4076 0.2372639,-0.816 0.3512151,-1.2255 0.116472,-0.4122 0.2701378,-0.8112 0.4350387,-1.206 0.1563271,-0.3823 0.2772685,-0.7782 0.409489,-1.1695 0.1241875,-0.3518 0.2729322,-0.6942 0.4323765,-1.0313 0.179095,-0.3874 0.3809603,-0.7632 0.5753793,-1.1429 0.211908,-0.377 0.438733,-0.7462 0.673826,-1.1092 0.248945,-0.3426 0.491836,-0.6894 0.762484,-1.0153 0.358737,-0.3971 0.775234,-0.7345 1.211464,-1.042 1.126193,-0.7224 2.297147,-1.374 3.489907,-1.9796 0.600169,-0.3126 1.220539,-0.5832 1.833859,-0.8683 0.545931,-0.2814 1.123278,-0.4919 1.681999,-0.7446 0.327413,-0.1513 0.655739,-0.2663 1.009531,-0.1551 0.287617,0.1834 0.53819,0.4239 0.789177,0.6544 0.326875,0.2731 0.571011,0.6216 0.800909,0.9764 0.207743,0.3117 0.382032,0.6427 0.52883,0.987 0.124666,0.3944 0.26366,0.7846 0.365916,1.1856 0.09677,0.3928 0.120665,0.797 0.136879,1.1997 0.0066,0.4246 0.01327,0.8499 -0.01174,1.274 -0.02324,0.5046 -0.135007,0.9925 -0.27469,1.4758 -0.135565,0.4223 -0.274907,0.843 -0.402909,1.2679 -0.09074,0.3272 -0.23495,0.6336 -0.371029,0.9433 -0.123034,0.2792 -0.256332,0.5536 -0.390615,0.8275 -0.147481,0.3137 -0.326179,0.611 -0.495641,0.9132 -0.191596,0.3742 -0.392105,0.7402 -0.636298,1.0829 -0.239807,0.3518 -0.478169,0.7047 -0.737649,1.0424 -0.25126,0.302 -0.514134,0.5932 -0.761715,0.8985 -0.247276,0.303 -0.509827,0.5934 -0.788919,0.8673 -0.234767,0.2064 -0.433551,0.4478 -0.643996,0.6778 -0.180945,0.2266 -0.350532,0.4629 -0.51883,0.6992 -0.132373,0.1896 -0.249264,0.3883 -0.358475,0.5918 -0.09584,0.1935 -0.195318,0.3849 -0.292084,0.578 -0.09188,0.1957 -0.192206,0.3871 -0.289242,0.5802 -0.06053,0.1332 -0.131566,0.2603 -0.191806,0.3938 0,0 -1.970263,0.8809 -1.970263,0.8809 v 0 c 0.0816,-0.1184 0.108305,-0.2606 0.202057,-0.3728 0.07225,-0.2037 0.183739,-0.3929 0.289339,-0.58 0.07212,-0.2044 0.183648,-0.3948 0.290557,-0.5821 0.08197,-0.2219 0.211853,-0.4304 0.349907,-0.6209 0.143027,-0.2593 0.353639,-0.4742 0.508328,-0.7269 0.192991,-0.252 0.424237,-0.4758 0.63986,-0.7083 0.296849,-0.2482 0.54696,-0.5468 0.800996,-0.8374 0.249829,-0.3043 0.495692,-0.6098 0.765604,-0.8968 0.268651,-0.3293 0.517456,-0.6765 0.741275,-1.0371 0.255702,-0.3283 0.472823,-0.678 0.643924,-1.0583 0.173073,-0.2956 0.341712,-0.5955 0.494109,-0.9017 0.143206,-0.2665 0.268386,-0.543 0.391691,-0.8189 0.148069,-0.299 0.284535,-0.6041 0.394449,-0.9193 0.125118,-0.428 0.264092,-0.851 0.408582,-1.2728 0.151511,-0.4659 0.267067,-0.9408 0.292455,-1.432 0.0398,-0.4151 0.01383,-0.8327 0.0145,-1.2494 -0.0088,-0.3891 -0.02491,-0.7802 -0.110682,-1.1615 -0.09637,-0.3913 -0.236431,-0.7694 -0.35399,-1.1545 -0.139884,-0.3335 -0.312197,-0.6524 -0.50869,-0.9561 -0.217884,-0.3416 -0.456289,-0.6697 -0.771999,-0.9282 -0.224385,-0.2011 -0.452608,-0.4403 -0.736002,-0.5512 -0.326081,-0.02 -0.621116,0.1206 -0.91474,0.248 -0.559749,0.2361 -1.121437,0.4677 -1.666045,0.7377 -0.614425,0.2842 -1.231984,0.5619 -1.83147,0.8769 -0.221331,0.1138 -0.356102,0.182 -0.575587,0.2991 -0.09474,0.05 -0.375781,0.208 -0.28325,0.1535 2.879933,-1.6964 1.636171,-0.9528 1.001547,-0.5753 -0.438293,0.2896 -0.846894,0.6136 -1.220125,0.9844 -0.277934,0.3168 -0.514417,0.6573 -0.769489,0.9913 -0.244958,0.3524 -0.459206,0.7247 -0.685658,1.0891 -0.200206,0.3742 -0.395194,0.7517 -0.573483,1.1368 -0.16903,0.3256 -0.30416,0.6672 -0.445344,1.0054 -0.132889,0.3966 -0.264053,0.7932 -0.403773,1.1876 -0.175181,0.3825 -0.320096,0.7767 -0.447075,1.1776 -0.112174,0.4116 -0.230693,0.8211 -0.3520988,1.2301 -0.1392683,0.4639 -0.2722278,0.9299 -0.4123242,1.3937 -0.1317342,0.5063 -0.2587286,1.0136 -0.3949804,1.5186 -0.1259117,0.5126 -0.2769634,1.0176 -0.337771,1.5441 -0.1114105,0.5773 -0.1740923,1.1633 -0.2739332,1.7426 -0.1087251,0.5607 -0.2191566,1.1211 -0.2814181,1.6896 -0.072417,0.5335 -0.1162372,1.0746 -0.1299974,1.6124 -5.094e-4,0.5785 -0.00157,1.1569 -0.00157,1.7355 9.171e-4,0.5447 -3.061e-4,1.0898 0.029872,1.6338 0.037943,0.5188 0.1092806,1.0335 0.2415525,1.5375 0.1009164,0.5183 0.2430472,1.0267 0.3863709,1.5345 0.13654,0.4114 0.2816486,0.8191 0.5072472,1.1923 0.1873399,0.3648 0.3788137,0.7265 0.5368429,1.1053 0.1357067,0.3077 0.2738546,0.6136 0.4202346,0.9165 0.168835,0.3278 0.35524,0.6427 0.553087,0.9542 0.20657,0.3003 0.430975,0.5819 0.685374,0.8438 0.200352,0.2242 0.422627,0.4269 0.608999,0.6637 0.132516,0.1276 0.309682,0.2247 0.496272,0.236 0.05832,-0.01 0.221017,-0.076 0.170286,-0.046 -0.580933,0.341 -1.165577,0.6755 -1.748365,1.0132 0.106541,-0.044 0.197297,-0.088 0.266569,-0.186 0.214401,-0.1637 0.332091,-0.4539 0.486868,-0.672 0.142231,-0.3139 0.304098,-0.6186 0.422266,-0.9433 0.151014,-0.4633 0.295344,-0.9292 0.4111,-1.403 0.111166,-0.5237 0.254469,-1.0394 0.368993,-1.5624 0.114776,-0.4762 0.173235,-0.9597 0.235621,-1.4451 0.0835,-0.6156 0.12099,-1.2383 0.262406,-1.8455 0.101849,-0.6617 0.237388,-1.3182 0.31002,-1.9843 0.07927,-0.5726 0.170554,-1.1442 0.22355,-1.7198 0.05709,-0.656 0.105734,-1.3109 0.111225,-1.9699 0.03188,-0.6885 0.101546,-1.3758 0.102908,-2.0652 -0.0038,-0.5421 -0.0025,-1.0841 -0.0031,-1.6261 7.14e-4,-0.5482 0.0018,-1.0963 0.0018,-1.6444 0.0021,-0.571 -0.0023,-1.1419 -0.0032,-1.7127 4.07e-4,-0.4922 0.0023,-0.9847 0.02209,-1.4766 0.02732,-0.4761 0.07397,-0.9498 0.124832,-1.424 0.0039,-0.5551 0.0092,-1.1105 0.03669,-1.6651 0.02642,-0.4321 0.08345,-0.8618 0.105077,-1.2932 -6.1e-5,-0.2741 0.0079,-0.5482 -0.0042,-0.8221 -0.07114,-0.8253 -0.03926,-0.1016 1.902969,-1.1627 0.01289,-0.01 -0.02243,0.021 -0.02871,0.034 -0.04924,0.1048 -0.04658,0.2262 -0.0905,0.3326 -0.08675,0.3031 -0.06854,0.6319 -0.179458,0.9317 -0.0866,0.3134 -0.136576,0.6353 -0.254664,0.94 -0.09738,0.3072 -0.193414,0.6151 -0.266513,0.9292 -0.117995,0.413 -0.263263,0.8237 -0.453333,1.2087 -0.189992,0.4107 -0.403862,0.8133 -0.609627,1.2156 -0.220378,0.4101 -0.4546,0.8122 -0.727461,1.1906 -0.308818,0.3959 -0.62171,0.7911 -0.979277,1.1448 -0.378134,0.3828 -0.753984,0.7677 -1.124584,1.1577 -0.416296,0.4379 -0.837873,0.8702 -1.283366,1.2784 -0.370232,0.377 -0.7597731,0.737 -1.0780705,1.1618 -0.2335132,0.3023 -0.4730207,0.5986 -0.7154244,0.8938 -0.2138299,0.2152 -0.4286848,0.4295 -0.6347378,0.6523 -0.6349984,0.8811 -1.8210496,1.1945 -2.7748469,1.6672 -0.84066,0.3499 -1.7054291,0.6382 -2.5936984,0.8421 -0.8367886,0.1808 -1.68390727,0.3079 -2.53998246,0.3497 0,0 1.74154376,-1.2654 1.74154376,-1.2654 z"
       inkscape:connector-curvature="0"
       inkscape:export-xdpi="300"
       inkscape:export-ydpi="300" />
    <path
       style="fill:#ffffff;fill-opacity:0;fill-rule:nonzero;stroke:#ffffff;stroke-width:0.02334415;stroke-linecap:round;stroke-linejoin:round;stroke-miterlimit:4;stroke-dasharray:none;stroke-opacity:1;paint-order:normal"
       d="m 16.111965,14.102946 c 0.0146,-2.231898 0.03355,-3.021737 0.08396,-3.500001 0.03581,-0.339706 0.06566,-0.9060138 0.06635,-1.2584614 6.88e-4,-0.3524477 0.03198,-0.9453891 0.06955,-1.3176476 0.07442,-0.7373967 0.08865,-1.9210143 0.02548,-2.1180104 -0.05252,-0.1637663 -0.116521,-0.1476177 -0.479844,0.1210724 -0.162511,0.1201822 -0.418569,0.2938556 -0.569019,0.385941 -0.248317,0.151987 -0.358553,0.1947467 -0.699274,0.2712419 -0.145751,0.032723 -0.213354,0.1779475 -0.30197,0.6486968 -0.172942,0.9187042 -0.674066,2.7419203 -0.93858,3.4147943 -0.175955,0.447595 -0.845174,1.750103 -1.158827,2.255439 -0.384122,0.61887 -0.823912,1.135259 -1.998752,2.346879 -1.3171818,1.358419 -1.482814,1.520945 -1.482814,1.455008 0,-0.02774 0.037224,-0.282467 0.082721,-0.566066 0.073517,-0.458265 0.2783452,-1.311153 0.6521157,-2.715357 0.252394,-0.948209 0.9242083,-3.185556 1.0632093,-3.5408147 0.07983,-0.2040229 0.252969,-0.6785687 0.384759,-1.0545454 0.600525,-1.7132045 1.407975,-3.2451476 2.341732,-4.4428781 0.460358,-0.5905019 1.018463,-1.0895785 1.5225,-1.3614737 0.429437,-0.2316524 2.431102,-1.1610726 3.238261,-1.5036002 0.807269,-0.3425741 1.022779,-0.3757199 1.300989,-0.2000938 0.271264,0.1712416 0.985342,0.904894 1.199922,1.2328142 0.428372,0.6546364 0.600654,1.0470086 0.85634,1.9503102 0.229111,0.8094164 0.270266,2.4172667 0.08505,3.3225812 -0.09079,0.4437594 -0.57897,2.0064144 -0.764673,2.4476993 -0.174581,0.414857 -0.809131,1.692448 -1.131291,2.277719 -0.652851,1.186041 -1.879446,2.762165 -3.050169,3.919342 L 16.093103,16.9853 Z"
       id="path4483"
       inkscape:connector-curvature="0"
       transform="matrix(0.99999272,0,0,0.99999272,0,1017.3598)" />
    <path
       style="fill:#ffffff;fill-opacity:0;fill-rule:nonzero;stroke:#ffffff;stroke-width:0.02334415;stroke-linecap:round;stroke-linejoin:round;stroke-miterlimit:4;stroke-dasharray:none;stroke-opacity:1;paint-order:normal"
       d="M 11.566075,32.859702 C 10.854659,32.090737 10.46244,31.478443 9.9433605,30.326481 9.7902873,29.986775 9.5113749,29.403098 9.3235552,29.029422 8.8652018,28.117505 8.7175966,27.678024 8.4020301,26.285667 8.1497195,25.17241 8.1341122,24.965235 8.1325732,22.708831 c -0.00118,-1.736444 0.010159,-2.152314 0.072441,-2.655883 0.1300618,-1.051584 0.1933772,-1.368932 0.2957501,-1.482353 0.051102,-0.05662 0.3200894,-0.390148 0.5977492,-0.741177 0.3364075,-0.425301 0.7760904,-0.906121 1.3178765,-1.441177 1.246488,-1.231005 2.651431,-2.692803 3.027497,-3.150011 0.186282,-0.226477 0.429039,-0.552808 0.53946,-0.725182 l 0.200765,-0.313406 -0.01024,1.857535 c -0.03245,5.887548 -0.06947,7.391077 -0.217101,8.81636 -0.101568,0.980599 -0.449761,3.346659 -0.575661,3.911766 -0.02018,0.09059 -0.102153,0.686674 -0.182158,1.324634 -0.08,0.63796 -0.190933,1.369872 -0.246507,1.626471 -0.307832,1.421329 -0.76914,3.104712 -0.940348,3.431475 l -0.05818,0.111039 z"
       id="path4485"
       inkscape:connector-curvature="0"
       transform="matrix(0.99999272,0,0,0.99999272,0,1017.3598)"
       inkscape:export-xdpi="600"
       inkscape:export-ydpi="600" />
  </g>
</svg>
